<svg width="100" height="100" viewBox="0 0 100 100" fill="none" xmlns="http://www.w3.org/2000/svg">
<g clip-path="url(#clip0)">
<path d="M50.0002 0C22.4309 0 0 22.4309 0 50.0002C0 77.5713 22.4309 100 50.0002 100C77.5694 100 100 77.5713 100 50.0002C100.002 22.429 77.5713 0 50.0002 0ZM48.1154 73.4231C45.7598 73.4231 44.1441 71.6057 44.1441 69.2501C44.1441 66.7597 45.8287 65.0096 48.1844 65.0096C50.5419 65.0096 52.1556 66.7597 52.1556 69.2501C52.154 71.6057 50.6057 73.4231 48.1154 73.4231ZM54.6444 48.1808C51.6848 51.6809 50.6061 54.6425 50.8078 58.0771L50.8752 59.8272H45.625L45.4903 58.0771C45.0865 54.4407 46.298 50.4713 49.6653 46.4311C52.6961 42.8636 54.3788 40.2369 54.3788 37.208C54.3788 33.7753 52.223 31.487 47.9807 31.4197C45.5577 31.4197 42.8652 32.2273 41.1826 33.5062L39.5672 29.2658C41.7885 27.6505 45.625 26.5733 49.1941 26.5733C56.9365 26.5733 60.4363 31.3523 60.4363 36.4697C60.4366 41.0462 57.877 44.3442 54.6444 48.1808Z" fill="#FFB168"/>
</g>
<defs>
<clipPath id="clip0">
<rect width="100" height="100" fill="white"/>
</clipPath>
</defs>
</svg>
