<svg width="100" height="101" viewBox="0 0 100 101" fill="none" xmlns="http://www.w3.org/2000/svg">
<g clip-path="url(#clip0)">
<path d="M50.0035 100.5C38.0068 100.5 26.6402 96.2926 17.6003 88.5772L40.3018 80.6792L40.1472 78.8941C40.1333 78.7232 40.1105 78.5574 40.0896 78.3865C40.0734 78.2736 40.0506 78.1557 40.0506 78.0429V72.1311C43.0928 73.9603 46.456 75.0029 50.0012 75.0029C53.5487 75.0029 56.9095 73.9603 59.9518 72.1311V78.0429C59.9518 78.2226 59.9216 78.3958 59.9011 78.5709L59.6545 80.859L82.2408 88.7105C73.226 96.341 61.9171 100.5 50.0035 100.5Z" fill="#FFB168"/>
<path d="M35.442 61.2532C32.2288 56.2777 30.2523 49.6786 30.2523 42.4243C30.2523 27.0026 39.112 14.457 50.0035 14.457C60.895 14.457 69.7547 27.0026 69.7547 42.4243C69.7547 49.6763 67.7802 56.2684 64.5717 61.2439C63.3629 63.1191 61.979 64.757 60.452 66.1131C57.419 68.8071 53.8437 70.3897 50.0055 70.3897C46.1672 70.3897 42.5919 68.8051 39.5589 66.1131C38.03 64.7593 36.6508 63.1241 35.442 61.2532Z" fill="#FFB168"/>
<path d="M86.0369 85.1495L64.5694 77.6806V68.4776C70.502 62.5288 74.3653 53.0811 74.3653 42.4246C74.3653 24.4586 63.4367 9.84407 50.0008 9.84407C36.565 9.84407 25.6364 24.4586 25.6364 42.4246C25.6364 53.0834 29.502 62.538 35.4393 68.4846V77.492L13.8264 85.0114C4.89824 75.667 0.0012207 63.4677 0.0012207 50.5C0.0012207 22.9293 22.4329 0.5 50.0012 0.5C77.5696 0.5 99.9989 22.9293 99.9989 50.5C100.001 63.5392 95.0559 75.7826 86.0369 85.1495Z" fill="#FFB168"/>
</g>
<defs>
<clipPath id="clip0">
<rect width="100" height="100" fill="white" transform="translate(0 0.5)"/>
</clipPath>
</defs>
</svg>
