<svg width="100" height="101" viewBox="0 0 100 101" fill="none" xmlns="http://www.w3.org/2000/svg">
<g clip-path="url(#clip0)">
<path d="M98.0136 2.48083H1.98677C0.890003 2.48083 0 3.37084 0 4.46761V96.5328C0 97.6316 0.890003 98.5196 1.98677 98.5196H98.0136C99.1123 98.5196 100 97.6316 100 96.5328V4.46761C100 3.37084 99.11 2.48083 98.0136 2.48083ZM76.2985 26.2382V38.4485C76.2985 52.9496 64.5014 64.7468 50.0003 64.7468C35.4992 64.7468 23.7021 52.9496 23.7021 38.4485V25.8983C22.1226 25.1494 21.0201 23.5519 21.0201 21.6903C21.0201 19.1175 23.1141 17.0215 25.6889 17.0215C28.2637 17.0215 30.3577 19.1155 30.3577 21.6903C30.3577 23.5519 29.2549 25.1491 27.6757 25.8983V38.4485C27.6757 50.7584 37.6908 60.7735 50.0007 60.7735C62.3105 60.7735 72.3257 50.7604 72.3257 38.4505V26.2402C70.5733 25.4714 69.3457 23.725 69.3457 21.6946C69.3457 18.957 71.5728 16.7279 74.3124 16.7279C77.052 16.7279 79.2792 18.957 79.2792 21.6946C79.2785 23.725 78.0506 25.4694 76.2985 26.2382Z" fill="#FFB168"/>
</g>
<defs>
<clipPath id="clip0">
<rect width="100" height="100" fill="white" transform="translate(0 0.5)"/>
</clipPath>
</defs>
</svg>
