<svg width="75" height="75" viewBox="0 0 75 75" fill="none" xmlns="http://www.w3.org/2000/svg">
<circle cx="37.5" cy="37.5" r="37.5" fill="#F2F2F2"/>
<g clip-path="url(#clip0)">
<path d="M62.1382 37.2641C61.9918 30.7595 59.3563 24.698 54.7183 20.1963C50.0867 15.7015 44.0044 13.2938 37.5933 13.4141C31.1798 13.2923 25.0998 15.7015 20.4686 20.1963C15.8303 24.698 13.1951 30.7595 13.0483 37.2637L13.0479 37.2842V37.3046C13.0817 43.9333 15.8842 50.2357 20.7499 54.6527V60.6626C20.7499 61.8291 21.5541 62.845 22.6617 63.0787C22.8258 63.1132 22.991 63.1306 23.1554 63.1306C23.6011 63.1306 24.0394 63.0043 24.4252 62.7604L29.1946 59.7427C31.8844 60.6968 34.6911 61.1801 37.5446 61.1801H37.5805C37.7386 61.1831 37.8948 61.1846 38.0525 61.1846C44.2955 61.1842 50.1976 58.7849 54.7183 54.3978C59.3563 49.8961 61.9918 43.8346 62.1382 37.3304L62.139 37.2971L62.1382 37.2641ZM52.726 52.2924C48.6416 56.2566 43.2774 58.3775 37.6217 58.2644L37.606 58.2641H37.5903C34.9364 58.2701 32.3245 57.8024 29.831 56.8764C29.2145 56.6477 28.5429 56.7175 27.9881 57.0684L23.6292 59.8258V54.2977C23.6292 53.6808 23.3644 53.094 22.9026 52.6877C18.5047 48.8158 15.9632 43.2114 15.9277 37.31C16.0617 31.5902 18.3811 26.2612 22.4609 22.3017C26.5449 18.3379 31.9106 16.2178 37.5648 16.3301L37.5933 16.3304L37.6217 16.3301C43.2763 16.2189 48.6416 18.3379 52.726 22.3017C56.8021 26.2578 59.1214 31.5827 59.2589 37.2971C59.1214 43.0118 56.8021 48.3363 52.726 52.2924Z" fill="#3ABEFF"/>
<path d="M48.1416 30.3333H27.0449C26.2501 30.3333 25.6055 30.9857 25.6055 31.7911C25.6055 32.5964 26.2501 33.2493 27.0449 33.2493H48.1416C48.9368 33.2493 49.5814 32.5964 49.5814 31.7911C49.5814 30.9857 48.9368 30.3333 48.1416 30.3333Z" fill="#3ABEFF"/>
<path d="M48.1416 36.783H27.0449C26.2501 36.783 25.6055 37.4358 25.6055 38.2408C25.6055 39.0461 26.2501 39.699 27.0449 39.699H48.1416C48.9368 39.699 49.5814 39.0461 49.5814 38.2408C49.5814 37.4358 48.9368 36.783 48.1416 36.783Z" fill="#3ABEFF"/>
<path d="M48.1416 43.2324H37.7689C36.9741 43.2324 36.3295 43.8853 36.3295 44.6906C36.3295 45.4956 36.9741 46.1484 37.7689 46.1484H48.1416C48.9368 46.1484 49.5814 45.4956 49.5814 44.6906C49.5814 43.8853 48.9368 43.2324 48.1416 43.2324Z" fill="#3ABEFF"/>
</g>
<defs>
<clipPath id="clip0">
<rect width="49" height="49.7209" fill="white" transform="translate(13 13.4094)"/>
</clipPath>
</defs>
</svg>
