<svg width="78" height="78" viewBox="0 0 78 78" fill="none" xmlns="http://www.w3.org/2000/svg">
<g clip-path="url(#clip0)">
<path d="M75.9952 47.7915L60.9305 32.7272C58.1968 29.9934 54.562 28.4878 50.696 28.4878H49.5451C51.9797 25.8969 53.4737 22.4122 53.4737 18.5847C53.4737 10.6038 46.9808 4.11084 38.9999 4.11084C31.019 4.11084 24.526 10.6038 24.526 18.5847C24.526 22.4122 26.02 25.8969 28.4547 28.4878H27.3038C23.4378 28.4878 19.8032 29.9934 17.0693 32.7272L2.00444 47.7917C-0.668498 50.4648 -0.668498 54.8144 2.00459 57.4875L14.3454 69.8283C16.2586 71.7413 18.9618 72.3445 21.4788 71.445V73.4328C21.4788 74.6949 22.502 75.7181 23.7641 75.7181H54.2353C55.4975 75.7181 56.5207 74.6949 56.5207 73.4328V71.445C59.0381 72.3448 61.7412 71.7412 63.654 69.8283L75.995 57.4875C78.6683 54.8144 78.6683 50.4648 75.9952 47.7915ZM29.0969 18.5847C29.0969 13.1241 33.5394 8.68153 39 8.68153C44.4606 8.68153 48.9032 13.1241 48.9032 18.5847C48.9032 24.0453 44.4606 28.4878 39 28.4878C33.5394 28.4878 29.0969 24.0453 29.0969 18.5847ZM21.4791 57.5699L16.5487 52.6397L21.4791 47.7094V57.5699ZM72.7634 54.2557L60.4225 66.5966C59.419 67.6003 58.2598 67.2285 57.9282 67.0905C57.5986 66.9534 56.5275 66.3983 56.5212 64.9936V64.9682C56.5242 64.3714 56.7881 63.7671 57.2456 63.3096L66.2995 54.2558C66.7281 53.8273 66.969 53.246 66.969 52.6398C66.969 52.0336 66.7283 51.4525 66.2995 51.0239L55.8519 40.5764C55.1981 39.9226 54.2151 39.7273 53.3613 40.0811C52.5073 40.4347 51.9505 41.2681 51.9505 42.1924V64.9627V64.9996V71.1479H26.0499V64.9996C26.0499 64.9874 26.0499 64.975 26.0499 64.9627V42.192C26.0499 41.2676 25.4932 40.4342 24.6391 40.0806C23.7854 39.7269 22.8021 39.9223 22.1485 40.5759L11.7008 51.0235C11.2723 51.452 11.0314 52.0333 11.0314 52.6394C11.0314 53.2454 11.2721 53.8267 11.7008 54.2554L20.7548 63.309C21.2123 63.7665 21.4762 64.3709 21.4792 64.9676V64.993C21.4728 66.3977 20.4018 66.9529 20.0722 67.09C19.7407 67.2281 18.5817 67.5998 17.5778 66.5962L5.23713 54.2554C4.346 53.3643 4.346 51.9143 5.23698 51.0233L20.3017 35.9588C22.1721 34.0883 24.659 33.0582 27.3043 33.0582H50.6963C53.3415 33.0582 55.8284 34.0883 57.6989 35.9588L72.7634 51.0233C73.6542 51.9146 73.6542 53.3646 72.7634 54.2557ZM56.521 57.5699V47.7093L61.4514 52.6395L56.521 57.5699Z" fill="#E5E5E5"/>
<path d="M63.3792 9.90026C63.8148 9.90026 64.2552 9.77594 64.6448 9.51617L69.2155 6.46905C70.2658 5.76882 70.5495 4.34992 69.8493 3.29988C69.149 2.24969 67.7302 1.966 66.6801 2.66593L62.1094 5.71305C61.0591 6.41328 60.7754 7.83218 61.4756 8.88222C61.9159 9.54298 62.6405 9.90026 63.3792 9.90026Z" fill="#E5E5E5"/>
<path d="M62.1094 26.5803L66.6801 29.6274C67.0699 29.8872 67.51 30.0115 67.9458 30.0115C68.6842 30.0115 69.409 29.6541 69.8493 28.9936C70.5495 27.9434 70.2657 26.5245 69.2155 25.8244L64.6448 22.7773C63.5946 22.0774 62.1757 22.3609 61.4756 23.4113C60.7754 24.4611 61.0591 25.88 62.1094 26.5803Z" fill="#E5E5E5"/>
<path d="M63.0723 16.1467C63.0723 17.4088 64.0956 18.432 65.3577 18.432H71.4519C72.714 18.432 73.7373 17.4088 73.7373 16.1467C73.7373 14.8846 72.714 13.8613 71.4519 13.8613H65.3577C64.0956 13.8613 63.0723 14.8846 63.0723 16.1467Z" fill="#E5E5E5"/>
<path d="M8.78478 6.46914L13.3555 9.51626C13.7452 9.77603 14.1854 9.90035 14.6211 9.90035C15.3596 9.90035 16.0843 9.54292 16.5246 8.88246C17.2249 7.83227 16.941 6.41337 15.8908 5.7133L11.3201 2.66617C10.27 1.96625 8.85106 2.24994 8.15098 3.30013C7.45075 4.35001 7.73444 5.76891 8.78478 6.46914Z" fill="#E5E5E5"/>
<path d="M13.3555 22.7771L8.78478 25.8242C7.73444 26.5244 7.45075 27.9433 8.15098 28.9934C8.59144 29.654 9.3159 30.0112 10.0545 30.0112C10.4901 30.0112 10.9306 29.8869 11.3201 29.6272L15.8908 26.58C16.9412 25.8798 17.2249 24.4609 16.5246 23.4109C15.8244 22.3607 14.4054 22.0771 13.3555 22.7771Z" fill="#E5E5E5"/>
<path d="M6.54819 18.432H12.6424C13.9046 18.432 14.9278 17.4088 14.9278 16.1467C14.9278 14.8846 13.9046 13.8613 12.6424 13.8613H6.54819C5.28607 13.8613 4.26285 14.8846 4.26285 16.1467C4.26285 17.4088 5.28607 18.432 6.54819 18.432Z" fill="#E5E5E5"/>
</g>
<defs>
<clipPath id="clip0">
<rect width="78" height="78" fill="white"/>
</clipPath>
</defs>
</svg>
