<svg width="60" height="60" viewBox="0 0 60 60" fill="none" xmlns="http://www.w3.org/2000/svg">
<g clip-path="url(#clip0)">
<path d="M53.612 20.1203C54.7795 18.7328 55.4849 16.944 55.4849 14.993C55.4849 10.595 51.9069 7.01707 47.5089 7.01707C43.1111 7.01707 39.533 10.595 39.533 14.993C39.533 16.9438 40.2381 18.7323 41.4054 20.1197C41.1513 20.1311 40.9127 20.1968 40.6987 20.3039C39.2109 17.6876 36.792 15.667 33.8957 14.6965C36.2633 13.3388 37.8629 10.7875 37.8629 7.86797C37.8629 3.52957 34.3334 0 29.995 0C25.6566 0 22.1271 3.52957 22.1271 7.86797C22.1271 10.7875 23.7267 13.3388 26.0944 14.6965C23.1776 15.6739 20.7452 17.7163 19.2602 20.3595C19.0579 20.2398 18.8299 20.1595 18.5861 20.1294C19.7583 18.7406 20.4669 16.9484 20.4669 14.9929C20.4669 10.5949 16.8889 7.01695 12.491 7.01695C8.09309 7.01695 4.515 10.5949 4.515 14.9929C4.515 16.9439 5.22023 18.7327 6.38789 20.1202C3.36258 20.2383 0.9375 22.7175 0.9375 25.7496V38.5446C0.9375 40.7161 2.18191 42.6033 3.99914 43.5438L5.61539 58.4318C5.71219 59.3241 6.46559 60 7.36289 60H17.6191C18.5164 60 19.2698 59.3241 19.3666 58.4319L20.9834 43.5402C21.0234 43.5195 21.5851 43.4766 21.5851 43.4766L23.2087 58.4319C23.3055 59.3241 24.0589 60 24.9563 60H35.0344C35.9317 60 36.6851 59.3241 36.7819 58.4319L38.4053 43.4766C38.4053 43.4766 38.9794 43.5173 39.0163 43.5366L40.6334 58.4319C40.7302 59.3241 41.4836 60 42.3809 60H52.6371C53.5344 60 54.2878 59.3241 54.3846 58.4319L56.0009 43.5439C57.8181 42.6034 59.0625 40.7162 59.0625 38.5447V25.7496C59.0625 22.7175 56.6374 20.2383 53.612 20.1203ZM47.5089 10.5326C49.9683 10.5326 51.9693 12.5334 51.9693 14.9929C51.9693 17.4523 49.9683 19.4531 47.5089 19.4531C45.0496 19.4531 43.0486 17.4523 43.0486 14.9929C43.0486 12.5334 45.0496 10.5326 47.5089 10.5326ZM53.3864 23.6302C54.5776 23.6302 55.5469 24.5809 55.5469 25.7496V38.5446C55.5469 39.7133 54.5776 40.6641 53.3864 40.6641H42.2995V26.3668C42.2995 25.4265 42.1931 24.5106 41.9924 23.6302H53.3864ZM31.1597 23.856L29.9951 25.365L28.8305 23.856L29.9951 20.8793L31.1597 23.856ZM29.9951 3.51562C32.395 3.51562 34.3474 5.46809 34.3474 7.86797C34.3474 10.2679 32.395 12.2202 29.9951 12.2202C27.5952 12.2202 25.6429 10.2677 25.6429 7.86797C25.6429 5.46809 27.5952 3.51562 29.9951 3.51562ZM21.2064 26.3668C21.2064 22.4412 23.7939 19.1091 27.3526 17.9846L25.1941 23.5018C24.9691 24.0768 25.0623 24.7274 25.4395 25.2162L28.6036 29.3162C28.9364 29.7476 29.4505 30.0001 29.9952 30.0001C30.5399 30.0001 31.054 29.7476 31.3868 29.3162L34.5509 25.2162C34.9281 24.7275 35.0213 24.0768 34.7962 23.5018L32.6378 17.9848C36.1965 19.1093 38.7839 22.4413 38.7839 26.3668V39.9609H21.2064V26.3668ZM12.4911 10.5326C14.9504 10.5326 16.9514 12.5334 16.9514 14.9929C16.9514 17.4523 14.9504 19.4531 12.4911 19.4531C10.0317 19.4531 8.03074 17.4523 8.03074 14.9929C8.03074 12.5334 10.0317 10.5326 12.4911 10.5326ZM4.45312 25.7496C4.45312 24.5809 5.42238 23.6302 6.61359 23.6302H17.9979C17.7971 24.5106 17.6907 25.4264 17.6907 26.3668V40.6641H6.61359C5.42238 40.6641 4.45312 39.7133 4.45312 38.5446V25.7496ZM8.94023 56.4844L7.60441 44.1797H17.3776L16.0417 56.4844H8.94023ZM33.4569 56.4844H26.5335L25.1213 43.4766H34.869L33.4569 56.4844ZM43.9582 56.4844L42.6224 44.1797H52.3956L51.0598 56.4844H43.9582Z" fill="#3ABEFF"/>
</g>
<defs>
<clipPath id="clip0">
<rect width="60" height="60" fill="white"/>
</clipPath>
</defs>
</svg>
