<svg width="75" height="75" viewBox="0 0 75 75" fill="none" xmlns="http://www.w3.org/2000/svg">
<circle cx="37.5" cy="37.5" r="37.5" fill="#F2F2F2"/>
<g clip-path="url(#clip0)">
<path d="M63 28.9753C63.0016 28.5828 62.8455 28.2062 62.5669 27.9298L50.0397 15.5002C49.467 14.932 48.5425 14.9337 47.9721 15.5043L44.3317 19.1447C42.2049 18.9433 40.0352 19.1672 38.0007 19.7987C35.9631 19.1664 33.7977 18.9427 31.6683 19.1447L28.0279 15.5044C27.4574 14.9339 26.5331 14.932 25.9604 15.5003L13.4331 27.9298C13.1545 28.2062 12.9985 28.5829 13 28.9753C13.0015 29.3677 13.1606 29.7432 13.4412 30.0174L17.1661 33.6565C16.9605 35.8433 17.2032 38.0762 17.8777 40.1597C18.3039 41.476 18.8877 42.7106 19.6205 43.8559L18.9697 44.5066C17.2564 46.22 17.2564 49.0079 18.9697 50.7214C19.3741 51.1259 19.8389 51.4335 20.3348 51.6471C19.3755 53.3252 19.6104 55.5052 21.0414 56.9362C22.4808 58.3756 24.6577 58.6034 26.3289 57.6451C26.5462 58.1473 26.8577 58.6093 27.2563 59.0078C28.9709 60.7225 31.7589 60.7199 33.471 59.0078L33.8569 58.6219L34.7514 59.5163C34.8006 59.5656 34.8526 59.6106 34.9067 59.6514C35.735 60.4726 36.8328 60.9248 38.0002 60.9248C39.1698 60.9248 40.2696 60.4709 41.0987 59.6466C41.9177 58.8529 41.6275 59.1379 42.1435 58.622C42.6521 59.1306 43.675 60.295 45.6368 60.295C46.8107 60.295 47.9142 59.8379 48.7442 59.0079C49.143 58.6091 49.4547 58.1467 49.672 57.6441C51.3562 58.6056 53.5323 58.363 54.959 56.9362C56.3901 55.5053 56.6249 53.3251 55.6656 51.6471C56.1615 51.4336 56.6262 51.1259 57.0306 50.7214C58.7482 49.004 58.7483 46.2242 57.0306 44.5066L56.377 43.853C58.292 40.8459 59.1691 37.2259 58.8341 33.6565L62.5592 30.0173C62.8396 29.7432 62.9985 29.3678 63 28.9753ZM21.0413 48.6499C20.4701 48.0787 20.4701 47.1494 21.0412 46.5782L21.434 46.1854C21.5581 46.318 21.684 46.4491 21.8131 46.5782L23.4988 48.264L23.1129 48.6499C22.5417 49.221 21.6125 49.2211 21.0413 48.6499ZM25.1845 54.8647C24.6119 55.4372 23.6855 55.4372 23.1129 54.8647C22.5403 54.2921 22.5403 53.3657 23.1129 52.7931L25.5704 50.3355L27.6421 52.4071L25.1845 54.8647ZM31.3992 56.9363C30.8279 57.5074 29.8987 57.5074 29.3277 56.9363C29.051 56.6597 28.8985 56.2918 28.8985 55.9006C28.8985 55.5093 29.051 55.1415 29.3277 54.8647C29.3277 54.8647 29.3277 54.8646 29.3278 54.8645L29.7136 54.4788L31.7852 56.5504L31.3992 56.9363ZM54.9587 48.6501C54.3874 49.2212 53.4582 49.2212 52.8871 48.6501C52.8871 48.6501 52.8871 48.6501 52.887 48.65L42.5291 38.2919C41.9571 37.7198 41.0296 37.7198 40.4575 38.2919C39.8855 38.864 39.8855 39.7914 40.4575 40.3635L52.8871 52.7931C53.4583 53.3642 53.4583 54.2935 52.8871 54.8646C52.316 55.4359 51.3867 55.4358 50.8154 54.8646C50.1306 54.1798 39.1173 43.1665 38.3859 42.4351C37.8139 41.863 36.8863 41.863 36.3143 42.4351C35.7422 43.0071 35.7422 43.9346 36.3143 44.5066L46.6732 54.8656C47.2446 55.4381 47.2448 56.3637 46.6723 56.9363C46.0998 57.5088 45.1732 57.5088 44.6006 56.9363L34.2427 46.5783C33.6707 46.0062 32.7432 46.0062 32.1711 46.5783C31.599 47.1504 31.599 48.0778 32.1711 48.6499L40.0716 56.5504C39.596 57.026 39.8105 56.8151 39.0522 57.5499C39.0466 57.5553 39.0412 57.5606 39.0358 57.5661C38.7591 57.8428 38.3911 57.9952 38 57.9952C37.6087 57.9952 37.2409 57.8428 36.9644 57.5662C36.9589 57.5607 36.9534 57.5554 36.9479 57.55C36.0765 56.7057 24.8192 45.4411 23.8847 44.5067C20.9246 41.5468 19.5653 37.4687 20.1552 33.3183C20.2209 32.8563 20.0624 32.3906 19.7286 32.0644L16.5527 28.9616L26.988 18.6076L30.0987 21.7183C30.4244 22.0441 30.8846 22.1977 31.3406 22.1328C32.0602 22.0306 32.7876 21.9898 33.5132 22.0069C32.7663 22.535 32.0604 23.1296 31.3993 23.7907C29.5913 25.5988 24.6994 30.4906 23.1129 32.0771C21.3954 33.7947 21.3951 36.5743 23.1129 38.292C23.9695 39.1487 25.0949 39.577 26.2202 39.577C27.3456 39.577 28.471 39.1487 29.3277 38.292L35.2045 32.4152C37.121 33.098 39.1693 33.1805 41.0902 32.71L54.9587 46.5785C55.5313 47.1511 55.5313 48.0774 54.9587 48.6501ZM56.2714 32.0643C55.9376 32.3905 55.7791 32.8561 55.8448 33.3183C56.2571 36.2194 55.6767 39.199 54.2435 41.7198L44.0146 31.4909C44.6897 31.0769 45.324 30.5818 45.9005 30.0055C46.4726 29.4334 46.4726 28.5059 45.9005 27.9339C45.3285 27.3618 44.401 27.3618 43.8289 27.9339C41.6373 30.1255 38.287 30.7011 35.4918 29.3659C34.9319 29.0984 34.2636 29.2129 33.8246 29.6519L27.2562 36.2204C26.6851 36.7916 25.756 36.7917 25.1845 36.2204C24.9078 35.9437 24.7554 35.5759 24.7554 35.1846C24.7554 34.7934 24.9078 34.4255 25.1845 34.1488C26.8979 32.4354 31.7757 27.5576 33.4709 25.8624C33.471 25.8623 33.4711 25.8621 33.4713 25.862C36.4121 22.9215 40.4857 21.5397 44.6595 22.1328C45.1152 22.1976 45.5757 22.0441 45.9014 21.7183L49.0121 18.6076L59.4473 28.9616L56.2714 32.0643Z" fill="#3ABEFF"/>
</g>
<defs>
<clipPath id="clip0">
<rect width="50" height="50" fill="white" transform="translate(13 13)"/>
</clipPath>
</defs>
</svg>
