<svg width="78" height="78" viewBox="0 0 78 78" fill="none" xmlns="http://www.w3.org/2000/svg">
<g clip-path="url(#clip0)">
<path d="M26.7363 22.0898H14.5488C13.2868 22.0898 12.2637 23.113 12.2637 24.375C12.2637 25.637 13.2868 26.6602 14.5488 26.6602H26.7363C27.9983 26.6602 29.0215 25.637 29.0215 24.375C29.0215 23.113 27.9983 22.0898 26.7363 22.0898Z" fill="#E5E5E5"/>
<path d="M26.7363 34.2773H14.5488C13.2868 34.2773 12.2637 35.3005 12.2637 36.5625C12.2637 37.8245 13.2868 38.8477 14.5488 38.8477H26.7363C27.9983 38.8477 29.0215 37.8245 29.0215 36.5625C29.0215 35.3005 27.9983 34.2773 26.7363 34.2773Z" fill="#E5E5E5"/>
<path d="M26.7363 46.4648H14.5488C13.2868 46.4648 12.2637 47.488 12.2637 48.75C12.2637 50.012 13.2868 51.0352 14.5488 51.0352H26.7363C27.9983 51.0352 29.0215 50.012 29.0215 48.75C29.0215 47.488 27.9983 46.4648 26.7363 46.4648Z" fill="#E5E5E5"/>
<path d="M59.4902 41.8836V21.0204C59.4902 18.0086 58.3289 15.1672 56.2202 13.0182L46.9482 3.42987C46.9438 3.4253 46.9392 3.42057 46.9348 3.416C44.8 1.24511 41.8295 0 38.7852 0H9.36914C5.58904 0 2.51367 3.07536 2.51367 6.85547V66.1172C2.51367 69.8973 5.58904 72.9727 9.36914 72.9727H44.6875C47.944 76.0855 52.3551 78 57.2051 78C67.2854 78 75.4863 69.8674 75.4863 59.8711C75.4863 50.6421 68.496 43.0022 59.4902 41.8836ZM7.08398 66.1172V6.85547C7.08398 5.59543 8.10911 4.57031 9.36914 4.57031H38.7852C40.6094 4.57031 42.3893 5.31543 43.6702 6.61446L52.9405 16.2013C52.9449 16.2059 52.9494 16.2104 52.9536 16.2149C54.2216 17.5048 54.9199 19.2113 54.9199 21.0205V41.8858C45.9984 43.0129 39.0762 50.6488 39.0762 59.8712C39.0762 62.9536 39.8504 65.8584 41.2131 68.4025H9.36914C8.10911 68.4023 7.08398 67.3772 7.08398 66.1172ZM57.2051 73.4297C49.7288 73.4297 43.6465 67.3474 43.6465 59.8711C43.6465 52.3948 49.7288 46.3125 57.2051 46.3125C64.7653 46.3125 70.916 52.3948 70.916 59.8711C70.916 67.3474 64.7653 73.4297 57.2051 73.4297Z" fill="#E5E5E5"/>
<path d="M62.4766 54.4594C61.5073 53.6518 60.0662 53.7827 59.2582 54.7521L55.4013 59.3804L54.5264 57.6306C53.962 56.5017 52.5894 56.0439 51.4605 56.6087C50.3316 57.1729 49.8742 58.5457 50.4386 59.6744L52.8761 64.5494C53.221 65.2392 53.8905 65.7085 54.6565 65.7974C54.7447 65.8075 54.8326 65.8127 54.9202 65.8127C55.5937 65.8127 56.2386 65.5147 56.6755 64.9905L62.7693 57.678C63.5772 56.7081 63.4461 55.2673 62.4766 54.4594Z" fill="#E5E5E5"/>
<path d="M38.9238 26.6602H41.3613C42.6233 26.6602 43.6465 25.637 43.6465 24.375C43.6465 23.113 42.6233 22.0898 41.3613 22.0898H38.9238C37.6618 22.0898 36.6387 23.113 36.6387 24.375C36.6387 25.637 37.6618 26.6602 38.9238 26.6602Z" fill="#E5E5E5"/>
<path d="M43.6465 36.5625C43.6465 35.3005 42.6233 34.2773 41.3613 34.2773H38.9238C37.6618 34.2773 36.6387 35.3005 36.6387 36.5625C36.6387 37.8245 37.6618 38.8477 38.9238 38.8477H41.3613C42.6233 38.8477 43.6465 37.8245 43.6465 36.5625Z" fill="#E5E5E5"/>
</g>
<defs>
<clipPath id="clip0">
<rect width="78" height="78" fill="white"/>
</clipPath>
</defs>
</svg>
