<svg width="78" height="78" viewBox="0 0 78 78" fill="none" xmlns="http://www.w3.org/2000/svg">
<path d="M59.0909 32.5286V20.0907C59.0909 9.01278 50.0781 0 39 0C27.9219 0 18.9091 9.01278 18.9091 20.0907V32.5284C14.5063 37.3606 11.8182 43.7814 11.8182 50.8182C11.8182 65.8062 24.0119 78 39 78C53.9881 78 66.1818 65.8062 66.1818 50.8182C66.1818 43.7814 63.4937 37.3606 59.0909 32.5286ZM39 7.09091C46.1682 7.09091 52 12.9227 52 20.0907V26.9521C48.1359 24.839 43.706 23.6364 39 23.6364C34.294 23.6364 29.8641 24.839 26 26.9523V20.0907C26 12.9227 31.8318 7.09091 39 7.09091ZM39 70.9091C27.9219 70.9091 18.9091 61.8963 18.9091 50.8182C18.9091 39.7401 27.9219 30.7273 39 30.7273C50.0781 30.7273 59.0909 39.7401 59.0909 50.8182C59.0909 61.8963 50.0781 70.9091 39 70.9091Z" fill="#E5E5E5"/>
<path d="M46.5296 43.2887C45.1452 41.9041 42.9002 41.9041 41.5156 43.2887L39 45.8043L36.4842 43.2887C35.0998 41.9041 32.8548 41.9041 31.4702 43.2887C30.0856 44.6733 30.0856 46.9181 31.4702 48.3027L33.986 50.8183L31.4704 53.3342C30.0858 54.7188 30.0858 56.9635 31.4704 58.3481C32.1627 59.0404 33.0701 59.3867 33.9773 59.3867C34.8844 59.3867 35.7921 59.0407 36.4842 58.3481L39 55.8323L41.5159 58.3479C42.2082 59.0402 43.1156 59.3865 44.0227 59.3865C44.9299 59.3865 45.8375 59.0404 46.5296 58.3479C47.9142 56.9633 47.9142 54.7185 46.5296 53.3339L44.014 50.8183L46.5296 48.3024C47.9145 46.9181 47.9145 44.6731 46.5296 43.2887Z" fill="#E5E5E5"/>
</svg>
