<svg width="78" height="78" viewBox="0 0 78 78" fill="none" xmlns="http://www.w3.org/2000/svg">
<path d="M22.0898 36.5625H11.4258C10.1638 36.5625 9.14062 37.5856 9.14062 38.8477C9.14062 40.1097 10.1638 41.1328 11.4258 41.1328H22.0898C23.3519 41.1328 24.375 40.1097 24.375 38.8477C24.375 37.5856 23.3519 36.5625 22.0898 36.5625Z" fill="#E5E5E5"/>
<path d="M22.0898 27.4219H11.4258C10.1638 27.4219 9.14062 28.445 9.14062 29.707C9.14062 30.969 10.1638 31.9922 11.4258 31.9922H22.0898C23.3519 31.9922 24.375 30.969 24.375 29.707C24.375 28.445 23.3519 27.4219 22.0898 27.4219Z" fill="#E5E5E5"/>
<path d="M75.7148 52.1016H73.4297V46.7695C73.4297 42.6811 71.5231 39.0317 68.5547 36.6568V8.37891C68.5547 3.75878 64.7959 0 60.1758 0H8.37891C3.75878 0 0 3.75878 0 8.37891V41.8945C0 46.5147 3.75878 50.2734 8.37891 50.2734H47.5312V52.1016H45.2461C43.9841 52.1016 42.9609 53.1247 42.9609 54.3867V75.7148C42.9609 76.9769 43.9841 78 45.2461 78H75.7148C76.9769 78 78 76.9769 78 75.7148V54.3867C78 53.1247 76.9769 52.1016 75.7148 52.1016ZM68.8594 46.7695V52.1016H52.1016V46.7695C52.1016 42.1494 55.8603 38.3906 60.4805 38.3906C65.1006 38.3906 68.8594 42.1494 68.8594 46.7695ZM4.57031 8.37891C4.57031 6.27885 6.27885 4.57031 8.37891 4.57031H60.1758C62.2758 4.57031 63.9844 6.27885 63.9844 8.37891V9.14062H4.57031V8.37891ZM4.57031 13.7109H63.9844V18.2812H4.57031V13.7109ZM8.37891 45.7031C6.27885 45.7031 4.57031 43.9946 4.57031 41.8945V22.8516H63.9844V34.306C62.8691 33.992 61.6948 33.8203 60.4805 33.8203C53.6996 33.8203 48.1233 39.0603 47.5788 45.7031H8.37891ZM73.4297 73.4297H47.5312V56.6719H73.4297V73.4297Z" fill="#E5E5E5"/>
<path d="M60.4805 69.6211C61.7425 69.6211 62.7656 68.598 62.7656 67.3359V62.7656C62.7656 61.5036 61.7425 60.4805 60.4805 60.4805C59.2185 60.4805 58.1953 61.5036 58.1953 62.7656V67.3359C58.1953 68.598 59.2185 69.6211 60.4805 69.6211Z" fill="#E5E5E5"/>
</svg>
