<svg width="78" height="78" viewBox="0 0 78 78" fill="none" xmlns="http://www.w3.org/2000/svg">
<g clip-path="url(#clip0)">
<path d="M25.2891 18.5859C26.5511 18.5859 27.5742 17.5628 27.5742 16.3008C27.5742 15.0387 26.5511 14.0156 25.2891 14.0156C24.027 14.0156 23.0039 15.0387 23.0039 16.3008C23.0039 17.5628 24.027 18.5859 25.2891 18.5859Z" fill="#E5E5E5"/>
<path d="M34.4297 27.7266C35.6917 27.7266 36.7148 26.7035 36.7148 25.4414C36.7148 24.1793 35.6917 23.1562 34.4297 23.1562C33.1676 23.1562 32.1445 24.1793 32.1445 25.4414C32.1445 26.7035 33.1676 27.7266 34.4297 27.7266Z" fill="#E5E5E5"/>
<path d="M20.7188 46.0078C21.9808 46.0078 23.0039 44.9847 23.0039 43.7227C23.0039 42.4606 21.9808 41.4375 20.7188 41.4375C19.4567 41.4375 18.4336 42.4606 18.4336 43.7227C18.4336 44.9847 19.4567 46.0078 20.7188 46.0078Z" fill="#E5E5E5"/>
<path d="M29.8594 46.0078C31.1214 46.0078 32.1445 44.9847 32.1445 43.7227C32.1445 42.4606 31.1214 41.4375 29.8594 41.4375C28.5973 41.4375 27.5742 42.4606 27.5742 43.7227C27.5742 44.9847 28.5973 46.0078 29.8594 46.0078Z" fill="#E5E5E5"/>
<path d="M39 46.0078C40.2621 46.0078 41.2852 44.9847 41.2852 43.7227C41.2852 42.4606 40.2621 41.4375 39 41.4375C37.7379 41.4375 36.7148 42.4606 36.7148 43.7227C36.7148 44.9847 37.7379 46.0078 39 46.0078Z" fill="#E5E5E5"/>
<path d="M20.7188 55.1484C21.9808 55.1484 23.0039 54.1253 23.0039 52.8633C23.0039 51.6012 21.9808 50.5781 20.7188 50.5781C19.4567 50.5781 18.4336 51.6012 18.4336 52.8633C18.4336 54.1253 19.4567 55.1484 20.7188 55.1484Z" fill="#E5E5E5"/>
<path d="M29.8594 55.1484C31.1214 55.1484 32.1445 54.1253 32.1445 52.8633C32.1445 51.6012 31.1214 50.5781 29.8594 50.5781C28.5973 50.5781 27.5742 51.6012 27.5742 52.8633C27.5742 54.1253 28.5973 55.1484 29.8594 55.1484Z" fill="#E5E5E5"/>
<path d="M39 55.1484C40.2621 55.1484 41.2852 54.1253 41.2852 52.8633C41.2852 51.6012 40.2621 50.5781 39 50.5781C37.7379 50.5781 36.7148 51.6012 36.7148 52.8633C36.7148 54.1253 37.7379 55.1484 39 55.1484Z" fill="#E5E5E5"/>
<path d="M20.7188 64.2891C21.9808 64.2891 23.0039 63.266 23.0039 62.0039C23.0039 60.7418 21.9808 59.7188 20.7188 59.7188C19.4567 59.7188 18.4336 60.7418 18.4336 62.0039C18.4336 63.266 19.4567 64.2891 20.7188 64.2891Z" fill="#E5E5E5"/>
<path d="M29.8594 64.2891C31.1214 64.2891 32.1445 63.266 32.1445 62.0039C32.1445 60.7418 31.1214 59.7188 29.8594 59.7188C28.5973 59.7188 27.5742 60.7418 27.5742 62.0039C27.5742 63.266 28.5973 64.2891 29.8594 64.2891Z" fill="#E5E5E5"/>
<path d="M39 64.2891C40.2621 64.2891 41.2852 63.266 41.2852 62.0039C41.2852 60.7418 40.2621 59.7188 39 59.7188C37.7379 59.7188 36.7148 60.7418 36.7148 62.0039C36.7148 63.266 37.7379 64.2891 39 64.2891Z" fill="#E5E5E5"/>
<path d="M26.9048 27.0575L36.0455 17.9169C36.9379 17.0244 36.9379 15.5776 36.0455 14.6852C35.1532 13.7928 33.7062 13.7928 32.8138 14.6852L23.6732 23.8258C22.7807 24.7182 22.7807 26.1651 23.6732 27.0575C24.5656 27.9498 26.0126 27.9499 26.9048 27.0575Z" fill="#E5E5E5"/>
<path d="M70.9922 32.297H54.9961V20.8712C54.9961 19.6092 53.973 18.586 52.7109 18.586H45.8555V6.85555C45.8555 6.24952 45.6148 5.66818 45.1861 5.23963L40.6158 0.669322C39.7235 -0.223107 38.2765 -0.223107 37.3841 0.669322L34.4297 3.62388L31.4751 0.669322C30.5829 -0.223107 29.1359 -0.223107 28.2435 0.669322L25.2891 3.62388L22.3345 0.669322C21.4422 -0.223107 19.9953 -0.223107 19.1028 0.669322L14.5325 5.23963C14.104 5.66818 13.8633 6.24952 13.8633 6.85555V18.586H7.00781C5.7458 18.586 4.72266 19.6092 4.72266 20.8712V75.7149C4.72266 76.9769 5.7458 78.0001 7.00781 78.0001H52.7109C53.973 78.0001 54.9961 76.9769 54.9961 75.7149V64.2891H70.9922C72.2542 64.2891 73.2773 63.266 73.2773 62.004V34.5821C73.2773 33.3201 72.2542 32.297 70.9922 32.297ZM68.707 36.8673V41.4376H54.9961V36.8673H68.707ZM18.4336 7.80206L20.7188 5.5169L23.6733 8.4713C24.5656 9.36373 26.0125 9.36373 26.905 8.4713L29.8594 5.5169L32.8139 8.4713C33.7062 9.36373 35.1532 9.36373 36.0456 8.4713L39 5.5169L41.2852 7.80206V32.297H18.4336V7.80206ZM50.4258 73.4298H9.29297V23.1563H13.8633V34.5821C13.8633 35.8441 14.8864 36.8673 16.1484 36.8673H43.5703C44.8323 36.8673 45.8555 35.8441 45.8555 34.5821V23.1563H50.4258V73.4298ZM54.9961 59.7188V46.0079H68.707V59.7188H54.9961Z" fill="#E5E5E5"/>
</g>
<defs>
<clipPath id="clip0">
<rect width="78" height="78" fill="white"/>
</clipPath>
</defs>
</svg>
