<svg width="60" height="60" viewBox="0 0 60 60" fill="none" xmlns="http://www.w3.org/2000/svg">
<path d="M44.7656 30.1172C45.7364 30.1172 46.5234 29.3302 46.5234 28.3594C46.5234 27.3886 45.7364 26.6016 44.7656 26.6016C43.7948 26.6016 43.0078 27.3886 43.0078 28.3594C43.0078 29.3302 43.7948 30.1172 44.7656 30.1172Z" fill="#3ABEFF"/>
<path d="M10.5533 21.06C11.6652 21.7874 12.4495 22.043 13.3957 22.1248V22.8516C13.3957 23.4987 13.9205 24.0234 14.5676 24.0234C15.2147 24.0234 15.7394 23.4987 15.7394 22.8516V22.0123C17.6866 21.5183 18.9347 19.8551 19.2104 18.215C19.565 16.1051 18.4193 14.1982 16.3594 13.47C16.1553 13.3979 15.9475 13.3229 15.7394 13.2457V9.45914C16.0975 9.59121 16.2838 9.77051 16.3104 9.79758C16.7367 10.2785 17.4716 10.3264 17.957 9.90363C18.445 9.47859 18.4961 8.73832 18.0709 8.25035C17.6815 7.80328 16.8772 7.24301 15.7394 7.04602V6.44531C15.7394 5.7982 15.2147 5.27344 14.5676 5.27344C13.9205 5.27344 13.3957 5.7982 13.3957 6.44531V7.17457C13.3235 7.19367 13.2506 7.21406 13.1771 7.23621C11.7881 7.65457 10.7508 8.84039 10.4699 10.3308C10.2122 11.6985 10.6562 13.0218 11.6287 13.7845C12.0878 14.1446 12.6472 14.4746 13.3957 14.8178V19.7667C12.8661 19.6922 12.4692 19.5128 11.8364 19.0988C11.2948 18.7443 10.5684 18.8962 10.2142 19.4379C9.85992 19.9794 10.0117 20.7056 10.5533 21.06ZM16.899 17.8266C16.7923 18.4617 16.3985 19.1295 15.7393 19.5069V15.7427C17.0075 16.2769 16.976 17.3685 16.899 17.8266ZM13.0751 11.9405C12.7979 11.7232 12.6794 11.2617 12.7731 10.765C12.8409 10.4048 13.038 9.98977 13.3956 9.71543V12.1662C13.2803 12.0922 13.1727 12.017 13.0751 11.9405Z" fill="#3ABEFF"/>
<path d="M58.5366 26.0405L52.4244 25.0024C51.6565 23.8083 50.75 22.7079 49.7173 21.716C50.3109 18.7466 51.9108 16.1053 54.2838 14.2069L54.6527 13.9118C55.2357 13.4455 55.4605 12.6618 55.2134 11.9572C54.9662 11.2527 54.3012 10.7812 53.5547 10.7812H48.8672C44.7195 10.7812 40.9236 13.1263 39.0197 16.7416C38.3886 16.6745 37.763 16.6406 37.1484 16.6406H29.1608C29.2499 15.9889 29.2969 15.3241 29.2969 14.6484C29.2969 6.57129 22.7256 0 14.6484 0C6.57129 0 0 6.57129 0 14.6484C0 18.2544 1.31051 21.5596 3.47918 24.1145C1.22613 27.2078 0 30.9472 0 34.8047C0 40.4171 2.61211 45.7105 7.03125 49.1453V58.2422C7.03125 59.213 7.81828 60 8.78906 60H15.8203C16.5769 60 17.2486 59.5158 17.4879 58.798L19.4311 52.9688H35.8815L37.8246 58.798C38.0639 59.5158 38.7356 60 39.4922 60H46.5234C47.4942 60 48.2812 59.213 48.2812 58.2422V49.1455C50.6985 47.2682 52.5889 44.8287 53.8056 42.0146L58.9023 39.9495C59.5658 39.6805 60 39.0362 60 38.3203V27.7734C60 26.9162 59.3817 26.184 58.5366 26.0405ZM14.6484 3.51562C20.7871 3.51562 25.7812 8.5098 25.7812 14.6484C25.7812 20.7871 20.7871 25.7812 14.6484 25.7812C8.5098 25.7812 3.51562 20.7871 3.51562 14.6484C3.51562 8.5098 8.5098 3.51562 14.6484 3.51562ZM56.4844 37.136L51.798 39.0349C51.3464 39.218 50.991 39.5802 50.8167 40.0354C49.7627 42.7868 47.9302 45.1318 45.5171 46.8165C45.0462 47.1454 44.7656 47.6834 44.7656 48.2578V56.4844H40.7592L38.8161 50.6551C38.5767 49.9373 37.905 49.4531 37.1484 49.4531H18.1641C17.4075 49.4531 16.7358 49.9373 16.4965 50.6551L14.5533 56.4844H10.5469V48.2578C10.5469 47.6835 10.2662 47.1454 9.79535 46.8165C5.86312 44.0709 3.51562 39.5807 3.51562 34.8047C3.51562 31.8335 4.41773 28.9492 6.08156 26.523C8.49234 28.2671 11.4523 29.2969 14.6484 29.2969C20.7783 29.2969 26.0399 25.5116 28.2211 20.1562H37.1484C37.9977 20.1562 38.8789 20.2378 39.7676 20.3988C40.6068 20.5515 41.4341 20.0787 41.7298 19.2785C42.8309 16.2989 45.6993 14.2969 48.8672 14.2969H49.3098C47.5788 16.5584 46.4619 19.2496 46.0853 22.1462C46.0091 22.7326 46.2327 23.318 46.6805 23.7041C47.9422 24.7921 48.9987 26.0634 49.8207 27.4826C50.0825 27.9347 50.5322 28.247 51.0475 28.3345L56.4844 29.2579V37.136Z" fill="#3ABEFF"/>
</svg>
