<svg width="60" height="60" viewBox="0 0 60 60" fill="none" xmlns="http://www.w3.org/2000/svg">
<g clip-path="url(#clip0)">
<path d="M55.1433 15.449C55.1125 13.8291 55.0831 12.2988 55.0831 10.8183C55.0831 9.65848 54.1431 8.71818 52.983 8.71818C44.0013 8.71818 37.1629 6.13695 31.4628 0.594781C30.6474 -0.198237 29.3498 -0.197957 28.5347 0.594781C22.8351 6.13695 15.9979 8.71818 7.01675 8.71818C5.8569 8.71818 4.91659 9.65848 4.91659 10.8183C4.91659 12.2991 4.88747 13.83 4.85639 15.4501C4.56853 30.5253 4.17426 51.1715 29.3109 59.8844C29.5338 59.9616 29.7662 60.0003 29.9986 60.0003C30.231 60.0003 30.4637 59.9616 30.6863 59.8844C55.8249 51.1712 55.4312 30.5245 55.1433 15.449ZM29.9989 55.6715C8.44093 47.8401 8.76688 30.6847 9.05614 15.5302C9.0735 14.6207 9.0903 13.7392 9.10206 12.8751C17.5139 12.52 24.2405 9.97099 29.9989 4.9547C35.7578 9.97099 42.4856 12.5203 50.8979 12.8751C50.9097 13.7389 50.9265 14.6199 50.9439 15.5288C51.2328 30.6838 51.5585 47.8398 29.9989 55.6715Z" fill="#3ABEFF"/>
<path d="M37.231 22.7046L27.0945 32.8405L22.769 28.515C21.9488 27.6951 20.619 27.6951 19.7991 28.515C18.9789 29.3355 18.9789 30.665 19.7991 31.4852L25.6096 37.2956C26.0195 37.7056 26.5571 37.9105 27.0945 37.9105C27.6319 37.9105 28.1695 37.7056 28.5794 37.2956L40.2006 25.6748C41.021 24.8546 41.021 23.5248 40.2009 22.7049C39.381 21.8847 38.0511 21.8844 37.231 22.7046Z" fill="#3ABEFF"/>
</g>
<defs>
<clipPath id="clip0">
<rect width="60" height="60" fill="white"/>
</clipPath>
</defs>
</svg>
