<svg width="60" height="60" viewBox="0 0 60 60" fill="none" xmlns="http://www.w3.org/2000/svg">
<g clip-path="url(#clip0)">
<path d="M49.8456 16.2731L51.5447 14.574L52.3736 15.4029C52.7168 15.7461 53.1667 15.9178 53.6164 15.9178C54.0662 15.9178 54.5162 15.7461 54.8593 15.4029C55.5458 14.7165 55.5458 13.6035 54.8593 12.917L50.7157 8.77324C50.0295 8.08687 48.9164 8.08676 48.2298 8.77324C47.5433 9.45961 47.5433 10.5727 48.2298 11.2591L49.0587 12.088L47.3596 13.7871C43.8872 10.7409 39.741 8.69297 35.2734 7.79086V3.51562H35.8594C36.8302 3.51562 37.6172 2.72859 37.6172 1.75781C37.6172 0.787031 36.8302 0 35.8594 0H24.1406C23.1698 0 22.3828 0.787031 22.3828 1.75781C22.3828 2.72859 23.1698 3.51562 24.1406 3.51562H24.7266V7.79086C20.259 8.69297 16.1128 10.7409 12.6403 13.7872L10.9412 12.0881L11.7701 11.2593C12.4566 10.5728 12.4566 9.45984 11.7701 8.77336C11.0837 8.08687 9.97066 8.08687 9.28418 8.77336L5.14043 12.9171C4.45395 13.6036 4.45395 14.7165 5.14043 15.403C5.48367 15.7462 5.93355 15.9179 6.38332 15.9179C6.83309 15.9179 7.28309 15.7464 7.62621 15.403L8.45508 14.5741L10.1542 16.2732C5.93719 21.0804 3.63281 27.1791 3.63281 33.6328C3.63281 40.6758 6.37547 47.2971 11.3556 52.2772C16.3357 57.2573 22.957 60 30 60C37.043 60 43.6643 57.2573 48.6444 52.2772C53.6245 47.2971 56.3672 40.6758 56.3672 33.6328C56.3672 27.1792 54.0628 21.0804 49.8456 16.2731ZM28.2422 3.51562H31.7578V7.32469C31.1752 7.28648 30.5892 7.26562 30 7.26562C29.4108 7.26562 28.8248 7.28648 28.2422 7.32469V3.51562ZM30 56.4844C17.3996 56.4844 7.14844 46.2332 7.14844 33.6328C7.14844 21.0325 17.3996 10.7812 30 10.7812C42.6004 10.7812 52.8516 21.0325 52.8516 33.6328C52.8516 46.2332 42.6004 56.4844 30 56.4844Z" fill="#3ABEFF"/>
<path d="M30 17.8125C30.9708 17.8125 31.7578 17.0255 31.7578 16.0547C31.7578 15.0839 30.9708 14.2969 30 14.2969C29.0292 14.2969 28.2422 15.0839 28.2422 16.0547C28.2422 17.0255 29.0292 17.8125 30 17.8125Z" fill="#3ABEFF"/>
<path d="M30 52.9688C30.9708 52.9688 31.7578 52.1818 31.7578 51.2109C31.7578 50.2401 30.9708 49.4531 30 49.4531C29.0292 49.4531 28.2422 50.2401 28.2422 51.2109C28.2422 52.1818 29.0292 52.9688 30 52.9688Z" fill="#3ABEFF"/>
<path d="M22.9142 18.8667C23.1657 17.9289 22.6093 16.9648 21.6715 16.7134C20.7337 16.4619 19.7696 17.0183 19.5181 17.9561C19.2667 18.8939 19.8231 19.858 20.7609 20.1094C21.6987 20.3609 22.6628 19.8045 22.9142 18.8667Z" fill="#3ABEFF"/>
<path d="M37.9101 47.3336C37.0694 47.819 36.7813 48.894 37.2668 49.7347C37.7522 50.5754 38.8273 50.8636 39.668 50.3781C40.5087 49.8927 40.7968 48.8176 40.3113 47.9769C39.8259 47.1362 38.7508 46.8482 37.9101 47.3336Z" fill="#3ABEFF"/>
<path d="M15.2377 26.5409C16.1756 26.2895 16.732 25.3254 16.4805 24.3876C16.2291 23.4498 15.265 22.8934 14.3272 23.1448C13.3894 23.3963 12.833 24.3603 13.0844 25.2981C13.3359 26.2359 14.2999 26.7924 15.2377 26.5409Z" fill="#3ABEFF"/>
<path d="M46.102 40.8996C45.2613 40.4142 44.1863 40.7023 43.7009 41.543C43.2155 42.3837 43.5035 43.4587 44.3442 43.9441C45.1849 44.4295 46.26 44.1415 46.7454 43.3008C47.2308 42.4601 46.9428 41.385 46.102 40.8996Z" fill="#3ABEFF"/>
<path d="M12.4219 35.3906C13.3927 35.3906 14.1797 34.6036 14.1797 33.6328C14.1797 32.662 13.3927 31.875 12.4219 31.875C11.4511 31.875 10.6641 32.662 10.6641 33.6328C10.6641 34.6036 11.4511 35.3906 12.4219 35.3906Z" fill="#3ABEFF"/>
<path d="M47.5781 35.3906C48.5489 35.3906 49.3359 34.6036 49.3359 33.6328C49.3359 32.662 48.5489 31.875 47.5781 31.875C46.6073 31.875 45.8203 32.662 45.8203 33.6328C45.8203 34.6036 46.6073 35.3906 47.5781 35.3906Z" fill="#3ABEFF"/>
<path d="M16.4808 42.8838C16.7322 41.946 16.1758 40.9819 15.238 40.7304C14.3002 40.479 13.3361 41.0354 13.0847 41.9732C12.8332 42.911 13.3896 43.8751 14.3274 44.1265C15.2652 44.378 16.2293 43.8216 16.4808 42.8838Z" fill="#3ABEFF"/>
<path d="M46.102 26.3661C46.9427 25.8807 47.2309 24.8056 46.7454 23.9649C46.26 23.1242 45.1849 22.836 44.3442 23.3215C43.5035 23.8069 43.2154 24.882 43.7009 25.7227C44.1863 26.5634 45.2612 26.8516 46.102 26.3661Z" fill="#3ABEFF"/>
<path d="M21.6766 50.5537C22.6145 50.3023 23.1709 49.3382 22.9194 48.4004C22.668 47.4626 21.7039 46.9062 20.7661 47.1576C19.8283 47.4091 19.2719 48.3732 19.5233 49.311C19.7748 50.2488 20.7388 50.8052 21.6766 50.5537Z" fill="#3ABEFF"/>
<path d="M39.668 16.8874C38.8273 16.402 37.7522 16.6901 37.2668 17.5308C36.7814 18.3715 37.0695 19.4465 37.9102 19.9319C38.7509 20.4173 39.8259 20.1293 40.3113 19.2886C40.7968 18.4479 40.5087 17.3728 39.668 16.8874Z" fill="#3ABEFF"/>
<path d="M30 28.3594C28.6942 28.3594 27.4986 28.8375 26.5766 29.6265L21.7451 26.8371C20.9041 26.3515 19.829 26.6397 19.3439 27.4805C18.8585 28.3212 19.1465 29.3963 19.9872 29.8816L24.8163 32.6697C24.7583 32.9822 24.7265 33.3038 24.7265 33.6328C24.7265 36.5406 27.0922 38.9063 30 38.9063C32.9077 38.9063 35.2734 36.5406 35.2734 33.6328C35.2734 30.725 32.9077 28.3594 30 28.3594ZM30 35.3906C29.0307 35.3906 28.2422 34.6021 28.2422 33.6328C28.2422 33.3643 28.3045 33.1108 28.4126 32.8828C28.4397 32.8436 28.466 32.8033 28.4902 32.7612C28.5144 32.7193 28.5352 32.6765 28.5556 32.6336C28.8732 32.1758 29.4018 31.875 30 31.875C30.9692 31.875 31.7578 32.6636 31.7578 33.6328C31.7578 34.6021 30.9692 35.3906 30 35.3906Z" fill="#3ABEFF"/>
</g>
<defs>
<clipPath id="clip0">
<rect width="60" height="60" fill="white"/>
</clipPath>
</defs>
</svg>
