<svg width="75" height="75" viewBox="0 0 75 75" fill="none" xmlns="http://www.w3.org/2000/svg">
<circle cx="37.5" cy="37.5" r="37.5" fill="#F2F2F2"/>
<path d="M44.5325 13H29.4805C25.8725 13 22.9375 15.935 22.9375 19.543V56.457C22.9375 60.065 25.8725 63 29.4805 63H44.5325C48.1404 63 51.0755 60.065 51.0755 56.457V19.543C51.0755 15.935 48.1404 13 44.5325 13ZM29.4805 60.0703C27.4881 60.0703 25.8672 58.4494 25.8672 56.457V53.0932H48.1458V56.457C48.1458 58.4494 46.5249 60.0703 44.5325 60.0703H29.4805ZM44.5325 15.9297C46.5089 15.9297 48.1191 17.5254 48.1446 19.496H25.8683C25.8935 17.5254 27.5037 15.9297 29.4805 15.9297H44.5325ZM48.1458 22.4257V50.1635H25.8672V22.4257H48.1458Z" fill="#3ABEFF"/>
<path d="M37.0065 55.2852C36.6208 55.2852 36.2428 55.4416 35.9704 55.7139C35.6976 55.9874 35.5416 56.3643 35.5416 56.75C35.5416 57.1357 35.6976 57.5126 35.9704 57.7861C36.2439 58.0584 36.6208 58.2148 37.0065 58.2148C37.3921 58.2148 37.769 58.0584 38.0425 57.7861C38.3149 57.5126 38.4713 57.1357 38.4713 56.75C38.4713 56.3643 38.3149 55.9874 38.0425 55.7139C37.769 55.4416 37.3921 55.2852 37.0065 55.2852Z" fill="#3ABEFF"/>
</svg>
