<svg width="60" height="60" viewBox="0 0 60 60" fill="none" xmlns="http://www.w3.org/2000/svg">
<path d="M29.5724 28.9022C33.5431 28.9022 36.9809 27.4781 39.7906 24.6684C42.5995 21.8591 44.024 18.4217 44.024 14.4507C44.024 10.4809 42.5999 7.04314 39.7902 4.23293C36.9804 1.4241 33.5426 0 29.5724 0C25.6013 0 22.164 1.4241 19.3547 4.23339C16.5454 7.04268 15.1208 10.4805 15.1208 14.4507C15.1208 18.4217 16.5454 21.8595 19.3547 24.6688C22.1649 27.4777 25.6027 28.9022 29.5724 28.9022ZM21.8413 6.7195C23.9969 4.56389 26.5256 3.51608 29.5724 3.51608C32.6189 3.51608 35.148 4.56389 37.3041 6.7195C39.4597 8.87556 40.508 11.4047 40.508 14.4507C40.508 17.4975 39.4597 20.0262 37.3041 22.1823C35.148 24.3383 32.6189 25.3862 29.5724 25.3862C26.5265 25.3862 23.9978 24.3379 21.8413 22.1823C19.6852 20.0267 18.6369 17.4975 18.6369 14.4507C18.6369 11.4047 19.6852 8.87556 21.8413 6.7195Z" fill="#3ABEFF"/>
<path d="M54.8589 46.137C54.7778 44.9678 54.614 43.6925 54.3727 42.3458C54.1292 40.989 53.8156 39.7063 53.4402 38.534C53.0521 37.3223 52.5252 36.1257 51.8729 34.979C51.1967 33.7888 50.4021 32.7524 49.5103 31.8996C48.5779 31.0074 47.4362 30.2901 46.116 29.7669C44.8004 29.2464 43.3424 28.9828 41.7828 28.9828C41.1703 28.9828 40.578 29.2341 39.4341 29.9788C38.73 30.438 37.9065 30.969 36.9873 31.5563C36.2013 32.0571 35.1366 32.5263 33.8214 32.9511C32.5383 33.3663 31.2355 33.5769 29.9492 33.5769C28.6638 33.5769 27.361 33.3663 26.077 32.9511C24.7632 32.5268 23.698 32.0576 22.9134 31.5568C22.0029 30.9749 21.1789 30.4439 20.4643 29.9784C19.3213 29.2336 18.7289 28.9823 18.1165 28.9823C16.5564 28.9823 15.0989 29.2464 13.7837 29.7674C12.4644 30.2897 11.3223 31.007 10.3889 31.9001C9.49722 32.7533 8.70255 33.7893 8.02689 34.979C7.37549 36.1257 6.84814 37.3218 6.45996 38.5344C6.08505 39.7068 5.77148 40.989 5.52795 42.3458C5.28625 43.6907 5.12283 44.9665 5.04181 46.1383C4.96216 47.2841 4.92188 48.4766 4.92188 49.6814C4.92188 52.8134 5.91751 55.349 7.88086 57.2189C9.81995 59.0642 12.3853 59.9998 15.5058 59.9998H44.3962C47.5159 59.9998 50.0812 59.0642 52.0207 57.2189C53.9845 55.3504 54.9802 52.8139 54.9802 49.681C54.9797 48.472 54.939 47.2795 54.8589 46.137ZM49.5964 54.6715C48.3151 55.891 46.6141 56.4838 44.3958 56.4838H15.5058C13.287 56.4838 11.586 55.891 10.3052 54.6719C9.04861 53.4758 8.43796 51.843 8.43796 49.6814C8.43796 48.5572 8.47504 47.4471 8.54919 46.3814C8.62152 45.3359 8.76938 44.1873 8.98865 42.967C9.20517 41.7617 9.48074 40.6305 9.8085 39.6065C10.123 38.6246 10.5519 37.6523 11.0838 36.7157C11.5915 35.8231 12.1756 35.0573 12.8201 34.4402C13.423 33.863 14.1829 33.3906 15.0783 33.0362C15.9064 32.7085 16.837 32.529 17.8473 32.502C17.9704 32.5675 18.1897 32.6925 18.5449 32.9241C19.2677 33.3951 20.1009 33.9325 21.0219 34.5208C22.0601 35.1827 23.3977 35.7805 24.9957 36.2964C26.6295 36.8247 28.2957 37.0929 29.9496 37.0929C31.6035 37.0929 33.2703 36.8247 34.9031 36.2969C36.5025 35.7801 37.8397 35.1827 38.8792 34.5199C39.8218 33.9174 40.6316 33.3956 41.3544 32.9241C41.7096 32.6929 41.9289 32.5675 42.052 32.502C43.0627 32.529 43.9934 32.7085 44.8219 33.0362C45.7169 33.3906 46.4767 33.8634 47.0796 34.4402C47.7242 35.0568 48.3083 35.8226 48.8159 36.7162C49.3483 37.6523 49.7777 38.6251 50.0917 39.6061C50.4199 40.6314 50.696 41.7621 50.912 42.9665C51.1308 44.1892 51.2791 45.3382 51.3515 46.3819V46.3828C51.4261 47.4443 51.4636 48.5539 51.4641 49.6814C51.4636 51.8434 50.853 53.4758 49.5964 54.6715Z" fill="#3ABEFF"/>
</svg>
