<svg width="60" height="60" viewBox="0 0 60 60" fill="none" xmlns="http://www.w3.org/2000/svg">
<path d="M58.2532 10.6645C58.2495 10.6645 58.2458 10.6641 58.2422 10.6641H42.3047V8.90625C42.3047 5.99854 39.939 3.63281 37.0312 3.63281H22.9688C20.061 3.63281 17.6953 5.99854 17.6953 8.90625V10.6641H1.75781C0.779114 10.6641 0 11.4661 0 12.4219V51.0938C0 54.0015 2.36572 56.3672 5.27344 56.3672H54.7266C57.6343 56.3672 60 54.0015 60 51.0938V12.459C60 12.4567 60 12.4544 60 12.4521C59.9327 11.2976 59.2227 10.6709 58.2532 10.6645ZM21.2109 8.90625C21.2109 7.93716 21.9997 7.14844 22.9688 7.14844H37.0312C38.0003 7.14844 38.7891 7.93716 38.7891 8.90625V10.6641H21.2109V8.90625ZM55.8032 14.1797L50.3444 30.5557C50.105 31.2749 49.4348 31.7578 48.6772 31.7578H38.7891V30C38.7891 29.0291 38.0022 28.2422 37.0312 28.2422H22.9688C21.9978 28.2422 21.2109 29.0291 21.2109 30V31.7578H11.3228C10.5652 31.7578 9.89502 31.2749 9.65561 30.5557L4.19678 14.1797H55.8032ZM35.2734 31.7578V35.2734H24.7266V31.7578H35.2734ZM56.4844 51.0938C56.4844 52.0628 55.6956 52.8516 54.7266 52.8516H5.27344C4.30435 52.8516 3.51562 52.0628 3.51562 51.0938V23.2539L6.32034 31.6676C7.03903 33.8246 9.04953 35.2734 11.3228 35.2734H21.2109V37.0312C21.2109 38.0022 21.9978 38.7891 22.9688 38.7891H37.0312C38.0022 38.7891 38.7891 38.0022 38.7891 37.0312V35.2734H48.6772C50.9505 35.2734 52.961 33.8246 53.6797 31.6676L56.4844 23.2539V51.0938Z" fill="#3ABEFF"/>
</svg>
