<svg width="41" height="34" viewBox="0 0 41 34" fill="none" xmlns="http://www.w3.org/2000/svg">
<path d="M15.2243 24.3912C14.1351 24.3912 13.244 23.5596 13.244 22.5433V13.3042H9.2832V22.5433C9.2832 25.5922 11.9567 28.0868 15.2243 28.0868H34.0379V24.3912H15.2243Z" fill="white"/>
<path d="M9.35782 3.76285L8.95729 2.53992C8.35648 1.03478 6.85447 0 5.15219 0H1.54736V3.76285H5.15219L10.6596 19.3787C10.96 20.1312 11.6609 20.6957 12.5621 20.6957H31.5876C32.3887 20.6957 33.0896 20.2253 33.39 19.5668L41.0002 3.76285H9.35782Z" fill="white"/>
<path d="M1.93396 0C0.865864 0 0 0.8273 0 1.84783C0 2.86835 0.865864 3.69565 1.93396 3.69565C3.00206 3.69565 3.86792 2.86835 3.86792 1.84783C3.86792 0.8273 3.00206 0 1.93396 0Z" fill="white"/>
<path fill-rule="evenodd" clip-rule="evenodd" d="M13.1509 31.0434C13.1509 29.4106 14.4868 28.0869 16.1347 28.0869C17.7826 28.0869 19.1185 29.4106 19.1185 31.0434C19.1185 32.6763 17.7826 34 16.1347 34C14.4868 34 13.1509 32.6763 13.1509 31.0434ZM28.07 31.0434C28.07 29.4106 29.4059 28.0869 31.0538 28.0869C32.7018 28.0869 34.0377 29.4106 34.0377 31.0434C34.0377 32.6763 32.7018 34 31.0538 34C29.4059 34 28.07 32.6763 28.07 31.0434Z" fill="white"/>
<path fill-rule="evenodd" clip-rule="evenodd" d="M14.6982 31.4129C14.6982 30.8006 15.1465 30.3042 15.6994 30.3042C16.2522 30.3042 16.7005 30.8006 16.7005 31.4129C16.7005 32.0252 16.2522 32.5216 15.6994 32.5216C15.1465 32.5216 14.6982 32.0252 14.6982 31.4129ZM29.7149 31.4129C29.7149 30.8006 30.1631 30.3042 30.716 30.3042C31.2689 30.3042 31.7171 30.8006 31.7171 31.4129C31.7171 32.0252 31.2689 32.5216 30.716 32.5216C30.1631 32.5216 29.7149 32.0252 29.7149 31.4129Z" fill="white"/>
</svg>
