<svg width="46" height="46" viewBox="0 0 46 46" fill="none" xmlns="http://www.w3.org/2000/svg">
<path fill-rule="evenodd" clip-rule="evenodd" d="M23 0C10.2983 0 0 10.2983 0 23C0 35.7018 10.2983 46 23 46C35.7018 46 46 35.7018 46 23C46 10.2983 35.7018 0 23 0ZM17.25 13.4167H25.2461C29.1906 13.4167 31.887 16.0579 31.887 20.0426C31.887 23.9871 29.0861 26.8333 25.0477 26.8333H21.0833V28.75H24.9167V30.6667H21.0833V34.5H17.25V30.6667H13.4167V28.75H17.25V26.8333H13.4167V24.9167H17.25V13.4167ZM21.0833 23.3781V16.7109H24.1829C26.4944 16.7109 27.8085 17.8784 27.8104 20.0576C27.8104 22.21 26.4698 23.3781 24.1717 23.3781H21.0833Z" fill="black"/>
</svg>
