<svg width="46" height="60" viewBox="0 0 46 60" fill="none" xmlns="http://www.w3.org/2000/svg">
<path fill-rule="evenodd" clip-rule="evenodd" d="M23 0C17.9148 0 13.5215 2.11839 10.7812 5.55288C8.04102 8.98738 6.9 13.4405 6.9 18.2452V20.7692H13.8V18.2452C13.8 14.6034 14.6984 11.7368 16.1719 9.87981C17.6453 8.02284 19.6488 6.92308 23 6.92308C26.3602 6.92308 28.3547 7.95974 29.8281 9.80769C31.3016 11.6556 32.2 14.5583 32.2 18.2452V20.7692H39.1V18.2452C39.1 13.4135 37.8871 8.91526 35.1469 5.48077C32.4066 2.04627 28.0762 0 23 0ZM6.9 23.0769C3.09063 23.0769 0 26.1779 0 30V53.0769C0 56.899 3.09063 60 6.9 60H39.1C42.9094 60 46 56.899 46 53.0769V30C46 26.1779 42.9094 23.0769 39.1 23.0769H6.9ZM27.6 39.2308C27.6 36.6797 25.5426 34.6154 23 34.6154C20.4574 34.6154 18.4 36.6797 18.4 39.2308C18.4 40.9345 19.3254 42.3948 20.7 43.1971V48.4615C20.7 49.7326 21.7332 50.7692 23 50.7692C24.2668 50.7692 25.3 49.7326 25.3 48.4615V43.1971C26.6746 42.3948 27.6 40.9345 27.6 39.2308Z" fill="black"/>
</svg>
