<svg width="46" height="54" viewBox="0 0 46 54" fill="none" xmlns="http://www.w3.org/2000/svg">
<path fill-rule="evenodd" clip-rule="evenodd" d="M6.57143 8.64C6.57143 3.79688 10.4219 0 15.3333 0C20.2448 0 24.0952 3.79688 24.0952 8.64C24.0952 13.4831 20.2448 17.28 15.3333 17.28C10.4219 17.28 6.57143 13.4831 6.57143 8.64ZM28.3051 4.48875C28.4847 4.37063 28.7072 4.32 28.9211 4.32H30.2902C30.5811 4.32 30.872 4.42125 31.0774 4.62375L32.3095 5.8725L33.5417 4.62375C33.747 4.42125 34.0037 4.32 34.2946 4.32H36.1429C36.4338 4.32 36.7247 4.42125 36.9301 4.62375L39.1205 6.78375C39.3259 6.98625 39.4286 7.27313 39.4286 7.56V9.72C39.4286 10.0069 39.3259 10.2937 39.1205 10.4963L36.9301 12.6562C36.7247 12.8588 36.4338 12.96 36.1429 12.96H25.3958C25.9648 11.6438 26.2857 10.1841 26.2857 8.64C26.2857 7.10859 25.9905 5.66156 25.4301 4.35375C25.567 4.38328 25.691 4.41281 25.8065 4.48875L27.0387 5.36625L28.3051 4.48875ZM13.1429 6.48C14.3536 6.48 15.3333 7.44609 15.3333 8.64C15.3333 9.83391 14.3536 10.8 13.1429 10.8C11.9321 10.8 10.9524 9.83391 10.9524 8.64C10.9524 7.44609 11.9321 6.48 13.1429 6.48ZM0 22.68C0 20.8955 1.476 19.44 3.28571 19.44H42.7143C44.524 19.44 46 20.8955 46 22.68V50.76C46 52.5445 44.524 54 42.7143 54H3.28571C1.476 54 0 52.5445 0 50.76V22.68ZM20.8095 22.68H25.1905C26.4611 22.68 27.381 23.587 27.381 24.84V27H30.6667V48.6H15.3333V27H18.619V24.84C18.619 23.587 19.5389 22.68 20.8095 22.68ZM20.8095 27V24.84H25.1905V27H20.8095ZM9.85714 27H13.1429V48.6H9.85714C8.65067 48.6 7.66667 47.6297 7.66667 46.44V29.16C7.66667 27.9703 8.65067 27 9.85714 27ZM36.1429 27H32.8571V48.6H36.1429C37.3493 48.6 38.3333 47.6297 38.3333 46.44V29.16C38.3333 27.9703 37.3493 27 36.1429 27Z" fill="black"/>
</svg>
