<svg width="97" height="97" viewBox="0 0 97 97" fill="none" xmlns="http://www.w3.org/2000/svg">
<path d="M0 48.5C0 21.7185 21.7185 0 48.5 0C75.2815 0 97 21.7185 97 48.5C97 75.2815 75.2815 97 48.5 97C21.7185 97 0 75.2815 0 48.5Z" fill="#5EDC63"/>
<path d="M25 45H73V76H25V45Z" fill="#FAFAFA"/>
<path d="M66.3083 65C64.807 65 63.5786 63.7776 63.5786 62.2837V35.8964C63.5786 27.3593 56.5982 20.4133 48.019 20.4133C39.4398 20.4133 32.4595 27.3593 32.4595 35.8964V62.2837C32.4595 63.7776 31.2311 65 29.7297 65C28.2284 65 27 63.7776 27 62.2837V35.8964C27 24.3714 36.4176 15 47.9995 15C59.5815 15 68.9991 24.3714 68.9991 35.8964V62.2837C69.0381 63.7971 67.8097 65 66.3083 65Z" fill="#FAFAFA"/>
<path d="M54 58.3271C54 55.3832 51.7632 53 49 53C46.2368 53 44 55.3832 44 58.3271C44 60.2096 44.9023 61.8518 46.2744 62.7931C46.2744 63.6342 46.2744 64.6756 46.2744 65.0961C46.2744 66.6983 47.4962 68 49 68C50.5038 68 51.7256 66.6983 51.7256 65.0961C51.7256 64.6956 51.7256 63.6542 51.7256 62.7931C53.0977 61.8518 54 60.1896 54 58.3271Z" fill="#5EDC63"/>
</svg>
