<svg width="423" height="426" viewBox="0 0 423 426" fill="none" xmlns="http://www.w3.org/2000/svg">
<g opacity="0.151042">
<path opacity="0.34062" fill-rule="evenodd" clip-rule="evenodd" d="M287.64 0C213.02 0 152.28 61.1377 152.28 136.32C152.28 153.027 155.519 168.902 161.004 183.712L2.37937 343.196L0 345.859V403.901L2.37937 406.564L19.2994 423.604L21.9431 426H79.5769L82.2206 423.604L107.601 398.044L109.98 395.381V374.88H130.337L132.981 372.484L158.361 346.924L160.74 344.261V332.28H172.637L175.281 329.884L192.201 312.844L194.58 310.181V298.2H206.477L209.121 295.804L240.581 263.854C255.287 269.378 271.05 272.64 287.64 272.64C362.26 272.64 423 211.469 423 136.32C423 61.1377 362.26 0 287.64 0ZM287.64 17.04C353.106 17.04 406.08 70.3566 406.08 136.32C406.08 202.25 353.106 255.6 287.64 255.6C271.381 255.6 255.981 252.505 241.903 246.548L241.639 246.281C199.107 228.176 169.2 185.776 169.2 136.32C169.2 70.3566 222.174 17.04 287.64 17.04ZM221.811 70.0238C239.953 51.7523 263.813 42.6 287.64 42.6C311.467 42.6 335.327 51.7523 353.469 70.0238C389.755 106.533 389.755 166.107 353.469 202.616L347.389 208.74L341.573 202.616L221.811 82.005L215.73 76.1475L221.811 70.0238ZM287.64 59.64C307.105 59.64 326.668 66.9952 341.573 82.005C369.266 109.895 370.125 153.327 346.331 183.446L240.846 77.2125C254.659 66.1631 270.918 59.64 287.64 59.64ZM223.926 256.665C200.264 243.918 180.799 224.316 168.143 200.486L16.92 353.047V379.939L148.579 247.08C149.735 245.882 151.189 245.05 152.809 244.684C156.642 243.519 160.773 245.216 162.69 248.777C164.606 252.305 163.78 256.698 160.74 259.328L20.6213 400.44L29.0812 408.96H72.4388L93.06 388.193V357.84H123.199L143.82 337.073V315.24H165.499L177.66 302.992V281.16H199.339L223.926 256.665Z" fill="#000C33"/>
</g>
</svg>
