<svg width="444" height="464" viewBox="0 0 444 464" fill="none" xmlns="http://www.w3.org/2000/svg">
<g opacity="0.0322425">
<path fill-rule="evenodd" clip-rule="evenodd" d="M222.033 0C169.658 0 79.1925 16.8569 38.5507 26.8435C15.9309 32.3998 0 52.2536 0 74.737V181.274C0 263.442 54.9093 332.524 107.782 381.216C160.655 429.909 213.496 459.236 213.496 459.236L222.167 464L230.704 459.172C230.704 459.172 283.476 429.128 336.285 380.122C389.093 331.116 444 262.192 444 181.274V74.737C444 52.2463 428.077 32.447 405.516 26.8435H405.449C364.814 16.858 274.409 0 222.033 0ZM222.033 33.5422C266.108 33.5422 359.196 50.1571 396.561 59.3559C404.237 61.2671 409.403 67.6865 409.403 75.3204V181.858C409.403 248.003 361.977 310.89 312.458 356.954C268.989 397.389 232.417 418.76 222.979 424.275L222.97 424.28C222.591 424.502 222.256 424.697 221.967 424.867C221.662 424.693 221.308 424.49 220.906 424.261C211.388 418.83 174.902 398.011 131.542 357.984C82.0532 312.298 34.5974 249.522 34.5974 181.858V75.3204C34.5974 67.6134 39.6867 61.2483 47.3726 59.3559C84.7053 50.1603 177.942 33.5422 222.033 33.5422ZM171.34 148.744C171.34 121.287 194.205 99.0293 222.412 99.0293C250.618 99.0293 273.484 121.287 273.484 148.744C273.463 167.094 263.058 183.941 246.419 192.567L273.484 297.886H171.34L198.405 192.567C181.766 183.941 171.361 167.094 171.34 148.744Z" fill="#000C33"/>
</g>
</svg>
