<svg width="256" height="34" viewBox="0 0 256 34" fill="none" xmlns="http://www.w3.org/2000/svg">
<path d="M59.4177 8.08889C61.1433 8.08889 62.6414 8.37333 63.9119 8.94222C65.2014 9.51111 66.1875 10.3265 66.8701 11.3884C67.5528 12.4504 67.8941 13.7114 67.8941 15.1716C67.8941 16.6127 67.5528 17.8738 66.8701 18.9547C66.1875 20.0166 65.2014 20.832 63.9119 21.4009C62.6414 21.9698 61.1433 22.2542 59.4177 22.2542H54.9235V28H51.2257V8.08889H59.4177ZM59.247 19.1253C60.8589 19.1253 62.082 18.784 62.9164 18.1013C63.7507 17.4187 64.1679 16.4421 64.1679 15.1716C64.1679 13.901 63.7507 12.9244 62.9164 12.2418C62.082 11.5591 60.8589 11.2178 59.247 11.2178H54.9235V19.1253H59.247ZM85.0424 12.8107L77.9312 29.2231C77.2675 30.8729 76.4616 32.0296 75.5135 32.6933C74.5653 33.376 73.4181 33.7173 72.0717 33.7173C71.3132 33.7173 70.5641 33.5941 69.8246 33.3476C69.085 33.101 68.4782 32.7597 68.0041 32.3236L69.4264 29.7067C69.7677 30.029 70.1659 30.285 70.621 30.4747C71.0951 30.6643 71.5692 30.7591 72.0432 30.7591C72.669 30.7591 73.181 30.5979 73.5792 30.2756C73.9964 29.9532 74.3757 29.4127 74.717 28.6542L74.973 28.0569L68.3455 12.8107H72.0432L76.8219 24.0462L81.629 12.8107H85.0424ZM93.5806 28.1991C92.0067 28.1991 90.5939 27.8673 89.3424 27.2036C88.0908 26.5399 87.1142 25.6201 86.4126 24.4444C85.711 23.2498 85.3601 21.9034 85.3601 20.4053C85.3601 18.9073 85.711 17.5704 86.4126 16.3947C87.1142 15.219 88.0813 14.2993 89.3139 13.6356C90.5655 12.9719 91.9877 12.64 93.5806 12.64C95.0787 12.64 96.3871 12.9434 97.5059 13.5502C98.6437 14.157 99.497 15.0293 100.066 16.1671L97.3353 17.76C96.8991 17.0584 96.3492 16.5369 95.6855 16.1956C95.0407 15.8353 94.3296 15.6551 93.5521 15.6551C92.2247 15.6551 91.1249 16.0913 90.2526 16.9636C89.3803 17.8169 88.9441 18.9641 88.9441 20.4053C88.9441 21.8465 89.3708 23.0033 90.2241 23.8756C91.0964 24.7289 92.2058 25.1556 93.5521 25.1556C94.3296 25.1556 95.0407 24.9849 95.6855 24.6436C96.3492 24.2833 96.8991 23.7523 97.3353 23.0507L100.066 24.6436C99.4781 25.7813 98.6153 26.6631 97.4775 27.2889C96.3587 27.8957 95.0597 28.1991 93.5806 28.1991ZM107.264 13.0382C108.724 13.0382 110.042 13.3701 111.218 14.0338C112.393 14.6785 113.323 15.5793 114.005 16.736C114.688 17.8738 115.029 19.1538 115.029 20.576C115.029 21.9982 114.688 23.2877 114.005 24.4444C113.323 25.6012 112.393 26.5114 111.218 27.1751C110.042 27.8199 108.724 28.1422 107.264 28.1422C106.069 28.1422 104.96 27.9621 103.936 27.6018C102.931 27.2415 102.087 26.7105 101.404 26.0089L102.229 25.1556C103.519 26.3313 105.178 26.9191 107.207 26.9191C108.364 26.9191 109.416 26.6631 110.364 26.1511C111.331 25.6391 112.109 24.9375 112.697 24.0462C113.285 23.136 113.617 22.1215 113.692 21.0027H105.301V19.8933H113.664C113.55 18.8124 113.199 17.8453 112.611 16.992C112.024 16.1197 111.256 15.4465 110.307 14.9724C109.378 14.4794 108.345 14.2329 107.207 14.2329C105.197 14.2329 103.538 14.8302 102.229 16.0249L101.404 15.2C102.087 14.4984 102.931 13.9674 103.936 13.6071C104.96 13.2278 106.069 13.0382 107.264 13.0382ZM128.564 14.432H122.761V28H121.339V14.432H115.536V13.152H128.564V14.432ZM131.182 13.152H132.605V25.8098L143.186 13.152H144.437V28H143.015V15.3422L132.434 28H131.182V13.152ZM155.179 21.1164H151.567V28H150.145V13.152H151.567V19.8933H155.179L160.783 13.152H162.347L156.317 20.3484L162.802 28H161.096L155.179 21.1164ZM178.015 20.9173H165.243C165.281 22.0741 165.575 23.1076 166.125 24.0178C166.675 24.909 167.414 25.6012 168.343 26.0942C169.292 26.5873 170.354 26.8338 171.529 26.8338C172.496 26.8338 173.388 26.6631 174.203 26.3218C175.037 25.9615 175.73 25.44 176.279 24.7573L177.104 25.696C176.46 26.4735 175.644 27.0708 174.658 27.488C173.691 27.9052 172.639 28.1138 171.501 28.1138C170.022 28.1138 168.704 27.7914 167.547 27.1467C166.39 26.5019 165.48 25.6107 164.816 24.4729C164.172 23.3351 163.849 22.0361 163.849 20.576C163.849 19.1348 164.153 17.8453 164.759 16.7076C165.385 15.5508 166.239 14.6501 167.319 14.0053C168.4 13.3606 169.614 13.0382 170.96 13.0382C172.307 13.0382 173.511 13.3606 174.573 14.0053C175.654 14.6311 176.498 15.5129 177.104 16.6507C177.73 17.7884 178.043 19.0779 178.043 20.5191L178.015 20.9173ZM170.96 14.2898C169.917 14.2898 168.979 14.5268 168.144 15.0009C167.31 15.456 166.637 16.1102 166.125 16.9636C165.632 17.7979 165.347 18.7461 165.271 19.808H176.649C176.592 18.7461 176.308 17.7979 175.796 16.9636C175.284 16.1292 174.611 15.475 173.776 15.0009C172.942 14.5268 172.003 14.2898 170.96 14.2898ZM191.496 14.432H185.693V28H184.271V14.432H178.469V13.152H191.496V14.432ZM199.149 21.1164H195.537V28H194.115V13.152H195.537V19.8933H199.149L204.753 13.152H206.317L200.287 20.3484L206.772 28H205.066L199.149 21.1164ZM214.498 13.0382C216.337 13.0382 217.75 13.5123 218.736 14.4604C219.722 15.3896 220.215 16.7644 220.215 18.5849V28H218.85V25.3547C218.376 26.227 217.683 26.9096 216.773 27.4027C215.863 27.8767 214.773 28.1138 213.502 28.1138C211.852 28.1138 210.544 27.725 209.577 26.9476C208.629 26.1701 208.155 25.1461 208.155 23.8756C208.155 22.643 208.591 21.6474 209.463 20.8889C210.354 20.1114 211.767 19.7227 213.701 19.7227H218.793V18.528C218.793 17.1437 218.414 16.0913 217.655 15.3707C216.915 14.6501 215.825 14.2898 214.384 14.2898C213.398 14.2898 212.45 14.4604 211.539 14.8018C210.648 15.1431 209.89 15.5982 209.264 16.1671L208.553 15.1431C209.292 14.4794 210.184 13.9674 211.227 13.6071C212.27 13.2278 213.36 13.0382 214.498 13.0382ZM213.701 26.9476C214.934 26.9476 215.977 26.6631 216.83 26.0942C217.702 25.5253 218.357 24.7004 218.793 23.6196V20.832H213.73C212.27 20.832 211.208 21.0975 210.544 21.6284C209.899 22.1594 209.577 22.8895 209.577 23.8187C209.577 24.7858 209.937 25.5538 210.658 26.1227C211.378 26.6726 212.393 26.9476 213.701 26.9476Z" fill="white"/>
<rect width="44" height="34" fill="#C4C4C4"/>
</svg>
