<svg width="33" height="29" viewBox="0 0 33 29" fill="none" xmlns="http://www.w3.org/2000/svg">
<path d="M7.18614 28.6949C5.57829 28.6951 4.03484 28.063 2.88892 26.9352L2.76253 26.8088C2.18679 26.247 1.72931 25.5756 1.41708 24.8342C1.10484 24.0929 0.944147 23.2965 0.944476 22.4921C0.942441 21.6212 1.11326 20.7586 1.44704 19.9542C1.78081 19.1498 2.27091 18.4196 2.88892 17.806L17.9584 2.90183C19.4895 1.30764 21.5855 0.378669 23.795 0.315022C26.0045 0.251376 28.1505 1.05815 29.7709 2.56155C30.5016 3.29052 31.08 4.15766 31.4723 5.11242C31.8645 6.06719 32.0628 7.09048 32.0556 8.12266C32.0469 9.27543 31.8106 10.4151 31.3601 11.4763C30.9096 12.5374 30.2539 13.4991 29.4306 14.306L15.8875 27.7227C15.8033 27.8359 15.6955 27.9295 15.5715 27.9968C15.4476 28.0642 15.3104 28.1038 15.1696 28.1129C15.0288 28.1219 14.8877 28.1002 14.7561 28.0492C14.6245 27.9982 14.5056 27.9192 14.4076 27.8177C14.3096 27.7161 14.2349 27.5945 14.1887 27.4611C14.1425 27.3278 14.1258 27.186 14.1399 27.0456C14.154 26.9052 14.1985 26.7696 14.2702 26.6481C14.342 26.5266 14.4394 26.4222 14.5556 26.3421L28.0598 12.9254C28.7011 12.2994 29.2124 11.5529 29.5645 10.7287C29.9165 9.90446 30.1023 9.01885 30.1111 8.12266C30.1182 7.34707 29.9705 6.57786 29.6767 5.86003C29.3829 5.14221 28.9489 4.49018 28.4 3.9421C27.1437 2.79767 25.4884 2.19212 23.7902 2.25576C22.092 2.3194 20.4866 3.04713 19.3195 4.28238L4.29864 19.1865C3.856 19.6164 3.50338 20.13 3.26134 20.6975C3.0193 21.2651 2.8927 21.8751 2.88892 22.4921C2.88684 23.0339 2.99233 23.5706 3.19928 24.0713C3.40622 24.572 3.7105 25.0266 4.09448 25.4088L4.22086 25.5352C5.09076 26.3362 6.24042 26.7636 7.42234 26.7255C8.60426 26.6873 9.72393 26.1865 10.5403 25.331L23.5195 12.4977C23.7649 12.2495 23.9584 11.9548 24.0886 11.631C24.2188 11.3071 24.2832 10.9606 24.2778 10.6115C24.2799 10.3084 24.2217 10.0079 24.1066 9.72746C23.9914 9.44704 23.8216 9.19235 23.607 8.97822C23.116 8.52799 22.4677 8.28889 21.8019 8.31254C21.1362 8.33619 20.5064 8.62068 20.0486 9.1046L11.1042 17.9713C10.9211 18.1531 10.6733 18.2547 10.4153 18.2538C10.1574 18.2528 9.91029 18.1495 9.7285 17.9664C9.54672 17.7833 9.44511 17.5355 9.44602 17.2776C9.44693 17.0196 9.55029 16.7725 9.73336 16.5907L18.7167 7.69488C19.5401 6.85131 20.6622 6.36526 21.8408 6.34162C23.0194 6.31798 24.1601 6.75862 25.0167 7.56849C25.4106 7.96953 25.7203 8.44541 25.9273 8.96806C26.1344 9.4907 26.2347 10.0495 26.2223 10.6115C26.2212 11.2168 26.0994 11.8157 25.864 12.3733C25.6287 12.9309 25.2844 13.4359 24.8514 13.8588L11.9111 26.731C10.6569 27.9833 8.95854 28.6892 7.18614 28.6949Z" fill="#18A0FB"/>
</svg>
