<svg width="37" height="32" viewBox="0 0 37 32" fill="none" xmlns="http://www.w3.org/2000/svg">
<path d="M13.739 22.9568C12.756 22.9568 11.9518 22.1741 11.9518 21.2176V12.522H8.37744V21.2176C8.37744 24.0872 10.7901 26.435 13.739 26.435H30.7171V22.9568H13.739Z" fill="white"/>
<path d="M8.44446 3.5415L8.083 2.39051C7.54081 0.973913 6.18534 0 4.64913 0H1.396V3.5415H4.64913L9.6192 18.2387C9.8903 18.947 10.5229 19.4783 11.3361 19.4783H28.5055C29.2284 19.4783 29.8609 19.0356 30.132 18.4158L36.9998 3.5415H8.44446Z" fill="white"/>
<path d="M1.74528 0C0.78139 0 0 0.778635 0 1.73913C0 2.69963 0.78139 3.47826 1.74528 3.47826C2.70918 3.47826 3.49057 2.69963 3.49057 1.73913C3.49057 0.778635 2.70918 0 1.74528 0Z" fill="white"/>
<path fill-rule="evenodd" clip-rule="evenodd" d="M11.8682 29.2172C11.8682 27.6804 13.0737 26.4346 14.5609 26.4346C16.048 26.4346 17.2536 27.6804 17.2536 29.2172C17.2536 30.754 16.048 31.9998 14.5609 31.9998C13.0737 31.9998 11.8682 30.754 11.8682 29.2172ZM25.3318 29.2172C25.3318 27.6804 26.5373 26.4346 28.0245 26.4346C29.5116 26.4346 30.7172 27.6804 30.7172 29.2172C30.7172 30.754 29.5116 31.9998 28.0245 31.9998C26.5373 31.9998 25.3318 30.754 25.3318 29.2172Z" fill="white"/>
<path fill-rule="evenodd" clip-rule="evenodd" d="M13.2642 29.5655C13.2642 28.9892 13.6686 28.522 14.1676 28.522C14.6666 28.522 15.071 28.9892 15.071 29.5655C15.071 30.1417 14.6666 30.6089 14.1676 30.6089C13.6686 30.6089 13.2642 30.1417 13.2642 29.5655ZM26.8158 29.5655C26.8158 28.9892 27.2203 28.522 27.7192 28.522C28.2182 28.522 28.6227 28.9892 28.6227 29.5655C28.6227 30.1417 28.2182 30.6089 27.7192 30.6089C27.2203 30.6089 26.8158 30.1417 26.8158 29.5655Z" fill="white"/>
</svg>
