<svg width="187" height="77" viewBox="0 0 187 77" fill="none" xmlns="http://www.w3.org/2000/svg">
<path d="M29.1993 58H158.492C174.414 57.7953 187.201 44.6569 186.998 28.6533C186.794 12.8953 174.17 0.16613 158.492 0.00241054H29.1993C13.2362 -0.202239 0.164433 12.6497 0.00154398 28.6533C-0.161345 44.6569 12.5847 57.7953 28.507 58H29.1993Z" fill="#D40828"/>
<path fill-rule="evenodd" clip-rule="evenodd" d="M29.9682 5C16.7248 5 6 15.7481 6 29.0204C6 42.2519 16.7248 53 29.9682 53H158.909C171.462 52.5522 181.537 42.4555 181.983 29.8753C182.471 16.6438 172.152 5.48855 158.909 5H29.9682ZM158.95 49.0509H29.9682H29.3995C18.3497 48.888 9.49367 39.7684 9.65617 28.6947C9.81866 17.6209 18.9185 8.74555 29.9682 8.9084H158.95C169.796 9.07125 178.53 17.8244 178.693 28.6947C178.855 39.7684 169.999 48.888 158.95 49.0509Z" fill="white"/>
<path fill-rule="evenodd" clip-rule="evenodd" d="M35.9289 43.4504H27V38.4321H29.0699L36.7812 20.0992H34.6707V15H51.6356L61.2951 38.4321H63.365V43.4504H51.7574L49.0381 36.8133H38.7293L35.9289 43.4504ZM95.5496 40.9413V31.795C95.5496 30.3786 94.4132 29.2454 92.9927 29.205C94.3726 29.205 95.4684 28.1527 95.5496 26.8172V17.5496C95.5496 16.1332 94.4132 15 92.9927 15H65.3943V20.0587H67.4641V38.4321H65.3943V43.4909H92.9927C94.4132 43.4909 95.5496 42.3577 95.5496 40.9413ZM115.924 38.4321H111.54C111.175 38.4321 110.891 38.1488 110.891 37.7846V15H97.6195V20.0587H99.6893V40.9008C99.6893 42.3172 100.826 43.4504 102.246 43.4504H125.218C126.638 43.4504 127.775 42.3172 127.775 40.9008V20.0587H129.845V15H116.573V37.7846C116.573 38.1488 116.289 38.4321 115.924 38.4321ZM143.116 26.7363V20.7063C143.116 20.342 143.4 20.0587 143.766 20.0587H148.149C148.514 20.0587 148.798 20.342 148.798 20.7063V22.1227H160V17.5496C160 16.1332 158.864 15 157.443 15H134.471C133.051 15 131.915 16.1332 131.915 17.5496V31.7546H148.758V37.7846C148.758 38.1084 148.474 38.3916 148.149 38.4321H143.766C143.4 38.4321 143.116 38.1488 143.116 37.7846V36.3277H131.915V40.9008C131.915 42.3172 133.051 43.4504 134.471 43.4504H157.443C158.864 43.4504 160 42.3172 160 40.9008V26.7363H143.116ZM83.6985 26.7363C84.0638 26.7363 84.3479 26.453 84.3479 26.1292V20.7063C84.3479 20.342 84.0638 20.0587 83.7391 20.0587H78.747V26.6958H83.6985V26.7363ZM83.6985 38.4321H78.747V31.7546H83.7391C84.0638 31.7546 84.3479 32.0379 84.3479 32.4021V37.8251C84.3479 38.1488 84.0638 38.4321 83.6985 38.4321ZM46.9277 31.7546H40.8398L43.9243 24.4295L46.9277 31.7546ZM32.5603 71.7389C32.5603 72.2245 32.4791 72.6697 32.3168 73.1149C32.195 73.4386 31.9515 73.7219 31.6674 73.9243C31.3833 74.1266 31.0992 74.248 30.7339 74.2885C30.3686 74.3695 30.0034 74.4099 29.6381 74.3695C29.3462 74.3695 29.0872 74.3368 28.8019 74.3008L28.8018 74.3007L28.7046 74.2885C28.4785 74.2563 28.2524 74.1985 28.0059 74.1354C27.9426 74.1192 27.878 74.1027 27.8117 74.0862V72.9935C28.0958 73.0744 28.3799 73.1554 28.7046 73.2363C28.9887 73.3172 29.2728 73.3172 29.5569 73.3172H29.5569H29.557C29.7599 73.3172 30.0034 73.3172 30.2063 73.2768C30.4092 73.2363 30.5716 73.1554 30.7339 73.0339C30.8962 72.9125 31.018 72.7507 31.0992 72.5888C31.1803 72.346 31.2615 72.1031 31.2209 71.8198C31.2209 71.647 31.1913 71.5037 31.1574 71.3395L31.1458 71.2829L31.1398 71.2533C31.0992 71.0914 31.018 70.9295 30.8962 70.8081C30.8557 70.7676 30.8196 70.7272 30.7835 70.6867C30.7114 70.6057 30.6392 70.5248 30.531 70.4439C30.4551 70.3682 30.3634 70.3082 30.2657 70.2444C30.2068 70.2058 30.1457 70.1658 30.0845 70.1201L29.1105 69.4726C28.9715 69.3895 28.8516 69.2874 28.7247 69.1793C28.6662 69.1295 28.6063 69.0785 28.5423 69.0274C28.3799 68.8655 28.2176 68.7037 28.0958 68.5418C27.9741 68.3394 27.8523 68.1371 27.7711 67.8943C27.69 67.6514 27.6494 67.4086 27.6494 67.1253C27.6494 66.7206 27.7305 66.3159 27.8929 65.9517C28.0552 65.6684 28.2582 65.3851 28.5423 65.1828C28.8264 64.9804 29.1105 64.859 29.4352 64.7781C29.7598 64.6971 30.0845 64.6567 30.4092 64.6567C30.6613 64.6567 30.9134 64.6885 31.1939 64.724L31.194 64.724L31.3021 64.7376C31.5456 64.7781 31.8297 64.859 32.0732 64.9804V66.0326L31.2209 65.7898C30.9368 65.7089 30.6933 65.7089 30.4092 65.7089C30.0034 65.7089 29.5975 65.7898 29.2728 65.9922C28.9481 66.235 28.7858 66.6397 28.8264 67.0444C28.8264 67.3681 28.9481 67.6919 29.1511 67.8943C29.3946 68.1371 29.6381 68.3394 29.9222 68.5418L30.6933 69.0679C30.7948 69.1488 30.9064 69.2298 31.018 69.3107L31.0182 69.3108C31.1297 69.3917 31.2413 69.4726 31.3427 69.5535C31.5456 69.7154 31.708 69.9178 31.8703 70.1201C32.0327 70.3225 32.195 70.5653 32.2762 70.8486C32.5603 71.0914 32.6009 71.4151 32.5603 71.7389ZM39.1352 68.5822C39.3381 69.1488 39.3787 69.7154 39.3787 70.3225V71.0509H35.2389C35.2389 71.4961 35.2795 71.9413 35.4419 72.346C35.5636 72.6292 35.726 72.8721 35.9289 73.0339C36.1318 73.1554 36.3348 73.2363 36.5377 73.2768C36.7 73.3172 36.903 73.3172 37.1059 73.3172C37.39 73.3172 37.6741 73.3172 37.9582 73.2363C38.1563 73.2116 38.3544 73.1568 38.5618 73.0994C38.6942 73.0627 38.8305 73.025 38.9728 72.9935V74.0862C38.8646 74.1131 38.7564 74.1446 38.6482 74.1761C38.4317 74.239 38.2152 74.302 37.9988 74.329C37.7147 74.3695 37.39 74.4099 37.1059 74.4099C36.7406 74.4099 36.3753 74.4099 36.0101 74.329C35.6448 74.248 35.3201 74.0862 35.036 73.8433C34.7113 73.5196 34.4272 73.1554 34.3055 72.7102C34.1025 72.0627 33.9808 71.3747 34.0214 70.6867C34.0214 70.0392 34.1025 69.4321 34.2649 68.8251C34.3866 68.4204 34.5896 68.0157 34.8737 67.6919C35.1172 67.4491 35.4013 67.2467 35.7666 67.1253C36.0912 67.0039 36.4565 66.9634 36.7812 66.9634C37.1059 66.9634 37.4306 67.0039 37.7147 67.0849C38.0394 67.1658 38.3235 67.3277 38.5264 67.5705C38.8105 67.8538 39.0134 68.218 39.1352 68.5822ZM35.3201 70.201C35.3201 69.7963 35.3607 69.4321 35.4419 69.0274C35.4825 68.7846 35.6042 68.5418 35.7666 68.299C35.8883 68.1371 36.0507 68.0157 36.213 67.9347C36.4159 67.8538 36.6189 67.8538 36.8218 67.8538C36.9841 67.8538 37.1871 67.8943 37.3494 67.9347C37.5117 67.9752 37.6741 68.0966 37.7959 68.2585C37.9582 68.4608 38.0394 68.7037 38.08 68.9869C38.1611 69.3916 38.2017 69.7963 38.2017 70.201H35.3201ZM44.736 73.2363C45.0201 73.1958 45.2637 73.1149 45.5072 73.0339L45.5478 74.0052C45.0607 74.2076 44.5737 74.2885 44.0867 74.2885C43.762 74.2885 43.4373 74.2885 43.1126 74.2076C42.7473 74.1266 42.4226 73.9648 42.1385 73.7219C41.8139 73.4386 41.5298 73.0339 41.3674 72.6292C41.1239 71.9817 41.0021 71.2937 41.0427 70.6057C41.0021 69.9178 41.1239 69.2298 41.3674 68.5822C41.5298 68.1371 41.8139 67.7728 42.1791 67.4491C42.4632 67.2063 42.8285 67.0444 43.1938 66.9634C43.5185 66.8825 43.8026 66.842 44.1273 66.842C44.3708 66.842 44.6143 66.8825 44.8578 66.923C44.9655 66.9588 45.0733 66.9867 45.1775 67.0136L45.1776 67.0137L45.1776 67.0137L45.1777 67.0137L45.1777 67.0137C45.309 67.0477 45.4347 67.0802 45.5478 67.1253V68.1775C45.426 68.1573 45.3144 68.127 45.2028 68.0966C45.0912 68.0663 44.9796 68.0359 44.8578 68.0157L44.7668 68.0003L44.7667 68.0003C44.562 67.9656 44.3804 67.9347 44.1678 67.9347C43.9243 67.9347 43.6808 67.9752 43.4779 68.0157C43.2344 68.0966 43.0314 68.218 42.8691 68.3799C42.6662 68.6227 42.5038 68.906 42.4226 69.1893C42.3009 69.6749 42.2603 70.201 42.2603 70.6867C42.2603 71.1723 42.3009 71.6175 42.4226 72.0627C42.5038 72.346 42.6256 72.6292 42.8285 72.8721C42.9503 73.0339 43.1532 73.1958 43.3967 73.2363C43.5996 73.2768 43.8431 73.3172 44.0461 73.3172C44.2586 73.3172 44.4403 73.2864 44.645 73.2516L44.645 73.2516L44.736 73.2363ZM52.3662 74.248V67.0849H51.1486V72.5483C50.8645 72.7911 50.5398 72.953 50.1745 73.1149C49.8904 73.2363 49.6063 73.3172 49.2817 73.3172C48.957 73.3577 48.6729 73.2363 48.4699 72.9935C48.3076 72.7102 48.2264 72.346 48.267 72.0222V67.0849H47.0494V72.3055C47.0494 72.6292 47.09 72.9935 47.1712 73.3172C47.2524 73.5601 47.3741 73.8029 47.5771 73.9648C47.7394 74.1266 47.9829 74.248 48.2264 74.329C48.4699 74.4099 48.754 74.4504 49.0381 74.4504C49.2817 74.4504 49.4846 74.4099 49.7281 74.329L50.3369 74.0862C50.4992 74.0052 50.7022 73.8838 50.8239 73.7219C50.9863 73.6005 51.108 73.4791 51.2298 73.3577L51.3921 74.2885L52.3662 74.248ZM57.5612 67.0039L57.8859 67.0444V68.4204C57.8047 68.4001 57.7337 68.39 57.6626 68.3799C57.5916 68.3698 57.5206 68.3597 57.4394 68.3394C57.2771 68.299 57.1553 68.299 56.993 68.299C56.7495 68.299 56.5465 68.3394 56.3436 68.4608C56.1407 68.5822 55.9783 68.7037 55.8566 68.8655V74.329H54.639V67.1253H55.5725L55.7348 68.0966C55.7754 68.0359 55.816 67.9651 55.8565 67.8943L55.8566 67.8943L55.8566 67.8942C55.8972 67.8234 55.9378 67.7526 55.9783 67.6919C56.0388 67.5714 56.1217 67.4957 56.2104 67.4148C56.2408 67.3871 56.2719 67.3587 56.303 67.3277C56.5871 67.0849 56.9118 66.9634 57.2771 66.9634C57.3177 66.9634 57.3684 66.9736 57.4191 66.9837L57.4192 66.9837C57.4699 66.9938 57.5206 67.0039 57.5612 67.0039ZM60.8081 65.1828C60.8081 64.9804 60.7269 64.7781 60.5645 64.6162C60.2399 64.2924 59.7528 64.2924 59.4281 64.6162C59.1034 64.9399 59.1034 65.4256 59.4281 65.7493C59.7528 66.0731 60.2399 66.0731 60.5645 65.7493C60.7675 65.5875 60.8486 65.3851 60.8081 65.1828ZM60.6457 74.248H59.4281V67.0849H60.6457V74.248ZM66.4901 73.1149C66.2466 73.1958 66.0436 73.2363 65.8001 73.2768C65.6378 73.3172 65.4348 73.3577 65.2319 73.3577C65.0696 73.3577 64.8666 73.3172 64.7043 73.2363C64.5825 73.1554 64.542 72.953 64.542 72.6292V68.0157H66.0436L66.1654 67.0849H64.542V64.8995L63.365 65.4256L63.3244 67.0444H62.1068V67.9752H63.3244V72.5888C63.3244 72.8721 63.365 73.1958 63.4461 73.4791C63.4867 73.6815 63.6085 73.8838 63.7708 74.0457C63.8926 74.2076 64.0955 74.2885 64.2984 74.329L64.3894 74.3443L64.3895 74.3443C64.5942 74.3791 64.7758 74.4099 64.9884 74.4099C65.2405 74.4099 65.4606 74.3781 65.7056 74.3426L65.7056 74.3426L65.8001 74.329C66.0436 74.2885 66.2466 74.248 66.4901 74.1671V73.1149ZM70.5487 72.8316L71.9286 67.0849L73.3491 67.1253L70.9951 75.1384C70.8734 75.5026 70.7516 75.8264 70.5487 76.1501C70.3863 76.3525 70.224 76.5548 70.0211 76.7167C69.8587 76.8381 69.6558 76.9191 69.4529 76.9595C69.3762 76.9595 69.2905 76.9686 69.2 76.9781C69.0989 76.9887 68.9918 77 68.8847 77C68.8035 77 68.7325 76.9899 68.6614 76.9798C68.5904 76.9697 68.5194 76.9595 68.4382 76.9595C68.357 76.9393 68.2961 76.9292 68.2353 76.9191C68.1744 76.9089 68.1135 76.8988 68.0323 76.8786C67.87 76.8381 67.7482 76.7977 67.6265 76.7572V75.7454C67.6874 75.7657 67.7685 75.7758 67.8497 75.7859C67.9309 75.796 68.0121 75.8061 68.0729 75.8264C68.1947 75.8668 68.357 75.9073 68.4788 75.9073C68.6005 75.9478 68.7223 75.9478 68.8441 75.9478C68.9658 75.9478 69.0876 75.9478 69.1688 75.9073C69.2905 75.8668 69.3717 75.7859 69.4529 75.705L69.4529 75.7049C69.534 75.5835 69.6152 75.4621 69.6964 75.3003C69.7064 75.2703 69.7164 75.241 69.7263 75.2121L69.7458 75.1559C69.809 74.9731 69.867 74.8055 69.8993 74.6123L69.9805 74.248L67.3018 67.0849H68.7629L70.5487 72.8316ZM83.2926 64.7781H77.4077V65.9112H79.7211V74.248H80.9387V65.9112H83.1303L83.2926 64.7781ZM88.2847 68.5822C88.4876 69.1488 88.5282 69.7154 88.5282 70.3225V71.0509H84.3885C84.3885 71.4961 84.4291 71.9413 84.5914 72.346C84.7132 72.6292 84.8755 72.8721 85.0784 73.0339C85.2814 73.1554 85.4843 73.2363 85.6872 73.2768C85.8496 73.3172 86.0525 73.3172 86.2554 73.3172C86.5395 73.3172 86.8236 73.3172 87.1077 73.2363C87.3058 73.2116 87.504 73.1568 87.7113 73.0994L87.7115 73.0993L87.7117 73.0993L87.7118 73.0992L87.7119 73.0992L87.712 73.0992L87.7121 73.0992L87.7122 73.0991L87.7122 73.0991L87.7123 73.0991L87.7124 73.0991C87.8445 73.0625 87.9804 73.0249 88.1224 72.9935V74.0862C88.0141 74.1131 87.9059 74.1446 87.7977 74.1761C87.5812 74.239 87.3648 74.302 87.1483 74.329C86.8642 74.3695 86.5395 74.4099 86.2554 74.4099C85.9307 74.4099 85.5655 74.4099 85.2002 74.329C84.8349 74.248 84.5102 74.0862 84.2261 73.8433C83.9014 73.5196 83.6579 73.1554 83.4956 72.7102C83.2926 72.0627 83.1709 71.3747 83.2115 70.6867C83.2115 70.0392 83.2926 69.4321 83.455 68.8251C83.5767 68.4204 83.7797 68.0157 84.0638 67.6919C84.2667 67.4491 84.5914 67.2467 84.9161 67.1253C85.2408 67.0039 85.606 66.9634 85.9307 66.9634C86.2554 66.9634 86.5801 67.0039 86.8642 67.0849C87.1889 67.1658 87.473 67.3277 87.6759 67.5705C87.96 67.8538 88.163 68.218 88.2847 68.5822ZM84.4696 70.201C84.4696 69.7963 84.5102 69.4321 84.5914 69.0274C84.632 68.7846 84.7537 68.5418 84.9161 68.299C85.0378 68.1371 85.2002 68.0157 85.3625 67.9347C85.5655 67.8538 85.7684 67.8538 85.9713 67.8538C86.1337 67.8538 86.3366 67.8943 86.4989 67.9347C86.6613 67.9752 86.8236 68.0966 86.9454 68.2585C87.1077 68.4608 87.1889 68.7037 87.2295 68.9869C87.3106 69.3916 87.3512 69.7963 87.3512 70.201H84.4696ZM93.8856 73.2363C94.1697 73.1958 94.4132 73.1149 94.6567 73.0339L94.6973 74.0052C94.2103 74.2076 93.7232 74.2885 93.2362 74.2885C92.9115 74.2885 92.5868 74.2885 92.2621 74.2076C91.8969 74.1266 91.5722 73.9648 91.2881 73.7219C90.9634 73.4386 90.6793 73.0339 90.5169 72.6292C90.2734 71.9817 90.1517 71.2937 90.1922 70.6057C90.1517 69.9178 90.2734 69.2298 90.5169 68.5822C90.6793 68.1371 90.9634 67.7728 91.3287 67.4491C91.6128 67.2063 91.978 67.0444 92.3433 66.9634C92.668 66.8825 92.9521 66.842 93.2768 66.842C93.5203 66.842 93.7638 66.8825 94.0073 66.923C94.1151 66.9588 94.2229 66.9867 94.3271 67.0137C94.4584 67.0477 94.5842 67.0802 94.6973 67.1253V68.1775C94.5755 68.1573 94.4639 68.127 94.3523 68.0966C94.2407 68.0663 94.1291 68.0359 94.0073 68.0157L93.9163 68.0003L93.9163 68.0003C93.7116 67.9656 93.5299 67.9347 93.3174 67.9347C93.0739 67.9347 92.8303 67.9752 92.6274 68.0157C92.3839 68.0966 92.181 68.218 92.0186 68.3799C91.8157 68.6227 91.6533 68.906 91.5722 69.1893C91.4504 69.6749 91.4098 70.201 91.4098 70.6867C91.4098 71.1723 91.4504 71.6175 91.5722 72.0627C91.6533 72.346 91.7751 72.6292 91.978 72.8721C92.0998 73.0339 92.3027 73.1958 92.5462 73.2363C92.7492 73.2768 92.9927 73.3172 93.1956 73.3172C93.4082 73.3172 93.5898 73.2864 93.7945 73.2516L93.7946 73.2516L93.8856 73.2363ZM101.8 74.248V69.0679C101.8 68.7037 101.759 68.3799 101.637 68.0157C101.556 67.7728 101.394 67.53 101.191 67.3681C100.988 67.2063 100.785 67.0849 100.542 67.0039C100.258 66.923 99.9734 66.8825 99.6894 66.923C99.4458 66.923 99.2023 66.9634 98.9588 67.0444C98.8574 67.0848 98.7458 67.1253 98.6342 67.1658C98.5226 67.2062 98.4109 67.2467 98.3094 67.2872C98.1065 67.3681 97.9442 67.4895 97.7819 67.6109L97.7818 67.611C97.6601 67.6919 97.4977 67.8133 97.376 67.9347V64.4948H96.1584V74.248H97.376V68.7846C97.3927 68.7735 97.4102 68.7616 97.4284 68.7492C97.5423 68.6718 97.6824 68.5767 97.8224 68.5418L98.3094 68.299C98.4454 68.2311 98.6099 68.1917 98.7552 68.1569C98.7833 68.1502 98.8107 68.1436 98.8371 68.1371C98.9994 68.0966 99.1617 68.0561 99.3647 68.0561C99.527 68.0561 99.6488 68.0561 99.8111 68.0966C99.9329 68.0966 100.055 68.1371 100.176 68.218C100.298 68.299 100.379 68.3799 100.42 68.5013C100.501 68.6632 100.501 68.8655 100.501 69.0274V74.248H101.8ZM114.004 73.8758C113.884 73.9182 113.727 73.9738 113.57 74.0052C113.448 74.0457 113.316 74.0558 113.184 74.0659C113.052 74.076 112.92 74.0862 112.799 74.1266C112.555 74.2076 112.271 74.248 111.987 74.2885C111.845 74.2885 111.713 74.2986 111.581 74.3087C111.449 74.3189 111.317 74.329 111.175 74.329C110.769 74.329 110.404 74.2885 109.998 74.1671C109.592 74.0457 109.268 73.8029 108.984 73.4791C108.618 73.0744 108.375 72.5483 108.253 72.0222C108.05 71.1723 107.928 70.282 107.969 69.4321C107.928 68.5822 108.091 67.6919 108.375 66.8825C108.578 66.3564 108.902 65.8303 109.349 65.4256C109.714 65.1018 110.161 64.859 110.607 64.7376C111.013 64.6567 111.419 64.5757 111.825 64.5757C112.19 64.5757 112.514 64.5757 112.839 64.6567C113.204 64.6971 113.529 64.8185 113.854 64.9804V66.0326C113.529 65.9112 113.164 65.7898 112.799 65.7089C112.474 65.6279 112.19 65.5875 111.865 65.5875C111.54 65.5875 111.216 65.6684 110.932 65.7493C110.607 65.8708 110.282 66.0731 110.079 66.3159C109.795 66.6802 109.592 67.0849 109.471 67.4896C109.308 68.1371 109.227 68.8251 109.227 69.4726C109.186 70.1606 109.268 70.8081 109.389 71.4556C109.471 71.9008 109.633 72.265 109.836 72.6292C109.998 72.9125 110.201 73.0744 110.485 73.1958C110.729 73.3172 110.972 73.3577 111.256 73.3577C111.508 73.3577 111.729 73.3258 111.973 73.2904L112.068 73.2768L112.173 73.2596C112.391 73.2242 112.635 73.1845 112.88 73.1149V69.6345H111.378V68.5822H114.097V73.8433C114.07 73.8524 114.039 73.8636 114.004 73.8758ZM121.322 70.3225C121.322 69.7154 121.281 69.1488 121.078 68.5822C120.956 68.218 120.753 67.8538 120.469 67.5705C120.266 67.3277 119.982 67.1658 119.658 67.0849C119.374 67.0039 119.049 66.9634 118.724 66.9634C118.399 66.9634 118.034 67.0039 117.709 67.1253C117.385 67.2467 117.06 67.4491 116.857 67.6919C116.573 68.0157 116.37 68.4204 116.248 68.8251C116.086 69.4321 116.005 70.0392 116.005 70.6867C115.964 71.3747 116.086 72.0627 116.289 72.7102C116.451 73.1554 116.695 73.5196 117.02 73.8433C117.304 74.0862 117.628 74.248 117.994 74.329C118.359 74.4099 118.724 74.4099 119.049 74.4099C119.333 74.4099 119.658 74.3695 119.942 74.329C120.158 74.302 120.375 74.239 120.591 74.1761C120.699 74.1446 120.808 74.1131 120.916 74.0862V72.9935C120.773 73.025 120.637 73.0627 120.505 73.0994C120.297 73.1568 120.099 73.2116 119.901 73.2363C119.617 73.3172 119.333 73.3172 119.049 73.3172C118.846 73.3172 118.643 73.3172 118.481 73.2768C118.278 73.2363 118.075 73.1554 117.872 73.0339C117.669 72.8721 117.507 72.6292 117.425 72.346C117.263 71.9413 117.222 71.4961 117.222 71.0509H121.322V70.3225ZM117.385 69.0274C117.304 69.4321 117.263 69.7963 117.263 70.201H120.145C120.145 69.7963 120.104 69.3916 120.023 68.9869C119.982 68.7037 119.901 68.4608 119.739 68.2585C119.617 68.0966 119.455 67.9752 119.292 67.9347C119.13 67.8943 118.927 67.8538 118.765 67.8538C118.562 67.8538 118.359 67.8538 118.156 67.9347C117.994 68.0157 117.831 68.1371 117.709 68.299C117.547 68.5418 117.425 68.7846 117.385 69.0274ZM126.517 67.0444L126.192 67.0039C126.151 67.0039 126.101 66.9938 126.05 66.9837L126.05 66.9837C125.999 66.9736 125.948 66.9634 125.908 66.9634C125.705 66.9634 125.543 67.0039 125.38 67.0444C125.218 67.1253 125.096 67.2063 124.974 67.2872C124.955 67.307 124.935 67.3257 124.915 67.3439L124.882 67.3743L124.882 67.3743L124.882 67.3744C124.793 67.4553 124.71 67.5309 124.65 67.6514C124.609 67.7121 124.569 67.7829 124.528 67.8538C124.487 67.9246 124.447 67.9954 124.406 68.0561L124.244 67.0849H123.31V74.2885H124.528V68.7846C124.65 68.6227 124.812 68.5013 125.015 68.3799C125.218 68.2585 125.421 68.218 125.664 68.218C125.827 68.218 125.948 68.218 126.111 68.2585C126.192 68.2787 126.263 68.2888 126.334 68.299L126.334 68.299C126.405 68.3091 126.476 68.3192 126.557 68.3394L126.517 67.0444ZM137.15 69.1084V74.2885L135.851 74.248V69.0274C135.851 68.8655 135.811 68.6632 135.77 68.5013C135.73 68.4204 135.648 68.299 135.567 68.218C135.563 68.2158 135.558 68.2134 135.554 68.211C135.545 68.2064 135.537 68.2015 135.529 68.1963C135.519 68.1905 135.51 68.1843 135.5 68.1781L135.499 68.178C135.438 68.1392 135.371 68.0966 135.283 68.0966C135.161 68.0561 135.04 68.0561 134.918 68.0561C134.756 68.0561 134.634 68.0561 134.471 68.0966C134.309 68.1371 134.147 68.1775 133.984 68.2585C133.903 68.299 133.832 68.3394 133.761 68.3799C133.69 68.4204 133.619 68.4608 133.538 68.5013C133.376 68.5822 133.254 68.6632 133.132 68.7441V74.248H131.915V69.0274C131.915 68.8655 131.874 68.6632 131.833 68.5013C131.793 68.4204 131.712 68.299 131.63 68.218C131.621 68.2134 131.612 68.2083 131.603 68.2029C131.59 68.1951 131.576 68.1867 131.563 68.1781L131.563 68.178L131.563 68.178C131.502 68.1392 131.435 68.0966 131.346 68.0966C131.225 68.0561 131.103 68.0561 130.981 68.0561C130.616 68.0966 130.291 68.1371 130.007 68.299C129.723 68.4204 129.439 68.5822 129.195 68.7846V74.2885H127.978V67.0849H128.911L129.195 67.9347C129.261 67.8909 129.327 67.8352 129.399 67.7741C129.461 67.7223 129.527 67.6666 129.601 67.611C129.764 67.4896 129.926 67.3681 130.088 67.2872C130.251 67.2063 130.453 67.1253 130.656 67.0444C130.859 67.0039 131.103 66.9634 131.306 66.9634C131.712 66.9634 132.077 67.0444 132.442 67.2467C132.767 67.4086 132.97 67.6919 133.051 68.0561L133.051 68.0561C133.132 67.9752 133.254 67.8538 133.416 67.7324C133.497 67.6514 133.615 67.5705 133.732 67.4895C133.791 67.4491 133.849 67.4086 133.903 67.3681C134.062 67.2731 134.246 67.2028 134.416 67.138L134.416 67.1378L134.418 67.1371C134.464 67.1194 134.509 67.1021 134.553 67.0849C134.796 67.0039 135.04 66.9634 135.283 66.9634C135.527 66.923 135.811 66.9634 136.054 67.0444C136.298 67.1253 136.501 67.2467 136.663 67.4086C136.825 67.5705 136.947 67.8133 137.028 68.0561C137.11 68.4204 137.15 68.7441 137.15 69.1084ZM144.131 74.2885V69.3107C144.131 68.906 144.09 68.5013 143.928 68.0966C143.806 67.8133 143.644 67.5705 143.4 67.4086C143.157 67.2467 142.913 67.1253 142.629 67.0849L142.532 67.0726L142.532 67.0726C142.247 67.0366 141.988 67.0039 141.696 67.0039C141.33 67.0039 140.925 67.0444 140.559 67.1253C140.194 67.2063 139.869 67.2872 139.545 67.3681V68.4204L139.869 68.3394C140.032 68.299 140.194 68.2585 140.397 68.218C140.6 68.1775 140.803 68.1371 140.965 68.0966C141.128 68.0561 141.33 68.0561 141.493 68.0561C141.696 68.0561 141.899 68.0561 142.061 68.0966C142.223 68.0966 142.345 68.1371 142.507 68.2585C142.629 68.3394 142.71 68.4608 142.792 68.5822C142.873 68.7846 142.873 68.9465 142.873 69.1488V69.9178H141.696C141.371 69.9178 141.046 69.9582 140.722 69.9987C140.397 70.0392 140.113 70.1606 139.829 70.3225C139.545 70.4843 139.342 70.7272 139.179 71.0104C138.977 71.3747 138.895 71.7794 138.936 72.1841C138.936 72.5888 138.977 72.9935 139.139 73.3577C139.261 73.641 139.423 73.8433 139.666 74.0457C139.869 74.2076 140.113 74.329 140.356 74.3695L140.447 74.3848L140.447 74.3848C140.652 74.4196 140.834 74.4504 141.046 74.4504C141.249 74.4504 141.452 74.4099 141.655 74.3695C141.858 74.329 142.02 74.248 142.183 74.1266C142.345 74.0457 142.467 73.9243 142.589 73.8029C142.71 73.6815 142.792 73.6005 142.913 73.4386L143.035 74.2885H144.131ZM142.183 73.1958C142.426 73.0744 142.71 72.8721 142.913 72.6697L142.954 70.6462H142.061C141.777 70.6057 141.533 70.6462 141.29 70.6867C141.087 70.6867 140.884 70.7676 140.722 70.889C140.559 71.0104 140.438 71.1723 140.356 71.3342C140.275 71.577 140.235 71.8198 140.235 72.0627C140.194 72.3055 140.235 72.5483 140.316 72.7911C140.356 72.953 140.438 73.0744 140.559 73.1958C140.681 73.3172 140.803 73.3577 140.925 73.3982C141.087 73.4386 141.209 73.4386 141.371 73.4386C141.655 73.3982 141.939 73.3172 142.183 73.1958ZM151.964 74.2885V69.1084C151.964 68.7441 151.923 68.4204 151.802 68.0561C151.72 67.8133 151.558 67.5705 151.355 67.4086C151.152 67.2467 150.949 67.1253 150.706 67.0444C150.422 66.9634 150.138 66.923 149.894 66.9634C149.651 66.9634 149.366 67.0039 149.123 67.0849C148.879 67.1658 148.677 67.2467 148.433 67.3681C148.23 67.4491 148.068 67.5705 147.905 67.6919C147.845 67.7324 147.784 67.783 147.723 67.8335C147.662 67.8841 147.601 67.9347 147.54 67.9752L147.256 67.0849H146.363V74.2885H147.581V68.7846C147.905 68.5822 148.23 68.3799 148.595 68.2585C148.92 68.1371 149.245 68.0561 149.569 68.0561C149.691 68.0561 149.854 68.0561 149.975 68.0966C150.097 68.0966 150.219 68.1371 150.341 68.218C150.462 68.299 150.543 68.3799 150.625 68.5013C150.706 68.6632 150.746 68.8655 150.706 69.0679V74.2885H151.964ZM156.428 72.8316L157.849 67.0849L159.148 67.1253L156.794 75.1384C156.713 75.5026 156.591 75.8264 156.388 76.1501L156.388 76.1503C156.225 76.3526 156.063 76.5549 155.86 76.7167C155.698 76.8381 155.495 76.9191 155.292 76.9595C155.215 76.9595 155.13 76.9686 155.039 76.9781C154.938 76.9887 154.831 77 154.724 77C154.643 77 154.572 76.9899 154.501 76.9798C154.43 76.9697 154.359 76.9595 154.277 76.9595C154.203 76.941 154.137 76.9309 154.076 76.9216C154.003 76.9105 153.937 76.9005 153.872 76.8786L153.466 76.7572V75.7454C153.527 75.7657 153.608 75.7758 153.689 75.7859C153.77 75.796 153.851 75.8061 153.912 75.8264C154.034 75.8668 154.196 75.9073 154.318 75.9073C154.44 75.9478 154.561 75.9478 154.683 75.9478C154.805 75.9478 154.927 75.9478 155.008 75.9073C155.13 75.8668 155.211 75.7859 155.292 75.705C155.373 75.5836 155.454 75.4621 155.536 75.3003C155.552 75.2507 155.569 75.2029 155.585 75.156C155.648 74.9732 155.706 74.8055 155.738 74.6123L155.82 74.248L153.141 67.0849H154.602L156.428 72.8316Z" fill="white"/>
</svg>
