<svg width="43" height="46" viewBox="0 0 43 46" fill="none" xmlns="http://www.w3.org/2000/svg">
<path fill-rule="evenodd" clip-rule="evenodd" d="M21.5032 0C16.4308 0 7.66955 1.67116 3.73351 2.66121C1.54286 3.21205 0 5.18031 0 7.40927V17.9711C0 26.1171 5.31779 32.9657 10.4383 37.793C15.5589 42.6203 20.6764 45.5277 20.6764 45.5277L21.5161 46L22.3429 45.5214C22.3429 45.5214 27.4538 42.5429 32.5681 37.6845C37.6825 32.8261 43 25.9932 43 17.9711V7.40927C43 5.17959 41.4579 3.21672 39.2729 2.66121H39.2665C35.3311 1.67127 26.5757 0 21.5032 0ZM21.5032 3.26748C25.782 3.26748 34.8188 4.91464 38.4461 5.82658C39.1914 6.01605 39.6928 6.65246 39.6928 7.40927V17.9711C39.6928 24.5286 35.0888 30.763 30.2815 35.3296C26.0616 39.3383 22.5112 41.457 21.595 42.0037L21.4968 42.0624L21.3938 42.0023C20.4699 41.4639 16.9278 39.4 12.7185 35.4317C7.91415 30.9026 3.3072 24.6791 3.3072 17.9711V7.40927C3.3072 6.64521 3.80126 6.0142 4.54739 5.82658C8.17161 4.91496 17.2229 3.26748 21.5032 3.26748ZM16.5424 14.7037C16.5424 11.9968 18.7635 9.80244 21.5032 9.80244C24.243 9.80244 26.464 11.9968 26.464 14.7037C26.462 16.5128 25.4513 18.1737 23.8351 19.0241L26.464 29.4073H16.5424L19.1714 19.0241C17.5552 18.1737 16.5445 16.5128 16.5424 14.7037Z" fill="white"/>
</svg>
