<svg width="43" height="55" viewBox="0 0 43 55" fill="none" xmlns="http://www.w3.org/2000/svg">
<path fill-rule="evenodd" clip-rule="evenodd" d="M2.38889 1.19565C2.38889 0.53711 2.92546 0 3.58333 0H41.8056C42.4634 0 43 0.53711 43 1.19565V53.8043C43 54.4629 42.4634 55 41.8056 55H3.58333C2.92546 55 2.38889 54.4629 2.38889 53.8043V32.2826H0V25.1087H2.38889V1.19565ZM40.6111 2.3913H4.77778V25.1087H11.9444V32.2826H4.77778V52.6087H40.6111V2.3913ZM14.3333 8.36957V22.7174H31.0556V8.36957H14.3333ZM17.9167 10.7609H16.7222V20.3261H17.9167V10.7609ZM20.3056 10.7609H21.5V20.3261H20.3056V10.7609ZM25.0833 10.7609H23.8889V20.3261H25.0833V10.7609ZM27.4722 10.7609H28.6667V20.3261H27.4722V10.7609ZM3.3827 27.5H2.38889V29.8913H3.3967C3.52268 29.868 3.65332 29.868 3.78396 29.8913H9.55556V27.5H3.76997C3.64399 27.5234 3.51335 27.5234 3.3827 27.5ZM14.3333 34.6739V40.6522H31.0556V34.6739H14.3333ZM28.6667 37.0652H16.7222V38.2609H28.6667V37.0652Z" fill="white"/>
</svg>
