<svg width="87" height="88" viewBox="0 0 87 88" fill="none" xmlns="http://www.w3.org/2000/svg">
<path d="M68 39C68 39 68 26.1689 68 25.1823C68 11.8264 57.2552 1 44 1C30.7448 1 20 11.8264 20 25.1823C20 26.1689 20 39 20 39" stroke="#08A7D4" stroke-width="2"/>
<path d="M1 87V49.6591C1 41.0249 8.08171 34 16.7857 34H70.2143C78.9183 34 86 41.0249 86 49.6591V87H1Z" fill="#DFF0FE"/>
<path fill-rule="evenodd" clip-rule="evenodd" d="M0 49.0435C0 39.6306 7.57383 32 16.9167 32H70.0833C79.4262 32 87 39.6306 87 49.0435V88H0V49.0435ZM84.5833 49.0435C84.5833 40.9892 78.0777 34.4348 70.0833 34.4348H16.9167C8.92233 34.4348 2.41667 40.9892 2.41667 49.0435V85.5652H84.5833V49.0435Z" fill="#08A7D4"/>
<path d="M37.7762 74.8076L39.8924 62.0666L39.206 61.647C36.6909 60.1089 35.1875 57.4524 35.1875 54.5384C35.1875 49.9361 38.9163 46.1923 43.5 46.1923C48.0837 46.1923 51.8125 49.9361 51.8125 54.5384C51.8125 57.4524 50.3091 60.1089 47.7964 61.647L47.11 62.0666L49.2238 74.8076H37.7762Z" fill="#B6DCFE"/>
<path fill-rule="evenodd" clip-rule="evenodd" d="M34 54.5385C34 49.2708 38.2536 45 43.5 45C48.7464 45 53 49.2708 53 54.5385C53 57.9938 51.1523 60.9936 48.4115 62.6652L50.625 76H36.375L38.5885 62.6652C35.8477 60.9936 34 57.9938 34 54.5385ZM50.625 54.5385C50.625 50.5943 47.4283 47.3846 43.5 47.3846C39.5717 47.3846 36.375 50.5943 36.375 54.5385C36.375 57.0328 37.6646 59.3101 39.8211 60.6288L41.1939 61.4682L40.9303 63.0587L39.1775 73.6154H47.8225L46.0674 63.0587L45.8038 61.4682L47.1765 60.6288C49.3354 59.3101 50.625 57.0328 50.625 54.5385Z" fill="#08A7D4"/>
</svg>
