<?xml version="1.0" encoding="utf-8"?>
<!-- Generator: Adobe Illustrator 25.1.0, SVG Export Plug-In . SVG Version: 6.00 Build 0)  -->
<svg version="1.1" id="Слой_1" xmlns="http://www.w3.org/2000/svg" xmlns:xlink="http://www.w3.org/1999/xlink" x="0px" y="0px"
	 viewBox="0 0 222 45" style="enable-background:new 0 0 222 45;" xml:space="preserve">
<style type="text/css">
	.st0{fill:#1D1D1B;}
	.st1{fill:#E81717;}
	.st2{fill:url(#XMLID_2_);}
	.st3{fill:url(#XMLID_3_);}
	.st4{fill:url(#XMLID_4_);}
</style>
<g>
	<path class="st0" d="M118.2,3.6L112.6,23h-3.2l-4.6-14l-4.6,14.1H97L91.1,3.6H95l3.9,13.9l4.3-13.9h3.4l4.4,13.9l3.9-13.9
		C114.9,3.6,118.2,3.6,118.2,3.6z"/>
	<path class="st0" d="M119.4,21.5c-1.3-1.2-1.9-2.8-1.9-4.7c0-1.9,0.6-3.5,1.9-4.7c1.2-1.2,2.9-1.8,4.9-1.8s3.7,0.6,4.9,1.8
		c1.3,1.2,1.9,2.8,1.9,4.7s-0.6,3.5-1.9,4.7c-1.3,1.2-2.9,1.8-4.9,1.8S120.6,22.8,119.4,21.5z M120.9,16.8c0,1,0.3,1.9,1,2.6
		c0.6,0.7,1.4,1,2.4,1s1.8-0.3,2.5-1c0.6-0.7,1-1.5,1-2.6c0-1-0.3-1.9-1-2.6c-0.6-0.7-1.5-1-2.4-1c-1,0-1.8,0.3-2.4,1
		C121.3,14.9,120.9,15.8,120.9,16.8z"/>
	<path class="st0" d="M135,21.5c-1.3-1.2-1.9-2.8-1.9-4.7c0-1.9,0.6-3.5,1.9-4.7c1.2-1.2,2.9-1.8,4.9-1.8s3.7,0.6,4.9,1.8
		c1.3,1.2,1.9,2.8,1.9,4.7s-0.6,3.5-1.9,4.7c-1.3,1.2-2.9,1.8-4.9,1.8C137.9,23.4,136.3,22.8,135,21.5z M136.5,16.8
		c0,1,0.3,1.9,1,2.6c0.6,0.7,1.4,1,2.4,1s1.8-0.3,2.5-1c0.6-0.7,1-1.5,1-2.6c0-1-0.3-1.9-1-2.6c-0.6-0.7-1.5-1-2.4-1
		c-1,0-1.8,0.3-2.4,1C136.9,14.9,136.5,15.8,136.5,16.8z"/>
	<path class="st0" d="M158.2,23.1v-1.3c-1,1-2.2,1.5-3.6,1.5c-1.8,0-3.2-0.6-4.3-1.7c-1.1-1.2-1.6-2.7-1.6-4.6c0-2,0.6-3.6,1.9-4.8
		c1.3-1.3,2.9-1.9,4.9-1.9c1.1,0,1.9,0.2,2.6,0.6V3.6h3.2V23h-3.1V23.1z M155.3,20.3c1.1,0,2.1-0.4,2.9-1.3v-5
		c-0.8-0.5-1.6-0.7-2.5-0.7c-1,0-1.8,0.3-2.5,1c-0.7,0.6-1,1.5-1,2.6s0.3,1.9,0.9,2.5C153.7,20,154.4,20.3,155.3,20.3z"/>
	<path class="st0" d="M165,22V3.6h3.2v7.7c0.9-0.7,2-1.1,3.3-1.1c1.8,0,3.3,0.6,4.3,1.8s1.6,2.7,1.6,4.6c0,2.1-0.6,3.7-1.9,4.9
		c-1.3,1.2-3,1.8-5.2,1.8c-1,0-2-0.1-2.9-0.4C166.4,22.7,165.6,22.4,165,22z M170.7,13.3c-1,0-1.9,0.4-2.6,1.2v5.3
		c0.7,0.4,1.4,0.6,2.3,0.6c1,0,1.9-0.3,2.6-1c0.7-0.6,1-1.5,1-2.6s-0.3-2-0.9-2.7C172.4,13.6,171.6,13.3,170.7,13.3z"/>
	<path class="st0" d="M181.1,13.8l-0.8-2.3c1.4-0.8,2.8-1.2,4.4-1.2c1.8,0,3.1,0.4,3.8,1.3c0.8,0.9,1.2,2.2,1.2,3.9v7.6H187v-1.4
		c-0.8,1.1-2,1.6-3.7,1.6c-1.2,0-2.1-0.3-2.8-1s-1.1-1.6-1.1-2.8c0-1.3,0.4-2.3,1.3-3c0.9-0.7,1.9-1,3.3-1c1.1,0,2.1,0.3,2.8,0.8
		c0-1.1-0.1-1.9-0.5-2.4s-1-0.8-1.9-0.8C183.5,12.9,182.4,13.2,181.1,13.8z M184.3,20.5c1.1,0,1.9-0.4,2.4-1.1v-1.3
		c-0.5-0.4-1.3-0.6-2.2-0.6c-0.6,0-1,0.1-1.4,0.4s-0.6,0.7-0.6,1.2s0.2,0.8,0.5,1.1C183.4,20.4,183.8,20.5,184.3,20.5z"/>
	<path class="st0" d="M191.4,24.8c0-1,0.4-1.8,1.1-2.5c0.7-0.7,1.7-1.1,3-1.4c-0.1-0.3-0.2-0.5-0.2-0.9s0.1-0.6,0.3-0.9
		c-0.9-0.4-1.7-0.9-2.2-1.7c-0.5-0.7-0.8-1.6-0.8-2.5c0-1.3,0.5-2.4,1.5-3.3c1-0.9,2.3-1.4,3.9-1.4c1.2,0,2.3,0.3,3.2,0.9l3.8-0.8
		l0.1,2.6l-2.1,0.5c0.2,0.5,0.3,1.1,0.3,1.6c0,1.3-0.5,2.4-1.5,3.3s-2.3,1.3-3.8,1.3h-0.2c0,0.1-0.1,0.3-0.1,0.5s0.1,0.5,0.2,0.6
		h0.1c1.9,0,3.5,0.3,4.7,1s1.8,1.7,1.8,3.1s-0.6,2.4-1.8,3.1s-2.8,1-4.7,1s-3.5-0.3-4.7-1C192,27.2,191.4,26.1,191.4,24.8z
		 M194.4,24.8c0,0.5,0.3,0.9,0.9,1.1c0.6,0.3,1.5,0.4,2.6,0.4c2.3,0,3.5-0.5,3.5-1.5c0-0.5-0.3-0.8-0.9-1.1
		c-0.6-0.3-1.5-0.4-2.6-0.4s-2,0.1-2.6,0.4C194.7,23.9,194.4,24.3,194.4,24.8z M196.2,13.5c-0.4,0.4-0.6,0.9-0.6,1.5
		s0.2,1.1,0.6,1.5c0.4,0.4,1,0.6,1.7,0.6s1.2-0.2,1.7-0.6c0.4-0.4,0.7-0.9,0.7-1.5s-0.2-1.1-0.6-1.5c-0.4-0.4-1-0.6-1.7-0.6
		C197.2,12.9,196.6,13.1,196.2,13.5z"/>
</g>
<g id="XMLID_11_">
	<g id="XMLID_12_">
		<path id="XMLID_19_" class="st1" d="M29.5,36.3L17.3,6.6l0,0c-0.1-0.4-0.3-0.7-0.5-1.1l-0.1-0.2l0,0c0-0.1-0.1-0.1-0.1-0.2
			C15.4,2.1,12.4,0,8.8,0C8.6,0,8.4,0,8.2,0C8,0,7.8,0,7.6,0C4.6,0,1.9,1.2,0,3.2L7.1,21l7,17l0,0c0.1,0.4,0.3,0.7,0.5,1.1l0.1,0.2
			C14.7,39.3,30.1,37.3,29.5,36.3z"/>
		<g id="XMLID_16_">
			
				<linearGradient id="XMLID_2_" gradientUnits="userSpaceOnUse" x1="53.6761" y1="10.2614" x2="44.1642" y2="33.4071" gradientTransform="matrix(1 0 0 -1 0 46)">
				<stop  offset="0" style="stop-color:#E81717"/>
				<stop  offset="1" style="stop-color:#AB0D07"/>
			</linearGradient>
			<path id="XMLID_18_" class="st2" d="M50.4,8.2c-1.6-3.8-4.8-6.6-8.6-7.7l-7.5,7.4l12.1,29.7l3.1,2.7L61.4,35L50.4,8.2z"/>
			
				<linearGradient id="XMLID_3_" gradientUnits="userSpaceOnUse" x1="23.5676" y1="2.2607" x2="32.7636" y2="25.7262" gradientTransform="matrix(1 0 0 -1 0 46)">
				<stop  offset="0" style="stop-color:#AB0D07"/>
				<stop  offset="1" style="stop-color:#E81717"/>
			</linearGradient>
			<path id="XMLID_17_" class="st3" d="M40,0.1c-0.2,0-0.4,0-0.6,0c-0.2,0-0.4,0-0.6,0c-3.6,0-6.6,2.1-7.8,5.1
				c0,0.1-0.1,0.1-0.1,0.2l0,0l-0.1,0.2c-0.2,0.3-0.3,0.7-0.5,1.1l0,0L18.2,36c-0.1,0.3-0.3,0.7-0.6,0.9c-0.6,0.6-1.5,1-2.4,1
				c-0.5,0-0.9-0.1-1.3-0.3l0,0c1.3,4,5.2,7,9.8,7c0.2,0,0.4,0,0.6,0s0.4,0,0.6,0c3.6,0,6.6-2.1,7.8-5.1c0-0.1,0.1-0.1,0.1-0.2l0,0
				l0.1-0.2c0.2-0.3,0.3-0.7,0.5-1.1l0,0L45.6,8.7c0.1-0.3,0.3-0.7,0.6-0.9c0.6-0.6,1.5-1,2.4-1c0.5,0,1,0.1,1.4,0.3l0,0
				C48.7,3.1,44.7,0.1,40,0.1z"/>
		</g>
		
			<linearGradient id="XMLID_4_" gradientUnits="userSpaceOnUse" x1="54.3875" y1="2.8852" x2="63.5822" y2="26.3476" gradientTransform="matrix(1 0 0 -1 0 46)">
			<stop  offset="0" style="stop-color:#AB0D07"/>
			<stop  offset="1" style="stop-color:#E81717"/>
		</linearGradient>
		<path id="XMLID_14_" class="st4" d="M72.2,22.7L72.2,22.7l5.9-14.4l0,0l2-4.9c-1.9-2-4.6-3.3-7.7-3.3c-0.2,0-0.4,0-0.6,0
			s-0.4,0-0.6,0c-3.6,0-6.6,2.1-7.8,5.1c0,0.1-0.1,0.1-0.1,0.2l0,0l-0.1,0.2c-0.2,0.3-0.3,0.7-0.5,1.1l0,0L50.5,36.3
			c-0.6,1-1.6,1.6-2.8,1.6c-0.5,0-0.9-0.1-1.3-0.3l0,0c1.3,4,5.2,7,9.8,7c0.2,0,0.4,0,0.6,0c0.2,0,0.4,0,0.6,0
			c3.6,0,6.6-2.1,7.8-5.1c0-0.1,0.1-0.1,0.1-0.2l0,0l0.1-0.2c0.2-0.3,0.3-0.7,0.5-1.1l0,0L72.2,22.7L72.2,22.7z"/>
	</g>
</g>
<g>
	<path class="st0" d="M95.5,35.9v4.4h-0.7v-3.7h-2.2v2.6c0,0.4-0.1,0.7-0.3,0.9c-0.2,0.2-0.4,0.3-0.8,0.3h-0.4v-0.6h0.3
		c0.3,0,0.4-0.2,0.4-0.5v-3.2H95.5z"/>
	<path class="st0" d="M98.8,35.8c0.7,0,1.3,0.2,1.7,0.7c0.4,0.4,0.7,1,0.7,1.7c0,0.7-0.2,1.2-0.7,1.7c-0.4,0.4-1,0.7-1.7,0.7
		c-0.7,0-1.2-0.2-1.7-0.7s-0.7-1-0.7-1.7c0-0.7,0.2-1.2,0.7-1.7S98.1,35.8,98.8,35.8z M100,36.9c-0.3-0.3-0.7-0.5-1.2-0.5
		c-0.5,0-0.9,0.2-1.2,0.5c-0.3,0.3-0.5,0.7-0.5,1.2s0.2,0.9,0.5,1.2c0.3,0.3,0.7,0.5,1.2,0.5c0.5,0,0.9-0.2,1.2-0.5
		c0.3-0.3,0.5-0.7,0.5-1.2S100.3,37.2,100,36.9z"/>
	<path class="st0" d="M104.8,35.9v0.6h-2.1v3.7h-0.7v-4.4H104.8z"/>
	<path class="st0" d="M105.5,40.3v-4.4h0.7v3.3h0l2.5-3.3h0.7v4.4h-0.7V37h0l-2.5,3.3H105.5z"/>
	<path class="st0" d="M112.7,40.4c-0.7,0-1.3-0.2-1.7-0.6s-0.7-1-0.7-1.7s0.2-1.3,0.7-1.7c0.4-0.4,1-0.6,1.7-0.6
		c0.5,0,1,0.1,1.5,0.4l-0.3,0.6c-0.4-0.2-0.8-0.4-1.2-0.4c-0.5,0-0.9,0.2-1.2,0.5s-0.5,0.7-0.5,1.2s0.2,0.9,0.5,1.2
		c0.3,0.3,0.7,0.5,1.2,0.5c0.4,0,0.8-0.1,1.2-0.4l0.3,0.6C113.7,40.3,113.2,40.4,112.7,40.4z"/>
	<path class="st0" d="M118.5,35.9v0.6h-1.7v3.7h-0.7v-3.7h-1.7v-0.6H118.5z"/>
	<path class="st0" d="M119.1,40.3v-4.4h0.7v3.3h0l2.5-3.3h0.7v4.4h-0.7V37h0l-2.5,3.3H119.1z"/>
	<path class="st0" d="M127.8,40.3h-0.9l-2-2.2v2.2h-0.7v-4.4h0.7v1.9l1.8-1.9h0.9l-2,2L127.8,40.3z"/>
	<path class="st0" d="M130,40.4c-0.6,0-1.1-0.2-1.5-0.6c-0.4-0.4-0.6-1-0.6-1.7s0.2-1.3,0.6-1.7s0.9-0.6,1.5-0.6
		c0.8,0,1.3,0.3,1.7,0.9h0v-0.8h0.7v4.4h-0.7v-0.8h0C131.3,40.1,130.7,40.4,130,40.4z M129,39.3c0.3,0.3,0.7,0.5,1.1,0.5
		c0.5,0,0.9-0.2,1.1-0.5c0.3-0.3,0.4-0.7,0.4-1.2s-0.1-0.9-0.4-1.2c-0.3-0.3-0.7-0.5-1.1-0.5c-0.5,0-0.9,0.2-1.1,0.5
		c-0.3,0.3-0.4,0.7-0.4,1.2S128.7,39,129,39.3z"/>
	<path class="st0" d="M134.4,39.3v1l-0.6,1.3h-0.4l0.5-1.3h-0.5v-1H134.4z"/>
	<path class="st0" d="M141.8,35.9v0.6h-1.7v3.7h-0.7v-3.7h-1.7v-0.6H141.8z"/>
	<path class="st0" d="M144,40.4c-0.6,0-1.1-0.2-1.5-0.6c-0.4-0.4-0.6-1-0.6-1.7s0.2-1.3,0.6-1.7s0.9-0.6,1.5-0.6
		c0.8,0,1.3,0.3,1.7,0.9h0v-0.8h0.7v4.4h-0.7v-0.8h0C145.3,40.1,144.7,40.4,144,40.4z M143,39.3c0.3,0.3,0.7,0.5,1.1,0.5
		c0.5,0,0.9-0.2,1.1-0.5c0.3-0.3,0.4-0.7,0.4-1.2s-0.1-0.9-0.4-1.2c-0.3-0.3-0.7-0.5-1.1-0.5c-0.5,0-0.9,0.2-1.1,0.5
		c-0.3,0.3-0.4,0.7-0.4,1.2S142.7,39,143,39.3z"/>
	<path class="st0" d="M147.1,40.3l1.2-4.4h0.6l1.1,2.6h0l1.1-2.6h0.6l1.2,4.4h-0.7l-0.9-3.3h0l-1.1,2.6h-0.5l-1.1-2.6h0l-0.9,3.3
		H147.1z"/>
	<path class="st0" d="M155.6,35.8c0.7,0,1.3,0.2,1.7,0.7s0.7,1,0.7,1.7c0,0.7-0.2,1.2-0.7,1.7s-1,0.7-1.7,0.7
		c-0.7,0-1.2-0.2-1.7-0.7c-0.4-0.4-0.7-1-0.7-1.7c0-0.7,0.2-1.2,0.7-1.7C154.3,36,154.9,35.8,155.6,35.8z M156.7,36.9
		c-0.3-0.3-0.7-0.5-1.2-0.5s-0.9,0.2-1.2,0.5c-0.3,0.3-0.5,0.7-0.5,1.2s0.2,0.9,0.5,1.2c0.3,0.3,0.7,0.5,1.2,0.5s0.9-0.2,1.2-0.5
		c0.3-0.3,0.5-0.7,0.5-1.2S157,37.2,156.7,36.9z"/>
	<path class="st0" d="M164.3,40.3h-0.9l-1.9-2.2v2.2h-0.7v-2.2l-1.9,2.2H158l2.1-2.4l-1.9-2h0.9l1.7,1.9v-1.9h0.7v1.9l1.7-1.9h0.9
		l-1.9,2L164.3,40.3z"/>
	<path class="st0" d="M168.2,35.9h0.7v4.4h-0.7v-2h-2.5v2h-0.7v-4.4h0.7v1.7h2.5V35.9z"/>
	<path class="st0" d="M171.2,35.9h2.1v4.4h-0.7v-1.7h-0.9l-1.3,1.7h-0.8l1.4-1.7c-0.4,0-0.7-0.2-0.9-0.4s-0.3-0.5-0.3-0.9
		c0-0.4,0.1-0.7,0.4-1S170.8,35.9,171.2,35.9z M171.3,38h1.4v-1.4h-1.4c-0.3,0-0.5,0.1-0.6,0.2c-0.1,0.1-0.2,0.3-0.2,0.5
		C170.4,37.7,170.7,38,171.3,38z"/>
	<path class="st0" d="M175.4,39.3v1l-0.6,1.3h-0.4l0.5-1.3h-0.5v-1H175.4z"/>
	<path class="st0" d="M178.9,40.3l1.2-4.4h0.6l1.1,2.6h0l1.1-2.6h0.6l1.2,4.4h-0.7l-0.9-3.3h0l-1.1,2.6h-0.5l-1.1-2.6h0l-0.9,3.3
		H178.9z"/>
	<path class="st0" d="M187.2,40.4c-0.6,0-1.1-0.2-1.5-0.6c-0.4-0.4-0.6-1-0.6-1.7s0.2-1.3,0.6-1.7s0.9-0.6,1.5-0.6
		c0.8,0,1.3,0.3,1.7,0.9h0v-0.8h0.7v4.4h-0.7v-0.8h0C188.5,40.1,188,40.4,187.2,40.4z M186.2,39.3c0.3,0.3,0.7,0.5,1.1,0.5
		c0.5,0,0.9-0.2,1.1-0.5c0.3-0.3,0.4-0.7,0.4-1.2s-0.1-0.9-0.4-1.2c-0.3-0.3-0.7-0.5-1.1-0.5c-0.5,0-0.9,0.2-1.1,0.5
		c-0.3,0.3-0.4,0.7-0.4,1.2S185.9,39,186.2,39.3z"/>
	<path class="st0" d="M190.8,42.2v-6.2h0.7v0.8h0c0.3-0.6,0.9-0.9,1.7-0.9c0.6,0,1.1,0.2,1.5,0.6s0.6,1,0.6,1.7s-0.2,1.3-0.6,1.7
		c-0.4,0.4-0.9,0.6-1.5,0.6c-0.8,0-1.3-0.3-1.7-0.9h0v2.7H190.8z M191.8,39.3c0.3,0.3,0.7,0.5,1.1,0.5c0.5,0,0.9-0.2,1.1-0.5
		c0.3-0.3,0.4-0.7,0.4-1.2s-0.1-0.9-0.4-1.2c-0.3-0.3-0.7-0.5-1.1-0.5c-0.5,0-0.9,0.2-1.1,0.5c-0.3,0.3-0.4,0.7-0.4,1.2
		S191.5,39,191.8,39.3z"/>
	<path class="st0" d="M199.8,40.3h-0.9l-2-2.2v2.2h-0.7v-4.4h0.7v1.9l1.8-1.9h0.9l-2,2L199.8,40.3z"/>
	<path class="st0" d="M202,35.8c0.7,0,1.2,0.2,1.6,0.6s0.5,1,0.5,1.7v0.1h-3.6c0,0.5,0.2,0.9,0.4,1.1c0.3,0.3,0.7,0.4,1.1,0.4
		c0.3,0,0.5,0,0.7-0.1c0.2-0.1,0.4-0.2,0.5-0.3c0.1-0.1,0.2-0.2,0.3-0.4l0.5,0.4c-0.5,0.7-1.2,1-2,1c-0.7,0-1.2-0.2-1.6-0.6
		s-0.6-1-0.6-1.7c0-0.7,0.2-1.3,0.6-1.7C200.8,36,201.3,35.8,202,35.8z M202,36.4c-0.4,0-0.7,0.1-1,0.3c-0.3,0.2-0.4,0.5-0.5,0.9
		h2.9c0-0.4-0.2-0.7-0.4-0.9C202.7,36.5,202.4,36.4,202,36.4z"/>
	<path class="st0" d="M208.1,35.9v0.6h-1.7v3.7h-0.7v-3.7h-1.7v-0.6H208.1z"/>
	<path class="st0" d="M208.8,40.3v-4.4h0.7v3.3h0l2.5-3.3h0.7v4.4H212V37h0l-2.5,3.3H208.8z"/>
	<path class="st0" d="M217.1,35.9h0.7v4.4h-0.7v-2h-2.5v2h-0.7v-4.4h0.7v1.7h2.5V35.9z"/>
	<path class="st0" d="M221.8,35.9v0.6h-2.1v3.7H219v-4.4H221.8z"/>
</g>
</svg>
