<?xml version="1.0" encoding="utf-8"?>
<!-- Generator: Adobe Illustrator 22.1.0, SVG Export Plug-In . SVG Version: 6.00 Build 0)  -->
<svg version="1.1" id="Capa_1" xmlns="http://www.w3.org/2000/svg" xmlns:xlink="http://www.w3.org/1999/xlink" x="0px" y="0px"
	 width="50px" height="50px" viewBox="0 0 50 50" style="enable-background:new 0 0 50 50;" xml:space="preserve">
<path style="fill:#4CAF50;" d="M25,0L25,0L25,0C11.2,0,0,11.2,0,25c0,5.5,1.8,10.5,4.8,14.7l-3.1,9.3l9.6-3.1
	c4,2.6,8.7,4.1,13.8,4.1c13.8,0,25-11.2,25-25S38.8,0,25,0z"/>
<path style="fill:#FAFAFA;" d="M39.6,35.3c-0.6,1.7-3,3.1-4.9,3.5c-1.3,0.3-3,0.5-8.8-1.9c-7.3-3-12.1-10.5-12.4-11
	c-0.4-0.5-3-4-3-7.5s1.8-5.3,2.6-6.1c0.6-0.6,1.6-0.9,2.6-0.9c0.3,0,0.6,0,0.8,0c0.7,0,1.1,0.1,1.6,1.2c0.6,1.5,2.1,5,2.2,5.4
	c0.2,0.4,0.4,0.9,0.1,1.4c-0.2,0.5-0.4,0.7-0.8,1.1c-0.4,0.4-0.7,0.8-1.1,1.2c-0.3,0.4-0.7,0.8-0.3,1.6c0.4,0.7,1.9,3.1,4.1,5
	c2.8,2.5,5.1,3.3,5.9,3.6c0.6,0.3,1.3,0.2,1.8-0.3c0.6-0.6,1.3-1.6,2-2.6c0.5-0.7,1.1-0.8,1.8-0.5c0.7,0.2,4.2,2,5,2.4
	c0.7,0.4,1.2,0.5,1.4,0.9C40.2,32.1,40.2,33.6,39.6,35.3z"/>
</svg>
