<svg width="50" height="50" viewBox="0 0 50 50" fill="none" xmlns="http://www.w3.org/2000/svg">
<path d="M7.03141 44.2567C6.64352 44.1414 6.2359 44.3618 6.12037 44.7496C5.73258 46.0516 5.536 47.5657 5.536 49.2499C5.536 49.6545 5.86393 49.9823 6.26842 49.9823C6.67291 49.9823 7.00084 49.6545 7.00084 49.2499C7.00084 47.7073 7.17691 46.334 7.52428 45.1677C7.6398 44.78 7.4191 44.3722 7.03141 44.2567Z" fill="#F2575D"/>
<path d="M41.2851 40.486C41.2031 39.4434 40.6511 36.3058 37.0311 34.2987V33.8245C37.0311 33.5092 36.8294 33.2294 36.5303 33.1297L33.6006 32.153C33.3772 32.0787 33.1318 32.116 32.9408 32.2537C32.7497 32.3913 32.6366 32.6123 32.6366 32.8478V32.8619C31.806 32.7286 30.9186 32.6455 29.983 32.6128C31.0793 31.9335 32.0896 31.0251 32.9748 29.9056C34.213 28.3399 35.1196 26.4703 35.6506 24.4326C35.8956 24.492 36.1477 24.5239 36.4021 24.5239C38.1579 24.5239 39.5864 23.0969 39.5864 21.3428C39.5864 20.3357 39.115 19.437 38.3817 18.8537C39.1014 16.7907 39.4585 14.3323 39.3652 12.0216C39.3489 11.6174 39.0068 11.3058 38.6039 11.3193C38.1997 11.3356 37.8854 11.6765 37.9016 12.0807C37.9855 14.161 37.6756 16.3643 37.0475 18.2274C36.839 18.1843 36.6232 18.1616 36.4021 18.1616C36.3339 18.1616 36.266 18.1645 36.1985 18.1688V15.9536C36.1985 13.0962 34.0473 10.7334 31.28 10.3961C31.2466 9.50145 31.3215 7.79462 32.2502 6.77266C32.8067 6.16035 33.5949 5.88223 34.6595 5.92354C36.1594 6.08008 36.9492 7.54511 37.3479 8.74969C37.4749 9.13368 37.8891 9.34188 38.2733 9.21493C38.6573 9.08788 38.8656 8.67352 38.7386 8.28944C37.9796 5.996 36.5749 4.63722 34.7928 4.46427C34.716 4.45587 34.6503 4.40617 34.6212 4.33458C34.6165 4.32306 34.6114 4.31163 34.6062 4.30021C33.5809 2.11194 31.257 0.692808 27.8855 0.196229C25.2749 -0.188339 22.1116 -0.00113307 19.2072 0.709703C14.599 1.83401 11.6574 4.07013 10.7037 7.16738C9.84948 9.816 9.86726 15.2991 11.6881 18.799C10.9147 19.3799 10.4135 20.3039 10.4135 21.3429C10.4135 23.097 11.842 24.524 13.5979 24.524C13.8534 24.524 14.1065 24.4918 14.3525 24.4319C14.6429 25.5444 15.0452 26.6113 15.5549 27.6075C15.7393 27.9676 16.1805 28.1099 16.5406 27.9259C16.9007 27.7416 17.0432 27.3003 16.8589 26.9401C15.817 24.9042 15.2663 22.5363 15.2663 20.0927V15.9536C15.2663 13.6731 17.1211 11.8179 19.401 11.8179H30.599C32.8788 11.8179 34.7336 13.6731 34.7336 15.9536V20.0927C34.7336 26.9867 30.3671 32.5954 25 32.5954C22.6193 32.5954 20.3259 31.4747 18.5423 29.4398C18.2756 29.1354 17.8128 29.1051 17.5088 29.3717C17.2046 29.6383 17.1741 30.1012 17.4407 30.4053C18.2224 31.2971 19.0928 32.037 20.0248 32.6126C19.0864 32.6452 18.1964 32.7283 17.3636 32.862V32.8479C17.3636 32.6124 17.2504 32.3914 17.0594 32.2538C16.8684 32.116 16.6227 32.0787 16.3995 32.1531L13.4699 33.1298C13.1708 33.2295 12.9691 33.5094 12.9691 33.8246V34.2988C9.35671 36.3017 8.79929 39.4304 8.7155 40.4797C8.43572 40.7385 8.16609 41.0168 7.91268 41.322C7.65418 41.6331 7.69696 42.0948 8.00809 42.3534C8.1449 42.467 8.31082 42.5223 8.47576 42.5223C8.68601 42.5223 8.8947 42.4323 9.03953 42.2579C10.1224 40.9543 11.5297 40.172 12.9693 39.5793V49.2503C12.9693 49.6549 13.2972 49.9827 13.7017 49.9827C14.1062 49.9827 14.4341 49.6549 14.4341 49.2503V34.3524L15.899 33.864V49.2502C15.899 49.6548 16.2269 49.9827 16.6314 49.9827C17.0359 49.9827 17.3638 49.6548 17.3638 49.2502V37.9948C18.2666 37.6326 19.126 37.2004 19.8406 36.6163C20.628 37.4439 22.3009 38.7551 25.0002 38.7551C27.6995 38.7551 29.3724 37.4438 30.1598 36.6163C30.8745 37.2005 31.7339 37.6327 32.6368 37.9949V49.2503C32.6368 49.6549 32.9647 49.9827 33.3692 49.9827C33.7737 49.9827 34.1016 49.6549 34.1016 49.2503V33.864L35.5664 34.3524V49.2502C35.5664 49.6548 35.8944 49.9827 36.2988 49.9827C36.7033 49.9827 37.0313 49.6548 37.0313 49.2502V39.5808C38.3867 40.1418 39.7874 40.9061 40.8522 42.1301C42.297 43.7907 42.9993 46.1197 42.9993 49.2502C42.9993 49.6548 43.3272 49.9827 43.7317 49.9827C44.1362 49.9827 44.4641 49.6548 44.4641 49.2502C44.4639 44.8764 43.1741 42.2296 41.2851 40.486ZM13.5979 23.0592C12.6498 23.0592 11.8784 22.2893 11.8784 21.3429C11.8784 20.3965 12.6498 19.6265 13.5979 19.6265C13.6665 19.6265 13.7342 19.6319 13.8015 19.6398V20.0927C13.8015 21.077 13.8843 22.0507 14.0453 23.0003C13.9002 23.0391 13.7498 23.0592 13.5979 23.0592ZM13.8015 15.9536V18.1688C13.7339 18.1645 13.6661 18.1616 13.5979 18.1616C13.4064 18.1616 13.2192 18.1795 13.037 18.2119C11.3914 15.1441 11.353 9.92615 12.1007 7.60751C12.6562 5.80391 14.4001 3.39006 19.5549 2.13255C22.2829 1.46497 25.2414 1.28734 27.672 1.64534C29.5714 1.92503 32.0108 2.67063 33.1204 4.61749C32.343 4.82032 31.6873 5.21212 31.1618 5.79229C29.923 7.15996 29.7815 9.21268 29.8124 10.3531H19.401C16.3135 10.3531 13.8015 12.8655 13.8015 15.9536ZM36.4022 19.6264C37.3503 19.6264 38.1217 20.3964 38.1217 21.3428C38.1217 22.2892 37.3503 23.0591 36.4022 23.0591C36.2508 23.0591 36.1009 23.0392 35.9564 23.0006C36.1159 22.0547 36.1985 21.0815 36.1985 20.0926V19.6397C36.2657 19.6319 36.3335 19.6264 36.4022 19.6264ZM10.4922 39.1694C10.8344 38.2203 11.5356 37.0203 12.9691 36.0223V38.0046C12.1553 38.3163 11.309 38.6876 10.4922 39.1694ZM17.3636 34.3468C18.1768 34.2043 19.0556 34.115 19.99 34.0792C19.6344 34.9546 18.874 35.7018 17.3636 36.3976V34.3468ZM25 37.2901C22.7363 37.2901 21.3969 36.1555 20.8399 35.5449C21.2412 34.9637 21.5276 34.2695 21.6567 33.4276C22.728 33.8437 23.8536 34.0601 25 34.0601C26.1521 34.0601 27.2762 33.8452 28.3439 33.432C28.4733 34.2717 28.7594 34.9645 29.1598 35.5447C28.6014 36.157 27.2623 37.2901 25 37.2901ZM30.0269 34.0798C30.9551 34.116 31.8283 34.2051 32.6366 34.3468V36.4038C31.3567 35.8271 30.46 35.1465 30.0269 34.0798ZM37.0311 36.0223C38.4692 37.0236 39.1702 38.2282 39.5113 39.1788C38.7258 38.7138 37.8882 38.3354 37.0311 38.0049V36.0223Z" fill="#F2575D"/>
<path d="M24.9999 46.7149C24.5954 46.7149 24.2675 47.0427 24.2675 47.4473V49.2675C24.2675 49.6721 24.5954 50 24.9999 50C25.4044 50 25.7324 49.6721 25.7324 49.2675V47.4473C25.7324 47.0427 25.4044 46.7149 24.9999 46.7149Z" fill="#F2575D"/>
<path d="M22.4363 27.2498C22.176 27.5595 22.2162 28.0215 22.5258 28.2817C23.217 28.8624 24.0956 29.1823 25 29.1823C25.9044 29.1823 26.783 28.8625 27.4741 28.2817C27.7838 28.0215 27.8239 27.5594 27.5636 27.2498C27.3033 26.94 26.8414 26.9001 26.5317 27.1602C26.1041 27.5196 25.56 27.7174 24.9999 27.7174C24.4397 27.7174 23.8957 27.5196 23.468 27.1602C23.1586 26.9 22.6965 26.9402 22.4363 27.2498Z" fill="#F2575D"/>
<path d="M24.6487 24.7746C24.7179 24.7164 24.8351 24.6469 25 24.6469C25.165 24.6469 25.2822 24.7164 25.3514 24.7746C25.4887 24.8901 25.656 24.9464 25.8224 24.9464C26.0312 24.9464 26.2385 24.8577 26.3834 24.6853C26.6438 24.3757 26.6038 23.9137 26.2942 23.6535C25.9327 23.3496 25.4732 23.1822 25.0001 23.1822C24.5271 23.1822 24.0676 23.3496 23.7061 23.6535C23.3965 23.9137 23.3565 24.3757 23.6168 24.6853C23.8769 24.995 24.3389 25.0349 24.6487 24.7746Z" fill="#F2575D"/>
</svg>
