<svg width="50" height="50" viewBox="0 0 50 50" fill="none" xmlns="http://www.w3.org/2000/svg">
<g clip-path="url(#clip0)">
<path d="M41.8728 44.2449V49.1669C41.8728 49.627 41.4998 50.0001 41.0396 50.0001C40.5795 50.0001 40.2064 49.627 40.2064 49.1669V44.2449C40.2064 40.4126 37.1052 37.3113 33.2726 37.3114C31.4592 37.3114 29.8139 36.3875 28.8712 34.84C28.6319 34.447 28.7563 33.9343 29.1494 33.695C29.5424 33.4555 30.055 33.5801 30.2945 33.9732C30.9321 35.02 32.0454 35.6449 33.2726 35.6449C38.0259 35.6447 41.8728 39.4913 41.8728 44.2449ZM27.3325 35.8926C27.4305 36.3422 27.1454 36.7861 26.6958 36.8841C24.5029 37.3619 22.2727 36.8836 20.497 35.6716C18.7391 37.5554 16.4167 37.3114 16.7276 37.3114C12.8953 37.3113 9.79383 40.4123 9.79383 44.2449V49.1669C9.79383 49.627 9.42075 50.0001 8.9606 50.0001C8.50046 50.0001 8.12738 49.627 8.12738 49.1669V44.2449C8.12738 39.4918 11.9736 35.6449 16.7274 35.6449C18.6503 35.6449 20.2091 34.0956 20.2091 32.1722V31.9528C16.5722 30.2138 14.0194 26.5593 13.8638 22.3037C12.3671 21.9439 11.252 20.6043 11.252 19.0104V14.6909C11.2065 12.5766 11.5204 7.28114 15.3814 3.55933C20.149 -1.03652 27.7947 -0.744583 33.4167 1.96183C33.9646 2.22586 34.0478 2.96618 33.5928 3.34957C36.4409 4.04427 38.8968 5.79508 40.4746 8.30079C40.556 8.42984 40.7052 8.63242 40.6662 8.9556C40.6421 9.15672 40.5822 9.32691 40.4272 9.48418C39.4117 10.514 38.8525 11.8788 38.8525 13.327V19.0106C38.8525 19.4708 38.4794 19.8439 38.0193 19.8439C37.5591 19.8439 37.1861 19.4708 37.1861 19.0106V13.327C37.1861 11.6567 37.7567 10.0713 38.8048 8.79771C37.2073 6.51301 34.7149 5.04362 31.8961 4.74178L30.4316 4.58493C29.5753 4.49327 29.4073 3.31353 30.2031 2.98597L30.8692 2.71173C22.1947 -0.312347 12.9183 3.04773 12.9183 14.6818V19.0104C12.9183 19.6716 13.2991 20.2462 13.8557 20.5348V15.1331C13.8557 11.9171 16.4722 9.30056 19.6883 9.30056H30.3119C33.5279 9.30056 36.1444 11.9169 36.1444 15.1328V21.9551C36.1444 29.2015 29.0633 34.7056 21.8578 32.5843C21.8109 33.1788 21.6629 33.7525 21.4218 34.2857C22.8235 35.2483 24.5936 35.6366 26.3409 35.2558C26.7906 35.1579 27.2345 35.443 27.3325 35.8926ZM25.0001 31.3697C30.2262 31.3697 34.478 27.118 34.478 21.8918V15.1328C34.478 12.8358 32.6091 10.967 30.3119 10.967H19.6883C17.3911 10.967 15.5221 12.8359 15.5221 15.1331V21.8918C15.5221 27.118 19.7739 31.3697 25.0001 31.3697ZM33.4365 45.7298H30.9368C30.4766 45.7298 30.1036 46.1029 30.1036 46.5631C30.1036 47.0232 30.4766 47.3963 30.9368 47.3963H33.4365C33.8966 47.3963 34.2697 47.0232 34.2697 46.5631C34.2697 46.1029 33.8966 45.7298 33.4365 45.7298Z" fill="#F2575D"/>
</g>
<defs>
<clipPath id="clip0">
<rect width="50" height="50" fill="white"/>
</clipPath>
</defs>
</svg>
