<svg width="50" height="50" viewBox="0 0 50 50" fill="none" xmlns="http://www.w3.org/2000/svg">
<g clip-path="url(#clip0)">
<path d="M23.5574 37.0009C23.1813 36.7249 22.6521 36.8055 22.3757 37.1818L22.2714 37.3239C21.9953 37.6998 22.0757 38.2283 22.4512 38.5049C22.6021 38.6161 22.7779 38.6699 22.952 38.6699C23.2111 38.6699 23.4669 38.5511 23.6325 38.3267L23.7384 38.1826C24.0147 37.8064 23.9337 37.2773 23.5574 37.0009Z" fill="#F2575D"/>
<path d="M23.778 45.0432L21.6038 41.0899L23.6337 38.3252C23.9102 37.9489 23.829 37.4198 23.4527 37.1435C23.0764 36.867 22.5473 36.9481 22.271 37.3246L19.9216 40.5243C19.7268 40.7896 19.7037 41.1437 19.8622 41.432L22.2966 45.8579V45.8578C22.4506 46.1376 22.7398 46.2959 23.0381 46.2959C23.1759 46.2958 23.3156 46.2621 23.4448 46.1911C23.8538 45.9662 24.003 45.4523 23.778 45.0432Z" fill="#F2575D"/>
<path d="M30.0785 40.5243L27.7387 37.3376C27.5447 37.0735 27.2158 36.945 26.8942 37.0087C26.5726 37.0719 26.3166 37.3154 26.2371 37.6333C26.1761 37.8775 26.227 38.1359 26.3759 38.3387L28.3958 41.0899L26.2365 45.0164C26.168 45.1411 26.132 45.2817 26.132 45.4242C26.132 45.81 26.3933 46.1469 26.767 46.2429C26.837 46.261 26.9076 46.2697 26.9774 46.2697C27.28 46.2697 27.5668 46.1064 27.7181 45.8317L30.1378 41.4323C30.2965 41.1437 30.2733 40.7896 30.0785 40.5243Z" fill="#F2575D"/>
<path d="M31.4181 27.2395C31.1401 27.0935 30.804 27.1134 30.5453 27.2918C30.0424 27.6382 29.5758 28.0051 29.1584 28.3824C26.8834 30.439 24.722 30.1607 24.6373 30.1486C24.5864 30.1406 24.5345 30.1369 24.4832 30.1385C23.5841 30.1616 21.963 29.34 20.2481 27.9931C19.9858 27.7872 19.7168 27.5909 19.4483 27.4096C19.1893 27.2346 18.8546 27.217 18.5786 27.3637C18.3026 27.5104 18.13 27.7975 18.13 28.1102V31.0102C18.13 31.2667 18.2467 31.5091 18.4467 31.6696C18.4703 31.6886 18.4949 31.7062 18.5203 31.7224L24.5146 35.7279C24.5156 35.7285 24.5164 35.7293 24.5174 35.73L24.5332 35.7405C24.6744 35.8339 24.837 35.881 25.0001 35.881C25.1374 35.881 25.2747 35.8477 25.4002 35.7806C25.4267 35.7665 25.4521 35.751 25.4765 35.7344C25.4793 35.7325 25.4822 35.7306 25.4851 35.7287C25.4884 35.7265 25.4917 35.7243 25.4951 35.7221L31.4752 31.726C31.4992 31.7108 31.5226 31.6944 31.5452 31.6768C31.7503 31.5167 31.8703 31.2709 31.8703 31.0105V27.988C31.8703 27.6737 31.6962 27.3857 31.4181 27.2395ZM30.1794 30.5581L25 34.019L19.8207 30.558V29.7891C21.0819 30.7056 22.937 31.8298 24.4493 31.8297C24.4524 31.8297 24.4559 31.8297 24.4591 31.8297C24.9668 31.8858 27.556 32.0385 30.1796 29.7369V30.5581H30.1794Z" fill="#F2575D"/>
<path d="M25.8339 34.8969C25.7781 34.5616 25.5269 34.2924 25.1962 34.2135C24.8653 34.1351 24.5198 34.2615 24.3187 34.5356L22.3756 37.1821C22.0992 37.5585 22.1803 38.0876 22.5567 38.3639C22.7074 38.4746 22.8826 38.5279 23.0564 38.5279C23.3163 38.5279 23.5728 38.4083 23.7386 38.1826L25.6715 35.55C25.7815 35.4063 25.8455 35.2274 25.8455 35.0361C25.8454 34.9897 25.8415 34.9428 25.8339 34.8969Z" fill="#F2575D"/>
<path d="M37.8791 7.64377C37.8623 7.51134 37.4663 4.65333 34.7761 3.52589C34.8542 3.02393 34.846 2.37881 34.5273 1.75118C34.099 0.907619 33.2538 0.357911 32.015 0.11709C31.9619 0.106738 31.908 0.101562 31.8538 0.101562H20.5074C15.9001 0.101562 12.1518 3.84981 12.1518 8.45724V12.9095C12.1518 14.0695 12.5472 15.2006 13.265 16.0944C13.6208 16.5375 14.0591 17.3115 14.1252 18.4816C14.151 18.9384 14.5334 19.2914 14.9931 19.2788C15.4505 19.2659 15.8146 18.8913 15.8146 18.4337V12.629C16.3886 10.2551 18.3477 9.79309 18.6845 9.73068H22.3546C22.7864 9.73068 23.2109 9.66477 23.6167 9.53469C24.3145 9.31086 25.4216 8.89894 26.2277 8.59279C26.767 8.38781 27.364 8.38029 27.9087 8.5717L31.8378 9.951C33.802 10.6756 34.1526 12.4 34.1961 12.6709V19.6374C34.1961 20.0799 34.5372 20.447 34.9784 20.4799C34.9999 20.4815 35.021 20.4824 35.0421 20.4824C35.4567 20.4823 35.8147 20.1785 35.8775 19.7621C35.8808 19.7404 36.2183 17.56 37.3068 15.8143C37.6855 15.2066 37.8858 14.5137 37.8858 13.8106V7.7505C37.8858 7.71486 37.8836 7.67921 37.8791 7.64377ZM36.195 13.8102C36.195 14.1878 36.0885 14.5624 35.8867 14.8955V12.6131C35.8867 12.5825 35.885 12.5522 35.8817 12.5218C35.8684 12.399 35.5191 9.50197 32.4151 8.36174C32.4113 8.36037 32.4075 8.359 32.4037 8.35763L28.4686 6.97619C28.025 6.82042 27.5608 6.74269 27.0969 6.74269C26.5981 6.74269 26.0996 6.83263 25.6272 7.01232C24.4987 7.44103 23.6248 7.75656 23.1003 7.92472C22.8617 8.00119 22.6108 8.04006 22.3546 8.04006H18.6162C18.5799 8.04006 18.5436 8.0424 18.5076 8.04699C18.3645 8.06554 14.9927 8.54504 14.1442 12.3483C14.1307 12.4087 14.1239 12.4704 14.1239 12.5323V14.2722C13.9398 13.8468 13.8423 13.3822 13.8423 12.9096V8.45744C13.8423 4.78243 16.8323 1.79248 20.5072 1.79248H31.7684C32.2346 1.8918 32.8013 2.09561 33.0162 2.51026C33.2794 3.01778 32.9796 3.71661 32.9793 3.71719C32.8712 3.94718 32.8724 4.21349 32.9823 4.44249C33.0923 4.67149 33.2995 4.83888 33.5466 4.89835C35.6987 5.41642 36.1377 7.48058 36.1949 7.81447V13.8102H36.195Z" fill="#F2575D"/>
<path d="M35.8818 12.5219C35.8685 12.3991 35.5192 9.50202 32.4152 8.36179C32.4114 8.36042 32.4076 8.35905 32.4038 8.35769L28.4687 6.97624C27.5478 6.65299 26.5388 6.66589 25.6272 7.01218C24.4987 7.44089 23.6247 7.75642 23.1002 7.92468C22.8617 8.00114 22.6108 8.03991 22.3545 8.03991H18.6161C18.5799 8.03991 18.5436 8.04226 18.5075 8.04685C18.3645 8.0654 14.9927 8.54489 14.1442 12.3481C14.1307 12.4086 14.1238 12.4703 14.1238 12.5322V19.7994C14.1238 19.8057 14.1239 19.8119 14.124 19.8182C14.1296 20.0706 14.3082 26.0322 18.4274 28.7587L18.4487 28.7737C18.4663 28.7862 18.484 28.7987 18.5025 28.8111C18.7373 28.9697 18.9732 29.1419 19.2038 29.323C20.4038 30.2652 22.6653 31.8298 24.4493 31.8298C24.4526 31.8298 24.4557 31.8298 24.4591 31.8298C24.556 31.8404 24.7289 31.8547 24.9635 31.8547C25.9746 31.8547 28.1316 31.5898 30.2921 29.6366C30.6547 29.309 31.0625 28.9885 31.5044 28.684L31.5676 28.6398C31.5882 28.6252 31.6088 28.6106 31.6301 28.5963C33.0042 27.6734 35.3838 25.2922 35.8835 19.7127C35.8857 19.6877 35.8869 19.6624 35.8869 19.6372V12.6132C35.8868 12.5827 35.885 12.5523 35.8818 12.5219ZM34.196 19.599C33.7353 24.6344 31.5899 26.5864 30.6874 27.1926C30.6553 27.2142 30.6237 27.2364 30.592 27.2587L30.5452 27.2917C30.0423 27.6381 29.5757 28.0051 29.1583 28.3823C26.8918 30.4314 24.7374 30.1626 24.6318 30.1478C24.5827 30.1404 24.5328 30.1373 24.4831 30.1387C23.584 30.1617 21.9629 29.3401 20.248 27.9933C19.9857 27.7872 19.7167 27.5909 19.4486 27.41L19.4278 27.3953C19.4074 27.3809 19.3872 27.3665 19.3634 27.3507C16.0394 25.1506 15.8219 20.002 15.8146 19.7872V12.629C16.3906 10.2464 18.3618 9.78962 18.6831 9.73064H22.3546C22.7864 9.73064 23.2109 9.66472 23.6166 9.53464C24.3145 9.31081 25.4217 8.8989 26.2277 8.59274C26.7669 8.38776 27.364 8.38024 27.9086 8.57165L31.8377 9.95095C33.802 10.6756 34.1526 12.4 34.1961 12.6709V19.599H34.196Z" fill="#F2575D"/>
<path d="M25.7561 34.6581C25.6244 34.3946 25.365 34.2188 25.0715 34.1938C24.7786 34.1695 24.4928 34.2983 24.3185 34.5358L22.2935 37.2939C22.0174 37.67 22.0981 38.1987 22.474 38.4752C22.6248 38.5861 22.8002 38.6398 22.9742 38.6398C23.2336 38.6398 23.4896 38.5207 23.6553 38.2958L25.6804 35.548C25.7876 35.4026 25.8454 35.2169 25.8454 35.0364C25.8455 34.9053 25.8147 34.7756 25.7561 34.6581Z" fill="#F2575D"/>
<path d="M25.8103 48.2693C25.4927 47.9371 24.968 47.9195 24.629 48.2297L24.4357 48.4065C24.1464 48.671 24.0769 49.0999 24.2681 49.4423L24.2741 49.453C24.4032 49.6843 24.6335 49.8417 24.8959 49.8782C24.9347 49.8835 24.9736 49.8862 25.0123 49.8862C25.2348 49.8862 25.4504 49.7982 25.61 49.6385L25.7972 49.4511C26.1221 49.1262 26.128 48.6012 25.8103 48.2693Z" fill="#F2575D"/>
<path d="M25.5644 48.4065L25.3712 48.2297C25.0321 47.9195 24.5073 47.9372 24.1897 48.2693C23.872 48.6015 23.8779 49.1266 24.2029 49.4514L24.3904 49.6388C24.5501 49.7985 24.7655 49.8863 24.9881 49.8863C25.0278 49.8863 25.0678 49.8836 25.1077 49.8778C25.371 49.8403 25.6013 49.6808 25.7293 49.4476L25.7352 49.4369C25.9225 49.0951 25.852 48.6694 25.5644 48.4065Z" fill="#F2575D"/>
<path d="M25.5787 48.4196L25.5776 48.4186C25.447 48.2966 25.2782 48.2161 25.0921 48.1957C24.843 48.1685 24.6003 48.2529 24.4239 48.4173L24.4213 48.4196C24.2504 48.5755 24.1509 48.7947 24.1459 49.026C24.141 49.2574 24.231 49.4806 24.395 49.6436L24.4039 49.6525C24.5688 49.8165 24.7843 49.8984 24.9999 49.8984C25.2164 49.8984 25.4327 49.8158 25.5976 49.651L25.6065 49.6421C25.7698 49.4787 25.8592 49.2557 25.8539 49.0249C25.8488 48.7939 25.7493 48.5753 25.5787 48.4196Z" fill="#F2575D"/>
<path d="M25.2742 34.2178C24.9241 34.1057 24.54 34.2357 24.3268 34.5355C24.0883 34.8712 24.1277 35.3287 24.4182 35.6206C24.5817 35.7849 24.7987 35.8691 25.0173 35.8691C25.1871 35.8691 25.3578 35.8183 25.5051 35.7146C25.7301 35.5563 25.864 35.2985 25.864 35.0233V35.0212C25.864 34.6534 25.6247 34.3296 25.2742 34.2178Z" fill="#F2575D"/>
<path d="M25.687 34.5285L25.6798 34.5188C25.4629 34.2252 25.082 34.1043 24.7354 34.2185C24.3888 34.3326 24.1547 34.6565 24.1547 35.0213V35.0358C24.1547 35.347 24.3294 35.6307 24.6036 35.778C24.7278 35.8447 24.8649 35.8776 25.0018 35.8776C25.167 35.8776 25.3319 35.8297 25.4737 35.7358C25.667 35.6078 25.7993 35.4061 25.8396 35.1779C25.88 34.9497 25.8248 34.7149 25.687 34.5285Z" fill="#F2575D"/>
<path d="M35.0566 31.8728C34.969 31.6413 34.7843 31.4598 34.5513 31.3764L31.31 30.2145C31.2837 30.2051 31.2565 30.1967 31.2293 30.1901C30.998 30.1322 30.7529 30.1747 30.5546 30.3073L24.549 34.3204C24.5474 34.3215 24.5456 34.3225 24.544 34.3237L25.0156 35.0249L24.5334 34.3308C24.3573 34.4473 24.2311 34.6259 24.1799 34.8308C24.1518 34.9433 24.1472 35.0608 24.1662 35.1752C24.188 35.3058 24.2402 35.4297 24.3187 35.5366L28.7157 41.525C28.8754 41.7428 29.1289 41.8701 29.3969 41.8701C29.4153 41.8701 29.4337 41.8694 29.4522 41.8682C29.7402 41.8492 29.9987 41.6849 30.1377 41.4319L35.0066 32.5796C35.126 32.3626 35.1443 32.1042 35.0566 31.8728ZM29.2946 39.4567L26.2042 35.2477L31.14 31.9496L33.0475 32.6335L29.2946 39.4567Z" fill="#F2575D"/>
<path d="M25.833 34.8902C25.7932 34.6632 25.6627 34.4623 25.4713 34.3339L19.4456 30.3074C19.2538 30.1791 19.0173 30.1352 18.792 30.1852C18.7575 30.1928 18.7235 30.2028 18.6902 30.2147L15.4489 31.3766C15.2159 31.4601 15.0312 31.6415 14.9436 31.873C14.856 32.1045 14.8742 32.3627 14.9935 32.5797L19.8624 41.4321C20.0014 41.685 20.2599 41.8494 20.5479 41.8683C20.5663 41.8695 20.5847 41.8701 20.6031 41.8701C20.8711 41.8701 21.1245 41.7427 21.2845 41.5249L23.6339 38.3251C23.6358 38.3227 23.6377 38.3201 23.6395 38.3174L25.6816 35.5361C25.8179 35.3503 25.8726 35.1171 25.833 34.8902ZM22.2712 37.3242C22.2692 37.3269 22.2672 37.3296 22.2652 37.3324L20.7053 39.4569L16.9524 32.6335L18.86 31.9497L23.7957 35.2479L22.2712 37.3242Z" fill="#F2575D"/>
<path d="M49.9582 46.3043L48.8677 39.719C48.524 37.6437 47.0817 35.9098 45.1036 35.1944L34.5534 31.3774C34.2281 31.2598 33.8645 31.352 33.6346 31.61C33.4047 31.8681 33.355 32.2402 33.5093 32.5497L35.7121 36.9671L33.5506 37.0004C33.2572 37.005 32.987 37.1612 32.8371 37.4136C32.6871 37.6659 32.6787 37.9778 32.8148 38.2379L33.7013 39.9306L24.6288 48.2301C24.6195 48.2386 24.6104 48.2472 24.6015 48.2561L24.4142 48.4434C24.1489 48.7088 24.0902 49.1174 24.2704 49.4467L24.277 49.4587C24.4253 49.7297 24.7097 49.8983 25.0187 49.8983H46.9104C47.8199 49.8983 48.6787 49.5006 49.2667 48.807C49.8548 48.1135 50.1068 47.2012 49.9582 46.3043ZM47.9774 47.7136C47.711 48.0276 47.3222 48.2077 46.9105 48.2077H27.158L35.3231 40.7386C35.6063 40.4797 35.6796 40.0626 35.5014 39.7226L34.9499 38.6696L37.0813 38.6368C37.3718 38.6324 37.6395 38.479 37.7906 38.2308C37.9415 37.9825 37.9545 37.6743 37.8249 37.4142L35.9658 33.6861L44.5289 36.7841C45.9327 37.2919 46.9562 38.5223 47.2001 39.9951L48.2906 46.5804C48.2906 46.5805 48.2906 46.5805 48.2906 46.5805C48.3578 46.9866 48.2437 47.3995 47.9774 47.7136Z" fill="#F2575D"/>
<path d="M25.586 48.4264L25.5761 48.4175C25.2415 48.1146 24.7277 48.1281 24.4093 48.4482L24.4005 48.4571C24.1598 48.6993 24.0884 49.0625 24.2195 49.3778C24.3506 49.6931 24.6586 49.8985 25 49.8985H25.0186C25.3681 49.8985 25.6817 49.6832 25.8073 49.3572C25.9331 49.0309 25.8451 48.661 25.586 48.4264Z" fill="#F2575D"/>
<path d="M25.5594 48.402C25.3675 48.2292 25.1073 48.1536 24.8524 48.197C24.5978 48.2401 24.3769 48.3974 24.2527 48.6238L24.2468 48.6344C24.0686 48.9593 24.1228 49.3624 24.3805 49.6289L24.3835 49.632C24.5492 49.8032 24.7699 49.8895 24.9912 49.8895C25.1948 49.8895 25.399 49.8163 25.5607 49.6685L25.5696 49.6605C25.6463 49.5906 25.7096 49.5068 25.7561 49.4138C25.9263 49.0737 25.8421 48.6563 25.5594 48.402Z" fill="#F2575D"/>
<path d="M25.5958 48.4537L25.5923 48.45C25.59 48.4478 25.5877 48.4455 25.5855 48.4433L25.398 48.256C25.3892 48.2471 25.3802 48.2384 25.371 48.2301L16.2984 39.9306L17.185 38.2379C17.3213 37.978 17.3128 37.6659 17.1629 37.4136C17.0129 37.1613 16.7427 37.005 16.4493 37.0004L14.2877 36.9671L16.4904 32.5497C16.6447 32.2403 16.5949 31.8682 16.3651 31.6101C16.1353 31.352 15.7713 31.2597 15.4464 31.3774L4.89623 35.1945C2.9181 35.9098 1.47572 37.6437 1.13207 39.7191L0.0415358 46.3043C-0.107 47.2016 0.145149 48.1137 0.733236 48.8072C1.32142 49.5006 2.18031 49.8984 3.08949 49.8984H24.9999C25.3423 49.8984 25.6508 49.6918 25.7812 49.3754C25.9118 49.059 25.8386 48.695 25.5958 48.4537ZM3.08959 48.2078C2.67787 48.2078 2.289 48.0277 2.02279 47.7136C1.75658 47.3997 1.64252 46.9867 1.7097 46.5804L2.80023 39.9951C3.04408 38.5222 4.06762 37.2919 5.47143 36.7841L14.0344 33.6861L12.1754 37.4141C12.0458 37.6741 12.0586 37.9823 12.2097 38.2307C12.3606 38.4789 12.6285 38.6322 12.919 38.6366L15.0505 38.6696L14.4989 39.7226C14.3209 40.0624 14.3941 40.4796 14.6771 40.7385L22.8423 48.2078H3.08959Z" fill="#F2575D"/>
<path d="M27.8774 38.0427C27.9384 37.7986 27.8876 37.5401 27.7386 37.3372L25.6814 34.5356C25.4652 34.2411 25.084 34.124 24.7369 34.2378C24.5495 34.2993 24.3951 34.4233 24.2924 34.5818L22.2727 37.3221C22.2438 37.3612 22.2181 37.4032 22.1963 37.4467C22.058 37.7236 22.0819 38.0539 22.2587 38.3079L23.1187 39.5429L22.2025 45.318C22.1731 45.5035 22.2063 45.6933 22.2967 45.8579L24.2594 49.4263C24.408 49.6965 24.692 49.8643 25.0002 49.8643C25.3085 49.8643 25.5924 49.6965 25.7409 49.4263L27.7182 45.8314C27.7868 45.7066 27.8228 45.5665 27.8228 45.4241V45.4236C27.8228 45.3793 27.8192 45.3349 27.8124 45.2911L26.9004 39.543L27.7511 38.3215C27.8095 38.237 27.8526 38.1423 27.8774 38.0427ZM25.0002 47.2649L23.9176 45.2968L24.8419 39.4717C24.8761 39.2559 24.8255 39.0354 24.7007 38.8562L23.9923 37.8388L25.0026 36.4679L26.0182 37.8511L25.3183 38.8562C25.1935 39.0353 25.1429 39.2559 25.1771 39.4717L26.0971 45.2703L25.0002 47.2649Z" fill="#F2575D"/>
</g>
<defs>
<clipPath id="clip0">
<rect width="50" height="50" fill="white"/>
</clipPath>
</defs>
</svg>
