<svg width="250" height="131" viewBox="0 0 250 131" fill="none" xmlns="http://www.w3.org/2000/svg">
<path d="M248.45 21.5639C248.45 21.5639 245.44 19.7266 242.11 26.8873C238.779 34.0481 237.568 38.1526 237.568 38.1526C237.568 38.1526 236.674 39.66 235.627 38.7336C234.58 37.8068 233.096 35.1251 231.393 35.6791C229.628 36.2532 229.112 38.2657 229.558 41.179C230.003 44.0926 230.745 50.5114 230.81 51.092C230.874 51.6622 230.577 52.5159 229.763 51.9993C228.949 51.4824 224.195 46.5567 221.992 48.9528C219.79 51.3485 222.365 59.261 222.63 60.1312C222.895 61.0014 222.737 61.3832 222.327 61.6159C221.918 61.8483 220.475 60.0419 219.066 58.6965C217.656 57.3512 215.786 56.0379 214.631 57.5266C213.476 59.0157 213.307 65.0281 219.367 74.5658L222.464 78.8018L227.713 78.3202C238.882 76.6053 243.298 72.5202 243.659 70.6713C244.02 68.8221 241.8 68.2782 239.859 68.1024C237.918 67.9266 235.609 68.03 235.515 67.5682C235.42 67.1068 235.603 66.7365 236.433 66.3634C237.263 65.9898 244.915 62.721 245.269 59.4861C245.623 56.2511 238.786 55.9136 237.861 55.6409C236.936 55.3679 237.384 54.5823 237.855 54.2553C238.334 53.9221 243.656 50.256 246.143 48.674C248.629 47.092 249.805 45.3796 249.075 43.6722C248.558 42.4616 246.801 42.4912 245.356 42.5211C244.836 42.5315 244.356 42.5419 243.989 42.4951C242.602 42.3165 243.149 40.6513 243.149 40.6513C243.149 40.6513 245.442 37.0381 248.641 29.8179C251.841 22.5974 248.386 21.5312 248.386 21.5312L248.45 21.5639Z" fill="#F3F2F1"/>
<path d="M245.456 27.9723C245.456 27.9723 245.439 28.026 245.397 28.1272C245.352 28.2349 245.289 28.3837 245.209 28.5749C245.035 28.974 244.786 29.5503 244.466 30.2884C243.82 31.776 242.869 33.9217 241.683 36.5681C239.314 41.862 235.978 49.147 232.268 57.1805C228.556 65.2165 225.203 72.4933 222.804 77.7734C221.61 80.4094 220.643 82.5447 219.97 84.0294C219.637 84.7617 219.378 85.3329 219.198 85.7288C219.11 85.9172 219.042 86.0634 218.993 86.1693C218.945 86.268 218.917 86.317 218.917 86.317C218.917 86.317 218.934 86.2633 218.976 86.1618C219.021 86.0544 219.084 85.906 219.165 85.7144C219.338 85.3153 219.587 84.7393 219.907 84.0009C220.553 82.5137 221.504 80.3683 222.69 77.7219C225.059 72.4281 228.395 65.142 232.106 57.1059C235.817 49.0728 239.17 41.7968 241.568 36.5162C242.763 33.8803 243.73 31.745 244.403 30.2603C244.736 29.5276 244.995 28.9564 245.176 28.5602C245.263 28.3721 245.331 28.2259 245.38 28.12C245.428 28.0209 245.456 27.9723 245.456 27.9723Z" fill="#DADBD8"/>
<path d="M233.319 39.5146C233.33 39.5106 233.383 39.6356 233.467 39.8643C233.552 40.093 233.665 40.4273 233.8 40.8419C234.069 41.6714 234.41 42.827 234.764 44.1089C235.105 45.371 235.414 46.5125 235.653 47.3943C235.76 47.7847 235.851 48.1161 235.926 48.3881C235.992 48.6226 236.023 48.7544 236.011 48.7583C235.999 48.7619 235.946 48.638 235.861 48.4093C235.776 48.1802 235.663 47.8456 235.532 47.4296C235.271 46.5972 234.945 45.4377 234.592 44.1561C234.242 42.8968 233.925 41.7582 233.68 40.8783C233.57 40.4885 233.477 40.1568 233.401 39.8852C233.337 39.6504 233.307 39.5182 233.319 39.5146Z" fill="#DADBD8"/>
<path d="M236.496 48.8339C236.48 48.7875 238.831 47.977 241.745 47.0247C244.66 46.0716 247.035 45.3371 247.05 45.384C247.065 45.4304 244.715 46.2405 241.8 47.1936C238.886 48.1463 236.511 48.8808 236.496 48.8339Z" fill="#DADBD8"/>
<path d="M230.241 60.9158C230.241 60.9036 230.379 60.8917 230.627 60.8809C230.914 60.8711 231.265 60.8589 231.679 60.8445C232.568 60.8132 233.794 60.7652 235.146 60.6637C236.498 60.5657 237.718 60.4346 238.601 60.3337C239.013 60.2873 239.363 60.248 239.648 60.2156C239.896 60.1897 240.033 60.1806 240.035 60.1929C240.037 60.2051 239.902 60.2368 239.658 60.2844C239.414 60.3312 239.058 60.3928 238.618 60.4584C237.738 60.5916 236.515 60.7426 235.159 60.8413C233.803 60.9428 232.572 60.9709 231.682 60.9702C231.236 60.968 230.876 60.9623 230.627 60.9504C230.378 60.9399 230.241 60.9281 230.241 60.9158Z" fill="#DADBD8"/>
<path d="M225.512 53.1187C225.522 53.1122 225.6 53.2138 225.73 53.4029C225.861 53.5923 226.046 53.8693 226.27 54.2137C226.718 54.9024 227.328 55.8605 227.992 56.9242C228.656 57.9886 229.249 58.9571 229.671 59.6628C229.881 60.0158 230.049 60.3028 230.162 60.5035C230.275 60.7041 230.332 60.8179 230.321 60.8244C230.311 60.8309 230.234 60.7293 230.103 60.5399C229.972 60.3508 229.788 60.0738 229.564 59.7294C229.115 59.0407 228.505 58.0826 227.841 57.0185C227.177 55.9545 226.585 54.9863 226.163 54.2803C225.952 53.9277 225.784 53.6402 225.672 53.4396C225.559 53.239 225.502 53.1252 225.512 53.1187Z" fill="#DADBD8"/>
<path d="M218.635 63.0828C218.645 63.0763 218.742 63.2074 218.91 63.4498C219.093 63.7239 219.326 64.0715 219.604 64.4868C220.184 65.3664 220.974 66.5882 221.839 67.9433C222.703 69.2991 223.477 70.5317 224.03 71.4286C224.289 71.8562 224.505 72.2138 224.676 72.4959C224.826 72.7498 224.903 72.8935 224.893 72.9C224.883 72.9069 224.785 72.7754 224.618 72.533C224.435 72.2592 224.201 71.9113 223.923 71.4963C223.344 70.6163 222.553 69.3949 221.689 68.0391C220.825 66.6837 220.051 65.4515 219.498 64.5542C219.239 64.127 219.023 63.7693 218.851 63.4873C218.702 63.233 218.624 63.0893 218.635 63.0828Z" fill="#DADBD8"/>
<path d="M224.81 72.6234C224.809 72.6108 224.983 72.5921 225.297 72.5676C225.646 72.5434 226.093 72.5117 226.63 72.4739C227.756 72.394 229.309 72.2787 231.02 72.1036C232.732 71.9318 234.278 71.7355 235.396 71.5868C235.929 71.5162 236.374 71.4578 236.72 71.4121C237.034 71.3724 237.208 71.3562 237.209 71.3681C237.212 71.3804 237.041 71.42 236.731 71.4805C236.421 71.5414 235.971 71.6213 235.414 71.711C234.299 71.8918 232.753 72.1083 231.038 72.2805C229.324 72.4559 227.765 72.5514 226.637 72.5993C226.073 72.622 225.616 72.6353 225.301 72.6371C224.985 72.6396 224.81 72.6357 224.81 72.6234Z" fill="#DADBD8"/>
<path d="M33.957 57.0433C42.3595 51.4346 44.4108 40.8235 44.2311 31.2548C44.2008 29.657 44.4047 27.9766 43.6573 26.5647C42.9091 25.1527 41.1294 24.1686 39.6702 24.8198C38.4607 25.3594 37.9153 26.7307 37.2252 27.8617C36.3078 29.3656 34.9563 30.6018 33.3763 31.3812C32.3379 31.8934 31.0586 32.1967 30.0504 31.628C28.6667 30.8474 28.5317 28.943 28.5665 27.3542C28.6312 24.3955 28.6961 21.4369 28.7608 18.4778C28.7956 16.8904 28.826 15.2695 28.3487 13.7549C27.8719 12.2402 26.7883 10.8239 25.2645 10.378C23.7406 9.93209 21.8339 10.775 21.4868 12.3238C21.3423 12.9689 21.4655 13.6421 21.4106 14.3002C21.3558 14.9587 21.0329 15.6834 20.3956 15.8581C19.7511 16.0346 19.1144 15.5743 18.6402 15.1028C17.0047 13.4743 15.91 11.3927 14.8891 9.323C13.8677 7.25366 12.8784 5.13604 11.3991 3.36458C9.9196 1.59348 7.85674 0.176819 5.55514 0.0132866C3.25295 -0.149883 0.77644 1.21744 0.159176 3.44131C-0.459494 5.67058 0.82878 7.96144 2.24045 9.79486C4.33439 12.5154 6.8247 14.9306 9.60738 16.9409C10.1094 17.3036 10.6528 17.6958 10.8381 18.2866C11.1706 19.3499 10.1378 20.3869 9.07396 20.719C7.86816 21.0947 6.56903 20.9524 5.31255 21.0799C4.05567 21.2071 2.68817 21.7326 2.19515 22.8953C1.51133 24.509 2.86025 26.2304 4.19593 27.3643C6.8707 29.6357 9.93801 31.4446 13.2199 32.6873C14.3969 33.1329 15.6362 33.5259 16.5778 34.3608C17.5194 35.1965 18.0732 36.6315 17.4795 37.7409C16.8851 38.8521 15.3994 39.1878 14.1633 38.9422C12.9273 38.6972 11.8281 38.0165 10.6535 37.5586C8.45543 36.7021 5.59804 36.8102 4.15245 38.6745C3.20258 39.8999 3.09381 41.6253 3.54153 43.1097C3.9891 44.5944 4.92378 45.8811 5.91927 47.0701C9.39886 51.2261 13.8839 54.5971 18.9852 56.4288C24.087 58.2607 28.8315 58.8064 33.957 57.0433Z" fill="#E7E8E5"/>
<path d="M33.2975 57.2277C31.9453 52.3816 28.2439 40.9798 26.0392 35.6172C25.4829 34.279 24.9333 32.9567 24.3911 31.6528C23.8479 30.3525 23.3091 29.0644 22.7031 27.8362C21.5019 25.3738 20.1572 23.0967 18.8121 20.974C17.4673 18.8499 16.1126 16.8829 14.8323 15.0516C13.5482 13.2232 12.3187 11.5411 11.1319 10.0553C8.76709 7.07355 6.57647 4.89507 5.01158 3.45967C4.2297 2.73856 3.60554 2.19898 3.1778 1.8377C2.96941 1.66408 2.80718 1.52864 2.68928 1.43031C2.57812 1.33954 2.51733 1.29776 2.51733 1.29776C2.51733 1.29776 2.56728 1.35215 2.67309 1.44904C2.7872 1.5517 2.94465 1.6929 3.14628 1.87408C3.56304 2.24688 4.17736 2.79726 4.94783 3.52739C6.49135 4.98259 8.65734 7.17297 10.9989 10.1605C12.1746 11.6495 13.3935 13.3342 14.6694 15.1658C15.9414 17.0003 17.288 18.9695 18.625 21.0925C19.9624 23.2134 21.2993 25.4862 22.4921 27.9392C23.0936 29.1624 23.6274 30.4418 24.1712 31.7454C24.7128 33.0482 25.2615 34.3702 25.8174 35.7083C28.0207 41.0673 31.7243 52.4569 33.0848 57.2878" fill="#DADBD8"/>
<path d="M22.6433 27.8114C22.6596 27.8146 22.7149 27.5733 22.8003 27.1346C22.8882 26.6969 22.9964 26.0594 23.119 25.2705C23.3664 23.6921 23.636 21.5021 23.9272 19.0859C24.2186 16.6682 24.5258 14.488 24.8066 12.9193C24.9445 12.1341 25.0641 11.5001 25.1533 11.0636C25.2397 10.6263 25.2802 10.3821 25.2639 10.3781C25.248 10.3741 25.1771 10.6108 25.0621 11.0427C24.9449 11.4742 24.7997 12.1045 24.6402 12.888C24.3153 14.453 23.9807 16.6376 23.6892 19.0567C23.4037 21.4521 23.1455 23.6197 22.9515 25.2468C22.8534 26.0039 22.7712 26.6339 22.7081 27.1201C22.6509 27.5625 22.627 27.8085 22.6433 27.8114Z" fill="#DADBD8"/>
<path d="M2.01874 23.6878C2.01832 23.6957 2.09162 23.7087 2.2312 23.7256C2.39906 23.7425 2.60054 23.7627 2.8427 23.7872C3.37328 23.8376 4.14096 23.9097 5.08692 24.03C6.97865 24.2547 9.58181 24.6603 12.4323 25.2345C15.2831 25.814 17.8394 26.4498 19.6743 26.9652C20.5933 27.2166 21.3318 27.4407 21.8425 27.5934C22.0761 27.6619 22.2704 27.7191 22.4322 27.7667C22.5678 27.8038 22.6403 27.8196 22.6432 27.8113C22.6459 27.8034 22.5785 27.7728 22.4477 27.7209C22.2898 27.6618 22.1 27.5902 21.8716 27.5052C21.3693 27.3247 20.6372 27.0751 19.7217 26.8024C17.895 26.2441 15.3374 25.5803 12.4796 24.9993C9.62248 24.4237 7.00765 24.0436 5.10518 23.8617C4.15501 23.7631 3.38299 23.7159 2.84931 23.6939C2.60547 23.6874 2.403 23.6817 2.23415 23.677C2.09345 23.6759 2.01902 23.6791 2.01874 23.6878Z" fill="#DADBD8"/>
<path d="M31.3005 50.6306C31.308 50.6339 31.3562 50.5482 31.4406 50.3818C31.5347 50.1901 31.6539 49.947 31.8017 49.6462C32.1127 49.0069 32.5405 48.0707 33.0543 46.9076C34.0839 44.5822 35.4072 41.3274 36.8217 37.7168C38.237 34.1051 39.5337 30.8438 40.5221 28.504C41.0123 27.3567 41.4128 26.4188 41.7039 25.7366C41.835 25.429 41.9405 25.1793 42.0234 24.9837C42.094 24.8101 42.1278 24.7176 42.1203 24.714C42.1127 24.7107 42.0644 24.7964 41.9794 24.9636C41.8861 25.1545 41.7666 25.3976 41.6189 25.6984C41.3077 26.3374 40.8805 27.2739 40.3668 28.437C39.337 30.7624 38.0133 34.0172 36.5984 37.6293C35.1837 41.2395 33.8869 44.5004 32.8984 46.8406C32.4085 47.9871 32.0076 48.9258 31.7167 49.6077C31.5858 49.9157 31.4802 50.1653 31.3971 50.3612C31.3264 50.5341 31.2929 50.627 31.3005 50.6306Z" fill="#DADBD8"/>
<path d="M3.95072 41.4776C3.94845 41.4852 4.04247 41.523 4.22325 41.5875C4.42939 41.6577 4.6932 41.7474 5.01907 41.858C5.74016 42.0986 6.73467 42.43 7.95102 42.8352C10.4247 43.6629 13.8283 44.8484 17.5852 46.1671C21.3438 47.4857 24.7587 48.6474 27.248 49.4344C28.4929 49.8285 29.5025 50.1379 30.2042 50.3389C30.5361 50.4325 30.8043 50.5082 31.0135 50.5672C31.1994 50.6162 31.298 50.6386 31.3005 50.6306C31.3031 50.6227 31.2088 50.5853 31.0275 50.5204C30.8219 50.4505 30.5585 50.3609 30.2322 50.2499C29.5115 50.0097 28.517 49.6786 27.3006 49.2734C24.8264 48.4457 21.4228 47.2595 17.6644 45.9405C13.9075 44.6225 10.4927 43.4609 8.00379 42.6738C6.75887 42.2798 5.74891 41.9704 5.04706 41.7694C4.71557 41.6757 4.4474 41.6004 4.23787 41.5414C4.05172 41.4917 3.95325 41.4697 3.95072 41.4776Z" fill="#DADBD8"/>
<path d="M172.261 1.54914H217.673L208.788 7.86595V13.1382C208.788 18.5228 204.358 22.8881 198.892 22.8881H170.395C164.93 22.8881 160.499 18.5228 160.499 13.1382C160.499 6.73745 165.765 1.54914 172.261 1.54914Z" fill="#F3F2F1"/>
<path d="M201.127 8.59837C201.127 8.65024 193.545 8.69238 184.195 8.69238C174.841 8.69238 167.261 8.65024 167.261 8.59837C167.261 8.54686 174.841 8.50471 184.195 8.50471C193.545 8.50471 201.127 8.54686 201.127 8.59837Z" fill="#DADBD8"/>
<path d="M201.127 12.107C201.127 12.1589 193.545 12.201 184.195 12.201C174.841 12.201 167.261 12.1589 167.261 12.107C167.261 12.0552 174.841 12.0134 184.195 12.0134C193.545 12.0134 201.127 12.0552 201.127 12.107Z" fill="#DADBD8"/>
<path d="M103.367 109.628H49.6315L58.3851 115.944V128.372C58.3851 129.805 59.5467 130.967 60.98 130.967H103.367C104.8 130.967 105.962 129.805 105.962 128.372V112.223C105.962 110.79 104.8 109.628 103.367 109.628Z" fill="#F3F2F1"/>
<path d="M101.126 118.411C101.126 118.462 93.0215 118.505 83.0264 118.505C73.028 118.505 64.9253 118.462 64.9253 118.411C64.9253 118.359 73.028 118.317 83.0264 118.317C93.0215 118.317 101.126 118.359 101.126 118.411Z" fill="#DADBD8"/>
<path d="M101.126 123.182C101.126 123.234 93.0215 123.276 83.0264 123.276C73.028 123.276 64.9253 123.234 64.9253 123.182C64.9253 123.13 73.028 123.088 83.0264 123.088C93.0215 123.088 101.126 123.13 101.126 123.182Z" fill="#DADBD8"/>
<path d="M213.079 127.514H150.19C142.474 127.514 136.219 121.259 136.219 113.543V62.3567C136.219 54.6405 142.474 48.3856 150.19 48.3856H213.079C220.795 48.3856 227.05 54.6405 227.05 62.3567V113.543C227.05 121.259 220.795 127.514 213.079 127.514Z" fill="#F03D5F"/>
<path d="M213.079 127.514H165.124L199.933 126.928L198.998 115.652L198.917 115.067C198.919 115.06 198.922 115.052 198.924 115.044L197.984 108.333L197.903 107.749L200.148 112.622L213.935 112.908C213.935 112.908 205.85 89.2769 204.739 86.0726C201.698 77.3017 195.086 73.8762 189.216 72.7513C189.216 72.7513 183.601 71.9592 178.63 71.9592C175.924 71.9592 173.409 72.1941 172.094 72.9192C166.093 76.2301 165.701 76.7427 165.701 76.7427L165.368 110.529L165.124 127.514H150.19C142.474 127.514 136.219 121.259 136.219 113.543V62.3567C136.219 54.6405 142.474 48.3856 150.19 48.3856H213.079C220.795 48.3856 227.05 54.6405 227.05 62.3567V75.9722H227.027L226.719 89.8842L227.05 89.5528V113.543C227.05 121.259 220.795 127.514 213.079 127.514Z" fill="#9C2438"/>
<path d="M227.027 75.9722H240.63L226.719 89.8842L227.027 75.9722Z" fill="#F03D5F"/>
<path d="M226.719 89.8842L227.027 75.9722H240.63L226.719 89.8842Z" fill="#9C2438"/>
<path d="M134.046 84.5246L128.343 78.0572C126.8 76.5152 126.273 75.7711 126.58 75.5013C126.99 75.1407 126.816 75.261 130.018 77.6646C130.018 77.6646 125.478 74.1937 127.052 74.1721C127.329 74.1685 128.1 74.6188 128.925 75.1605C127.802 74.2046 127.491 73.5623 127.704 73.254C128.071 72.7234 130.847 74.648 132.126 75.5766C131.079 74.7971 129.089 73.2857 128.737 72.812C128.258 72.1644 129.23 72.2163 130.024 72.4871C130.914 72.7911 135.83 75.2999 137.286 75.9497C138.288 76.3967 138.64 75.4905 138.64 75.4905C139.176 73.2385 140.796 71.7707 141.422 71.5791C142.047 71.3889 142.52 72.1835 142.078 72.7565C141.721 73.2198 141.36 74.1703 141.118 74.8947C140.919 75.4919 140.816 76.1161 140.827 76.7411C140.84 77.4687 140.878 78.0843 140.925 78.6062L146.135 85.7576L137.419 90.8123L134.046 84.5246Z" fill="#C0776A"/>
<path d="M131.996 78.657C131.938 78.7384 130.925 78.0418 129.734 77.1002C128.543 76.159 127.631 75.3341 127.697 75.2581C127.763 75.1825 128.776 75.8791 129.96 76.8146C131.143 77.75 132.055 78.5749 131.996 78.657Z" fill="#B85549"/>
<path d="M133.107 77.5189C133.05 77.6018 131.929 76.9199 130.603 75.9971C129.278 75.0732 128.25 74.2584 128.307 74.1756C128.365 74.0934 129.486 74.7746 130.811 75.6981C132.137 76.6213 133.164 77.4368 133.107 77.5189Z" fill="#B85549"/>
<path d="M133.913 76.3092C133.857 76.3924 132.785 75.7653 131.519 74.9084C130.254 74.0512 129.274 73.2893 129.33 73.2061C129.386 73.1226 130.458 73.75 131.724 74.6069C132.989 75.4639 133.97 76.2264 133.913 76.3092Z" fill="#B85549"/>
<path d="M141.411 79.591L162.186 105.937L157.428 117.014C157.428 117.014 151.73 115.752 150.001 113.351C148.273 110.95 134.046 84.5246 134.046 84.5246L141.411 79.591Z" fill="#C0776A"/>
<path d="M194.151 42.725C195.646 44.0203 195.641 46.305 195.468 48.2757C195.296 50.2467 195.164 52.4911 196.529 53.9232C197.654 55.1036 199.696 55.6205 199.959 57.2299C200.081 57.9809 199.687 58.7884 199.02 59.1544C198.353 59.52 197.46 59.4181 196.893 58.9113C197.333 60.1821 197.028 61.772 195.926 62.5414C194.823 63.3111 192.978 62.8374 192.636 61.5371C192.844 62.398 192.213 63.3673 191.342 63.5258C190.471 63.6839 189.539 62.9985 189.431 62.1199" fill="#17282F"/>
<path d="M172.743 56.0216C172.37 57.0035 171.118 57.542 170.149 57.1371C169.18 56.7322 168.683 55.4625 169.121 54.5076C169.464 53.7584 170.274 53.2178 170.352 52.3972C170.445 51.4038 169.433 50.6967 168.534 50.2634C167.635 49.8304 166.584 49.2678 166.486 48.2748C166.392 47.3163 167.249 46.5706 167.968 45.9291C168.686 45.2876 169.394 44.2967 168.951 43.4412C168.724 43.004 168.253 42.7518 167.948 42.3646C167.274 41.5073 167.626 40.1425 168.485 39.47C169.344 38.7976 170.534 38.7039 171.608 38.897C172.682 39.0897 173.691 39.5345 174.737 39.8457C178.185 40.8712 182.058 40.3641 185.125 38.4849" fill="#17282F"/>
<path d="M179.123 79.2509C182.995 80.0344 186.779 77.5645 187.621 73.7046L192.73 50.2693C194.074 44.5684 190.447 38.8838 184.712 37.6987L184.175 37.6202C178.776 36.8292 173.675 40.3163 172.453 45.6346C171.316 50.5813 170.124 56.061 169.764 58.7513C169.018 64.3214 174.452 66.0007 174.452 66.0007L173.477 70.6926C172.662 74.6173 175.194 78.4563 179.123 79.2509Z" fill="#C0776A"/>
<path d="M173.454 49.3071C173.378 49.7242 173.669 50.1326 174.103 50.2205C174.536 50.3077 174.949 50.0415 175.026 49.6244C175.102 49.2073 174.812 48.7985 174.378 48.7106C173.944 48.6231 173.531 48.89 173.454 49.3071Z" fill="#17282F"/>
<path d="M173.249 48.5303C173.333 48.6484 173.999 48.2911 174.854 48.4186C175.709 48.5339 176.271 49.0652 176.379 48.974C176.432 48.9344 176.358 48.7327 176.115 48.4939C175.875 48.2569 175.445 47.9972 174.912 47.9215C174.38 47.8463 173.903 47.9767 173.616 48.1395C173.324 48.3026 173.208 48.477 173.249 48.5303Z" fill="#17282F"/>
<path d="M181.806 50.693C181.73 51.1102 182.021 51.5186 182.455 51.6062C182.888 51.6937 183.302 51.4275 183.378 51.0104C183.454 50.5929 183.164 50.1841 182.731 50.0966C182.296 50.009 181.882 50.2759 181.806 50.693Z" fill="#17282F"/>
<path d="M181.625 49.9197C181.708 50.0378 182.376 49.6809 183.229 49.8084C184.084 49.9233 184.647 50.4546 184.755 50.3634C184.807 50.3238 184.736 50.1225 184.49 49.8837C184.25 49.6463 183.82 49.3866 183.288 49.3109C182.755 49.2357 182.279 49.3661 181.992 49.5289C181.7 49.6924 181.583 49.8664 181.625 49.9197Z" fill="#17282F"/>
<path d="M177.596 55.8025C177.607 55.7546 177.09 55.585 176.245 55.349C176.03 55.2947 175.83 55.2212 175.815 55.0667C175.786 54.9013 175.912 54.6798 176.055 54.4413C176.338 53.9432 176.634 53.4213 176.944 52.8741C178.186 50.6398 179.12 48.7898 179.029 48.7405C178.939 48.6915 177.858 50.4626 176.616 52.6969C176.315 53.2487 176.027 53.7743 175.753 54.2775C175.634 54.5134 175.451 54.7738 175.514 55.1174C175.549 55.2893 175.692 55.4308 175.827 55.4888C175.96 55.5522 176.083 55.5724 176.19 55.5947C177.049 55.7683 177.586 55.8508 177.596 55.8025Z" fill="#17282F"/>
<path d="M181.895 46.5392C181.945 46.7838 182.814 46.7985 183.799 47.0662C184.789 47.314 185.555 47.7257 185.718 47.5369C185.792 47.4458 185.683 47.2066 185.389 46.934C185.098 46.662 184.612 46.3728 184.021 46.2175C183.428 46.0637 182.863 46.0785 182.476 46.1736C182.087 46.2679 181.875 46.4236 181.895 46.5392Z" fill="#17282F"/>
<path d="M173.926 46.1038C174.048 46.3199 174.666 46.2046 175.375 46.2987C176.087 46.3678 176.663 46.6207 176.831 46.4377C176.906 46.348 176.84 46.1398 176.605 45.9176C176.373 45.6968 175.964 45.4842 175.475 45.4277C174.987 45.3719 174.539 45.4857 174.264 45.6485C173.985 45.8117 173.873 45.9993 173.926 46.1038Z" fill="#17282F"/>
<path d="M187.586 43.288L187.613 43.3168C188.396 44.1457 188.833 45.2428 188.825 46.3828C188.825 46.4232 188.824 46.4614 188.824 46.4974C188.809 48.1154 188.534 49.723 188.534 51.3406C188.535 52.9583 188.848 54.6501 189.86 55.913C190.275 56.4324 191.082 56.8661 191.555 56.3982C191.738 56.217 191.803 55.9512 191.859 55.7005C192.717 51.9144 194.26 48.6701 194.839 44.6647C194.997 43.5747 194.634 42.4765 193.841 41.7121C193.09 40.9885 192.158 40.2155 191.162 40.5202C190.163 40.8253 188.703 42.3922 187.872 43.0258" fill="#17282F"/>
<path d="M190.487 52.5107C190.588 52.4836 194.473 51.9401 193.795 55.7236C193.117 59.5072 189.458 58.0458 189.472 57.9363C189.484 57.8265 190.487 52.5107 190.487 52.5107Z" fill="#C0776A"/>
<path d="M190.884 56.7098C190.903 56.7007 190.942 56.7678 191.044 56.8391C191.144 56.9079 191.324 56.9759 191.535 56.9374C191.961 56.8621 192.411 56.288 192.552 55.6093C192.623 55.2668 192.609 54.9257 192.536 54.6325C192.47 54.335 192.326 54.1095 192.131 54.0378C191.939 53.9557 191.775 54.0504 191.71 54.1487C191.64 54.2456 191.65 54.3252 191.63 54.3281C191.617 54.3357 191.559 54.2503 191.618 54.0994C191.647 54.0274 191.708 53.9459 191.809 53.889C191.913 53.8314 192.054 53.8177 192.191 53.8581C192.479 53.9305 192.694 54.246 192.774 54.568C192.871 54.8944 192.894 55.2787 192.814 55.6637C192.653 56.4216 192.135 57.0649 191.56 57.1251C191.281 57.147 191.073 57.0267 190.975 56.9169C190.874 56.8027 190.87 56.7144 190.884 56.7098Z" fill="#B85549"/>
<path d="M191.204 41.1272C192.362 39.7437 190.118 37.1841 188.329 36.3182C186.539 35.4519 183.934 36.0045 181.976 36.3503C180.741 36.5685 179.487 36.9421 178.254 36.709C177.428 36.5527 176.678 36.1345 175.935 35.7419C175.19 35.3496 174.412 34.9707 173.573 34.9059C172.735 34.8407 171.815 35.1573 171.387 35.8816C170.959 36.6056 171.256 37.7273 172.063 37.9629C171.096 37.2306 169.463 37.7676 169.118 38.9307C168.773 40.0938 169.849 41.4337 171.059 41.3491C170.578 40.8603 169.65 41.4157 169.618 42.1005C169.586 42.7852 170.126 43.3662 170.707 43.7297C172.191 44.6579 174.072 44.7065 175.793 44.3946C177.515 44.0827 179.162 43.4451 180.876 43.0903C182.589 42.7355 185.47 42.0706 187.018 42.8853C188.158 43.4854 188.783 45.0559 189.509 44.8358C190.21 44.623 190.726 43.9966 190.962 43.3025C191.198 42.6084 191.202 41.8602 191.204 41.1272Z" fill="#17282F"/>
<path d="M198.614 58.6945C198.614 58.6945 198.691 58.6837 198.813 58.6084C198.934 58.5352 199.102 58.3886 199.223 58.1405C199.339 57.8941 199.414 57.5505 199.347 57.1625C199.284 56.7714 199.031 56.373 198.666 56.0506C198.299 55.725 197.822 55.4739 197.303 55.256C196.786 55.0345 196.219 54.8328 195.708 54.4859C195.197 54.1423 194.794 53.6088 194.55 52.9828C194.3 52.3582 194.2 51.6526 194.215 50.9361C194.253 49.4932 194.652 48.1446 194.751 46.8734C194.87 45.6109 194.683 44.4093 194.144 43.5848C193.612 42.7585 192.87 42.3529 192.348 42.2334C192.084 42.1653 191.871 42.1696 191.73 42.1721C191.589 42.1869 191.515 42.1981 191.516 42.2045C191.515 42.2305 191.819 42.1613 192.328 42.3058C192.829 42.443 193.532 42.8536 194.029 43.6572C194.531 44.4558 194.701 45.6174 194.575 46.8579C194.47 48.1057 194.064 49.4521 194.022 50.9318C194.008 51.6691 194.112 52.4003 194.375 53.0527C194.631 53.7053 195.065 54.2727 195.608 54.6318C196.149 54.9923 196.727 55.189 197.241 55.403C197.758 55.6119 198.222 55.8489 198.577 56.1529C198.93 56.4551 199.173 56.8214 199.241 57.1827C199.314 57.5443 199.255 57.8718 199.154 58.1095C198.934 58.5954 198.591 58.6728 198.614 58.6945Z" fill="#33535F"/>
<path d="M171.941 37.8819C171.944 37.8772 171.888 37.848 171.777 37.7954C171.722 37.767 171.652 37.7367 171.565 37.7119C171.48 37.6809 171.379 37.6524 171.261 37.6344C170.804 37.5419 170.031 37.6161 169.352 38.2183L169.351 38.2187L169.349 38.2212C168.889 38.7442 168.59 39.5669 168.67 40.4768C168.729 41.3863 169.227 42.353 170.06 43.0439C170.885 43.747 172.008 44.185 173.208 44.3107C174.411 44.4422 175.677 44.3201 176.947 44.0809C179.02 43.6858 180.901 42.8919 182.459 41.9521C183.244 41.4965 183.987 41.0614 184.733 40.7707C185.475 40.4721 186.217 40.3413 186.896 40.3287C188.263 40.3049 189.332 40.7105 190.001 41.0624C190.676 41.4216 190.991 41.7162 191.005 41.6967C191.005 41.6967 190.709 41.3808 190.037 40.9965C189.371 40.6205 188.291 40.1864 186.894 40.1929C186.201 40.1965 185.436 40.3237 184.676 40.6223C183.912 40.9126 183.157 41.3481 182.371 41.7987C180.817 42.7248 178.961 43.5006 176.91 43.8925C175.655 44.1292 174.403 44.2509 173.229 44.1256C172.056 44.0063 170.97 43.5867 170.169 42.9139C169.361 42.2514 168.881 41.3362 168.813 40.4638C168.727 39.5917 169.002 38.8011 169.433 38.2929L169.43 38.2954C170.062 37.7155 170.806 37.6182 171.252 37.6924C171.711 37.7648 171.934 37.9028 171.941 37.8819Z" fill="#33535F"/>
<path d="M174.05 34.7312C174.05 34.7312 174.009 35.0471 174.183 35.5827C174.359 36.1093 174.82 36.8351 175.674 37.3772C176.094 37.6499 176.603 37.8801 177.183 38.0029C177.761 38.1279 178.397 38.1549 179.055 38.1005C180.377 38.0014 181.762 37.5487 183.214 37.1723C184.66 36.7959 186.115 36.601 187.368 36.9352C188.621 37.2562 189.579 38.0184 190.192 38.7687C190.814 39.5254 191.126 40.2754 191.273 40.8005C191.419 41.3308 191.435 41.6387 191.459 41.6358C191.465 41.6355 191.462 41.5591 191.449 41.4132C191.442 41.2663 191.404 41.0545 191.346 40.7815C191.218 40.243 190.92 39.4689 190.298 38.6829C189.683 37.9045 188.709 37.1071 187.413 36.7642C186.116 36.4086 184.623 36.6075 183.166 36.9864C181.702 37.366 180.334 37.8181 179.04 37.9244C178.396 37.9823 177.777 37.9611 177.216 37.8469C176.655 37.7352 176.159 37.5199 175.746 37.2627C174.909 36.7508 174.446 36.0621 174.253 35.5571C174.062 35.0435 174.074 34.7279 174.05 34.7312Z" fill="#33535F"/>
<path d="M175.889 58.6355C175.952 59.0039 176.017 59.3782 176.182 59.7135C176.346 60.0489 176.627 60.3464 176.989 60.4401C177.375 60.5402 177.798 60.3882 178.083 60.1101C178.368 59.832 178.527 59.4441 178.591 59.0511C178.649 58.6956 178.576 58.2418 178.234 58.1269C178.092 58.0793 177.937 58.1052 177.79 58.1323C177.125 58.2526 176.46 58.3725 175.795 58.4928" fill="#B85549"/>
<path d="M176.239 60.1475C176.266 60.0942 176.609 60.3795 177.231 60.3352C177.534 60.3128 177.895 60.1936 178.163 59.9105C178.43 59.631 178.606 59.1933 178.561 58.7474C178.553 58.6368 178.523 58.528 178.491 58.4297C178.444 58.3328 178.456 58.3404 178.375 58.3271C178.296 58.3231 178.16 58.3411 178.052 58.3476C177.94 58.3566 177.829 58.3649 177.72 58.3735C177.287 58.4056 176.897 58.4301 176.569 58.4459C175.913 58.4773 175.505 58.4733 175.501 58.4272C175.497 58.3815 175.897 58.3015 176.547 58.2096C176.872 58.1639 177.26 58.1149 177.691 58.0656C177.799 58.0537 177.91 58.0414 178.022 58.0288C178.141 58.0191 178.235 57.9978 178.392 57.9989C178.468 58.0014 178.571 58.022 178.655 58.0915C178.737 58.1599 178.776 58.2431 178.803 58.3105C178.848 58.4427 178.884 58.5749 178.895 58.7143C178.949 59.2708 178.725 59.796 178.382 60.1288C178.032 60.4684 177.585 60.5794 177.239 60.5722C176.885 60.5682 176.615 60.4558 176.454 60.3543C176.291 60.2505 176.227 60.163 176.239 60.1475Z" fill="#17282F"/>
<path d="M174.452 66.0007C174.452 66.0007 178.082 67.3774 181.617 66.3768C181.617 66.3768 178.951 68.6114 174.088 67.7534L174.452 66.0007Z" fill="#B85549"/>
<path d="M179.991 117.642C179.983 117.651 179.806 117.515 179.493 117.262C179.338 117.134 179.147 116.979 178.914 116.815C178.682 116.649 178.428 116.446 178.123 116.256C177.825 116.057 177.497 115.841 177.129 115.635C176.77 115.413 176.365 115.215 175.944 114.997C175.09 114.588 174.124 114.193 173.078 113.874C172.028 113.566 171.003 113.366 170.065 113.239C169.593 113.191 169.146 113.134 168.724 113.122C168.304 113.091 167.911 113.092 167.552 113.095C167.193 113.087 166.87 113.117 166.585 113.129C166.299 113.138 166.055 113.162 165.855 113.184C165.455 113.224 165.233 113.24 165.23 113.227C165.228 113.215 165.447 113.174 165.846 113.112C166.045 113.078 166.29 113.043 166.577 113.024C166.863 113.002 167.187 112.962 167.549 112.962C167.911 112.951 168.307 112.943 168.731 112.967C169.157 112.972 169.609 113.023 170.086 113.068C171.035 113.186 172.071 113.383 173.131 113.694C174.189 114.016 175.163 114.421 176.021 114.843C176.444 115.067 176.849 115.272 177.208 115.502C177.576 115.714 177.903 115.939 178.198 116.147C178.501 116.345 178.751 116.557 178.978 116.732C179.207 116.906 179.392 117.069 179.54 117.207C179.839 117.478 180 117.632 179.991 117.642Z" fill="#FAFAF9"/>
<path d="M158.821 99.1423L161.777 86.3437C162.907 81.5311 164.246 76.9065 166.497 76.3587V77.8477L165.534 114.413C165.534 114.413 159.513 121.27 151.834 117.458C149.436 116.268 145.058 107.893 145.058 107.893C145.058 107.893 134.89 89.7213 135.311 88.8968C135.733 88.0723 141.957 80.0543 142.592 79.6556L158.821 99.1423Z" fill="#F03D5F"/>
<path d="M189.216 72.7513C195.086 73.8762 201.698 77.3017 204.739 86.0726C205.85 89.2769 213.935 112.908 213.935 112.908L200.148 112.622L197.903 107.749L198.998 115.652L199.933 126.928L165.124 127.514L165.368 110.529L165.701 76.7427C165.701 76.7427 166.093 76.2301 172.094 72.9192C175.823 70.8621 189.216 72.7513 189.216 72.7513Z" fill="#F03D5F"/>
<path d="M198.917 115.067L197.983 108.333L198.924 115.044C198.922 115.052 198.919 115.06 198.917 115.067Z" fill="#77192A"/>
<path d="M198.213 115.553C197.67 115.553 196.931 115.226 196.306 115.099C195.644 114.964 195.13 114.408 194.866 113.786C194.601 113.165 194.544 112.477 194.49 111.804C193.918 104.671 193.26 102.468 192.689 95.3361C194.085 100.255 194.875 100.534 197.011 105.275C197.735 106.883 197.961 108.175 197.961 108.175L197.983 108.333L198.917 115.067C198.803 115.431 198.545 115.553 198.213 115.553Z" fill="#DA314B"/>
<path d="M172.094 76.5744L172.21 75.8331L173.323 68.7167C173.39 68.2873 173.777 67.9826 174.21 68.0186L187.916 69.1626C188.777 69.2346 189.42 69.9867 189.356 70.849L189.051 74.9841L184.771 80.5676L178.609 81.5293" fill="#F03D5F"/>
<path d="M165.214 89.9568C165.265 89.9568 165.308 95.5319 165.308 102.408C165.308 109.287 165.265 114.861 165.214 114.861C165.162 114.861 165.12 109.287 165.12 102.408C165.12 95.5319 165.162 89.9568 165.214 89.9568Z" fill="#17282F"/>
<path d="M200.44 113.761C200.437 113.762 200.422 113.734 200.396 113.68C200.366 113.615 200.329 113.534 200.283 113.435C200.181 113.205 200.042 112.889 199.865 112.488C199.504 111.647 198.992 110.457 198.361 108.99C197.103 106.018 195.374 101.934 193.465 97.4234C192.516 95.1617 191.613 93.0077 190.79 91.0461C190.353 90.0779 190.062 89.0848 189.904 88.1511C189.739 87.2154 189.672 86.3307 189.666 85.5239C189.649 83.9091 189.89 82.6041 190.214 81.7594C190.254 81.6539 190.288 81.553 190.327 81.4604C190.371 81.3715 190.413 81.2872 190.452 81.2087C190.526 81.0513 190.595 80.9216 190.668 80.8261C190.73 80.7357 190.78 80.6626 190.821 80.6035C190.856 80.5538 190.875 80.5297 190.878 80.5319C190.904 80.547 190.574 80.9364 190.283 81.7839C189.984 82.6261 189.765 83.9206 189.798 85.5221C189.841 87.1138 190.059 89.0513 190.949 90.9794C191.776 92.9389 192.684 95.0911 193.638 97.3506C195.528 101.87 197.238 105.961 198.483 108.939C199.091 110.415 199.584 111.614 199.933 112.46C200.096 112.866 200.224 113.187 200.318 113.421C200.356 113.522 200.388 113.605 200.413 113.672C200.434 113.73 200.443 113.76 200.44 113.761Z" fill="#17282F"/>
<path d="M193.489 73.9925C193.489 73.9925 193.362 74.125 193.089 74.3397C192.816 74.5558 192.381 74.8375 191.775 75.1051C191.168 75.3684 190.386 75.6037 189.46 75.7549C188.532 75.908 187.47 76.0082 186.291 76.0672C185.111 76.1202 183.819 76.096 182.437 76.1234C181.057 76.1558 179.573 76.2437 178.079 76.654C176.597 77.0527 175.069 77.7911 173.98 79.0716C173.446 79.7092 173.049 80.4851 172.842 81.32C172.631 82.1532 172.624 83.0554 172.884 83.8962C173.021 84.314 173.229 84.7019 173.487 85.0488C173.75 85.3892 174.086 85.6709 174.46 85.8682C174.833 86.0678 175.256 86.1654 175.663 86.1215C176.071 86.0818 176.454 85.8794 176.719 85.5794C177.26 84.9645 177.362 84.0766 177.252 83.3007C177.195 82.9067 177.081 82.5242 176.91 82.1755C176.735 81.8283 176.508 81.5073 176.269 81.2094C175.284 80.0201 173.902 79.3331 172.576 79.0209C171.238 78.7042 169.926 78.768 168.796 79.0637C167.66 79.3468 166.695 79.8165 165.902 80.3014C165.105 80.7855 164.478 81.2937 163.985 81.727C163.49 82.16 163.14 82.5332 162.897 82.7795C162.784 82.9009 162.695 82.996 162.628 83.0681C162.567 83.1322 162.534 83.1642 162.532 83.1621C162.532 83.1621 162.966 82.5706 163.936 81.6726C164.424 81.2289 165.048 80.7088 165.847 80.212C166.641 79.7146 167.612 79.2305 168.763 78.9355C169.907 78.6268 171.247 78.553 172.612 78.8692C173.965 79.1811 175.382 79.876 176.402 81.0985C176.651 81.4065 176.882 81.7324 177.068 82.0973C177.249 82.464 177.369 82.8631 177.43 83.2752C177.489 83.6869 177.49 84.1141 177.407 84.5344C177.325 84.9523 177.154 85.3701 176.856 85.7029C176.561 86.0361 176.136 86.2612 175.684 86.3059C175.232 86.3552 174.772 86.2461 174.374 86.0336C173.974 85.8229 173.619 85.525 173.339 85.1637C173.067 84.7981 172.849 84.3911 172.705 83.9538C172.433 83.0727 172.442 82.1359 172.661 81.275C172.875 80.4119 173.286 79.6127 173.84 78.9535C174.966 77.6341 176.53 76.8878 178.034 76.4872C179.552 76.0762 181.05 75.9937 182.434 75.9682C183.821 75.9473 185.111 75.979 186.285 75.9347C187.458 75.8846 188.522 75.7935 189.443 75.6516C190.365 75.5107 191.141 75.2881 191.747 75.0381C192.351 74.7835 192.788 74.5144 193.066 74.3095C193.21 74.2136 193.307 74.1232 193.379 74.0714C193.45 74.0173 193.487 73.9907 193.489 73.9925Z" fill="#FAFAF9"/>
<path d="M205.4 88.9835C205.4 88.9904 205.348 88.9987 205.246 89.0095C205.145 89.0174 204.996 89.0365 204.803 89.0412C204.418 89.0603 203.859 89.0538 203.171 89.0023C202.483 88.9526 201.669 88.8474 200.768 88.7235C199.868 88.601 198.88 88.4627 197.838 88.4076C196.797 88.3582 195.801 88.4371 194.92 88.627C194.042 88.8229 193.277 89.1186 192.697 89.4734C191.518 90.1783 191.093 90.97 191.054 90.9301C191.049 90.9265 191.075 90.8804 191.131 90.7953C191.191 90.7136 191.262 90.5781 191.392 90.4348C191.631 90.1293 192.04 89.7338 192.627 89.36C193.212 88.9828 193.99 88.6673 194.883 88.4584C195.778 88.2552 196.791 88.1702 197.847 88.2199C198.9 88.2761 199.894 88.4206 200.793 88.552C201.692 88.6857 202.5 88.8038 203.183 88.8701C203.865 88.9385 204.419 88.9652 204.803 88.9681C205.186 88.972 205.399 88.9688 205.4 88.9835Z" fill="#FAFAF9"/>
<path d="M196.743 105.132C196.739 105.177 196.02 104.874 194.675 104.956C194.006 104.989 193.194 105.13 192.276 105.385C191.355 105.634 190.33 105.998 189.177 106.352C188.03 106.704 186.726 107.041 185.295 107.028C183.872 107.03 182.343 106.746 180.872 106.109C179.395 105.489 177.979 104.5 176.837 103.177C176.263 102.521 175.764 101.771 175.408 100.936C175.058 100.104 174.864 99.1671 174.997 98.2313C175.135 97.3058 175.571 96.421 176.275 95.8219C176.627 95.5254 177.038 95.297 177.488 95.2009C177.934 95.1037 178.398 95.1206 178.828 95.2423C179.256 95.3637 179.663 95.5701 179.984 95.8749C180.303 96.1767 180.545 96.5686 180.633 96.9969C180.728 97.4201 180.685 97.8674 180.535 98.2612C180.386 98.6577 180.141 99.0013 179.861 99.2942C179.296 99.8828 178.592 100.276 177.883 100.551C177.526 100.682 177.161 100.79 176.798 100.848C176.617 100.882 176.438 100.92 176.26 100.948C176.079 100.969 175.901 100.99 175.724 101.01C174.305 101.166 172.968 101.01 171.793 100.735C170.616 100.454 169.599 100.028 168.758 99.567C167.915 99.108 167.244 98.6166 166.738 98.1703C166.611 98.0599 166.492 97.9551 166.379 97.856C166.274 97.75 166.175 97.6506 166.084 97.558C165.897 97.3769 165.748 97.2158 165.638 97.0761C165.53 96.9456 165.444 96.8431 165.38 96.766C165.323 96.6958 165.294 96.6583 165.297 96.6565C165.3 96.6542 165.333 96.6874 165.395 96.7537C165.462 96.8276 165.552 96.9259 165.666 97.0509C165.781 97.186 165.934 97.3427 166.123 97.5187C166.216 97.6088 166.316 97.7053 166.422 97.8084C166.536 97.9045 166.657 98.0068 166.785 98.1149C167.295 98.5497 167.967 99.0283 168.808 99.4746C169.646 99.9224 170.657 100.336 171.824 100.606C172.987 100.87 174.31 101.016 175.708 100.855C175.882 100.835 176.058 100.814 176.235 100.792C176.412 100.764 176.588 100.724 176.766 100.691C177.125 100.631 177.476 100.526 177.825 100.397C178.514 100.127 179.198 99.7397 179.736 99.1749C180.003 98.894 180.233 98.5681 180.37 98.1999C180.508 97.8336 180.546 97.4255 180.458 97.034C180.293 96.2444 179.586 95.6302 178.779 95.4199C178.376 95.3053 177.941 95.291 177.528 95.382C177.114 95.4697 176.726 95.6849 176.396 95.9638C175.733 96.5279 175.314 97.3737 175.182 98.2583C175.055 99.1486 175.24 100.055 175.58 100.864C175.926 101.675 176.413 102.412 176.977 103.058C178.096 104.358 179.488 105.335 180.94 105.951C182.388 106.583 183.893 106.867 185.295 106.873C186.704 106.891 187.992 106.568 189.14 106.226C190.289 105.881 191.32 105.524 192.249 105.283C193.174 105.037 193.996 104.905 194.672 104.883C195.009 104.857 195.31 104.891 195.569 104.899C195.827 104.936 196.046 104.954 196.22 104.994C196.385 105.035 196.514 105.068 196.612 105.092C196.7 105.115 196.744 105.128 196.743 105.132Z" fill="#FAFAF9"/>
<path d="M165.093 101.291C165.062 101.304 164.897 100.91 164.547 100.323C164.199 99.736 163.64 98.9681 162.88 98.2571C162.117 97.5482 161.312 97.0443 160.702 96.7385C160.091 96.4309 159.687 96.2933 159.698 96.2627C159.702 96.2501 159.806 96.2742 159.992 96.3286C160.178 96.3804 160.442 96.4781 160.759 96.6189C161.392 96.8983 162.228 97.3954 163.008 98.1199C163.785 98.8459 164.339 99.6449 164.663 100.258C164.825 100.564 164.941 100.82 165.006 101.002C165.073 101.184 165.105 101.286 165.093 101.291Z" fill="#FAFAF9"/>
<path d="M151.116 116.707C151.113 116.708 151.094 116.678 151.06 116.617C151.021 116.547 150.972 116.458 150.911 116.346C150.782 116.106 150.596 115.751 150.365 115.289C149.911 114.362 149.242 113.013 148.716 111.232C148.464 110.341 148.25 109.339 148.2 108.246C148.167 107.7 148.198 107.131 148.269 106.552C148.353 105.974 148.496 105.388 148.695 104.805C149.117 103.652 149.782 102.49 150.809 101.605C151.814 100.726 153.201 100.111 154.653 100.256C155.366 100.333 156.08 100.624 156.548 101.177C157.009 101.718 157.231 102.46 157.081 103.147C157.006 103.487 156.822 103.804 156.572 104.037C156.322 104.273 156.011 104.43 155.691 104.517C155.048 104.697 154.363 104.58 153.81 104.289C153.251 104.001 152.8 103.575 152.434 103.118C152.07 102.658 151.785 102.16 151.57 101.654C151.147 100.637 151.013 99.5947 151.089 98.6654C151.164 97.7324 151.453 96.9198 151.803 96.2708C152.153 95.6178 152.563 95.1218 152.932 94.7572C153.304 94.3941 153.63 94.1539 153.86 94.0076C153.972 93.9305 154.066 93.8837 154.126 93.8477C154.187 93.8138 154.218 93.7976 154.22 93.8005C154.224 93.8077 154.103 93.883 153.881 94.039C153.659 94.1942 153.344 94.442 152.984 94.8087C152.627 95.1765 152.231 95.6732 151.896 96.3197C151.56 96.963 151.286 97.7626 151.221 98.6758C151.155 99.5857 151.294 100.604 151.713 101.593C151.926 102.085 152.206 102.569 152.563 103.014C152.92 103.457 153.358 103.864 153.889 104.135C154.414 104.409 155.048 104.512 155.644 104.344C156.237 104.192 156.771 103.732 156.902 103.106C157.037 102.489 156.833 101.796 156.406 101.298C155.98 100.793 155.311 100.515 154.633 100.443C153.251 100.303 151.905 100.892 150.929 101.744C149.931 102.6 149.275 103.734 148.858 104.863C148.661 105.434 148.518 106.008 148.432 106.575C148.36 107.144 148.326 107.699 148.355 108.239C148.398 109.318 148.602 110.31 148.844 111.196C149.349 112.967 149.998 114.322 150.431 115.257C150.649 115.713 150.821 116.072 150.945 116.329C150.999 116.444 151.043 116.536 151.077 116.609C151.106 116.672 151.119 116.705 151.116 116.707Z" fill="#FAFAF9"/>
<path d="M146.67 84.9063C146.676 84.9055 146.688 84.9574 146.703 85.0565C146.716 85.1562 146.744 85.3025 146.756 85.493C146.792 85.8734 146.809 86.4285 146.753 87.1107C146.651 88.4679 146.169 90.368 144.975 92.1045C143.78 93.841 142.178 94.9705 140.948 95.5516C140.33 95.8472 139.806 96.0306 139.438 96.1326C139.256 96.1894 139.109 96.2162 139.012 96.2395C138.913 96.2608 138.861 96.2688 138.86 96.2626C138.855 96.2478 139.057 96.1866 139.416 96.0631C139.774 95.9405 140.286 95.7401 140.888 95.4327C142.089 94.8283 143.649 93.7016 144.821 91.9982C145.992 90.2941 146.486 88.4355 146.621 87.0981C146.693 86.4256 146.697 85.8763 146.683 85.4974C146.67 85.1184 146.655 84.9081 146.67 84.9063Z" fill="#FAFAF9"/>
<path d="M208.553 100.525C208.577 100.556 207.871 100.849 207.162 101.795C206.804 102.258 206.444 102.859 206.033 103.524C205.622 104.19 205.11 104.893 204.494 105.559C203.26 106.896 201.864 107.811 200.803 108.335C200.274 108.603 199.824 108.773 199.513 108.886C199.198 108.99 199.023 109.041 199.018 109.029C199.014 109.017 199.182 108.942 199.487 108.818C199.788 108.685 200.226 108.498 200.742 108.217C201.777 107.668 203.14 106.749 204.357 105.432C204.964 104.774 205.471 104.088 205.887 103.432C206.304 102.775 206.68 102.174 207.058 101.712C207.436 101.251 207.808 100.932 208.091 100.756C208.233 100.667 208.346 100.605 208.428 100.571C208.507 100.535 208.55 100.519 208.553 100.525Z" fill="#FAFAF9"/>
<path d="M189.086 73.1695C189.087 73.176 189.03 73.1904 188.921 73.212C188.79 73.2354 188.632 73.2635 188.442 73.2974C188.025 73.3662 187.42 73.4577 186.672 73.5585C185.175 73.7613 183.099 73.9962 180.8 74.1647C179.651 74.2483 178.55 74.3239 177.545 74.2818C176.542 74.245 175.64 74.0808 174.919 73.8326C174.196 73.5898 173.658 73.2721 173.316 73.0225C173.143 72.8975 173.018 72.7902 172.936 72.7142C172.856 72.6371 172.815 72.5946 172.819 72.5899C172.83 72.5773 173.006 72.7322 173.357 72.9624C173.708 73.1904 174.245 73.4843 174.96 73.7066C175.673 73.9338 176.56 74.0819 177.552 74.1093C178.544 74.1413 179.637 74.0613 180.786 73.9774C183.082 73.8096 185.156 73.5956 186.656 73.427C187.383 73.3446 187.983 73.2761 188.432 73.225C188.851 73.1778 189.084 73.1565 189.086 73.1695Z" fill="#17282F"/>
<path d="M213.757 115.454C214.898 121.384 210.389 126.899 204.35 126.96L177.068 126.657L177.784 117.823L201.177 114.333" fill="#C0776A"/>
<path d="M179.472 118.224C179.347 118.266 177.771 117.56 176.36 116.907C174.861 116.214 173.217 115.894 171.568 115.978L165.065 116.309C165.065 116.309 165.466 117.382 166.156 117.764C166.845 118.145 170.889 118.226 170.889 118.226L170.682 118.44C169.829 119.317 168.667 119.826 167.444 119.856L166.823 119.872C166.362 119.835 165.907 119.746 165.466 119.607L163.862 118.958C163.376 118.739 162.863 118.775 162.652 119.264C162.461 119.706 162.601 120.315 163.926 120.982C164.666 121.355 167.411 122.304 167.411 122.304C167.411 122.304 167.451 123.063 167.57 123.463C167.69 123.862 168.769 124.261 168.769 124.261C168.769 124.261 169.448 125.66 169.727 125.979C169.853 126.122 170.83 126.426 171.868 126.718C173.546 127.189 175.323 127.178 176.993 126.679L179.472 125.939V118.389" fill="#C0776A"/>
<path d="M170.576 123.157C170.572 123.199 169.801 123.159 168.884 122.916C167.966 122.677 167.275 122.332 167.293 122.294C167.312 122.25 168.022 122.523 168.926 122.759C169.829 122.998 170.581 123.11 170.576 123.157Z" fill="#B85549"/>
<path d="M170.347 124.68C170.347 124.723 169.927 124.75 169.432 124.614C168.936 124.481 168.587 124.245 168.61 124.208C168.632 124.166 169 124.329 169.475 124.457C169.948 124.587 170.349 124.633 170.347 124.68Z" fill="#B85549"/>
<path d="M171.535 117.64C171.549 117.655 171.363 117.865 171.032 118.176C170.7 118.485 170.219 118.897 169.616 119.249C169.01 119.601 168.401 119.799 167.954 119.89C167.507 119.981 167.225 119.988 167.222 119.969C167.207 119.91 168.35 119.805 169.534 119.108C170.123 118.765 170.607 118.374 170.956 118.089C171.304 117.803 171.518 117.622 171.535 117.64Z" fill="#B85549"/>
<path d="M180.135 117.033L179.472 127.024L205.173 127.033C206.918 127.034 208.629 126.56 210.125 125.662C213.596 123.577 215.388 119.54 214.607 115.567C214.342 113.944 213.725 112.046 212.948 110.026L200.027 112.152L200.44 113.761L180.135 117.033Z" fill="#F03D5F"/>
<path d="M206.393 112.926C206.394 112.933 206.304 112.953 206.133 112.986C205.944 113.02 205.695 113.065 205.383 113.121C204.709 113.233 203.77 113.39 202.618 113.582C200.262 113.957 197.041 114.47 193.484 115.036C189.921 115.581 186.697 116.074 184.339 116.435C183.183 116.603 182.241 116.74 181.565 116.838C181.251 116.88 181 116.913 180.809 116.938C180.636 116.959 180.545 116.967 180.544 116.96C180.543 116.954 180.632 116.934 180.804 116.901C180.993 116.867 181.243 116.822 181.554 116.766C182.228 116.654 183.167 116.497 184.319 116.304C186.675 115.929 189.895 115.417 193.454 114.851C197.015 114.306 200.238 113.812 202.596 113.452C203.752 113.283 204.695 113.147 205.371 113.049C205.684 113.007 205.936 112.974 206.127 112.949C206.3 112.928 206.391 112.92 206.393 112.926Z" fill="#17282F"/>
<path d="M193.243 127.041C193.198 127.033 193.396 126.319 193.422 125.143C193.421 124.849 193.427 124.528 193.384 124.184C193.366 123.839 193.295 123.477 193.226 123.096C193.059 122.34 192.791 121.526 192.391 120.726C191.987 119.926 191.485 119.23 190.986 118.637C190.857 118.492 190.731 118.352 190.608 118.214C190.483 118.079 190.349 117.96 190.227 117.839C189.986 117.59 189.731 117.392 189.508 117.201C188.589 116.464 187.937 116.122 187.958 116.086C187.964 116.075 188.127 116.158 188.418 116.319C188.563 116.4 188.742 116.497 188.934 116.633C189.127 116.77 189.363 116.904 189.59 117.097C189.822 117.283 190.084 117.478 190.334 117.725C190.46 117.846 190.598 117.965 190.727 118.1C190.853 118.237 190.984 118.379 191.117 118.524C191.631 119.12 192.146 119.826 192.558 120.641C192.967 121.457 193.235 122.289 193.396 123.062C193.461 123.451 193.527 123.821 193.539 124.172C193.576 124.522 193.562 124.849 193.554 125.147C193.559 125.446 193.504 125.712 193.482 125.947C193.461 126.183 193.415 126.381 193.376 126.543C193.302 126.867 193.255 127.045 193.243 127.041Z" fill="#FAFAF9"/>
<path d="M208.886 126.288C208.886 126.288 208.454 126.307 207.693 126.145C207.317 126.054 206.856 125.924 206.36 125.676C205.868 125.427 205.334 125.071 204.859 124.557C204.387 124.044 203.968 123.373 203.753 122.576C203.651 122.178 203.57 121.756 203.563 121.317C203.534 120.88 203.573 120.425 203.67 119.971C203.77 119.518 203.938 119.063 204.202 118.65C204.463 118.236 204.832 117.868 205.281 117.621C205.728 117.374 206.254 117.231 206.789 117.276C207.322 117.312 207.853 117.577 208.2 118.005C208.551 118.425 208.748 118.981 208.673 119.524C208.601 120.074 208.227 120.525 207.789 120.789C206.89 121.324 205.849 121.318 204.949 121.179C203.109 120.874 201.675 119.775 200.927 118.605C200.156 117.43 199.963 116.27 199.94 115.503C199.917 114.724 200.042 114.307 200.042 114.307C200.066 114.309 199.967 114.732 200.012 115.499C200.058 116.256 200.269 117.392 201.038 118.532C201.781 119.664 203.188 120.721 204.976 121.009C205.853 121.142 206.861 121.134 207.692 120.633C208.096 120.388 208.426 119.98 208.489 119.498C208.555 119.018 208.378 118.509 208.056 118.126C207.736 117.734 207.265 117.497 206.773 117.461C206.282 117.42 205.79 117.551 205.371 117.782C204.512 118.246 204.029 119.145 203.839 120.008C203.743 120.446 203.702 120.886 203.728 121.312C203.731 121.738 203.807 122.147 203.903 122.534C204.105 123.309 204.504 123.963 204.956 124.467C205.413 124.974 205.929 125.329 206.408 125.582C206.89 125.835 207.341 125.973 207.711 126.074C208.457 126.256 208.888 126.263 208.886 126.288Z" fill="#FAFAF9"/>
<path d="M106.939 17.4354H42.5751C34.7418 17.4354 28.3916 23.7858 28.3916 31.619V54.5565H14.504L28.3916 68.4443V84.0356C28.3916 91.8688 34.7418 98.2191 42.5751 98.2191H106.939C114.773 98.2191 121.123 91.8688 121.123 84.0356V31.619C121.123 23.7858 114.773 17.4354 106.939 17.4354Z" fill="#F03D5F"/>
<path d="M80.6456 19.8606C80.2382 20.9131 80.9374 22.0632 81.7212 22.8758C82.5053 23.6884 83.4548 24.4618 83.7012 25.564C83.9079 26.4886 83.5654 27.4514 83.6486 28.3955C83.7339 29.3616 84.2541 30.2278 84.5494 31.1514C85.0847 32.8231 84.8697 34.6493 84.392 36.3379C84.0001 37.7232 83.4195 39.0851 82.4614 40.1596C81.5032 41.2341 80.1251 41.9937 78.6854 41.9671C78.278 41.9595 77.8368 41.8716 77.5699 41.5633C77.3386 41.2968 77.2871 40.9236 77.2471 40.5731C76.4219 33.3288 76.4208 25.9912 77.2442 18.7469" fill="#17282F"/>
<path d="M79.886 43.2336C83.019 43.0967 85.9143 46.0968 85.6657 49.223C88.8384 49.9953 91.0792 53.4878 90.4593 56.6935C90.2543 57.7518 89.7839 58.7593 89.7191 59.8352C89.6481 61.0087 90.0645 62.1495 90.2907 63.3032C90.7002 65.3884 90.4794 67.5928 89.665 69.5552C89.1701 70.7474 88.2491 71.9786 86.9589 72.015C86.0829 72.0398 85.272 71.4729 84.7851 70.7442C84.2981 70.0155 84.0819 69.1427 83.9112 68.2833C83.3525 65.4691 83.1843 62.5763 82.4124 59.8132C81.6409 57.0501 80.1406 54.327 77.6412 52.919C76.2602 52.1413 74.6033 51.7739 73.5069 50.6299C72.3582 49.4312 72.0945 47.5308 72.6946 45.9834C73.2951 44.4356 74.6656 43.2545 76.226 42.6872L79.886 43.2336Z" fill="#17282F"/>
<path d="M58.1944 22.4412C58.1558 21.102 59.3942 20.0675 60.6408 19.5773C61.8868 19.0867 63.2724 18.9019 64.3837 18.1541C65.3674 17.4917 66.0287 16.459 66.8615 15.6147C68.9045 13.5439 72.0944 12.6849 74.9011 13.4506C77.7074 14.2164 80.0195 16.5761 80.7277 19.3975C81.2064 21.3044 80.8797 23.5589 79.3766 24.8257C77.6321 26.2964 75.0459 25.9701 72.8105 25.5123C70.5755 25.0548 68.0455 24.6039 66.1793 25.9164C65.0536 26.7081 64.4085 27.9959 63.7205 29.1874C63.0329 30.3789 62.1692 31.5957 60.8681 32.0438C59.5671 32.4919 57.8003 31.7182 57.7499 30.3433" fill="#17282F"/>
<path d="M63.4743 22.7161C62.318 22.841 61.4492 23.8298 61.4748 24.9929L62.8115 55.2507C62.8673 58.8242 68.0913 60.832 71.917 60.743C75.7808 60.6533 75.9055 58.7583 75.9537 55.3584C76.0344 49.6784 76.0276 47.5464 76.0297 47.5788C76.0297 47.5788 80.9101 46.7576 81.9078 40.3853C82.4034 37.2162 82.2331 32.0225 81.9561 27.7776C81.7068 23.9562 79.1645 19.2733 75.3576 19.6843L63.4743 22.7161Z" fill="#F8A58D"/>
<path d="M80.8575 31.7768C80.8737 32.208 80.5218 32.5776 80.0715 32.6028C79.6224 32.628 79.2442 32.2995 79.228 31.868C79.2117 31.4368 79.5637 31.0669 80.0128 31.0417C80.4631 31.0165 80.8416 31.3457 80.8575 31.7768Z" fill="#17282F"/>
<path d="M80.8354 30.4819C80.7342 30.5885 80.1143 30.1318 79.2354 30.1361C78.3573 30.1278 77.7129 30.5813 77.6171 30.474C77.5702 30.4264 77.6733 30.2341 77.9535 30.0288C78.2298 29.8245 78.7009 29.6257 79.2484 29.6264C79.7959 29.6282 80.257 29.8289 80.5224 30.0345C80.7929 30.2413 80.8852 30.434 80.8354 30.4819Z" fill="#17282F"/>
<path d="M72.4108 31.7769C72.427 32.2084 72.0751 32.5776 71.6249 32.6028C71.1757 32.6277 70.7975 32.2995 70.7809 31.8684C70.7647 31.4368 71.117 31.0669 71.5665 31.0417C72.0164 31.0165 72.3946 31.3457 72.4108 31.7769Z" fill="#17282F"/>
<path d="M72.1948 30.6648C72.0936 30.7718 71.473 30.315 70.5944 30.3194C69.7163 30.3107 69.0722 30.7646 68.9764 30.6572C68.9296 30.6097 69.0312 30.4173 69.3128 30.212C69.5891 30.0074 70.0599 29.8086 70.6078 29.8097C71.1553 29.8115 71.6163 30.0121 71.8818 30.2178C72.1519 30.4245 72.2441 30.6169 72.1948 30.6648Z" fill="#17282F"/>
<path d="M75.3994 37.1772C75.395 37.1271 75.9415 37.0316 76.8268 36.9164C77.0512 36.8926 77.2634 36.8476 77.3009 36.6945C77.3535 36.532 77.2591 36.2904 77.1499 36.0292C76.9374 35.4864 76.7152 34.918 76.4821 34.3215C75.5546 31.8898 74.8832 29.89 74.9812 29.8536C75.0795 29.8172 75.9108 31.7587 76.838 34.1904C77.061 34.7898 77.2749 35.3614 77.4777 35.9085C77.5634 36.1632 77.71 36.4524 77.5962 36.7892C77.5361 36.9571 77.3718 37.0788 77.2277 37.1181C77.084 37.1624 76.9576 37.1653 76.8466 37.1721C75.9559 37.2218 75.4026 37.2272 75.3994 37.1772Z" fill="#17282F"/>
<path d="M76.0297 47.5787C76.0297 47.5787 71.7451 47.8644 67.4937 45.3221C67.4937 45.3221 69.5731 49.6931 75.9472 49.0829L76.0297 47.5787Z" fill="#F68260"/>
<path d="M75.0325 39.2967C74.7155 38.8792 74.1611 38.6512 73.6111 38.7118C73.2297 38.7535 72.8446 38.9383 72.6137 39.2495C72.3828 39.5607 72.3349 40.0016 72.5464 40.2974C72.7841 40.6305 73.2801 40.7065 73.6994 40.5862C74.1186 40.4663 74.4792 40.1893 74.8217 39.9134C74.9161 39.837 75.013 39.757 75.0721 39.6526C75.1312 39.5485 75.1434 39.4116 75.0699 39.3255" fill="#F68260"/>
<path d="M72.8137 37.791C72.9567 37.7824 72.9607 38.7365 73.779 39.4119C74.5956 40.0898 75.6128 39.9803 75.6204 40.1136C75.634 40.1737 75.3945 40.2994 74.9652 40.312C74.5441 40.3275 73.9289 40.1935 73.4282 39.7804C72.929 39.3662 72.7136 38.8125 72.6801 38.421C72.6426 38.0223 72.7485 37.7856 72.8137 37.791Z" fill="#17282F"/>
<path d="M72.587 29.1251C72.5006 29.3639 71.6228 29.2529 70.5919 29.3793C69.5577 29.4852 68.7268 29.7889 68.5895 29.5749C68.5283 29.4726 68.6727 29.2475 69.0084 29.0152C69.3413 28.7836 69.8726 28.5628 70.4917 28.4922C71.1106 28.4234 71.6779 28.5203 72.0539 28.6723C72.4329 28.8243 72.6238 29.0112 72.587 29.1251Z" fill="#17282F"/>
<path d="M80.5068 27.9385C80.3526 28.1381 79.7464 27.9324 79.0184 27.9245C78.2905 27.8906 77.6738 28.0614 77.5312 27.8528C77.4689 27.7516 77.5654 27.5513 77.8345 27.3619C78.0996 27.1731 78.5433 27.0179 79.044 27.0319C79.5443 27.0467 79.9784 27.2268 80.2319 27.4307C80.4898 27.6353 80.5745 27.8406 80.5068 27.9385Z" fill="#17282F"/>
<path d="M59.0266 43.6735C60.7782 44.0265 62.6862 43.488 63.9952 42.2712C65.3042 41.0548 65.9802 39.1912 65.7558 37.4183C65.5577 35.8536 64.7141 34.2618 65.2566 32.7811C65.9738 30.8234 68.7181 30.2211 69.4461 28.2678C69.8697 27.1321 69.4893 25.804 69.9691 24.691C70.4204 23.6446 71.5216 23.042 72.5928 22.6544C73.6644 22.2672 74.8134 21.9996 75.7132 21.3004C76.6126 20.6013 77.1738 19.2815 76.5935 18.3007C71.8414 18.8702 67.1577 20.0084 62.674 21.683C61.6344 22.0713 60.5423 22.5377 59.9278 23.4616C59.2773 24.4396 59.3086 25.7028 59.3634 26.8756C59.6303 32.5956 58.7597 37.9535 59.0266 43.6735Z" fill="#17282F"/>
<path d="M57.5079 41.8782C57.5068 41.8811 57.4719 41.8699 57.4038 41.844C57.3336 41.8228 57.2367 41.7756 57.1138 41.7028C56.8714 41.558 56.5473 41.2587 56.3192 40.7634C56.0923 40.2746 55.9583 39.5902 56.1118 38.8291C56.2645 38.068 56.7036 37.2878 57.2694 36.5156C57.8278 35.7372 58.5348 34.9494 59.0175 33.9434C59.2552 33.4445 59.4317 32.8877 59.4393 32.302C59.4512 31.7156 59.2639 31.1274 59.0643 30.5298C58.8615 29.9351 58.6663 29.2878 58.6883 28.6042C58.716 27.9266 58.9123 27.2441 59.2696 26.6382C59.623 26.0327 60.1294 25.4938 60.7587 25.1254C61.3844 24.7381 62.1343 24.6031 62.8569 24.5267C63.583 24.4449 64.307 24.4032 64.9586 24.1597C65.6156 23.9273 66.1224 23.4256 66.4351 22.8298C66.7567 22.2358 66.9386 21.5832 67.1349 20.9514C67.3255 20.316 67.5546 19.6964 67.8532 19.132C68.4396 17.9985 69.2684 17.0493 70.2413 16.4478C71.2135 15.8455 72.2977 15.5995 73.2655 15.6636C74.2366 15.7263 75.0817 16.1132 75.6447 16.6398C76.213 17.1621 76.5491 17.7596 76.7094 18.2737C76.8754 18.7898 76.8841 19.2184 76.8574 19.499C76.8326 19.7814 76.7825 19.9234 76.7825 19.9234C76.7703 19.9212 76.807 19.776 76.8196 19.4965C76.834 19.2188 76.8131 18.7985 76.6402 18.2967C76.4727 17.7967 76.1345 17.219 75.5748 16.7179C75.0204 16.2137 74.2013 15.8495 73.2573 15.7962C72.3175 15.7422 71.2639 15.9893 70.3238 16.5796C69.3822 17.1696 68.5772 18.0986 68.0066 19.2116C67.7156 19.7674 67.4944 20.3704 67.306 21.0036C67.1119 21.6343 66.9307 22.2967 66.5964 22.9177C66.429 23.2264 66.219 23.5214 65.9528 23.7681C65.6884 24.0167 65.366 24.2058 65.0242 24.3344C64.3355 24.5912 63.5978 24.6312 62.8778 24.7133C62.1577 24.7896 61.4474 24.9193 60.8531 25.2864C60.2541 25.6361 59.7678 26.1512 59.4281 26.7308C59.0845 27.311 58.8958 27.9644 58.8673 28.6099C58.8446 29.259 59.0269 29.8778 59.2286 30.4761C59.4252 31.0733 59.619 31.6835 59.6043 32.3045C59.5931 32.9219 59.4047 33.5 59.1576 34.0108C58.6551 35.0402 57.9362 35.8269 57.3764 36.5941C56.8084 37.3552 56.3722 38.1145 56.2144 38.8511C56.0559 39.5841 56.1748 40.2541 56.3859 40.7339C56.5977 41.2198 56.9035 41.5191 57.1344 41.6711C57.3667 41.8274 57.514 41.8642 57.5079 41.8782Z" fill="#33535F"/>
<path d="M76.0215 14.1035C76.0258 14.0927 76.1155 14.1136 76.2689 14.1781C76.4224 14.2415 76.6356 14.3582 76.8715 14.5422C77.3398 14.9017 77.8898 15.6016 78.0303 16.5248C78.1654 17.4494 77.8437 18.2793 77.5005 18.7598C77.329 19.0051 77.1586 19.1787 77.0304 19.2843C76.9029 19.3902 76.8229 19.4366 76.8157 19.4276C76.7919 19.4017 77.0869 19.178 77.3895 18.6874C77.691 18.208 77.9716 17.4181 77.8448 16.5529C77.7133 15.6884 77.2152 15.0148 76.7862 14.6442C76.3539 14.2631 76.0063 14.1352 76.0215 14.1035Z" fill="#33535F"/>
<path d="M90.1331 57.8189C90.1122 57.8106 90.2451 57.5887 90.315 57.1449C90.3899 56.7073 90.3546 56.0308 90.0034 55.3108C89.6623 54.5882 88.9459 53.8977 87.9924 53.4374C87.517 53.2047 86.9889 53.021 86.4274 52.8798C85.8651 52.7347 85.2704 52.6143 84.6739 52.4224C84.081 52.2325 83.5004 51.971 83.0656 51.5435C82.6136 51.1282 82.3993 50.5439 82.3071 50.0137C82.2087 49.4788 82.176 48.9706 82.0571 48.5171C81.9429 48.0643 81.7286 47.6778 81.4775 47.3702C80.97 46.7503 80.3573 46.4582 79.9366 46.3217C79.5061 46.1931 79.2511 46.1927 79.2526 46.1729C79.2529 46.1664 79.316 46.165 79.4363 46.1689C79.5566 46.1743 79.7334 46.1974 79.9568 46.2518C80.3937 46.3699 81.037 46.6505 81.5795 47.2852C81.8478 47.5997 82.0812 48.0042 82.2076 48.4771C82.3373 48.9475 82.3762 49.4622 82.4767 49.9809C82.5732 50.4974 82.7732 51.0273 83.1935 51.4116C83.598 51.8071 84.1513 52.0582 84.7316 52.2437C85.3144 52.4317 85.9062 52.5531 86.4735 52.7019C87.043 52.8478 87.5829 53.039 88.0695 53.2829C89.0446 53.763 89.7844 54.4939 90.123 55.2535C90.4721 56.0085 90.4861 56.7113 90.3871 57.1575C90.3406 57.3834 90.2758 57.5505 90.2246 57.6597C90.1702 57.7674 90.1389 57.8217 90.1331 57.8189Z" fill="#33535F"/>
<path d="M62.4269 46.5388C59.2002 45.6754 56.4123 42.5147 55.2816 39.3719C54.1506 36.2292 54.1499 32.7947 54.4398 29.4672C54.6502 27.0556 55.0727 24.5054 56.6741 22.69C59.0885 19.9536 61.7007 18.5564 65.3484 18.6698" fill="#17282F"/>
<path d="M81.2648 53.563L78.2572 52.8073C78.9639 52.2472 79.1609 51.5282 78.854 50.7095C78.4949 49.7521 77.5717 49.1203 76.556 49.0054L62.8378 47.4569C62.3468 47.4014 61.8685 47.6737 61.6873 48.1337C61.0782 49.679 61.0573 50.9519 61.625 51.9522L61.5598 51.9515L58.9177 52.477L54.4487 92.0056L83.797 90.634L81.2648 53.563Z" fill="#F3F2F1"/>
<path d="M76.9491 52.9583C76.9509 52.9713 76.7546 53.0084 76.3983 53.0642C76.0421 53.1222 75.5238 53.1867 74.8812 53.2483C73.5971 53.3733 71.8105 53.4536 69.8413 53.3571C67.8713 53.2576 66.1017 53.0008 64.8359 52.7487C64.2027 52.6237 63.6934 52.5084 63.3447 52.4151C62.9957 52.3244 62.804 52.2682 62.8073 52.2556C62.8102 52.243 63.0072 52.275 63.3606 52.3438C63.7136 52.4151 64.2258 52.5102 64.8597 52.6186C66.1272 52.8358 67.8904 53.0707 69.8506 53.1697C71.8097 53.2656 73.5877 53.2068 74.8704 53.1161C75.5119 53.0714 76.0313 53.0275 76.3893 52.9918C76.7477 52.9579 76.9473 52.9457 76.9491 52.9583Z" fill="#17282F"/>
<path d="M63.6829 59.2392C63.6396 59.2107 64.0996 58.446 64.7102 57.5318C65.3207 56.6176 65.8505 55.8997 65.8938 55.9282C65.9366 55.9574 65.4767 56.7217 64.8661 57.6359C64.2556 58.5501 63.7257 59.268 63.6829 59.2392Z" fill="#DADBD8"/>
<path d="M73.143 59.9095C73.1027 59.9419 72.5192 59.2831 71.8398 58.4381C71.1601 57.5927 70.6422 56.8813 70.6825 56.8489C70.7228 56.8165 71.3064 57.4749 71.9861 58.3207C72.665 59.1657 73.1834 59.8771 73.143 59.9095Z" fill="#DADBD8"/>
<path d="M68.7487 64.9327C68.6979 64.9417 68.499 64.0614 68.3056 62.9667C68.1118 61.8713 67.9958 60.9766 68.047 60.9676C68.0981 60.9586 68.2962 61.8389 68.4904 62.9339C68.6838 64.0286 68.7998 64.9237 68.7487 64.9327Z" fill="#DADBD8"/>
<path d="M75.9704 65.2446C76.0068 65.2817 75.2605 66.0752 74.3045 67.0172C73.3478 67.9594 72.5428 68.6928 72.5064 68.6564C72.4704 68.6193 73.216 67.8258 74.1727 66.8835C75.129 65.9416 75.934 65.2079 75.9704 65.2446Z" fill="#DADBD8"/>
<path d="M66.2853 71.9797C66.2619 72.0201 65.3686 71.4765 64.4926 70.5429C63.6111 69.6139 63.1209 68.6904 63.1623 68.6695C63.2106 68.6385 63.7635 69.503 64.6287 70.4143C65.4881 71.331 66.3188 71.9336 66.2853 71.9797Z" fill="#DADBD8"/>
<path d="M69.3963 77.1803C69.4125 77.2343 68.574 77.4998 67.6241 78.0044C66.6703 78.5037 65.978 79.0454 65.9427 79.0018C65.9099 78.9676 66.5619 78.3491 67.5366 77.8384C68.508 77.3226 69.3866 77.1342 69.3963 77.1803Z" fill="#DADBD8"/>
<path d="M74.4586 77.5173C74.4388 77.5335 74.2176 77.3001 73.8851 76.9013C73.5523 76.503 73.1103 75.9374 72.65 75.293C72.1897 74.6479 71.7981 74.0468 71.5291 73.6023C71.26 73.1585 71.1109 72.8736 71.1321 72.8603C71.1548 72.8462 71.3432 73.1056 71.6404 73.5299C71.979 74.0118 72.3701 74.5687 72.8027 75.1839C73.244 75.7919 73.6438 76.3434 73.9896 76.8196C74.2947 77.2381 74.4791 77.5011 74.4586 77.5173Z" fill="#DADBD8"/>
<path d="M74.964 81.9536C74.9748 82.0029 74.0102 82.2594 72.797 82.4586C71.5832 82.6599 70.5876 82.7269 70.5822 82.6769C70.5764 82.6239 71.5583 82.4737 72.7664 82.2738C73.9742 82.075 74.9525 81.9017 74.964 81.9536Z" fill="#DADBD8"/>
<path d="M66.7709 52.4004C66.7456 52.3798 66.9193 52.1824 67.0666 51.8014C67.2172 51.4246 67.3115 50.854 67.2226 50.237C67.1332 49.6189 66.9167 49.0837 66.7579 48.7008C66.5962 48.3175 66.4906 48.0798 66.5151 48.0672C66.5367 48.056 66.6833 48.271 66.8782 48.6449C67.0695 49.0177 67.314 49.5606 67.4084 50.2107C67.5024 50.8623 67.38 51.4696 67.1883 51.8539C66.9989 52.244 66.7831 52.4151 66.7709 52.4004Z" fill="#DADBD8"/>
<path d="M72.2523 49.4407C72.2927 49.4141 72.6291 49.9101 72.793 50.6207C72.9616 51.3303 72.8802 51.9243 72.8323 51.9182C72.7768 51.9164 72.7725 51.3426 72.6104 50.6636C72.454 49.9832 72.2033 49.467 72.2523 49.4407Z" fill="#DADBD8"/>
<path d="M96.9786 77.6031L110.633 53.6242L112.278 49.465C112.278 49.465 116.533 40.3142 116.831 39.3827C117.174 38.3068 117.775 38.2135 118.163 38.3669C118.767 38.6061 118.962 39.5073 118.695 40.4395C118.604 40.7622 116.949 45.7885 116.949 45.7885C116.949 45.7885 117.313 45.4448 118.361 44.7406C119.408 44.0364 121.331 44.0581 123.108 44.6909C124.885 45.3242 125.327 45.6584 125.114 46.3601C125.028 46.6421 124.798 46.8172 124.544 46.9256C124.129 47.1025 123.656 47.0999 123.229 46.9544C120.368 45.9797 119.101 47.2689 119.101 47.2689L118.886 47.8131C118.886 47.8131 121.035 47.1248 122.258 48.0981C122.458 48.2569 122.6 48.4345 122.704 48.6189C123.466 48.8714 124.083 49.5295 124.271 50.3108C124.466 51.1237 124.192 52.0329 123.579 52.6016C123.286 52.8732 122.843 53.071 122.494 52.8761C122.31 52.7734 122.195 52.5833 122.084 52.4042C122.026 52.3099 121.963 52.2148 121.889 52.1327L121.072 53.5724C121.072 53.5724 119.066 56.7093 118.347 58.1728L108.95 83.2146C107.648 86.6866 103.751 88.4152 100.303 87.0511C96.5518 85.5678 94.9827 81.1078 96.9786 77.6031Z" fill="#F8A58D"/>
<path d="M111.572 53.5428C112.054 53.8569 112.72 53.6436 113.154 53.2672C113.589 52.8912 113.883 52.3786 114.29 51.9726C115.506 50.757 117.542 50.6432 118.698 49.3706C118.859 49.1934 119.002 48.9239 118.863 48.7287C118.734 48.5479 118.463 48.5716 118.245 48.6149C116.384 48.9834 114.521 49.3522 112.659 49.721" fill="#F8A58D"/>
<path d="M112.659 49.721C112.655 49.6991 112.866 49.6353 113.251 49.5395C113.636 49.4433 114.196 49.3147 114.888 49.1624C115.61 49.0093 116.43 48.8349 117.325 48.6444C117.555 48.5972 117.791 48.5486 118.03 48.4992C118.257 48.4704 118.541 48.3318 118.883 48.5277C119.049 48.634 119.112 48.8699 119.065 49.0349C119.026 49.2027 118.942 49.3309 118.847 49.4462C118.654 49.6544 118.45 49.8424 118.217 50.002C117.287 50.6449 116.268 50.9097 115.455 51.3362C115.046 51.5433 114.682 51.7807 114.394 52.0595C114.107 52.3379 113.881 52.6549 113.642 52.9254C113.186 53.4941 112.58 53.7744 112.162 53.756C111.733 53.7477 111.558 53.5464 111.572 53.5428C111.585 53.5125 111.776 53.6616 112.156 53.6299C112.537 53.6022 113.049 53.3389 113.466 52.7777C113.686 52.5079 113.901 52.1801 114.205 51.8682C114.508 51.5566 114.894 51.2937 115.317 51.0707C116.157 50.6154 117.172 50.3352 118.03 49.7369C118.244 49.5914 118.434 49.4141 118.6 49.2369C118.757 49.0597 118.812 48.8461 118.699 48.787C118.586 48.7035 118.329 48.7539 118.09 48.8036C117.85 48.8494 117.614 48.8944 117.383 48.9383C116.483 49.1033 115.659 49.2546 114.933 49.3879C114.235 49.511 113.668 49.6054 113.275 49.6634C112.883 49.7214 112.664 49.743 112.659 49.721Z" fill="#F68260"/>
<path d="M118.81 47.8179C118.847 47.8395 118.922 47.3723 119.451 46.9541C119.711 46.7506 120.091 46.6072 120.531 46.5993C120.971 46.5853 121.454 46.6905 121.955 46.8392C122.456 46.9858 122.947 47.1349 123.417 47.1706C123.884 47.2048 124.317 47.1461 124.644 46.9811C124.979 46.819 125.137 46.5222 125.167 46.3274C125.199 46.1282 125.168 46.0198 125.16 46.0205C125.14 46.0198 125.141 46.1296 125.087 46.3076C125.034 46.4826 124.883 46.7193 124.58 46.8475C124.283 46.9786 123.873 47.0211 123.434 46.9783C122.993 46.935 122.519 46.7863 122.013 46.6379C121.507 46.4877 120.997 46.3803 120.523 46.4063C120.049 46.4246 119.628 46.6008 119.358 46.8389C119.083 47.0733 118.941 47.3359 118.872 47.5189C118.803 47.7048 118.798 47.8157 118.81 47.8179Z" fill="#F68260"/>
<path d="M118.792 40.0788C118.763 40.072 118.645 40.4556 118.457 41.0762C118.244 41.7656 117.99 42.5872 117.711 43.4953C117.417 44.3998 117.151 45.2178 116.928 45.9036C116.725 46.5192 116.6 46.901 116.628 46.9121C116.654 46.9226 116.827 46.5588 117.067 45.9544C117.308 45.35 117.61 44.5042 117.911 43.5587C118.209 42.6132 118.449 41.7472 118.6 41.1151C118.752 40.4826 118.82 40.0853 118.792 40.0788Z" fill="#F68260"/>
<path d="M119.583 49.3174C119.586 49.3333 119.704 49.3167 119.912 49.298C120.111 49.2839 120.446 49.2659 120.698 49.5087C120.821 49.6254 120.868 49.8084 120.825 50.0108C120.788 50.2125 120.678 50.4168 120.569 50.6469C120.463 50.8713 120.349 51.1631 120.436 51.474C120.525 51.7744 120.774 52.0139 121.076 52.118C121.385 52.226 121.716 52.1659 121.973 52.0294C122.233 51.8896 122.441 51.6922 122.57 51.448C122.8 50.978 122.899 50.5324 122.963 50.1524C123.021 49.772 123.017 49.4547 122.973 49.2414C122.927 49.0268 122.854 48.9252 122.846 48.9306C122.829 48.9381 122.873 49.0469 122.892 49.2526C122.91 49.4586 122.891 49.7608 122.817 50.1264C122.739 50.4874 122.621 50.9293 122.4 51.3562C122.184 51.7459 121.643 52.0885 121.144 51.9202C120.901 51.837 120.701 51.6407 120.633 51.4163C120.566 51.1905 120.644 50.9481 120.745 50.7269C120.844 50.5032 120.96 50.2803 120.996 50.0396C121.044 49.8048 120.968 49.539 120.801 49.4017C120.468 49.1197 120.099 49.1816 119.901 49.2169C119.69 49.2616 119.581 49.3052 119.583 49.3174Z" fill="#F68260"/>
<path d="M121.94 51.85C121.931 51.8453 121.869 51.9437 121.876 52.1436C121.885 52.3359 121.986 52.6424 122.296 52.8481C122.599 53.0488 123.084 53.0862 123.508 52.8607C123.932 52.6389 124.261 52.2005 124.425 51.6926C124.589 51.1818 124.571 50.6487 124.425 50.21C124.281 49.7666 124.015 49.4288 123.757 49.2007C123.497 48.9713 123.242 48.847 123.062 48.7822C122.881 48.7184 122.775 48.7084 122.772 48.7199C122.755 48.7573 123.184 48.851 123.656 49.3095C123.886 49.5368 124.119 49.8596 124.241 50.268C124.366 50.6732 124.375 51.1617 124.225 51.6281C124.076 52.0928 123.78 52.4908 123.416 52.6907C123.056 52.8942 122.638 52.8766 122.372 52.7213C122.103 52.565 121.988 52.3049 121.958 52.1342C121.926 51.9577 121.957 51.8543 121.94 51.85Z" fill="#F68260"/>
<path d="M117.392 54.1063C117.399 54.0886 117.23 53.9939 116.908 53.9586C116.593 53.9237 116.113 53.9694 115.656 54.2576L115.81 54.3609C115.856 54.1427 115.893 53.9035 115.914 53.6539C116.037 52.2631 115.594 51.1905 115.549 51.2189C115.486 51.2326 115.826 52.2981 115.705 53.6362C115.684 53.8776 115.652 54.1095 115.613 54.322L115.57 54.5565L115.767 54.4254C116.169 54.156 116.604 54.0854 116.902 54.0847C117.205 54.0832 117.384 54.1329 117.392 54.1063Z" fill="#F68260"/>
<path d="M120.233 45.5624C120.179 45.5706 120.257 45.9942 120.639 46.3253C121.018 46.6602 121.448 46.6822 121.449 46.6264C121.462 46.5666 121.105 46.4607 120.777 46.1675C120.443 45.8815 120.291 45.5422 120.233 45.5624Z" fill="#F68260"/>
<path d="M77.6064 97.5005L91.8858 97.6406L89.4837 87.2777L90.2862 89.2328C91.8023 92.9259 95.3992 95.3375 99.3913 95.3375H99.3917C103.907 95.3375 107.028 91.9775 108.939 87.886C113.406 78.3195 117.711 62.9138 117.711 62.9138L109.002 55.2635C102.701 67.1839 96.778 77.5375 96.778 77.5375C96.778 77.5375 95.0678 72.3391 93.747 67.7019C92.4265 63.0661 92.4344 60.6262 90.4047 58.313C87.2843 54.7563 82.8358 53.8713 78.7054 52.8073L78.5512 72.0556L77.6064 97.5005Z" fill="#F03D5F"/>
<path d="M61.2731 83.1628L87.278 88.2286L88.5459 98.2191L48.6715 98.2184C44.0469 98.28 40.3704 94.3556 40.7338 89.7451C41.308 82.4636 41.9311 73.4918 42.4048 69.7003C42.7736 66.7435 43.9533 63.6861 45.3505 61.0541C47.3625 57.2641 54.0716 52.3964 59.954 52.1565L61.0681 76.9285L61.2731 83.1628Z" fill="#F03D5F"/>
<path d="M91.8857 97.6406L88.4682 97.6072L87.2781 88.2286L85.7868 87.9379C85.4835 87.7031 85.1233 87.5381 84.7296 87.466L78.0245 86.236L78.5512 72.0556L78.7053 52.8073C82.8357 53.8713 87.2842 54.7563 90.4046 58.313C92.4343 60.6262 92.4264 63.0661 93.7469 67.7019C95.0677 72.3391 96.778 77.5375 96.778 77.5375C96.778 77.5375 102.701 67.1839 109.002 55.2635L117.711 62.9138C117.711 62.9138 113.406 78.3195 108.939 87.886C107.028 91.9775 103.907 95.3375 99.3916 95.3375H99.3912C95.3991 95.3375 91.8022 92.9259 90.2861 89.2328L89.4836 87.2777L91.8857 97.6406Z" fill="#9C2438"/>
<path d="M88.4682 97.6072L88.417 97.6063L86.6841 89.3704C86.562 88.7894 86.2371 88.2866 85.7869 87.9379L87.2781 88.2286L88.4682 97.6072Z" fill="#9C2438"/>
<path d="M78.0177 86.4248L61.2731 83.1628L78.0245 86.2361L78.0177 86.4248Z" fill="#858889"/>
<path d="M48.5642 98.2191C44.1996 98.2195 40.7071 94.6697 40.7093 90.3704C40.7093 90.1636 40.7176 89.9551 40.7338 89.7451C41.3079 82.4636 41.9311 73.4918 42.4048 69.7003C42.7736 66.7435 43.9532 63.6861 45.3505 61.0541C47.3625 57.2641 54.0716 52.3964 59.954 52.1565L61.0681 76.9285L61.2731 83.1628L78.0176 86.4248L85.7868 87.938C86.237 88.2866 86.5619 88.7895 86.684 89.3705L88.417 97.6063L88.5459 98.2191L48.6715 98.2184C48.6416 98.2187 48.611 98.2191 48.5814 98.2191C48.5757 98.2191 48.5699 98.2191 48.5642 98.2191Z" fill="#9C2438"/>
<path d="M85.7868 87.938L78.0177 86.4248L78.0245 86.236L84.7297 87.4661C85.1234 87.5382 85.4835 87.7031 85.7868 87.938Z" fill="#9C2438"/>
<path d="M56.3217 82.4395C56.3153 82.4395 56.3113 82.3573 56.3099 82.2014C56.3106 82.0259 56.3113 81.8001 56.3124 81.5199C56.316 80.9054 56.3207 80.0549 56.3268 79.0147C56.3297 76.8996 56.2897 73.9769 56.1254 70.7546C56.0444 69.1427 55.9388 67.609 55.8272 66.215C55.722 64.8203 55.6006 63.5672 55.3045 62.5565C55.0211 61.5429 54.5636 60.8041 54.1577 60.3827C53.7532 59.9573 53.4571 59.8013 53.4718 59.7811C53.4718 59.7811 53.7809 59.9137 54.2103 60.3319C54.6403 60.745 55.128 61.4939 55.4317 62.5186C55.7487 63.5402 55.8848 64.8088 55.9994 66.2006C56.1207 67.5956 56.2317 69.1308 56.3127 70.7452C56.4773 73.9722 56.4961 76.8989 56.4593 79.0158C56.4413 80.074 56.4121 80.9302 56.3855 81.522C56.37 81.8015 56.357 82.0274 56.3477 82.2024C56.3369 82.358 56.3282 82.4398 56.3217 82.4395Z" fill="#17282F"/>
<path d="M86.7753 88.9339C86.7551 88.9566 86.5152 88.5614 85.8283 88.1674C85.4872 87.9721 85.0395 87.7877 84.4999 87.6364C83.9611 87.4834 83.3314 87.3641 82.6366 87.2219C79.858 86.6556 76.0208 85.8664 71.7687 85.0725C67.5151 84.2765 63.6502 83.6368 60.8507 83.1876C59.4636 82.965 58.3351 82.7838 57.5347 82.6552C57.1565 82.5919 56.8561 82.5418 56.6342 82.5047C56.4285 82.4683 56.3208 82.446 56.3219 82.4395C56.3226 82.433 56.4321 82.4427 56.6396 82.4672C56.8629 82.496 57.1648 82.5342 57.5455 82.5832C58.3315 82.6877 59.4682 82.8472 60.8709 83.0561C63.6765 83.4725 67.5472 84.0917 71.8029 84.8881C76.0576 85.6827 79.8919 86.4925 82.664 87.0922C83.3563 87.2427 83.9866 87.3713 84.5295 87.5359C85.0723 87.6984 85.524 87.8958 85.8654 88.1043C86.2084 88.3115 86.4396 88.5251 86.5786 88.6821C86.6532 88.7563 86.6964 88.8247 86.7306 88.8658C86.7627 88.909 86.7778 88.9321 86.7753 88.9339Z" fill="#17282F"/>
<path d="M56.399 82.4396C56.4073 82.4731 55.9199 82.5858 55.1783 82.8877C54.8066 83.0357 54.3779 83.2457 53.9197 83.5076C53.4662 83.7777 52.9857 84.1055 52.5168 84.4949C52.0525 84.8893 51.6472 85.3068 51.3029 85.7069C50.9654 86.1132 50.6848 86.499 50.4748 86.8394C50.0498 87.518 49.8553 87.9787 49.8232 87.965C49.8113 87.96 49.852 87.8418 49.9359 87.6315C50.0163 87.4197 50.1603 87.1232 50.361 86.771C50.5598 86.4169 50.8336 86.016 51.17 85.5964C51.5129 85.1829 51.9224 84.7531 52.3961 84.3512C52.8741 83.9542 53.3672 83.6246 53.834 83.3577C54.3052 83.0991 54.7471 82.8981 55.1304 82.7638C55.5122 82.6265 55.8284 82.5358 56.051 82.4929C56.2729 82.4464 56.3961 82.4266 56.399 82.4396Z" fill="#17282F"/>
<path d="M89.9825 88.6644C89.9764 88.6655 89.958 88.5801 89.9288 88.417C89.8989 88.2347 89.8597 87.997 89.8107 87.7016C89.7113 87.0795 89.5798 86.178 89.4282 85.0628C89.1241 82.8317 88.7564 79.7423 88.4481 76.3208C88.1412 72.8974 87.9521 69.7918 87.853 67.5427C87.8033 66.4182 87.772 65.5076 87.759 64.8779C87.7543 64.5786 87.7503 64.338 87.7475 64.1532C87.7471 63.9875 87.75 63.9004 87.7565 63.9C87.763 63.8996 87.7727 63.9865 87.7853 64.1518C87.7972 64.3358 87.8127 64.5761 87.8317 64.8751C87.8696 65.5252 87.9214 66.4286 87.9856 67.5359C88.1181 69.7821 88.3281 72.8834 88.635 76.3038C88.943 79.7232 89.2895 82.8123 89.5596 85.0459C89.6943 86.147 89.8042 87.0453 89.8831 87.6915C89.9173 87.989 89.945 88.2282 89.9663 88.4116C89.9832 88.5765 89.9893 88.6637 89.9825 88.6644Z" fill="#17282F"/>
<path d="M98.6055 84.7905C98.5955 84.7981 98.5216 84.7135 98.3966 84.5535C98.2691 84.3947 98.1038 84.1512 97.9172 83.8385C97.5433 83.2158 97.1201 82.2897 96.8643 81.2044C96.6118 80.118 96.5801 79.1005 96.6392 78.3761C96.6677 78.0134 96.7077 77.7216 96.7512 77.5232C96.7923 77.324 96.8208 77.2156 96.8337 77.2177C96.8658 77.2231 96.7945 77.6654 96.7718 78.383C96.7473 79.0998 96.7995 80.0957 97.047 81.1619C97.298 82.2267 97.6932 83.1423 98.0332 83.7737C98.3721 84.4066 98.6322 84.7715 98.6055 84.7905Z" fill="#17282F"/>
<path d="M56.2163 69.0562C56.2171 69.0627 56.1709 69.0721 56.082 69.0847C55.9926 69.0937 55.8612 69.1207 55.6901 69.1225C55.3486 69.1445 54.849 69.1225 54.2464 69.0094C53.6427 68.8995 52.9439 68.6769 52.198 68.3679C51.4513 68.0588 50.6592 67.6605 49.8293 67.2484C49.0008 66.8385 48.1922 66.4876 47.4325 66.2445C46.6721 66.0043 45.9636 65.8641 45.3625 65.84C44.1518 65.7788 43.4393 66.1058 43.4303 66.0583C43.4278 66.0518 43.4707 66.032 43.5543 65.9992C43.6393 65.9708 43.7606 65.9113 43.9278 65.8735C44.2559 65.7755 44.7526 65.6963 45.3671 65.7075C45.9827 65.7154 46.7092 65.8443 47.484 66.0795C48.2588 66.3173 49.0786 66.6677 49.9125 67.0802C50.7438 67.493 51.5298 67.8942 52.2653 68.2087C53.0001 68.5231 53.6831 68.7547 54.2731 68.8797C55.456 69.1416 56.2163 69.0123 56.2163 69.0562Z" fill="#FAFAF9"/>
<path d="M60.669 68.1782C60.6777 68.2293 59.7285 68.4336 58.5496 68.6342C57.3703 68.8352 56.4079 68.9569 56.3989 68.9054C56.3902 68.8546 57.339 68.6504 58.5183 68.4498C59.6972 68.2488 60.66 68.127 60.669 68.1782Z" fill="#FAFAF9"/>
<path d="M56.0553 75.9112C56.0596 75.9231 55.8734 76.0027 55.5315 76.1371C55.189 76.2689 54.6897 76.4501 54.0652 76.6518C52.8174 77.0577 51.0625 77.535 49.0883 77.8826C48.101 78.0558 47.154 78.1812 46.2899 78.2676C45.4279 78.3588 44.638 78.4031 43.9785 78.3303C43.3175 78.2669 42.8007 78.0814 42.4768 77.9024C42.3147 77.8131 42.1948 77.7327 42.1206 77.6701C42.0446 77.6088 42.0071 77.575 42.0107 77.5696C42.0219 77.5544 42.1822 77.6816 42.51 77.8368C42.8363 77.9921 43.3428 78.1527 43.9904 78.1985C44.6373 78.2525 45.4128 78.196 46.2715 78.0958C47.131 78.0004 48.0729 77.87 49.0559 77.6978C51.0208 77.352 52.772 76.8974 54.0259 76.5253C54.6534 76.3402 55.158 76.1788 55.5074 76.0683C55.8557 75.9555 56.0509 75.8986 56.0553 75.9112Z" fill="#FAFAF9"/>
<path d="M60.5675 77.8077C60.5686 77.8596 59.6901 77.9162 58.6062 77.9342C57.5217 77.9522 56.6421 77.9248 56.6414 77.8729C56.6406 77.8211 57.5188 77.7645 58.603 77.7465C59.6872 77.7285 60.5668 77.7559 60.5675 77.8077Z" fill="#FAFAF9"/>
<path d="M42.032 94.217C42.0258 94.2156 42.0392 94.1496 42.0701 94.0257C42.1087 93.8817 42.1566 93.703 42.215 93.4854C42.2484 93.3659 42.2848 93.2355 42.3241 93.0953C42.3691 92.9545 42.43 92.8057 42.4894 92.6433C42.6155 92.3216 42.7362 91.9452 42.9357 91.5577C43.0294 91.3603 43.1273 91.1542 43.2289 90.9403C43.333 90.7263 43.4663 90.5174 43.5913 90.2937C43.8322 89.8406 44.1525 89.3961 44.4766 88.9196C45.1621 87.9942 46.0032 87.039 47.002 86.1586C48.0127 85.2913 49.0757 84.5903 50.0871 84.0396C50.604 83.7846 51.0888 83.5292 51.5708 83.353C51.8096 83.2608 52.0351 83.1574 52.2613 83.084C52.4875 83.0126 52.705 82.9446 52.9132 82.8787C53.3249 82.7353 53.7147 82.6676 54.0504 82.5876C54.2193 82.5512 54.3753 82.5116 54.5208 82.4864C54.6652 82.4673 54.7992 82.4489 54.9221 82.4324C55.1461 82.405 55.3294 82.3819 55.4775 82.3643C55.6046 82.3502 55.6713 82.3466 55.672 82.3528C55.6727 82.3592 55.6072 82.3758 55.4822 82.4014C55.3359 82.4288 55.1551 82.463 54.9339 82.5044C54.8126 82.526 54.6807 82.5491 54.5381 82.5743C54.394 82.6045 54.2402 82.6492 54.0738 82.6899C53.7424 82.7792 53.3581 82.8549 52.9525 83.0058C52.7472 83.0739 52.5329 83.1456 52.3103 83.2205C52.0873 83.2965 51.8654 83.402 51.6302 83.4968C51.1555 83.6772 50.6778 83.9355 50.1689 84.1919C49.1726 84.7456 48.1247 85.4422 47.1252 86.3002C46.1375 87.1708 45.3022 88.112 44.616 89.0215C44.2919 89.4905 43.9695 89.9274 43.7253 90.3726C43.5992 90.5923 43.4638 90.7976 43.3571 91.0076C43.2527 91.218 43.1518 91.4201 43.0557 91.6138C42.85 91.9949 42.7217 92.3645 42.5874 92.6804C42.524 92.84 42.4584 92.9862 42.4087 93.1245C42.3641 93.2621 42.3227 93.3896 42.2848 93.5071C42.2128 93.7203 42.1541 93.8946 42.1065 94.0358C42.064 94.1561 42.0385 94.2188 42.032 94.217Z" fill="#FAFAF9"/>
<path d="M60.097 83.1533C60.1355 83.1843 59.3078 83.6929 58.6173 85.0119C58.2744 85.6643 57.9776 86.4992 57.7896 87.457C57.5979 88.4147 57.5226 89.4924 57.4484 90.6238C57.3742 91.7563 57.2896 92.8423 57.0796 93.8127C56.8728 94.7823 56.5494 95.6262 56.1769 96.2786C55.8027 96.9313 55.3931 97.3912 55.0787 97.6676C54.9198 97.8048 54.7931 97.9057 54.6998 97.965C54.609 98.0274 54.56 98.0576 54.556 98.0523C54.5182 98.0202 55.3553 97.5256 56.061 96.2145C56.4111 95.5664 56.7162 94.7337 56.9103 93.7774C57.1077 92.8207 57.1873 91.7433 57.2615 90.6116C57.3353 89.4798 57.4164 88.3942 57.6203 87.4227C57.8205 86.4524 58.1357 85.6059 58.5006 84.9489C58.8673 84.2923 59.2703 83.8269 59.5808 83.5463C59.7372 83.4065 59.8625 83.3035 59.9547 83.2426C60.0444 83.1785 60.0934 83.1479 60.097 83.1533Z" fill="#FAFAF9"/>
<path d="M66.2443 98.2794C66.1927 98.2776 66.2522 95.1737 66.3775 91.3477C66.5029 87.5202 66.6466 84.42 66.6985 84.4214C66.75 84.4228 66.6905 87.5263 66.5652 91.3538C66.4398 95.1802 66.2961 98.2811 66.2443 98.2794Z" fill="#FAFAF9"/>
<path d="M76.0207 97.7458C76.0085 97.749 75.9519 97.5895 75.8608 97.296C75.8129 97.1494 75.76 96.9689 75.7142 96.7557C75.6667 96.5424 75.6015 96.3015 75.5626 96.0288C75.4617 95.4878 75.3944 94.834 75.3713 94.1057C75.3598 93.3773 75.399 92.5748 75.5222 91.7424C75.6541 90.9107 75.8572 90.1334 76.0863 89.4418C76.3269 88.7542 76.587 88.1501 76.8456 87.6642C76.9641 87.4157 77.0985 87.2053 77.208 87.0166C77.3153 86.8264 77.4201 86.6701 77.5094 86.5447C77.6845 86.2922 77.7861 86.1564 77.7969 86.1636C77.8279 86.1842 77.4399 86.7425 76.9641 87.7233C76.7231 88.2121 76.4789 88.8143 76.2505 89.4966C76.033 90.1824 75.8378 90.9503 75.7081 91.7709C75.586 92.5921 75.5424 93.3831 75.5442 94.1024C75.5575 94.8217 75.6101 95.4694 75.6937 96.0078C75.8536 97.0866 76.0564 97.7354 76.0207 97.7458Z" fill="#FAFAF9"/>
<path d="M59.4188 57.9345C59.4051 57.9651 58.8482 57.7148 57.9142 57.4129C56.9817 57.11 55.659 56.7858 54.1685 56.6518C52.6773 56.5221 51.3183 56.6097 50.3468 56.7444C49.3746 56.8776 48.7825 57.0264 48.7745 56.994C48.7709 56.9814 48.9165 56.9346 49.1826 56.8607C49.4485 56.7836 49.8396 56.6972 50.327 56.6133C51.301 56.4436 52.6762 56.3337 54.1851 56.4649C55.6932 56.6003 57.0274 56.9493 57.9567 57.2872C58.4221 57.4554 58.792 57.6092 59.0402 57.7317C59.2895 57.8513 59.4242 57.9226 59.4188 57.9345Z" fill="#FAFAF9"/>
<path d="M87.8725 73.079C87.8707 73.1057 87.3603 73.0898 86.5361 73.0581C85.7124 73.0264 84.5745 72.9825 83.3178 72.9508C82.0603 72.9198 80.9217 72.9072 80.0972 72.8978C79.2727 72.8888 78.7623 72.8795 78.7616 72.8525C78.7612 72.8395 78.8884 72.8247 79.1189 72.8089C79.3494 72.7927 79.6833 72.7775 80.0958 72.7653C80.9213 72.7408 82.0625 72.7321 83.3224 72.7631C84.5817 72.7948 85.721 72.86 86.5441 72.9256C86.9558 72.9584 87.2882 72.9901 87.5177 73.0174C87.7471 73.0452 87.8736 73.0661 87.8725 73.079Z" fill="#FAFAF9"/>
<path d="M94.9849 71.7329C94.9954 71.7646 94.5329 71.9199 93.8308 72.2656C93.1292 72.6096 92.1999 73.1741 91.3084 73.9661C90.419 74.7615 89.7523 75.6202 89.3302 76.2779C88.9062 76.9356 88.6987 77.3776 88.6688 77.3632C88.6569 77.3578 88.6994 77.2436 88.787 77.0401C88.8713 76.8355 89.0171 76.5499 89.2174 76.2084C89.6154 75.5244 90.2782 74.6358 91.1834 73.826C92.0911 73.0199 93.0496 72.463 93.7743 72.1457C94.1367 71.9861 94.4374 71.8741 94.6503 71.8136C94.8621 71.7498 94.9806 71.7207 94.9849 71.7329Z" fill="#FAFAF9"/>
<path d="M91.477 60.1854C91.4795 60.2322 90.744 60.0712 89.6464 60.4418C89.0993 60.6162 88.4794 60.9123 87.7997 61.2631C87.1196 61.6096 86.3704 62.017 85.5164 62.2893C83.8083 62.8469 82.1424 62.8015 81.0024 62.5836C80.4286 62.4762 79.9773 62.3336 79.6714 62.2234C79.3674 62.1067 79.2046 62.03 79.2089 62.0192C79.2212 61.9835 79.8861 62.2699 81.0247 62.4528C82.155 62.6344 83.786 62.6567 85.4584 62.1106C86.2926 61.8452 87.035 61.4486 87.7219 61.1089C88.4074 60.7657 89.0431 60.4768 89.6072 60.3154C90.1687 60.1465 90.6489 60.1047 90.9752 60.1195C91.1387 60.1184 91.2648 60.1432 91.3495 60.1551C91.4341 60.1688 91.4781 60.1789 91.477 60.1854Z" fill="#FAFAF9"/>
<path d="M89.6802 84.3287C89.6849 84.3406 89.5358 84.4094 89.261 84.5246C89.1241 84.5837 88.9548 84.6511 88.7531 84.7159C88.5521 84.7818 88.3259 84.8668 88.0669 84.9317C87.5551 85.0815 86.9319 85.2133 86.2331 85.3131C85.5333 85.4028 84.7567 85.455 83.9415 85.4341C83.1261 85.406 82.3542 85.3073 81.6604 85.1759C80.9688 85.0343 80.3547 84.8657 79.8526 84.6853C79.5983 84.605 79.3775 84.507 79.1808 84.4285C78.9834 84.3517 78.8184 84.2743 78.6855 84.2073C78.4179 84.0762 78.2731 83.9984 78.2789 83.9865C78.2936 83.9541 78.8869 84.2397 79.8943 84.5592C80.3972 84.7217 81.0077 84.8755 81.6928 85.0066C82.3797 85.1265 83.1423 85.2184 83.9469 85.2468C84.752 85.267 85.5181 85.2209 86.2112 85.1417C86.9027 85.052 87.5216 84.9356 88.033 84.8034C89.0578 84.5448 89.6673 84.2952 89.6802 84.3287Z" fill="#FAFAF9"/>
<path d="M97.9554 94.9878C97.9511 94.9926 97.9032 94.9533 97.8157 94.8733C97.7314 94.7908 97.5945 94.6795 97.4457 94.5102C97.1327 94.1864 96.7206 93.6749 96.3061 92.9815C95.4643 91.6055 94.7471 89.4188 94.701 86.9496C94.6563 84.4808 95.139 82.2854 95.5179 80.7308C95.7114 79.9513 95.8864 79.3256 96.0121 78.8952C96.0723 78.6974 96.122 78.5343 96.1627 78.4006C96.1991 78.2879 96.2214 78.2299 96.2275 78.2317C96.234 78.2331 96.2239 78.2947 96.1991 78.4104C96.1677 78.5465 96.1292 78.7126 96.0827 78.9136C95.9732 79.3782 95.8259 80.0024 95.6473 80.761C95.3018 82.3203 94.8444 84.5053 94.8887 86.9453C94.9348 89.3838 95.6199 91.5403 96.421 92.9156C96.8154 93.6072 97.2062 94.1255 97.5001 94.4616C97.7922 94.7994 97.9673 94.9755 97.9554 94.9878Z" fill="#FAFAF9"/>
<path d="M111.065 82.7575C111.037 82.8 110.444 82.1499 109.16 81.6867C108.524 81.4529 107.738 81.258 106.853 81.0873C105.971 80.9086 104.986 80.7458 103.984 80.426C101.973 79.7848 100.395 78.6369 99.4193 77.6813C98.9273 77.2022 98.5714 76.7743 98.3413 76.4685C98.2238 76.3172 98.1435 76.1915 98.0866 76.1083C98.0308 76.0247 98.0045 75.9786 98.0095 75.975C98.0214 75.9663 98.154 76.1313 98.3982 76.4227C98.6446 76.7127 99.0123 77.1233 99.5105 77.5847C100.499 78.5057 102.064 79.617 104.041 80.2477C105.026 80.5621 106.004 80.7293 106.888 80.918C107.773 81.0985 108.567 81.3095 109.207 81.5628C109.849 81.8149 110.328 82.1128 110.627 82.3538C110.784 82.4647 110.886 82.5767 110.961 82.6441C111.034 82.714 111.069 82.7529 111.065 82.7575Z" fill="#FAFAF9"/>
<path d="M115.184 70.7367C115.175 70.746 115.038 70.6261 114.799 70.4024C114.681 70.2889 114.534 70.1521 114.356 70.0033C114.179 69.8531 113.985 69.6726 113.752 69.4969C113.299 69.1277 112.732 68.7239 112.079 68.3136C111.42 67.9124 110.672 67.5104 109.855 67.1567C109.035 66.8098 108.227 66.5465 107.482 66.3466C106.734 66.1575 106.05 66.026 105.471 65.9536C105.182 65.906 104.918 65.8906 104.687 65.8661C104.456 65.8398 104.256 65.8282 104.093 65.821C103.766 65.8027 103.585 65.7865 103.585 65.7735C103.585 65.7605 103.766 65.7519 104.095 65.7483C104.26 65.7443 104.461 65.7447 104.694 65.7616C104.928 65.776 105.194 65.7821 105.487 65.8218C106.073 65.8779 106.766 65.9972 107.525 66.1787C108.28 66.3718 109.099 66.6333 109.929 66.9838C110.755 67.3418 111.51 67.7535 112.17 68.167C112.825 68.5899 113.39 69.0088 113.836 69.3946C114.066 69.5783 114.255 69.7674 114.427 69.9259C114.6 70.0833 114.739 70.2284 114.85 70.3502C115.074 70.5912 115.194 70.728 115.184 70.7367Z" fill="#FAFAF9"/>
<path d="M83.668 54.2028C83.6774 54.2255 83.4199 54.3598 82.9844 54.5324C82.5489 54.7052 81.9326 54.9098 81.2356 55.0726C80.5383 55.2351 79.895 55.3241 79.4281 55.3615C78.961 55.3994 78.671 55.3925 78.6692 55.3684C78.6649 55.3118 79.8143 55.2149 81.1931 54.89C82.573 54.572 83.6468 54.1502 83.668 54.2028Z" fill="#FAFAF9"/>
<path d="M96.4429 104.936C96.6435 105.633 96.0611 106.306 95.3425 106.207C94.9531 106.154 94.6311 105.878 94.5184 105.502L94.2147 104.367L94.259 104.382C94.4492 105.063 93.7947 105.687 93.0916 105.619C92.6169 105.608 92.2091 104.929 92.0758 104.567C91.2921 104.66 90.5482 104.2 90.2453 103.688L88.1309 100.389L84.2159 97.5253L86.5835 89.0639L95.0115 94.5188C95.3418 94.7756 95.3922 94.884 95.9185 95.3717L101.357 100.373C100.74 100.743 100.217 100.715 99.3623 100.373C98.5072 100.031 94.7489 97.4966 94.7489 97.4966L96.4429 104.936Z" fill="#F8A58D"/>
<path d="M89.2346 97.9745C89.2425 97.9644 89.3315 98.0177 89.4856 98.122C89.5728 98.183 89.6647 98.2471 89.7637 98.3162C89.8703 98.3898 90.0004 98.4873 90.1113 98.6196C90.2244 98.7507 90.3271 98.9153 90.3973 99.108C90.4632 99.2959 90.532 99.4926 90.6037 99.6977C90.7474 100.12 90.9019 100.575 91.064 101.052C91.3857 102.015 91.667 102.89 91.8615 103.526C92.0564 104.162 92.1641 104.559 92.1392 104.566C92.1147 104.574 91.962 104.191 91.7351 103.566C91.5082 102.941 91.2074 102.073 90.8861 101.111C90.729 100.633 90.5792 100.178 90.4402 99.7538C90.3743 99.5474 90.3112 99.3493 90.2507 99.1592C90.1927 98.9823 90.1063 98.8292 90.0087 98.7039C89.911 98.5752 89.8041 98.4838 89.6996 98.3995C89.6074 98.3213 89.522 98.2485 89.441 98.1802C89.3005 98.0576 89.2267 97.9849 89.2346 97.9745Z" fill="#F68260"/>
<path d="M94.3048 104.548C94.2919 104.551 94.2504 104.426 94.1842 104.199C94.1089 103.931 94.0185 103.609 93.9133 103.234C93.686 102.42 93.3766 101.293 92.9851 100.066C92.5903 98.843 92.1811 97.7412 91.6898 97.0644C91.4481 96.7257 91.1963 96.4978 90.9989 96.3756C90.8023 96.2521 90.6748 96.2164 90.6809 96.1977C90.6827 96.1916 90.7151 96.1969 90.7767 96.2129C90.8394 96.2251 90.9258 96.26 91.0353 96.3122C91.2529 96.4195 91.5324 96.6439 91.7964 96.985C92.3335 97.6684 92.7668 98.7804 93.1637 100.009C93.5574 101.242 93.847 102.377 94.0419 103.201C94.1384 103.614 94.2105 103.949 94.2551 104.182C94.2998 104.415 94.3174 104.545 94.3048 104.548Z" fill="#F68260"/>
<path d="M96.4786 105.059C96.4663 105.063 96.4144 104.928 96.3316 104.681C96.2405 104.395 96.1292 104.044 95.9981 103.632C95.7243 102.743 95.3583 101.511 94.9657 100.147C94.5857 98.8045 94.2421 97.5906 93.977 96.6541C93.8379 96.2175 93.6078 95.9189 93.4003 95.7737C93.1953 95.6243 93.0462 95.6045 93.0513 95.5872C93.052 95.5825 93.0895 95.58 93.1579 95.595C93.226 95.6102 93.3268 95.6419 93.4414 95.7129C93.6748 95.8465 93.942 96.1609 94.102 96.6091C94.3988 97.5001 94.7478 98.7306 95.1458 100.095C95.5388 101.458 95.8842 102.696 96.1256 103.595C96.234 104.014 96.3262 104.37 96.4018 104.661C96.4631 104.914 96.4908 105.056 96.4786 105.059Z" fill="#F68260"/>
<path d="M147.663 26.9516C147.663 27.6479 148.228 28.2126 148.924 28.2126C149.621 28.2126 150.185 27.6479 150.185 26.9516C150.185 26.2553 149.621 25.6905 148.924 25.6905C148.228 25.6905 147.663 26.2553 147.663 26.9516Z" fill="#33535F"/>
<path d="M142.617 26.9516C142.617 27.6479 143.182 28.2126 143.878 28.2126C144.575 28.2126 145.139 27.6479 145.139 26.9516C145.139 26.2553 144.575 25.6905 143.878 25.6905C143.182 25.6905 142.617 26.2553 142.617 26.9516Z" fill="#33535F"/>
<path d="M137.585 26.3212C137.236 26.9242 137.443 27.6954 138.046 28.0433C138.649 28.3916 139.42 28.1849 139.768 27.5819C140.116 26.9789 139.91 26.2077 139.307 25.8594C138.704 25.5115 137.933 25.7182 137.585 26.3212Z" fill="#33535F"/>
<path d="M143.8 12.2245C143.8 12.2187 143.714 12.2173 143.546 12.2202C143.36 12.2256 143.112 12.2324 142.796 12.2414C142.631 12.249 142.447 12.249 142.244 12.2659C142.041 12.2947 141.821 12.3254 141.583 12.3589C141.343 12.3934 141.086 12.4302 140.812 12.4698C140.541 12.5368 140.254 12.6081 139.95 12.6834C138.739 12.9946 137.273 13.5266 135.773 14.5042C134.275 15.4659 132.718 16.8415 131.454 18.711C130.214 20.5826 129.257 22.9379 129.004 25.5825C128.979 26.2445 128.899 26.9178 128.962 27.6021C128.987 27.9436 128.979 28.2908 129.029 28.6352C129.081 28.9792 129.134 29.326 129.186 29.6754C129.468 31.055 129.879 32.4688 130.59 33.7853C131.284 35.1047 132.18 36.3604 133.274 37.4788C134.39 38.5745 135.692 39.5247 137.142 40.2574C138.587 40.9958 140.188 41.5055 141.856 41.7043C142.269 41.7861 142.691 41.7857 143.113 41.8113C143.535 41.8386 143.959 41.8541 144.384 41.8343C145.234 41.7997 146.087 41.6928 146.93 41.5127C148.761 41.1229 150.485 40.3773 151.998 39.3799L151.845 39.3954C153.602 40.1007 155.325 40.7923 157.007 41.4673L157.313 41.5901L157.226 41.2728C156.705 39.3781 156.198 37.5357 155.708 35.7534L155.682 35.8899C157.131 33.9643 158.054 31.766 158.437 29.5829C158.629 28.4922 158.71 27.4037 158.637 26.3519C158.615 25.8249 158.59 25.3048 158.491 24.8001C158.452 24.5466 158.413 24.2948 158.374 24.0448C158.328 23.7963 158.252 23.5557 158.193 23.314C157.196 19.4289 154.803 16.5591 152.433 14.917C151.247 14.0817 150.077 13.4823 149.006 13.1084C148.739 13.013 148.481 12.9211 148.233 12.8322C147.979 12.7677 147.735 12.7054 147.5 12.6459C147.267 12.5883 147.043 12.5328 146.83 12.4799C146.615 12.4385 146.407 12.4165 146.213 12.3866C145.822 12.3369 145.48 12.2699 145.179 12.2548C144.883 12.2447 144.63 12.2364 144.42 12.2292C144.228 12.2249 144.075 12.2216 143.957 12.2191C143.853 12.2184 143.8 12.2202 143.8 12.2245C143.8 12.2292 143.853 12.2364 143.956 12.2461C144.075 12.2551 144.227 12.2674 144.418 12.2825C144.627 12.2965 144.878 12.3135 145.172 12.3333C145.47 12.3567 145.81 12.432 146.196 12.4889C147.716 12.7673 149.993 13.3732 152.32 15.0748C154.644 16.7176 156.976 19.56 157.935 23.3792C157.991 23.6169 158.065 23.8532 158.109 24.0974C158.146 24.343 158.183 24.5905 158.22 24.8394C158.315 25.3354 158.337 25.8458 158.357 26.3634C158.424 27.3957 158.34 28.4626 158.148 29.5306C157.765 31.6684 156.854 33.8181 155.431 35.7001L155.384 35.7617L155.404 35.8366C155.891 37.62 156.394 39.4635 156.911 41.3589L157.129 41.1643C155.448 40.4872 153.725 39.7938 151.969 39.0864L151.888 39.0539L151.815 39.1022C150.334 40.0762 148.649 40.8041 146.86 41.1849C146.036 41.3614 145.202 41.4658 144.371 41.5C143.955 41.5195 143.541 41.5044 143.128 41.4774C142.716 41.4525 142.302 41.4539 141.899 41.3736C140.269 41.1813 138.703 40.6842 137.288 39.9638C135.87 39.2495 134.594 38.3224 133.5 37.2526C132.428 36.1601 131.548 34.9333 130.864 33.643C130.163 32.356 129.757 30.9729 129.476 29.6218C129.423 29.2796 129.371 28.9396 129.318 28.6024C129.268 28.2653 129.274 27.9245 129.249 27.5899C129.183 26.9185 129.259 26.2579 129.28 25.6077C129.517 23.0114 130.443 20.6935 131.651 18.8428C132.882 16.995 134.405 15.6262 135.875 14.6616C137.346 13.6812 138.789 13.1369 139.984 12.8095C140.284 12.7291 140.567 12.6535 140.835 12.5825C141.106 12.5379 141.361 12.4961 141.598 12.4572C141.833 12.4183 142.051 12.3823 142.252 12.3495C142.453 12.3272 142.637 12.3218 142.801 12.3088C143.115 12.2857 143.362 12.2677 143.546 12.2544C143.714 12.2404 143.8 12.2306 143.8 12.2245Z" fill="#33535F"/>
</svg>
