<svg width="139" height="40" viewBox="0 0 139 40" fill="none" xmlns="http://www.w3.org/2000/svg">
<path d="M0.639205 11.1911H4.64702V22H7.38281V11.1911H11.3906V8.90909H0.639205V11.1911ZM16.1223 22.1918C19.101 22.1918 20.9547 20.1527 20.9547 17.1293C20.9547 14.0866 19.101 12.054 16.1223 12.054C13.1436 12.054 11.29 14.0866 11.29 17.1293C11.29 20.1527 13.1436 22.1918 16.1223 22.1918ZM16.1351 20.0824C14.7608 20.0824 14.0577 18.8232 14.0577 17.1101C14.0577 15.397 14.7608 14.1314 16.1351 14.1314C17.4838 14.1314 18.187 15.397 18.187 17.1101C18.187 18.8232 17.4838 20.0824 16.1351 20.0824ZM22.7253 25.6818H25.4483V20.4276H25.5314C25.9086 21.2457 26.7331 22.1598 28.3184 22.1598C30.5556 22.1598 32.3006 20.3892 32.3006 17.1037C32.3006 13.7287 30.4789 12.054 28.3248 12.054C26.682 12.054 25.8958 13.032 25.5314 13.831H25.41V12.1818H22.7253V25.6818ZM25.3908 17.0909C25.3908 15.3395 26.1323 14.2209 27.4554 14.2209C28.8042 14.2209 29.5201 15.3906 29.5201 17.0909C29.5201 18.804 28.7914 19.9929 27.4554 19.9929C26.1451 19.9929 25.3908 18.8423 25.3908 17.0909Z" fill="#F2575D"/>
<path d="M33.4 8.90909L38.1749 17.3722V22H40.9235V17.3722L45.6983 8.90909H42.5982L39.6131 14.5469H39.4853L36.5002 8.90909H33.4ZM49.5559 22.1918C52.5346 22.1918 54.3883 20.1527 54.3883 17.1293C54.3883 14.0866 52.5346 12.054 49.5559 12.054C46.5772 12.054 44.7235 14.0866 44.7235 17.1293C44.7235 20.1527 46.5772 22.1918 49.5559 22.1918ZM49.5687 20.0824C48.1944 20.0824 47.4913 18.8232 47.4913 17.1101C47.4913 15.397 48.1944 14.1314 49.5687 14.1314C50.9174 14.1314 51.6206 15.397 51.6206 17.1101C51.6206 18.8232 50.9174 20.0824 49.5687 20.0824ZM62.4551 17.8196C62.4615 19.1364 61.5602 19.8267 60.5822 19.8267C59.5531 19.8267 58.8883 19.1044 58.8819 17.9474V12.1818H56.1589V18.4332C56.1653 20.728 57.5076 22.1278 59.4828 22.1278C60.9593 22.1278 62.0204 21.3672 62.4615 20.2166H62.5637V22H65.1781V12.1818H62.4551V17.8196ZM72.5785 12.1818H70.7312V9.82955H68.0082V12.1818H66.6658V14.2273H68.0082V19.3409C67.9954 21.2649 69.3058 22.2173 71.2809 22.1342C71.984 22.1087 72.4826 21.968 72.7575 21.8786L72.3292 19.8523C72.195 19.8778 71.9073 19.9418 71.6516 19.9418C71.1083 19.9418 70.7312 19.7372 70.7312 18.983V14.2273H72.5785V12.1818ZM80.6484 17.8196C80.6548 19.1364 79.7536 19.8267 78.7756 19.8267C77.7464 19.8267 77.0817 19.1044 77.0753 17.9474V12.1818H74.3523V18.4332C74.3587 20.728 75.701 22.1278 77.6761 22.1278C79.1527 22.1278 80.2138 21.3672 80.6548 20.2166H80.7571V22H83.3714V12.1818H80.6484V17.8196ZM85.6007 22H88.2853V20.4276H88.4068C88.7839 21.2457 89.6085 22.1598 91.1937 22.1598C93.4309 22.1598 95.176 20.3892 95.176 17.1037C95.176 13.7287 93.3542 12.054 91.2001 12.054C89.5574 12.054 88.7711 13.032 88.4068 13.831H88.3237V8.90909H85.6007V22ZM88.2662 17.0909C88.2662 15.3395 89.0076 14.2209 90.3308 14.2209C91.6795 14.2209 92.3954 15.3906 92.3954 17.0909C92.3954 18.804 91.6667 19.9929 90.3308 19.9929C89.0204 19.9929 88.2662 18.8423 88.2662 17.0909ZM101.467 22.1918C103.896 22.1918 105.533 21.0092 105.916 19.1875L103.398 19.0213C103.123 19.7692 102.42 20.1591 101.512 20.1591C100.151 20.1591 99.2876 19.2578 99.2876 17.794V17.7876H105.974V17.0398C105.974 13.7031 103.954 12.054 101.359 12.054C98.4695 12.054 96.5966 14.1058 96.5966 17.1357C96.5966 20.2486 98.4439 22.1918 101.467 22.1918ZM99.2876 16.1001C99.3452 14.9815 100.195 14.0866 101.403 14.0866C102.586 14.0866 103.404 14.9304 103.411 16.1001H99.2876Z" fill="black"/>
<path d="M113 21.5V9.5C113 8.673 113.673 8 114.5 8H117.5C118.327 8 119 8.673 119 9.5V21.5C119 22.327 118.327 23 117.5 23H114.5C113.673 23 113 22.327 113 21.5ZM121.5 23H124.5C125.327 23 126 22.327 126 21.5V7.5C126 6.673 125.327 6 124.5 6H121.5C120.673 6 120 6.673 120 7.5V21.5C120 22.327 120.673 23 121.5 23ZM131.5 4H128.5C127.673 4 127 4.673 127 5.5V21.5C127 22.327 127.673 23 128.5 23H131.5C132.327 23 133 22.327 133 21.5V5.5C133 4.673 132.327 4 131.5 4ZM132 24H114C113.448 24 113 24.448 113 25C113 25.552 113.448 26 114 26H132C132.552 26 133 25.552 133 25C133 24.448 132.552 24 132 24Z" fill="black"/>
</svg>
