<svg width="486" height="270" viewBox="0 0 486 270" fill="none" xmlns="http://www.w3.org/2000/svg">
<path d="M469.508 116.756V116.497L469.721 116.347L484.42 106.008H387.828C385.473 106.008 383.586 107.865 383.586 110.129V138.885C383.586 141.149 385.473 143.006 387.828 143.006H465.268C467.621 143.006 469.508 141.149 469.508 138.885V116.756Z" fill="#F3F2F1" stroke="#00C2FF"/>
<path d="M391.923 121.147C391.923 121.239 406.73 121.315 424.99 121.315C443.256 121.315 458.06 121.239 458.06 121.147C458.06 121.055 443.256 120.98 424.99 120.98C406.73 120.98 391.923 121.055 391.923 121.147Z" fill="#DADBD8"/>
<path d="M391.923 129.643C391.923 129.736 406.73 129.81 424.99 129.81C443.256 129.81 458.06 129.736 458.06 129.643C458.06 129.551 443.256 129.476 424.99 129.476C406.73 129.476 391.923 129.551 391.923 129.643Z" fill="#DADBD8"/>
<path d="M238.729 23.8522H234.134V38.8519H238.729V23.8522Z" fill="#DADBD8"/>
<path d="M200.355 21.6792H195.761V38.8519H200.355V21.6792Z" fill="#DADBD8"/>
<path d="M209.949 18.1H205.354V38.8519H209.949V18.1Z" fill="#DADBD8"/>
<path d="M219.542 19.2383H214.948V38.8519H219.542V19.2383Z" fill="#DADBD8"/>
<path d="M229.135 12.603H224.541V38.8519H229.135V12.603Z" fill="#DADBD8"/>
<path d="M248.322 12.7306H243.728V38.8519H248.322V12.7306Z" fill="#DADBD8"/>
<path d="M257.915 21.3099H253.321V38.8519H257.915V21.3099Z" fill="#DADBD8"/>
<path d="M267.509 13.8809H262.915V38.8519H267.509V13.8809Z" fill="#DADBD8"/>
<path d="M277.101 8.25631H272.507V38.8519H277.101V8.25631Z" fill="#DADBD8"/>
<path d="M286.695 13.7533H282.101V38.8519H286.695V13.7533Z" fill="#DADBD8"/>
<path d="M407.746 37.4613L445.739 31.8024C448.924 52.1171 434.394 71.3882 413.551 74.4919C392.709 77.5957 372.938 63.4341 369.753 43.1195C366.569 22.8048 381.098 3.53433 401.941 0.429916C405.259 -0.0643158 408.63 -0.132797 411.966 0.226463L407.746 37.4613Z" fill="#E7E8E5"/>
<path d="M420.073 0.345043L415.461 29.0503L444.37 23.7587C444.37 23.7587 440.119 7.67127 420.073 0.345043Z" fill="#DADBD8"/>
<path d="M47.6483 106.658C47.5686 101.796 43.4634 97.9029 38.4977 97.9815C33.5313 98.0594 29.556 102.079 29.6359 106.941C29.7157 111.804 33.8206 115.697 38.7871 115.619C43.7527 115.54 47.7279 111.521 47.6483 106.658ZM19.8062 107.096C19.6393 96.9265 27.9536 88.5191 38.3395 88.356C48.7258 88.1928 57.3115 96.3336 57.4781 106.504C57.645 116.674 49.3309 125.08 38.9448 125.244C28.5584 125.407 19.9728 117.266 19.8062 107.096Z" fill="#F3F2F1"/>
<path d="M19.8062 107.096C19.6393 96.9265 27.9536 88.5198 38.3395 88.356L38.4977 97.9815C33.5313 98.0593 29.556 102.079 29.6359 106.941C29.7157 111.804 33.8206 115.697 38.7871 115.619L38.9448 125.244C28.5584 125.407 19.973 117.266 19.8062 107.096Z" fill="#DADBD8"/>
<path d="M36.6483 86.8758C48.7993 86.6844 58.4926 95.8761 58.6877 107.774L47.1877 107.955C47.0944 102.266 42.6532 98.6837 36.8434 98.7757L36.6483 86.8758Z" fill="#E7E8E5"/>
<path d="M142.192 199.604H118.248V171.857H142.192V199.604Z" fill="#F3F2F1"/>
<path d="M119.073 201.348H10.8605V170.049H119.073V201.348Z" fill="#DADBD8"/>
<path d="M142.918 172.681H116.172V170.049H142.918C143.664 170.049 144.268 170.638 144.268 171.365C144.268 172.092 143.664 172.681 142.918 172.681Z" fill="#DADBD8"/>
<path d="M142.918 201.348H116.172V198.716H142.918C143.664 198.716 144.268 199.305 144.268 200.032C144.268 200.759 143.664 201.348 142.918 201.348Z" fill="#DADBD8"/>
<path d="M97.7797 170.049V201.348H110.565V170.049H97.7797Z" fill="#E7E8E5"/>
<path d="M21.1519 170.395V201.695H33.9366V170.395H21.1519Z" fill="#E7E8E5"/>
<path d="M142.192 176.446C142.192 176.523 137.011 176.585 130.619 176.585C124.225 176.585 119.044 176.523 119.044 176.446C119.044 176.371 124.225 176.308 130.619 176.308C137.011 176.308 142.192 176.371 142.192 176.446Z" fill="#DADBD8"/>
<path d="M142.192 180.607C142.192 180.685 137.011 180.746 130.619 180.746C124.225 180.746 119.044 180.685 119.044 180.607C119.044 180.531 124.225 180.468 130.619 180.468C137.011 180.468 142.192 180.531 142.192 180.607Z" fill="#DADBD8"/>
<path d="M142.192 185.73C142.192 185.808 137.011 185.869 130.619 185.869C124.225 185.869 119.044 185.808 119.044 185.73C119.044 185.654 124.225 185.591 130.619 185.591C137.011 185.591 142.192 185.654 142.192 185.73Z" fill="#DADBD8"/>
<path d="M142.192 190.853C142.192 190.93 137.011 190.991 130.619 190.991C124.225 190.991 119.044 190.93 119.044 190.853C119.044 190.777 124.225 190.715 130.619 190.715C137.011 190.715 142.192 190.777 142.192 190.853Z" fill="#DADBD8"/>
<path d="M142.192 195.976C142.192 196.053 137.011 196.114 130.619 196.114C124.225 196.114 119.044 196.053 119.044 195.976C119.044 195.9 124.225 195.838 130.619 195.838C137.011 195.838 142.192 195.9 142.192 195.976Z" fill="#DADBD8"/>
<path d="M90.9066 188.548H42.2231V182.912H90.9066V188.548Z" fill="#E7E8E5"/>
<path d="M141.949 218.868H117.637V201.962H141.949V218.868Z" fill="#FAFAF9"/>
<path d="M117.909 219.48H14.4434V201.348H117.909V219.48Z" fill="#F3F2F1"/>
<path d="M117.157 202.575H143.288C143.636 202.575 143.917 202.3 143.917 201.961C143.917 201.622 143.636 201.348 143.288 201.348H117.157V202.575Z" fill="#F3F2F1"/>
<path d="M117.157 219.48H143.629C143.789 219.48 143.917 219.355 143.917 219.199V218.536C143.917 218.379 143.789 218.254 143.629 218.254H117.157V219.48Z" fill="#F3F2F1"/>
<path d="M141.949 205.173C141.949 205.25 136.568 205.312 129.93 205.312C123.29 205.312 117.909 205.25 117.909 205.173C117.909 205.097 123.29 205.034 129.93 205.034C136.568 205.034 141.949 205.097 141.949 205.173Z" fill="#DADBD8"/>
<path d="M141.949 208.371C141.949 208.448 136.568 208.51 129.93 208.51C123.29 208.51 117.909 208.448 117.909 208.371C117.909 208.295 123.29 208.232 129.93 208.232C136.568 208.232 141.949 208.295 141.949 208.371Z" fill="#DADBD8"/>
<path d="M141.949 211.57C141.949 211.647 136.568 211.708 129.93 211.708C123.29 211.708 117.909 211.647 117.909 211.57C117.909 211.494 123.29 211.431 129.93 211.431C136.568 211.431 141.949 211.494 141.949 211.57Z" fill="#DADBD8"/>
<path d="M141.949 214.769C141.949 214.845 136.568 214.907 129.93 214.907C123.29 214.907 117.909 214.845 117.909 214.769C117.909 214.691 123.29 214.63 129.93 214.63C136.568 214.63 141.949 214.691 141.949 214.769Z" fill="#DADBD8"/>
<path d="M145.637 266.921H120.822V221.092H145.637V266.921Z" fill="#E7E8E5"/>
<path d="M120.821 269.171H4.33881V219.48H120.821V269.171Z" fill="#DADBD8"/>
<path d="M147.579 269.171H117.637V265.949H147.579C148.492 265.949 149.233 266.671 149.233 267.56C149.233 268.45 148.492 269.171 147.579 269.171Z" fill="#DADBD8"/>
<path d="M148.474 222.703H117.637V219.48H148.474C148.893 219.48 149.233 219.812 149.233 220.22V221.963C149.233 222.372 148.893 222.703 148.474 222.703Z" fill="#DADBD8"/>
<path d="M145.637 227.235C145.637 227.312 140.082 227.374 133.23 227.374C126.376 227.374 120.822 227.312 120.822 227.235C120.822 227.159 126.376 227.097 133.23 227.097C140.082 227.097 145.637 227.159 145.637 227.235Z" fill="#DADBD8"/>
<path d="M145.637 233.114C145.637 233.19 140.082 233.252 133.23 233.252C126.376 233.252 120.822 233.19 120.822 233.114C120.822 233.037 126.376 232.975 133.23 232.975C140.082 232.975 145.637 233.037 145.637 233.114Z" fill="#DADBD8"/>
<path d="M145.637 238.991C145.637 239.067 140.082 239.13 133.23 239.13C126.376 239.13 120.822 239.067 120.822 238.991C120.822 238.915 126.376 238.852 133.23 238.852C140.082 238.852 145.637 238.915 145.637 238.991Z" fill="#DADBD8"/>
<path d="M145.637 244.869C145.637 244.946 140.082 245.007 133.23 245.007C126.376 245.007 120.822 244.946 120.822 244.869C120.822 244.792 126.376 244.731 133.23 244.731C140.082 244.731 145.637 244.792 145.637 244.869Z" fill="#DADBD8"/>
<path d="M145.637 250.747C145.637 250.824 140.082 250.886 133.23 250.886C126.376 250.886 120.822 250.824 120.822 250.747C120.822 250.67 126.376 250.608 133.23 250.608C140.082 250.608 145.637 250.67 145.637 250.747Z" fill="#DADBD8"/>
<path d="M145.637 256.625C145.637 256.701 140.082 256.764 133.23 256.764C126.376 256.764 120.822 256.701 120.822 256.625C120.822 256.548 126.376 256.487 133.23 256.487C140.082 256.487 145.637 256.548 145.637 256.625Z" fill="#DADBD8"/>
<path d="M145.637 262.503C145.637 262.579 140.082 262.641 133.23 262.641C126.376 262.641 120.822 262.579 120.822 262.503C120.822 262.426 126.376 262.363 133.23 262.363C140.082 262.363 145.637 262.426 145.637 262.503Z" fill="#DADBD8"/>
<path d="M44.198 247.046V249.81C44.198 253.14 42.4901 255.043 39.1954 255.043C35.9014 255.043 34.1932 253.14 34.1932 249.81V238.989C34.1932 235.659 35.9014 233.756 39.1954 233.756C42.4901 233.756 44.198 235.659 44.198 238.989V241.011H41.0255V238.78C41.0255 237.294 40.3548 236.729 39.2869 236.729C38.2196 236.729 37.5487 237.294 37.5487 238.78V250.018C37.5487 251.505 38.2196 252.04 39.2869 252.04C40.3548 252.04 41.0255 251.505 41.0255 250.018V247.046H44.198Z" fill="#E7E8E5"/>
<path d="M49.32 250.018C49.32 251.505 49.9912 252.069 51.0585 252.069C52.1264 252.069 52.797 251.505 52.797 250.018V238.78C52.797 237.294 52.1264 236.729 51.0585 236.729C49.9912 236.729 49.32 237.294 49.32 238.78V250.018ZM45.9647 238.989C45.9647 235.659 47.7642 233.756 51.0585 233.756C54.3526 233.756 56.1525 235.659 56.1525 238.989V249.81C56.1525 253.14 54.3526 255.043 51.0585 255.043C47.7642 255.043 45.9647 253.14 45.9647 249.81V238.989Z" fill="#E7E8E5"/>
<path d="M58.3152 233.994H61.6706V251.832H67.1915V254.805H58.3152V233.994Z" fill="#E7E8E5"/>
<path d="M71.7337 250.018C71.7337 251.505 72.4047 252.069 73.4719 252.069C74.5398 252.069 75.2109 251.505 75.2109 250.018V238.78C75.2109 237.294 74.5398 236.729 73.4719 236.729C72.4047 236.729 71.7337 237.294 71.7337 238.78V250.018ZM68.3782 238.989C68.3782 235.659 70.178 233.756 73.4719 233.756C76.7666 233.756 78.5661 235.659 78.5661 238.989V249.81C78.5661 253.14 76.7666 255.043 73.4719 255.043C70.178 255.043 68.3782 253.14 68.3782 249.81V238.989Z" fill="#E7E8E5"/>
<path d="M83.9325 233.994V250.048C83.9325 251.535 84.6036 252.069 85.6708 252.069C86.7386 252.069 87.4097 251.535 87.4097 250.048V233.994H90.5817V249.84C90.5817 253.17 88.8737 255.072 85.5798 255.072C82.2852 255.072 80.5773 253.17 80.5773 249.84V233.994H83.9325Z" fill="#E7E8E5"/>
<path d="M96.2222 236.967V243.359H97.534C98.7845 243.359 99.5472 242.824 99.5472 241.158V239.107C99.5472 237.621 99.0284 236.967 97.8392 236.967H96.2222ZM99.8827 254.805C99.6994 254.27 99.5775 253.942 99.5775 252.248V248.977C99.5775 247.045 98.9064 246.332 97.3811 246.332H96.2222V254.805H92.867V233.994H97.9302C101.407 233.994 102.902 235.569 102.902 238.78V240.416C102.902 242.556 102.201 243.953 100.706 244.637C102.384 245.321 102.933 246.896 102.933 249.067V252.278C102.933 253.288 102.963 254.031 103.299 254.805H99.8827Z" fill="#E7E8E5"/>
<path d="M43.4727 208.49H41.0256L41.1545 207.872H46.7708L46.6323 208.49H44.1953L42.9374 214.629H42.2146L43.4727 208.49Z" fill="#DADBD8"/>
<path d="M51.4827 209.551L47.6794 215.286C47.0354 216.252 46.5504 216.551 45.7974 216.551C45.3125 216.551 44.817 216.386 44.5594 216.097L44.9357 215.595C45.1636 215.827 45.4607 215.962 45.8569 215.962C46.3029 215.962 46.6492 215.759 47.0556 215.141L47.4224 214.601L46.1244 209.551H46.8373L47.9168 213.875L50.7595 209.551H51.4827Z" fill="#DADBD8"/>
<path d="M56.5613 211.695C56.5613 210.7 55.9372 210.111 54.8472 210.111C53.5503 210.111 52.5992 211.105 52.5992 212.495C52.5992 213.491 53.2233 214.07 54.3127 214.07C55.6104 214.07 56.5613 213.076 56.5613 211.695ZM57.2739 211.657C57.2739 213.403 56.026 214.677 54.3227 214.677C53.3321 214.677 52.6383 214.282 52.3414 213.567L51.7472 216.502H51.0439L52.4606 209.551H53.134L52.9653 210.363C53.4604 209.822 54.1542 209.513 54.9963 209.513C56.333 209.513 57.2739 210.324 57.2739 211.657Z" fill="#DADBD8"/>
<path d="M62.7689 211.695C62.7689 210.7 62.1447 210.111 61.0553 210.111C59.7576 210.111 58.7968 211.115 58.7968 212.495C58.7968 213.491 59.4209 214.07 60.51 214.07C61.808 214.07 62.7689 213.076 62.7689 211.695ZM58.093 212.526C58.093 210.797 59.3512 209.513 61.1043 209.513C62.5503 209.513 63.4715 210.343 63.4715 211.657C63.4715 213.394 62.2136 214.677 60.4603 214.677C59.0148 214.677 58.093 213.828 58.093 212.526Z" fill="#DADBD8"/>
<path d="M69.0254 211.587C69.0254 210.661 68.3817 210.111 67.3015 210.111C65.9843 210.111 65.0338 211.057 65.0338 212.35C65.0338 213.278 65.6676 213.827 66.7572 213.827C68.0647 213.827 69.0254 212.882 69.0254 211.587ZM70.2138 209.551L69.303 214.012C68.9358 215.807 67.9651 216.551 66.2717 216.551C65.2911 216.551 64.4888 216.281 63.9543 215.788L64.3701 215.267C64.7859 215.682 65.4894 215.943 66.3215 215.943C67.6381 215.943 68.3319 215.353 68.5793 214.128L68.6987 213.567C68.2033 214.108 67.5 214.437 66.6187 214.437C65.2413 214.437 64.3203 213.654 64.3203 212.39C64.3203 210.758 65.5583 209.513 67.292 209.513C68.2525 209.513 69.0254 209.899 69.3223 210.671L69.54 209.551H70.2138Z" fill="#DADBD8"/>
<path d="M74.8064 209.513L74.6776 210.179C74.608 210.179 74.5584 210.169 74.4792 210.169C73.37 210.169 72.6273 210.786 72.3696 212.052L71.8453 214.629H71.1418L72.1718 209.551H72.845L72.6665 210.478C73.1329 209.812 73.8157 209.513 74.8064 209.513Z" fill="#DADBD8"/>
<path d="M79.6085 211.695C79.6085 210.7 78.9843 210.111 77.8951 210.111C76.5971 210.111 75.6367 211.115 75.6367 212.495C75.6367 213.491 76.2602 214.07 77.3501 214.07C78.6474 214.07 79.6085 213.076 79.6085 211.695ZM80.777 209.551L79.7374 214.63H79.0636L79.2317 213.828C78.7363 214.359 78.0439 214.677 77.2013 214.677C75.8647 214.677 74.9326 213.867 74.9326 212.526C74.9326 210.786 76.1816 209.513 77.8751 209.513C78.8658 209.513 79.5589 209.909 79.8559 210.613L80.0736 209.551H80.777Z" fill="#DADBD8"/>
<path d="M86.8253 211.695C86.8253 210.7 86.2011 210.111 85.1119 210.111C83.8145 210.111 82.8638 211.105 82.8638 212.495C82.8638 213.491 83.4873 214.07 84.5772 214.07C85.8745 214.07 86.8253 213.076 86.8253 211.695ZM87.5384 211.657C87.5384 213.403 86.2907 214.677 84.5869 214.677C83.5961 214.677 82.9024 214.282 82.6054 213.567L82.0115 216.502H81.3081L82.7253 209.551H83.3977L83.2296 210.363C83.725 209.822 84.4188 209.513 85.2607 209.513C86.5973 209.513 87.5384 210.324 87.5384 211.657Z" fill="#DADBD8"/>
<path d="M93.8451 211.164C93.8451 211.348 93.8251 211.54 93.7851 211.743L93.1913 214.629H92.4871L93.0824 211.732C93.1113 211.569 93.1313 211.414 93.1313 211.271C93.1313 210.546 92.6856 210.131 91.7844 210.131C90.6752 210.131 89.9132 210.719 89.6645 211.907L89.1105 214.629H88.4071L89.8732 207.467H90.576L89.9917 210.314C90.4871 209.764 91.1802 209.513 91.9828 209.513C93.1609 209.513 93.8451 210.131 93.8451 211.164Z" fill="#DADBD8"/>
<path d="M100.428 209.551L96.6247 215.286C95.9812 216.252 95.4955 216.551 94.7431 216.551C94.2574 216.551 93.762 216.386 93.5051 216.097L93.8805 215.595C94.1093 215.827 94.4062 215.962 94.8024 215.962C95.2481 215.962 95.5947 215.759 96.0012 215.141L96.3677 214.601L95.0704 209.551H95.7828L96.8624 213.875L99.705 209.551H100.428Z" fill="#DADBD8"/>
<path d="M116.123 0.858116H10.444L27.6588 12.9662V36.7868C27.6588 39.534 29.9434 41.7614 32.762 41.7614H116.123C118.941 41.7614 121.226 39.534 121.226 36.7868V5.83203C121.226 3.08487 118.941 0.858116 116.123 0.858116Z" fill="#F3F2F1"/>
<path d="M111.715 17.6931C111.715 17.7918 95.7757 17.8724 76.1196 17.8724C56.4557 17.8724 40.5205 17.7918 40.5205 17.6931C40.5205 17.5937 56.4557 17.5131 76.1196 17.5131C95.7757 17.5131 111.715 17.5937 111.715 17.6931Z" fill="#DADBD8"/>
<path d="M111.715 26.8385C111.715 26.9379 95.7757 27.0185 76.1196 27.0185C56.4557 27.0185 40.5205 26.9379 40.5205 26.8385C40.5205 26.7391 56.4557 26.6592 76.1196 26.6592C95.7757 26.6592 111.715 26.7391 111.715 26.8385Z" fill="#DADBD8"/>
<path d="M482.641 269.171C482.641 269.268 374.589 269.346 241.333 269.346C108.029 269.346 0 269.268 0 269.171C0 269.075 108.029 268.996 241.333 268.996C374.589 268.996 482.641 269.075 482.641 269.171Z" fill="#17282F"/>
<path d="M437.295 234.897C437.295 234.897 419.032 214.41 412.141 193.923C405.249 173.436 408.523 175.787 408.523 175.787C408.523 175.787 417.827 195.689 424.89 205.301C431.954 214.913 444.531 229.02 444.531 229.02L437.295 234.897Z" fill="#33535F"/>
<path d="M440.935 178.979C440.346 177.978 438.777 178.499 438.954 179.639C440.068 186.835 442.475 203.722 442.38 214.675C442.257 228.903 442.384 234.403 442.384 234.403H449.986C449.986 234.403 448.636 204.99 446.919 196.022C445.715 189.734 443.158 182.754 440.935 178.979Z" fill="#33535F"/>
<path d="M445.079 232.012C445.079 232.012 449.863 222.208 451.335 209.893C451.961 204.655 450.845 197.577 449.183 188.132C448.379 183.556 448.196 180.074 448.222 177.66C448.242 175.836 450.712 175.24 451.628 176.831C452.545 178.426 455.2 183.877 455.875 187.294C457.715 196.62 459.8 201.283 458.205 210.131C456.61 218.98 450.722 232.61 450.722 232.61L445.079 232.012Z" fill="#33535F"/>
<path d="M451.926 232.61C451.926 232.61 471.977 190.61 473.368 184.379C474.757 178.148 479.482 163.79 480.038 164.603C480.594 165.416 481.428 173 477.815 181.67C474.201 190.34 458.773 233.89 458.773 233.89H451.926V232.61Z" fill="#33535F"/>
<path d="M442.883 230.731C442.874 230.743 442.681 230.612 442.321 230.355C441.965 230.092 441.425 229.723 440.768 229.199C439.434 228.177 437.561 226.622 435.379 224.563C431.002 220.465 425.554 214.149 420.832 206.364C416.099 198.581 412.916 190.97 410.902 185.399C409.894 182.609 409.157 180.326 408.681 178.739C408.435 177.948 408.267 177.328 408.148 176.908C408.032 176.488 407.979 176.265 407.993 176.261C408.007 176.257 408.088 176.471 408.231 176.884C408.382 177.333 408.585 177.935 408.839 178.691C409.365 180.261 410.144 182.527 411.187 185.298C413.27 190.834 416.487 198.401 421.2 206.151C425.903 213.903 431.284 220.216 435.591 224.352C437.738 226.431 439.574 228.015 440.873 229.073C441.513 229.615 442.036 230.004 442.374 230.289C442.716 230.567 442.892 230.72 442.883 230.731Z" fill="#17282F"/>
<path d="M445.077 210.582C445.047 210.584 444.985 210.145 444.897 209.35C444.802 208.48 444.678 207.348 444.527 205.983C444.21 203.141 443.714 199.223 443.006 194.919C442.294 190.613 441.504 186.74 440.893 183.945C440.596 182.604 440.35 181.49 440.161 180.635C439.988 179.852 439.906 179.417 439.935 179.41C439.964 179.403 440.1 179.825 440.323 180.596C440.548 181.366 440.844 182.488 441.188 183.88C441.876 186.663 442.715 190.537 443.429 194.852C444.139 199.167 444.588 203.102 444.829 205.955C444.95 207.381 445.03 208.537 445.063 209.337C445.1 210.137 445.107 210.58 445.077 210.582Z" fill="#17282F"/>
<path d="M449.774 176.501C449.788 176.496 449.869 176.681 450.011 177.035C450.163 177.431 450.363 177.949 450.612 178.595C450.877 179.272 451.181 180.107 451.472 181.096C451.77 182.083 452.156 183.194 452.447 184.459C452.605 185.089 452.771 185.749 452.944 186.434C453.112 187.122 453.231 187.849 453.385 188.596C453.712 190.087 453.914 191.704 454.158 193.401C454.55 196.807 454.764 200.576 454.636 204.531C454.474 208.487 453.983 212.233 453.341 215.603C452.975 217.279 452.654 218.878 452.218 220.342C452.009 221.077 451.837 221.794 451.618 222.468C451.396 223.14 451.182 223.785 450.977 224.403C450.596 225.645 450.129 226.726 449.759 227.689C449.396 228.656 449.031 229.467 448.717 230.124C448.421 230.75 448.184 231.254 448.002 231.638C447.836 231.981 447.741 232.159 447.728 232.153C447.714 232.147 447.783 231.958 447.925 231.603C448.086 231.212 448.299 230.699 448.563 230.06C448.853 229.396 449.196 228.578 449.535 227.607C449.883 226.639 450.328 225.554 450.689 224.312C450.885 223.695 451.089 223.049 451.301 222.378C451.511 221.704 451.674 220.988 451.874 220.255C452.293 218.794 452.599 217.2 452.954 215.531C453.571 212.176 454.047 208.45 454.209 204.517C454.335 200.584 454.134 196.835 453.766 193.446C453.534 191.756 453.347 190.146 453.036 188.659C452.891 187.914 452.78 187.189 452.621 186.502C452.458 185.817 452.302 185.159 452.153 184.529C451.883 183.266 451.518 182.152 451.243 181.164C450.975 180.171 450.694 179.331 450.454 178.648C450.236 177.992 450.062 177.466 449.929 177.064C449.814 176.7 449.76 176.507 449.774 176.501Z" fill="#17282F"/>
<path d="M479.808 165.446C479.815 165.448 479.81 165.512 479.792 165.635C479.768 165.782 479.738 165.961 479.703 166.18C479.615 166.659 479.504 167.368 479.308 168.271C478.92 170.078 478.276 172.678 477.273 175.832C476.273 178.988 474.904 182.687 473.28 186.751C471.662 190.818 469.781 195.247 468.001 199.963C466.194 204.672 464.801 209.266 463.493 213.436C462.196 217.61 460.966 221.355 459.777 224.448C458.6 227.544 457.467 229.983 456.611 231.63C456.2 232.462 455.831 233.083 455.593 233.509C455.481 233.702 455.389 233.86 455.312 233.99C455.247 234.097 455.211 234.15 455.204 234.146C455.198 234.142 455.221 234.083 455.274 233.969C455.339 233.834 455.42 233.67 455.517 233.469C455.73 233.031 456.075 232.4 456.461 231.559C457.268 229.894 458.355 227.447 459.493 224.346C460.642 221.249 461.839 217.504 463.115 213.325C464.402 209.151 465.787 204.541 467.599 199.819C469.384 195.092 471.276 190.666 472.912 186.611C474.555 182.559 475.95 178.879 476.984 175.743C478.02 172.609 478.709 170.028 479.145 168.236C479.366 167.341 479.503 166.637 479.618 166.165C479.67 165.949 479.713 165.773 479.748 165.627C479.781 165.506 479.8 165.445 479.808 165.446Z" fill="#17282F"/>
<path d="M417.977 156.17C416.713 154.946 414.612 156.225 415.135 157.885C415.665 159.568 416.469 161.745 417.655 164.2C420.411 169.91 428.509 190.397 432.299 201.648C436.09 212.898 441.431 233.89 441.431 233.89L449.525 232.61C449.525 232.61 442.12 198.121 434.883 185.695C429.069 175.711 423.255 161.281 417.977 156.17Z" fill="#33535F"/>
<path d="M434.514 208.685C434.542 208.675 434.689 209.012 434.931 209.63C435.171 210.249 435.497 211.152 435.864 212.279C436.61 214.53 437.522 217.673 438.441 221.165C439.357 224.659 440.121 227.837 440.654 230.14C440.897 231.231 441.101 232.146 441.263 232.875C441.398 233.521 441.459 233.883 441.43 233.89C441.402 233.897 441.286 233.548 441.101 232.912C440.903 232.193 440.655 231.288 440.359 230.21C439.74 227.837 438.926 224.719 438.026 221.268C437.109 217.78 436.245 214.631 435.574 212.365C435.255 211.295 434.987 210.396 434.773 209.682C434.58 209.049 434.486 208.695 434.514 208.685Z" fill="#17282F"/>
<path d="M445.496 233.25C445.489 233.251 445.473 233.179 445.451 233.04C445.426 232.875 445.396 232.671 445.359 232.418C445.274 231.873 445.198 231.063 445.028 230.029C444.731 227.957 444.199 224.97 443.331 221.327C442.467 217.682 441.206 213.396 439.542 208.724C437.882 204.05 435.799 198.999 433.439 193.773C428.677 183.332 423.921 174.071 420.795 167.223C419.215 163.807 417.991 161.019 417.186 159.076C416.775 158.108 416.481 157.346 416.275 156.832C416.184 156.592 416.11 156.399 416.051 156.243C416.003 156.11 415.981 156.041 415.988 156.038C415.995 156.035 416.03 156.099 416.092 156.227C416.161 156.378 416.248 156.567 416.355 156.799C416.593 157.335 416.923 158.075 417.34 159.012C418.192 160.935 419.456 163.703 421.07 167.101C424.264 173.912 429.062 183.148 433.831 193.605C436.194 198.839 438.271 203.905 439.915 208.598C441.563 213.29 442.797 217.598 443.625 221.262C444.46 224.923 444.946 227.925 445.193 230.008C445.338 231.047 445.387 231.861 445.444 232.409C445.464 232.665 445.481 232.871 445.494 233.035C445.503 233.177 445.504 233.249 445.496 233.25Z" fill="#17282F"/>
<path d="M449.524 232.61C449.495 232.614 449.399 232.142 449.252 231.284C449.09 230.358 448.879 229.135 448.622 227.658C448.064 224.601 447.212 220.391 445.987 215.809C444.775 211.222 443.41 207.142 442.359 204.212C441.843 202.799 441.416 201.632 441.094 200.747C440.79 199.929 440.635 199.472 440.663 199.462C440.691 199.451 440.897 199.887 441.248 200.687C441.597 201.488 442.084 202.654 442.644 204.111C443.769 207.021 445.185 211.102 446.402 215.704C447.631 220.302 448.438 224.535 448.92 227.61C449.15 229.15 449.327 230.396 449.417 231.262C449.513 232.126 449.554 232.607 449.524 232.61Z" fill="#17282F"/>
<path d="M434.544 268.996H466.137V231.477H434.544V268.996Z" fill="#F2575D"/>
<path d="M434.544 268.996H466.137V231.477H434.544V268.996Z" fill="#CC4341"/>
<path d="M456.059 268.996H428.03V231.476H456.059V268.996Z" fill="#F2575D"/>
<path d="M45.3294 218.433C39.9474 215.073 32.4883 215.01 27.2508 218.577C22.278 221.966 19.7533 228.133 19.9726 234.042C20.1919 239.952 23.1308 247.172 28.6239 250.277L44.748 250.215C49.8965 246.525 53.3776 240.58 53.6206 234.356C53.8636 228.132 50.7108 221.793 45.3294 218.433Z" fill="#33535F"/>
<path d="M37.3903 250.847C37.355 250.847 37.3203 250.365 37.2886 249.494C37.2608 248.528 37.2248 247.29 37.1817 245.808C37.0999 242.696 36.9745 238.4 36.761 233.656C36.5463 228.911 36.2841 224.619 36.085 221.512C35.9946 220.031 35.9187 218.796 35.8595 217.831C35.8132 216.961 35.8038 216.478 35.8391 216.475C35.8748 216.473 35.951 216.949 36.0595 217.814C36.169 218.679 36.3022 219.933 36.448 221.485C36.7401 224.587 37.0603 228.882 37.2751 233.633C37.4888 238.384 37.5571 242.689 37.5453 245.804C37.5402 247.363 37.52 248.623 37.4891 249.494C37.4592 250.365 37.4258 250.847 37.3903 250.847Z" fill="#17282F"/>
<path d="M21.5979 232.703C21.5861 232.842 20.7101 232.884 19.6414 232.799C18.5722 232.713 17.715 232.532 17.7268 232.394C17.7387 232.256 18.6141 232.213 19.6833 232.299C20.752 232.384 21.6095 232.566 21.5979 232.703Z" fill="#17282F"/>
<path d="M21.8983 227.401C21.8404 227.528 21.0847 227.324 20.2106 226.946C19.3359 226.568 18.6733 226.159 18.7312 226.032C18.7888 225.906 19.5445 226.109 20.4191 226.488C21.2933 226.865 21.9559 227.275 21.8983 227.401Z" fill="#17282F"/>
<path d="M24.6975 223.465C24.6237 223.58 23.7741 223.19 22.8914 222.475C22.0059 221.763 21.454 221.023 21.5565 220.931C21.662 220.834 22.3623 221.4 23.2195 222.089C24.0734 222.78 24.7753 223.346 24.6975 223.465Z" fill="#17282F"/>
<path d="M27.5126 219.752C27.3828 219.807 26.9756 219.187 26.6037 218.367C26.2312 217.545 26.0351 216.835 26.1651 216.779C26.295 216.723 26.7022 217.343 27.0742 218.163C27.4463 218.985 27.6428 219.695 27.5126 219.752Z" fill="#17282F"/>
<path d="M31.929 217.117C31.8025 217.174 31.3639 216.514 31.0732 215.599C30.7798 214.685 30.757 213.9 30.895 213.876C31.0371 213.852 31.282 214.571 31.5651 215.45C31.8439 216.331 32.0606 217.059 31.929 217.117Z" fill="#17282F"/>
<path d="M39.2991 214.147C39.4334 214.192 39.3513 214.756 39.1167 215.406C38.8815 216.055 38.5825 216.543 38.4482 216.498C38.3141 216.451 38.396 215.888 38.6312 215.239C38.8658 214.589 39.1654 214.1 39.2991 214.147Z" fill="#17282F"/>
<path d="M44.7662 216.433C44.8625 216.535 44.5118 217.005 43.983 217.481C43.4539 217.959 42.9469 218.263 42.85 218.161C42.7534 218.06 43.1043 217.59 43.6334 217.113C44.1622 216.636 44.6695 216.332 44.7662 216.433Z" fill="#17282F"/>
<path d="M49.5792 219.462C49.6588 219.577 49.231 219.995 48.6241 220.395C48.0167 220.797 47.4598 221.028 47.3802 220.914C47.3005 220.799 47.7279 220.381 48.3355 219.98C48.9424 219.579 49.4995 219.348 49.5792 219.462Z" fill="#17282F"/>
<path d="M52.9962 223.978C53.0521 224.106 52.378 224.508 51.4907 224.877C50.6036 225.246 49.8394 225.442 49.7836 225.315C49.7277 225.187 50.4018 224.785 51.2889 224.416C52.1762 224.047 52.9407 223.851 52.9962 223.978Z" fill="#17282F"/>
<path d="M54.3413 228.904C54.3588 229.042 53.6736 229.238 52.8103 229.342C51.9466 229.446 51.2329 229.42 51.2154 229.282C51.1979 229.145 51.8834 228.949 52.747 228.845C53.6101 228.74 54.3241 228.767 54.3413 228.904Z" fill="#17282F"/>
<path d="M55.0421 234.968C54.985 235.095 54.2544 234.909 53.4104 234.551C52.5656 234.192 51.9272 233.799 51.9838 233.673C52.0405 233.546 52.7709 233.733 53.6157 234.09C54.46 234.448 55.0986 234.841 55.0421 234.968Z" fill="#17282F"/>
<path d="M54.4255 240.171C54.3806 240.298 53.4567 240.083 52.4916 239.466C51.523 238.852 50.9511 238.113 51.052 238.023C51.1567 237.922 51.858 238.467 52.7731 239.046C53.6838 239.63 54.478 240.037 54.4255 240.171Z" fill="#17282F"/>
<path d="M51.6461 244.908C51.5613 245.016 50.8258 244.595 50.1204 243.852C49.412 243.111 49.0358 242.366 49.1521 242.291C49.2721 242.212 49.8193 242.802 50.4974 243.51C51.1724 244.222 51.7362 244.797 51.6461 244.908Z" fill="#17282F"/>
<path d="M25.2531 245.465C25.319 245.587 24.5466 246.106 23.5291 246.622C22.5107 247.139 21.6323 247.458 21.5669 247.335C21.5012 247.212 22.2728 246.694 23.2912 246.177C24.3093 245.661 25.188 245.342 25.2531 245.465Z" fill="#17282F"/>
<path d="M22.843 241.18C22.9013 241.306 22.2821 241.703 21.4599 242.066C20.6374 242.43 19.9232 242.622 19.8648 242.496C19.8059 242.37 20.4248 241.973 21.2473 241.609C22.0697 241.245 22.784 241.053 22.843 241.18Z" fill="#17282F"/>
<path d="M21.0703 237.385C21.0899 237.522 20.3281 237.741 19.3684 237.874C18.4082 238.007 17.6139 238.003 17.594 237.866C17.5738 237.729 18.336 237.51 19.296 237.378C20.2562 237.245 21.0504 237.248 21.0703 237.385Z" fill="#17282F"/>
<path d="M26.8831 235.294C26.9257 235.422 26.1821 235.761 25.1909 235.868C24.1991 235.98 23.3974 235.812 23.4087 235.676C23.4187 235.534 24.194 235.476 25.133 235.37C26.0717 235.269 26.8414 235.158 26.8831 235.294Z" fill="#17282F"/>
<path d="M31.7119 230.61C31.754 230.741 31.1621 231.032 30.3642 231.107C29.5662 231.185 28.9278 231.011 28.9432 230.876C28.9566 230.736 29.5724 230.681 30.3138 230.608C31.0556 230.539 31.6705 230.475 31.7119 230.61Z" fill="#17282F"/>
<path d="M32.6347 226.859C32.5882 226.991 31.9476 226.893 31.2043 226.643C30.4607 226.393 29.8956 226.083 29.9421 225.953C29.9884 225.822 30.629 225.918 31.3725 226.169C32.1159 226.419 32.681 226.728 32.6347 226.859Z" fill="#17282F"/>
<path d="M34.4049 223.066C34.3065 223.162 33.8661 222.879 33.5526 222.347C33.2369 221.816 33.2063 221.303 33.3408 221.267C33.4802 221.229 33.7171 221.626 33.9986 222.096C34.2757 222.569 34.5096 222.968 34.4049 223.066Z" fill="#17282F"/>
<path d="M32.2711 238.598C32.3047 238.732 31.7501 238.98 31.0326 239.151C30.6181 239.25 30.2397 239.302 29.9916 239.3L29.8901 239.008C30.0758 238.974 30.1958 238.983 30.2198 239.036C30.2441 239.089 30.1684 239.181 30.0179 239.292L29.9162 238.999C30.1355 238.887 30.4957 238.762 30.9104 238.664C31.6279 238.493 32.2372 238.463 32.2711 238.598Z" fill="#17282F"/>
<path d="M33.266 245.248C33.3176 245.377 32.6106 245.769 31.6867 246.123C30.7623 246.477 29.9711 246.659 29.9189 246.53C29.8672 246.402 30.5739 246.01 31.4984 245.656C32.4225 245.302 33.2138 245.12 33.266 245.248Z" fill="#17282F"/>
<path d="M27.8111 242.294C27.8569 242.425 27.3851 242.7 26.7578 242.908C26.1302 243.116 25.5844 243.179 25.5387 243.048C25.4929 242.917 25.9642 242.641 26.592 242.434C27.2193 242.225 27.7654 242.163 27.8111 242.294Z" fill="#17282F"/>
<path d="M28.228 228.756C28.1954 228.888 27.374 228.809 26.4254 228.481C25.4761 228.154 24.787 227.711 24.8474 227.588C24.9088 227.461 25.6756 227.69 26.5973 228.007C27.518 228.327 28.2621 228.62 28.228 228.756Z" fill="#17282F"/>
<path d="M41.4284 227.284C41.5064 227.4 41.044 227.832 40.3957 228.248C39.7469 228.666 39.1577 228.909 39.0795 228.794C39.0014 228.678 39.4638 228.247 40.1123 227.83C40.7609 227.413 41.3498 227.168 41.4284 227.284Z" fill="#17282F"/>
<path d="M42.146 233.963C42.1748 234.099 41.6888 234.312 41.0607 234.439C40.4327 234.566 39.8999 234.559 39.8708 234.423C39.8423 234.288 40.3281 234.075 40.9562 233.947C41.5846 233.821 42.117 233.827 42.146 233.963Z" fill="#17282F"/>
<path d="M42.9799 241.473C42.9202 241.599 42.2205 241.407 41.4176 241.044C40.6143 240.682 40.0117 240.286 40.0712 240.16C40.1307 240.035 40.8304 240.227 41.6338 240.59C42.4368 240.952 43.0396 241.348 42.9799 241.473Z" fill="#17282F"/>
<path d="M41.2148 248.785C41.1047 248.873 40.6507 248.511 40.2002 247.976C39.7494 247.441 39.4733 246.937 39.5831 246.849C39.6929 246.761 40.1475 247.123 40.5977 247.658C41.0482 248.192 41.3244 248.697 41.2148 248.785Z" fill="#17282F"/>
<path d="M40.8539 222.366C40.9405 222.473 40.6407 222.841 40.1262 223.092C39.6124 223.344 39.1301 223.359 39.0938 223.227C39.055 223.091 39.4318 222.872 39.8953 222.643C40.3603 222.418 40.7659 222.255 40.8539 222.366Z" fill="#17282F"/>
<path d="M47.3224 229.103C47.3698 229.231 46.7709 229.551 45.9526 229.661C45.1336 229.774 44.4684 229.624 44.478 229.488C44.4859 229.348 45.1188 229.269 45.8815 229.164C46.6445 229.063 47.2756 228.969 47.3224 229.103Z" fill="#17282F"/>
<path d="M46.0336 223.055C46.0965 223.177 45.5023 223.59 44.6573 223.852C43.813 224.117 43.0829 224.116 43.0624 223.982C43.0393 223.842 43.6981 223.626 44.5006 223.374C45.304 223.125 45.9696 222.929 46.0336 223.055Z" fill="#17282F"/>
<path d="M48.7344 238.469C48.7325 238.604 47.7166 238.692 46.4907 238.472C45.2637 238.258 44.3439 237.828 44.391 237.702C44.4383 237.567 45.3994 237.772 46.5825 237.979C47.7642 238.19 48.7387 238.327 48.7344 238.469Z" fill="#17282F"/>
<path d="M46.3308 247.254C46.2452 247.361 45.4967 246.932 44.7507 246.199C44.0018 245.468 43.5647 244.737 43.6756 244.654C43.7894 244.567 44.3914 245.139 45.1154 245.845C45.8367 246.554 46.4201 247.143 46.3308 247.254Z" fill="#17282F"/>
<path d="M35.7614 215.907C35.8378 216.015 33.7094 216.856 31.2493 219.383C28.7905 221.853 26.2535 226.218 25.6288 231.492C25.3299 234.112 25.5866 236.648 25.9679 238.911C26.3697 241.177 26.9026 243.189 27.3938 244.865C27.8876 246.541 28.3413 247.884 28.6457 248.816C28.9512 249.746 29.1143 250.264 29.0793 250.277C29.0475 250.288 28.8209 249.793 28.4571 248.88C28.094 247.968 27.5864 246.64 27.0455 244.967C26.507 243.296 25.9329 241.278 25.5007 238.991C25.0892 236.705 24.8107 234.129 25.1177 231.433C25.7556 226.039 28.4105 221.594 30.9874 219.136C32.2695 217.888 33.4746 217.055 34.3536 216.572C34.7802 216.309 35.1489 216.169 35.3841 216.051C35.6242 215.941 35.7536 215.891 35.7614 215.907Z" fill="#17282F"/>
<path d="M42.7801 250.598C42.6684 250.544 43.9368 248.641 45.0935 245.211C46.2849 241.823 47.2702 236.806 46.4768 231.356C46.1054 228.639 45.2991 226.121 44.2848 223.969C43.2319 221.846 41.875 220.108 40.5474 218.895C39.1746 217.711 37.8258 217.033 36.8851 216.639C35.9336 216.253 35.3632 216.162 35.3714 216.119C35.374 216.103 35.5185 216.111 35.792 216.151C36.063 216.199 36.4621 216.287 36.9576 216.457C37.9409 216.803 39.338 217.442 40.7875 218.628C42.1993 219.856 43.6004 221.591 44.7126 223.769C45.7739 225.959 46.6073 228.518 46.9865 231.286C47.7942 236.838 46.7303 241.932 45.4374 245.326C45.1468 246.193 44.7727 246.936 44.4939 247.604C44.1623 248.252 43.8889 248.814 43.6375 249.259C43.1138 250.139 42.811 250.615 42.7801 250.598Z" fill="#17282F"/>
<path d="M22.8431 249.412H51.2156L51.3898 254.947H22.8431V249.412Z" fill="#F2575D"/>
<path d="M25.2534 252.18L26.8832 269.076H47.6258L49.2916 252.365L25.2534 252.18Z" fill="#F2575D"/>
<path d="M51.3896 255.014C51.3896 255.152 45.0002 255.264 37.1205 255.264C29.2378 255.264 22.8499 255.152 22.8499 255.014C22.8499 254.875 29.2378 254.762 37.1205 254.762C45.0002 254.762 51.3896 254.875 51.3896 255.014Z" fill="#17282F"/>
<path d="M48.5067 260.16C48.5341 260.177 48.3428 260.565 47.8989 261.217C47.4536 261.864 46.7455 262.774 45.6983 263.749L45.5678 263.871L45.4389 263.739C44.0728 262.341 42.1956 260.629 39.8785 258.995L40.1923 258.981C39.4003 259.658 38.5746 260.365 37.7271 261.09C36.7195 261.945 35.7434 262.774 34.8127 263.563L34.6518 263.7L34.4898 263.567C32.723 262.12 31.1163 260.803 29.7527 259.685L30.0285 259.657C29.05 260.82 28.2281 261.798 27.5773 262.571C26.9874 263.254 26.6456 263.621 26.6152 263.598C26.5847 263.574 26.8689 263.163 27.4072 262.441C28.0219 261.64 28.7983 260.629 29.7233 259.423L29.8415 259.269L29.9992 259.395C31.3833 260.488 33.0142 261.777 34.8071 263.193L34.4849 263.198C35.4121 262.404 36.3845 261.572 37.388 260.713C38.2385 259.99 39.0662 259.286 39.8612 258.612L40.0133 258.483L40.1753 258.599C42.5108 260.272 44.3788 262.042 45.7088 263.496L45.4494 263.486C47.5543 261.625 48.4251 260.1 48.5067 260.16Z" fill="#17282F"/>
<path d="M389.415 264.438H89.0822C83.5395 264.438 79.0461 260.06 79.0461 254.657V67.7055C79.0461 62.3031 83.5395 57.9235 89.0822 57.9235H389.415C394.958 57.9235 399.451 62.3031 399.451 67.7055V254.657C399.451 260.06 394.958 264.438 389.415 264.438Z" fill="#33535F"/>
<path d="M403.43 269.171H80.8182C74.0464 269.171 68.5565 263.82 68.5565 257.22V251.102H415.692V257.22C415.692 263.82 410.202 269.171 403.43 269.171Z" fill="#33535F"/>
<path d="M207.663 249.165L211.971 255.844H272.585L276.585 249.165H207.663Z" fill="#17282F"/>
<path d="M396.698 249.164C396.698 249.276 325.583 249.367 237.879 249.367C150.145 249.367 79.0461 249.276 79.0461 249.164C79.0461 249.053 150.145 248.962 237.879 248.962C325.583 248.962 396.698 249.053 396.698 249.164Z" fill="#17282F"/>
<path d="M386.768 243.704H90.4769C89.2312 243.704 88.2212 242.72 88.2212 241.506V71.9964C88.2212 70.7823 89.2305 69.7985 90.4762 69.7985H386.768C388.013 69.7985 389.023 70.7823 389.023 71.9964V241.507C389.023 242.72 388.013 243.704 386.768 243.704Z" fill="#E7E8E5"/>
<path d="M388.701 243.959H87.8994L88.2211 82.7951H388.701V243.959Z" fill="white"/>
<path d="M112.891 76.5149C112.891 77.8082 111.816 78.8565 110.489 78.8565C109.163 78.8565 108.087 77.8082 108.087 76.5149C108.087 75.2216 109.163 74.1733 110.489 74.1733C111.816 74.1733 112.891 75.2216 112.891 76.5149Z" fill="#17282F"/>
<path d="M98.3317 76.5149C98.3317 77.8082 97.257 78.8565 95.9293 78.8565C94.6031 78.8565 93.5269 77.8082 93.5269 76.5149C93.5269 75.2216 94.6031 74.1733 95.9293 74.1733C97.257 74.1733 98.3317 75.2216 98.3317 76.5149Z" fill="#17282F"/>
<path d="M105.32 76.5149C105.32 77.8082 104.245 78.8565 102.918 78.8565C101.591 78.8565 100.516 77.8082 100.516 76.5149C100.516 75.2216 101.591 74.1733 102.918 74.1733C104.245 74.1733 105.32 75.2216 105.32 76.5149Z" fill="#17282F"/>
<path d="M389.022 243.959H87.8994V228.397H389.022V243.959Z" fill="#17282F"/>
<path d="M99.2757 237.979V238.477H96.8781V238.083L98.1706 236.887C98.4861 236.594 98.5419 236.407 98.5419 236.231C98.5419 235.941 98.3373 235.774 97.9377 235.774C97.6215 235.774 97.3562 235.877 97.1757 236.104L96.7527 235.786C97.0035 235.456 97.4547 235.261 97.9887 235.261C98.6949 235.261 99.1503 235.61 99.1503 236.172C99.1503 236.479 99.0628 236.761 98.6115 237.173L97.7427 237.979H99.2757Z" fill="white"/>
<path d="M99.6028 238.133C99.6028 237.906 99.7744 237.757 99.9832 237.757C100.193 237.757 100.365 237.906 100.365 238.133C100.365 238.35 100.193 238.509 99.9832 238.509C99.7744 238.509 99.6028 238.35 99.6028 238.133ZM99.6028 236.407C99.6028 236.18 99.7744 236.031 99.9832 236.031C100.193 236.031 100.365 236.18 100.365 236.407C100.365 236.624 100.193 236.783 99.9832 236.783C99.7744 236.783 99.6028 236.624 99.6028 236.407Z" fill="white"/>
<path d="M101.878 235.306V238.477H101.274V235.8H100.587V235.306H101.878Z" fill="white"/>
<path d="M105.423 237.757H104.846V238.477H104.26V237.757H102.476V237.35L104.079 235.306H104.726L103.215 237.259H104.279V236.62H104.846V237.259H105.423V237.757Z" fill="white"/>
<path d="M357.549 237.586H110.737V236.489H357.549V237.586Z" fill="white"/>
<path d="M187.681 238.233H110.553V235.308H187.681V238.233Z" fill="#F2575D"/>
<path d="M190.171 237.039C190.171 239.059 188.49 240.698 186.416 240.698C184.343 240.698 182.661 239.059 182.661 237.039C182.661 235.017 184.343 233.378 186.416 233.378C188.49 233.378 190.171 235.017 190.171 237.039Z" fill="#F2575D"/>
<path d="M363.18 237.03C363.18 236.7 362.925 236.491 362.53 236.491C362.139 236.491 361.87 236.722 361.87 237.035C361.87 237.333 362.111 237.569 362.544 237.569C362.92 237.569 363.18 237.36 363.18 237.03ZM363.765 237.003C363.765 237.633 363.24 238.032 362.576 238.032C361.689 238.032 361.168 237.474 361.168 236.455C361.168 235.367 361.818 234.77 362.762 234.77C363.087 234.77 363.399 234.837 363.617 234.973L363.394 235.418C363.218 235.304 363.004 235.263 362.776 235.263C362.162 235.263 361.777 235.635 361.777 236.355V236.36C361.972 236.138 362.283 236.029 362.646 236.029C363.287 236.029 363.765 236.409 363.765 237.003Z" fill="white"/>
<path d="M364.059 237.642C364.059 237.415 364.23 237.266 364.44 237.266C364.649 237.266 364.821 237.415 364.821 237.642C364.821 237.859 364.649 238.018 364.44 238.018C364.23 238.018 364.059 237.859 364.059 237.642ZM364.059 235.916C364.059 235.69 364.23 235.539 364.44 235.539C364.649 235.539 364.821 235.69 364.821 235.916C364.821 236.133 364.649 236.291 364.44 236.291C364.23 236.291 364.059 236.133 364.059 235.916Z" fill="white"/>
<path d="M367.32 236.401C367.32 235.635 367.014 235.281 366.567 235.281C366.126 235.281 365.819 235.635 365.819 236.401C365.819 237.166 366.126 237.519 366.567 237.519C367.014 237.519 367.32 237.166 367.32 236.401ZM365.21 236.401C365.21 235.359 365.796 234.77 366.567 234.77C367.344 234.77 367.929 235.359 367.929 236.401C367.929 237.442 367.344 238.032 366.567 238.032C365.796 238.032 365.21 237.442 365.21 236.401Z" fill="white"/>
<path d="M370.444 236.401C370.444 235.635 370.138 235.281 369.691 235.281C369.25 235.281 368.943 235.635 368.943 236.401C368.943 237.166 369.25 237.519 369.691 237.519C370.138 237.519 370.444 237.166 370.444 236.401ZM368.334 236.401C368.334 235.359 368.92 234.77 369.691 234.77C370.468 234.77 371.053 235.359 371.053 236.401C371.053 237.442 370.468 238.032 369.691 238.032C368.92 238.032 368.334 237.442 368.334 236.401Z" fill="white"/>
<path d="M376.308 236.203H375.183V233.042H378.421V234.138H376.308V236.203Z" fill="white"/>
<path d="M378.424 240.33H375.18V237.175H376.305V239.233H378.424V240.33Z" fill="white"/>
<path d="M383.59 240.33H380.352V239.233H382.464V237.167H383.59V240.33Z" fill="white"/>
<path d="M383.593 236.197H382.468V234.138H380.349V233.042H383.593V236.197Z" fill="white"/>
<path d="M129.149 92.3783H111.419L102.554 107.344L111.419 122.309H129.149L138.014 107.344L129.149 92.3783Z" fill="#E7E8E5"/>
<path d="M112.866 110.273C112.074 109.418 111.275 108.554 110.697 107.549C110.12 106.544 109.775 105.371 109.967 104.234C110.079 103.569 110.369 102.936 110.414 102.263C110.478 101.339 110.079 100.372 110.416 99.5055C110.941 98.1504 112.812 97.9409 113.947 97.0048C114.83 96.2762 115.261 95.093 116.232 94.4799C117.082 93.944 118.173 93.9555 119.174 94.0938C120.175 94.2321 121.183 94.4786 122.185 94.3469C122.9 94.2529 123.573 93.9716 124.273 93.8024C124.972 93.6338 125.753 93.5895 126.376 93.942C127 94.2952 127.35 95.1575 126.941 95.737C128.103 95.2145 129.578 96.0969 129.896 97.3043C130.214 98.5124 129.577 99.8164 128.593 100.613C127.609 101.409 126.336 101.779 125.079 102.01C121.521 102.664 117.661 102.295 114.594 100.418" fill="#17282F"/>
<path d="M129.304 113.966C129.185 111.824 128.57 107.434 127.966 103.465C127.316 99.1969 123.414 96.1301 118.997 96.4175L118.558 96.4464C113.845 97.0245 111.716 101.248 112.438 105.825L113.822 122.309H125.325L125.051 119.389C125.051 119.389 129.552 118.403 129.304 113.966Z" fill="#F8A58D"/>
<path d="M125.054 119.324C125.054 119.324 122.196 119.739 119.012 118.068C119.012 118.068 120.633 121.167 125.143 120.472L125.054 119.324Z" fill="#F68260"/>
<path d="M126.502 107.268C126.536 107.601 126.276 107.905 125.919 107.947C125.563 107.989 125.246 107.753 125.211 107.42C125.176 107.086 125.436 106.782 125.792 106.74C126.148 106.698 126.467 106.934 126.502 107.268Z" fill="#17282F"/>
<path d="M127.137 105.694C127.062 105.782 126.545 105.459 125.847 105.507C125.148 105.545 124.659 105.929 124.578 105.85C124.538 105.816 124.609 105.662 124.822 105.488C125.031 105.316 125.396 105.138 125.831 105.112C126.266 105.085 126.643 105.218 126.864 105.364C127.091 105.51 127.174 105.655 127.137 105.694Z" fill="#17282F"/>
<path d="M119.9 107.728C119.935 108.061 119.674 108.365 119.317 108.407C118.961 108.449 118.644 108.213 118.609 107.88C118.573 107.546 118.834 107.242 119.19 107.2C119.547 107.158 119.864 107.394 119.9 107.728Z" fill="#17282F"/>
<path d="M120.275 106.27C120.201 106.358 119.684 106.035 118.985 106.082C118.287 106.119 117.798 106.503 117.716 106.425C117.676 106.391 117.748 106.236 117.961 106.063C118.17 105.891 118.534 105.713 118.97 105.686C119.405 105.661 119.782 105.792 120.004 105.939C120.229 106.086 120.312 106.23 120.275 106.27Z" fill="#17282F"/>
<path d="M123.159 111.156C123.153 111.117 123.582 111.016 124.28 110.882C124.457 110.853 124.624 110.807 124.646 110.686C124.679 110.558 124.592 110.375 124.492 110.179C124.295 109.769 124.089 109.339 123.873 108.889C123.01 107.051 122.373 105.534 122.45 105.502C122.526 105.468 123.287 106.931 124.149 108.769C124.357 109.222 124.556 109.655 124.746 110.069C124.827 110.262 124.959 110.478 124.885 110.745C124.846 110.878 124.722 110.981 124.609 111.019C124.497 111.06 124.397 111.068 124.309 111.079C123.604 111.162 123.164 111.195 123.159 111.156Z" fill="#17282F"/>
<path d="M120.273 103.589C120.217 103.778 119.513 103.736 118.7 103.886C117.883 104.02 117.238 104.296 117.118 104.138C117.064 104.061 117.167 103.879 117.422 103.683C117.675 103.486 118.086 103.288 118.575 103.203C119.063 103.118 119.519 103.165 119.826 103.264C120.135 103.363 120.297 103.499 120.273 103.589Z" fill="#17282F"/>
<path d="M126.744 103.74C126.632 103.903 126.139 103.774 125.56 103.803C124.98 103.814 124.498 103.977 124.374 103.823C124.319 103.748 124.385 103.588 124.59 103.427C124.791 103.268 125.136 103.125 125.535 103.111C125.933 103.098 126.288 103.215 126.5 103.36C126.715 103.506 126.793 103.661 126.744 103.74Z" fill="#17282F"/>
<path d="M113.036 109.083C112.956 109.055 109.848 108.386 110.156 111.41C110.463 114.434 113.826 113.448 113.822 113.361C113.818 113.274 113.036 109.083 113.036 109.083Z" fill="#F8A58D"/>
<path d="M112.447 112.367C112.433 112.359 112.397 112.409 112.31 112.459C112.225 112.507 112.075 112.55 111.906 112.506C111.567 112.42 111.24 111.94 111.169 111.397C111.133 111.122 111.166 110.854 111.244 110.628C111.316 110.398 111.447 110.228 111.609 110.184C111.769 110.131 111.896 110.216 111.943 110.298C111.993 110.378 111.979 110.441 111.996 110.444C112.006 110.451 112.058 110.387 112.02 110.265C112.001 110.206 111.957 110.138 111.878 110.087C111.798 110.035 111.685 110.015 111.572 110.039C111.334 110.078 111.141 110.313 111.055 110.562C110.956 110.813 110.913 111.115 110.953 111.423C111.035 112.03 111.413 112.57 111.875 112.653C112.098 112.687 112.274 112.606 112.36 112.525C112.449 112.441 112.458 112.372 112.447 112.367Z" fill="#F68260"/>
<path d="M127.736 99.3245C127.523 100.528 125.018 101.631 122.941 101.572C121.027 101.518 120.081 100.592 118.69 99.9336C117.809 99.5172 117.809 99.5172 116.614 99.7059C115.648 99.859 115.147 100.97 114.605 101.764C115.638 103.96 115.22 106.513 114.782 108.89C114.734 109.153 114.674 109.437 114.468 109.613C114.119 109.913 113.554 109.733 113.211 109.427C112.662 108.937 112.411 108.21 112.232 107.506C111.822 105.902 111.664 104.223 111.924 102.589C112.185 100.955 112.879 99.3682 114.024 98.1487C115.455 96.625 117.547 95.746 119.663 95.6399C121.781 95.5345 123.906 96.1724 125.679 97.3046C126.502 97.8297 127.271 98.4791 127.736 99.3245Z" fill="#17282F"/>
<path d="M123.616 112.687C123.088 112.448 122.562 112.209 122.035 111.969C121.943 111.928 121.846 111.886 121.747 111.898C121.635 111.913 121.545 111.994 121.473 112.08C121.107 112.513 121.014 113.166 121.297 113.654C121.581 114.143 122.25 114.401 122.782 114.186C123.342 113.96 123.615 113.325 123.659 112.736L123.616 112.687Z" fill="#F68260"/>
<path d="M122.831 114.295C122.856 114.325 122.501 114.543 121.905 114.376C121.617 114.292 121.288 114.076 121.085 113.727C120.877 113.387 120.801 112.9 120.98 112.463C121.066 112.246 121.2 112.055 121.363 111.903C121.446 111.827 121.53 111.765 121.632 111.707C121.732 111.634 121.947 111.624 122.049 111.683C122.41 111.879 122.654 112.046 122.897 112.198C123.36 112.497 123.634 112.704 123.609 112.745C123.584 112.787 123.265 112.657 122.769 112.411C122.481 112.265 122.202 112.123 121.925 111.982C121.859 111.965 121.866 111.964 121.803 111.996C121.74 112.035 121.667 112.09 121.608 112.15C121.484 112.269 121.382 112.42 121.316 112.588C121.178 112.926 121.225 113.29 121.375 113.572C121.523 113.857 121.762 114.045 121.993 114.145C122.468 114.343 122.822 114.239 122.831 114.295Z" fill="#17282F"/>
<path d="M122.332 107.343C122.298 107.345 122.301 107.062 122.163 106.589C122.026 106.125 121.695 105.448 120.976 104.931C120.28 104.413 119.142 104.127 118.045 104.529C116.957 104.897 116.019 106.027 116.032 107.343C116.019 108.66 116.956 109.789 118.045 110.158C119.142 110.56 120.281 110.274 120.976 109.755C121.695 109.238 122.026 108.562 122.163 108.098C122.301 107.624 122.298 107.342 122.332 107.343C122.345 107.343 122.354 107.413 122.358 107.547C122.365 107.681 122.352 107.88 122.299 108.131C122.198 108.625 121.887 109.366 121.13 109.952C120.399 110.538 119.155 110.888 117.933 110.461C116.719 110.071 115.658 108.816 115.673 107.343C115.658 105.87 116.719 104.615 117.933 104.226C119.155 103.799 120.398 104.148 121.129 104.735C121.887 105.32 122.198 106.062 122.299 106.556C122.352 106.806 122.365 107.006 122.358 107.14C122.354 107.274 122.345 107.343 122.332 107.343Z" fill="#17282F"/>
<path d="M130.07 107.047C130.036 107.048 130.039 106.773 129.904 106.312C129.771 105.86 129.447 105.202 128.747 104.699C128.07 104.195 126.962 103.918 125.894 104.308C124.836 104.668 123.923 105.766 123.935 107.047C123.923 108.328 124.836 109.427 125.894 109.786C126.962 110.177 128.07 109.899 128.747 109.395C129.447 108.892 129.771 108.234 129.904 107.782C130.039 107.321 130.036 107.046 130.07 107.047C130.083 107.047 130.092 107.115 130.096 107.246C130.104 107.376 130.092 107.571 130.039 107.815C129.942 108.297 129.639 109.02 128.901 109.592C128.188 110.164 126.975 110.506 125.781 110.089C124.598 109.709 123.562 108.484 123.577 107.047C123.563 105.61 124.599 104.385 125.781 104.006C126.975 103.589 128.188 103.93 128.9 104.502C129.639 105.075 129.942 105.797 130.039 106.279C130.092 106.524 130.104 106.718 130.096 106.849C130.092 106.98 130.083 107.047 130.07 107.047Z" fill="#17282F"/>
<path d="M123.756 106.35C123.686 106.415 123.378 106.222 122.964 106.234C122.549 106.234 122.252 106.44 122.178 106.379C122.083 106.33 122.372 105.895 122.958 105.885C123.543 105.876 123.847 106.298 123.756 106.35Z" fill="#17282F"/>
<path d="M116.048 106.894C116.107 106.972 115.506 107.508 114.704 108.091C113.902 108.674 113.204 109.084 113.145 109.007C113.086 108.929 113.687 108.394 114.489 107.81C115.291 107.227 115.988 106.817 116.048 106.894Z" fill="#17282F"/>
<path d="M179.994 107.191C179.994 107.287 172.024 107.366 162.194 107.366C152.361 107.366 144.393 107.287 144.393 107.191C144.393 107.094 152.361 107.016 162.194 107.016C172.024 107.016 179.994 107.094 179.994 107.191Z" fill="#17282F"/>
<path d="M163.53 110.823C163.53 110.919 159.298 110.997 154.078 110.997C148.857 110.997 144.626 110.919 144.626 110.823C144.626 110.726 148.857 110.648 154.078 110.648C159.298 110.648 163.53 110.726 163.53 110.823Z" fill="#17282F"/>
<path d="M286.651 134.022C286.651 134.022 296.113 138.515 299.436 150.118C302.76 161.721 312.936 191.938 312.936 191.938C312.936 191.938 318.751 198.606 319.375 203.546C319.997 208.483 318.751 220.427 316.883 222.653C315.013 224.88 312.348 224.511 312.348 224.511L287.87 222.249L278.231 159.344L286.651 134.022Z" fill="#F2575D"/>
<path d="M205.706 132.922C205.706 132.922 188.205 138.273 183.844 142.928L198.174 207.909L197.945 228.412H280.922C280.922 227.4 281.666 160.338 281.666 160.338L286.651 134.021L257.159 128.96L251.343 124.507L218.528 126.126L213.543 130.985L205.706 132.922Z" fill="#F2575D"/>
<path d="M198.005 220.638L198.062 217.911L198.032 220.615C198.023 220.622 198.014 220.63 198.005 220.638Z" fill="#A7A9A8"/>
<path d="M198.032 220.615L198.062 217.911L198.217 210.66C202.856 204.196 206.421 197.354 209.117 189.916C209.431 189.051 210.023 188.005 210.898 188.005C210.971 188.005 211.047 188.012 211.125 188.028C211.733 188.15 212.098 188.745 212.354 189.297C214.958 194.912 213.778 201.661 210.695 207.041C207.617 212.41 202.859 216.654 198.032 220.615Z" fill="#CC4341"/>
<path d="M183.844 142.928C183.844 142.928 178.076 150.591 175.681 155.593C173.287 160.595 153.445 202.609 152.247 206.943C151.05 211.278 147.971 224.949 157.037 228.117H175.681L194.396 191.234L195.353 148.424L183.844 142.928Z" fill="#F2575D"/>
<path d="M176.875 201.474C176.851 201.501 176.46 201.116 175.602 200.64C174.744 200.168 173.413 199.626 171.688 199.259C170.827 199.075 169.869 198.932 168.835 198.868C167.802 198.805 166.692 198.823 165.565 199.075C163.304 199.567 161.056 200.96 159.288 202.915C157.493 204.871 156.386 207.178 155.734 209.356C155.073 211.539 154.791 213.585 154.613 215.302C154.438 217.02 154.373 218.42 154.312 219.386C154.283 219.837 154.259 220.206 154.24 220.498C154.22 220.753 154.204 220.887 154.191 220.886C154.179 220.886 154.171 220.752 154.168 220.497C154.169 220.203 154.171 219.835 154.173 219.381C154.191 218.412 154.218 217.01 154.36 215.279C154.507 213.552 154.765 211.485 155.417 209.266C156.058 207.054 157.183 204.682 159.02 202.685C160.828 200.682 163.149 199.252 165.493 198.762C166.662 198.508 167.81 198.502 168.855 198.578C169.906 198.656 170.875 198.815 171.745 199.017C173.486 199.42 174.824 200.007 175.672 200.523C176.096 200.784 176.403 201.019 176.597 201.192C176.789 201.368 176.884 201.465 176.875 201.474Z" fill="#17282F"/>
<path d="M168.034 194.13C168.032 194.106 168.255 194.072 168.661 194.032C169.067 193.983 169.66 193.972 170.39 194.009C171.122 194.04 171.989 194.162 172.934 194.375C173.874 194.605 174.889 194.937 175.903 195.401C176.912 195.878 177.816 196.438 178.591 197.004C179.355 197.587 179.998 198.166 180.484 198.701C180.973 199.231 181.337 199.688 181.553 200.026C181.777 200.359 181.89 200.549 181.869 200.561C181.814 200.6 181.309 199.872 180.3 198.871C179.799 198.368 179.152 197.818 178.393 197.263C177.622 196.722 176.735 196.182 175.748 195.717C174.757 195.263 173.769 194.93 172.853 194.687C171.932 194.462 171.088 194.318 170.37 194.255C168.937 194.121 168.039 194.196 168.034 194.13Z" fill="#17282F"/>
<path d="M184.891 192.108C184.887 192.132 184.579 192.108 184.029 192.044C183.479 191.975 182.68 191.897 181.693 191.826C179.721 191.68 176.978 191.646 173.98 191.991C170.982 192.345 168.325 193.009 166.443 193.604C165.501 193.9 164.744 194.16 164.227 194.353C163.707 194.542 163.414 194.636 163.404 194.614C163.394 194.592 163.668 194.456 164.174 194.227C164.677 193.994 165.424 193.698 166.362 193.369C168.235 192.711 170.91 192 173.938 191.644C176.964 191.295 179.736 191.37 181.716 191.579C182.707 191.683 183.504 191.799 184.049 191.91C184.596 192.016 184.896 192.085 184.891 192.108Z" fill="#17282F"/>
<path d="M237.997 156.212C237.99 156.218 237.926 156.143 237.808 155.994C237.674 155.82 237.507 155.601 237.299 155.33C236.842 154.713 236.212 153.861 235.425 152.799C233.815 150.585 231.571 147.499 228.931 143.869L229.22 143.828C228.215 146.704 227.107 149.877 225.94 153.215L225.866 153.427L225.678 153.309C225.556 153.232 225.424 153.15 225.292 153.066C223.748 152.113 222.387 150.967 221.231 149.725C220.081 148.478 219.126 147.146 218.333 145.819C216.748 143.155 215.792 140.528 215.143 138.302C214.498 136.07 214.161 134.222 213.935 132.948C213.827 132.339 213.74 131.851 213.674 131.484C213.643 131.317 213.608 131.194 213.587 131.109C213.555 131.032 213.539 130.989 213.543 130.985C213.619 130.953 213.822 131.657 214.072 132.924C214.34 134.188 214.715 136.023 215.387 138.233C216.063 140.437 217.036 143.033 218.618 145.656C219.41 146.963 220.357 148.27 221.492 149.495C222.632 150.713 223.969 151.836 225.483 152.771C225.613 152.852 225.743 152.934 225.863 153.009L225.6 153.102C226.778 149.767 227.896 146.598 228.91 143.725L229.015 143.425L229.199 143.685C231.796 147.344 234.004 150.457 235.587 152.688C236.342 153.773 236.947 154.642 237.385 155.271C237.576 155.554 237.729 155.783 237.852 155.964C237.955 156.123 238.005 156.208 237.997 156.212Z" fill="#17282F"/>
<path d="M280.961 224.531C280.982 222.58 281.01 219.986 281.042 216.959C281.053 219.563 281.043 222.124 280.961 224.531Z" fill="#A7A9A8"/>
<path d="M280.961 224.534C273.912 221.403 268.256 215.57 264.394 209.025C260.533 202.481 258.831 194.745 259.599 187.233L281.087 203.341C280.942 207.602 281.024 212.348 281.042 216.959C281.01 219.986 280.981 222.58 280.961 224.531C280.961 224.532 280.961 224.533 280.961 224.534Z" fill="#CC4341"/>
<path d="M258.819 178.453C258.819 178.453 255.805 179.269 258.066 185.287C260.327 191.306 261.08 190.942 262.587 196.572C264.095 202.203 265.852 207.341 268.489 210.523C271.127 213.706 280.922 220.193 280.922 220.193L289.713 212.114C289.713 212.114 288.265 206.094 288.611 202.005C288.959 197.915 289.839 187.879 289.713 186.165C289.587 184.451 287.704 180.29 287.704 180.29V177.443L283.183 163.887C283.183 163.887 280.671 162.786 279.792 166.702L278.284 162.545C278.284 162.545 275.899 162.173 275.271 166.948C274.643 171.721 275.773 178.331 275.773 178.331L274.517 186.654L272.634 192.285L271.001 192.529C271.001 192.529 268.544 191.876 267.198 187.368C265.852 182.86 262.21 177.474 258.819 178.453Z" fill="#F8A58D"/>
<path d="M286.77 199.745C286.76 199.745 286.746 199.638 286.729 199.436C286.712 199.202 286.691 198.906 286.665 198.539C286.62 197.717 286.557 196.582 286.479 195.168C286.344 192.245 286.156 188.178 285.937 183.429L285.975 183.528C285.572 183.057 284.851 182.917 284.196 183.076C283.531 183.233 282.935 183.637 282.567 184.241C281.799 185.445 281.757 187.015 281.517 188.529C281.04 191.96 280.586 195.227 280.172 198.204C279.963 199.691 279.742 201.106 279.445 202.416C279.156 203.727 278.749 204.921 278.355 205.986C277.966 207.055 277.622 208.022 277.41 208.893C277.194 209.762 277.109 210.532 277.126 211.16C277.152 212.424 277.529 213.065 277.473 213.08C277.462 213.084 277.389 212.924 277.263 212.61C277.159 212.291 277.013 211.807 276.986 211.164C276.948 210.524 277.015 209.736 277.214 208.849C277.412 207.961 277.742 206.98 278.115 205.905C278.495 204.832 278.88 203.656 279.154 202.354C279.436 201.055 279.645 199.647 279.845 198.16C280.25 195.182 280.694 191.914 281.161 188.483C281.272 187.717 281.356 186.962 281.493 186.208C281.633 185.459 281.846 184.707 282.269 184.057C282.67 183.397 283.373 182.912 284.118 182.749C284.851 182.569 285.731 182.725 286.232 183.317L286.27 183.362L286.272 183.416C286.44 188.166 286.583 192.236 286.686 195.159C286.723 196.576 286.754 197.712 286.775 198.534C286.779 198.902 286.783 199.199 286.785 199.434C286.784 199.637 286.779 199.744 286.77 199.745Z" fill="#F68260"/>
<path d="M281.964 184.319C281.942 184.328 281.802 184.059 281.593 183.553C281.387 183.047 281.113 182.303 280.857 181.359C280.601 180.416 280.362 179.272 280.226 177.986C280.159 177.344 280.111 176.658 280.188 175.942C280.263 175.234 280.48 174.48 280.946 173.844C281.343 173.292 281.91 172.852 282.554 172.668L282.689 172.63L282.757 172.748C284.031 174.937 285.137 176.87 285.914 178.259C286.271 178.91 286.571 179.458 286.815 179.903C287.02 180.291 287.123 180.509 287.103 180.519C287.085 180.529 286.945 180.333 286.706 179.963C286.437 179.533 286.106 179.002 285.713 178.371C284.881 177.011 283.736 175.101 282.451 172.918L282.654 172.998C282.1 173.159 281.6 173.545 281.239 174.046C280.817 174.621 280.614 175.307 280.537 175.981C280.459 176.655 280.497 177.322 280.555 177.955C280.672 179.226 280.881 180.359 281.103 181.3C281.324 182.241 281.561 182.99 281.725 183.508C281.893 184.024 281.988 184.31 281.964 184.319Z" fill="#F68260"/>
<path d="M279.862 185.421C279.837 185.421 279.81 185.143 279.781 184.64C279.757 184.063 279.727 183.351 279.692 182.51C279.633 180.711 279.575 178.225 279.535 175.479C279.513 172.736 279.404 170.241 279.646 168.434C279.764 167.533 279.948 166.816 280.117 166.337C280.285 165.857 280.422 165.609 280.439 165.616C280.502 165.636 280.056 166.675 279.899 168.46C279.724 170.238 279.872 172.726 279.893 175.474C279.934 178.22 279.951 180.707 279.945 182.507C279.936 183.349 279.927 184.061 279.92 184.638C279.906 185.142 279.886 185.421 279.862 185.421Z" fill="#F68260"/>
<path d="M272.428 207.992C272.377 207.951 272.928 207.32 273.608 206.175C273.952 205.606 274.302 204.895 274.63 204.085C274.944 203.27 275.225 202.349 275.414 201.36C275.591 200.369 275.658 199.411 275.658 198.54C275.641 197.668 275.568 196.883 275.45 196.233C275.223 194.929 274.934 194.15 274.997 194.129C275.02 194.122 275.107 194.31 275.246 194.659C275.393 195.007 275.552 195.53 275.698 196.187C275.851 196.843 275.952 197.643 275.988 198.533C276.008 199.425 275.95 200.408 275.768 201.423C275.574 202.435 275.275 203.376 274.938 204.204C274.585 205.026 274.203 205.74 273.825 206.303C273.452 206.868 273.115 207.304 272.853 207.58C272.597 207.861 272.448 208.007 272.428 207.992Z" fill="#F68260"/>
<path d="M287.861 203.781L295.49 206.361C295.49 206.361 302.774 202.689 307.797 206.361C312.82 210.033 317.184 219.711 315.802 223.628C315.802 223.628 312.336 227.801 309.698 228.412C307.061 229.024 296.809 226.604 292.543 225.728C288.266 224.851 280.922 220.193 280.922 220.193L287.861 203.781Z" fill="#F8A58D"/>
<path d="M288.798 214.736C288.774 214.736 288.745 214.501 288.716 214.077C288.686 213.573 288.65 212.976 288.608 212.28C288.527 210.763 288.422 208.666 288.39 206.345C288.354 204.023 288.422 201.917 288.566 200.399C288.634 199.639 288.719 199.027 288.797 198.608C288.876 198.188 288.93 197.958 288.955 197.962C289.011 197.971 288.892 198.903 288.819 200.416C288.741 201.929 288.714 204.024 288.75 206.34C288.792 208.61 288.832 210.661 288.862 212.273C288.87 213.033 288.869 213.649 288.856 214.074C288.842 214.5 288.823 214.736 288.798 214.736Z" fill="#F68260"/>
<path d="M313.954 206.07C313.897 206.122 313.116 205.064 311.417 203.84C309.745 202.62 307.03 201.318 303.815 201.142C300.598 200.972 297.752 201.976 295.953 203.01C294.126 204.044 293.231 205.011 293.18 204.954C293.165 204.94 293.376 204.692 293.809 204.29C294.239 203.887 294.913 203.349 295.823 202.797C297.619 201.69 300.527 200.618 303.835 200.793C307.14 200.974 309.909 202.35 311.57 203.643C312.412 204.289 313.021 204.895 313.404 205.342C313.788 205.789 313.97 206.058 313.954 206.07Z" fill="#17282F"/>
<path d="M312.973 199.87C312.925 199.942 311.906 198.94 309.799 198.164C307.727 197.372 304.512 197.007 301.211 197.913C299.564 198.361 298.057 199.003 296.769 199.715C295.482 200.433 294.407 201.218 293.552 201.93C292.695 202.642 292.041 203.263 291.592 203.696C291.143 204.13 290.894 204.369 290.874 204.352C290.856 204.336 291.072 204.067 291.491 203.603C291.911 203.139 292.542 202.487 293.385 201.744C294.227 201 295.302 200.183 296.604 199.436C297.907 198.695 299.434 198.033 301.114 197.576C304.496 196.647 307.797 197.064 309.892 197.934C310.95 198.357 311.738 198.844 312.24 199.226C312.498 199.407 312.672 199.582 312.798 199.688C312.922 199.799 312.982 199.861 312.973 199.87Z" fill="#17282F"/>
<path d="M313.037 194.497C313.017 194.566 311.684 194.169 309.468 193.876C308.362 193.723 307.033 193.637 305.558 193.635C304.083 193.656 302.463 193.774 300.784 194.053C299.108 194.349 297.543 194.778 296.15 195.248C294.764 195.742 293.544 196.264 292.558 196.777C290.578 197.788 289.464 198.605 289.422 198.547C289.408 198.527 289.679 198.317 290.186 197.953C290.437 197.766 290.75 197.547 291.133 197.321C291.513 197.091 291.936 196.81 292.438 196.559C293.418 196.014 294.64 195.461 296.037 194.946C297.441 194.452 299.024 194.009 300.722 193.709C302.422 193.426 304.065 193.316 305.558 193.312C307.051 193.333 308.393 193.445 309.505 193.631C310.065 193.701 310.56 193.824 310.998 193.913C311.437 193.999 311.809 194.1 312.11 194.191C312.714 194.367 313.043 194.474 313.037 194.497Z" fill="#17282F"/>
<path d="M254.589 128.739C254.589 128.739 254.942 129.383 255.117 130.716C255.305 132.041 255.279 134.026 254.827 136.484C254.601 137.713 254.295 139.063 253.841 140.504C253.367 141.947 252.649 143.423 251.838 144.971C250.195 148.06 248.127 151.426 245.732 155.018L245.453 155.437L245.452 154.935C245.448 152.563 245.444 150.071 245.44 147.484L245.708 147.61C243.657 149.223 241.498 150.922 239.274 152.672L239.33 152.592C237.839 157.198 236.858 162.327 236.469 167.666C235.839 175.839 236.347 183.655 236.742 190.746C237.081 197.847 237.303 204.242 237.53 209.611C237.749 214.981 237.947 219.325 238.113 222.325C238.203 223.811 238.274 224.972 238.323 225.779C238.349 226.16 238.369 226.459 238.385 226.676C238.396 226.879 238.393 226.983 238.393 226.983C238.393 226.983 238.371 226.881 238.347 226.68C238.325 226.463 238.292 226.165 238.251 225.784C238.175 224.996 238.076 223.833 237.974 222.333C237.765 219.334 237.527 214.991 237.277 209.622C237.03 204.249 236.737 197.858 236.411 190.763C235.999 183.677 235.478 175.844 236.11 167.64C236.502 162.279 237.492 157.122 239 152.488L239.016 152.441L239.057 152.408C241.284 150.664 243.447 148.969 245.501 147.36L245.77 147.149L245.769 147.484C245.765 150.071 245.762 152.563 245.758 154.935L245.477 154.853C250.21 147.699 254.06 141.483 254.652 136.453C255.127 134.012 255.18 132.045 255.024 130.727C254.958 130.066 254.825 129.572 254.741 129.239C254.633 128.913 254.589 128.739 254.589 128.739Z" fill="#17282F"/>
<path d="M242.232 215.361L241.985 215.353C240.988 215.381 240.1 216.269 240.097 217.241C240.095 218.213 240.977 219.107 241.973 219.14C242.97 219.174 243.914 218.342 243.98 217.373C244.046 216.402 243.224 215.457 242.232 215.361Z" fill="white"/>
<path d="M242.232 189.48L241.985 189.472C240.988 189.5 240.1 190.388 240.097 191.36C240.095 192.331 240.977 193.226 241.973 193.259C242.97 193.293 243.914 192.462 243.98 191.492C244.046 190.522 243.224 189.575 242.232 189.48Z" fill="white"/>
<path d="M241.973 166.325C242.97 166.36 243.914 165.528 243.98 164.558C244.046 163.588 243.224 162.642 242.232 162.547L241.985 162.539C240.988 162.566 240.1 163.455 240.097 164.427C240.095 165.399 240.977 166.292 241.973 166.325Z" fill="white"/>
<path d="M212.229 98.4131C209.813 95.807 207.376 93.172 205.615 90.1072C203.855 87.043 202.805 83.4666 203.387 80.0002C203.728 77.9736 204.612 76.043 204.753 73.9935C204.946 71.1731 203.73 68.2265 204.756 65.5828C206.359 61.4516 212.065 60.813 215.523 57.9591C218.218 55.7364 219.53 52.1276 222.493 50.2588C225.082 48.6264 228.408 48.6619 231.461 49.0823C234.515 49.504 237.587 50.2548 240.643 49.8539C242.821 49.5685 244.873 48.7096 247.008 48.1946C249.141 47.6795 251.522 47.5439 253.422 48.6203C255.323 49.6968 256.391 52.3264 255.143 54.0918C258.685 52.4997 263.184 55.1904 264.153 58.8723C265.122 62.5542 263.182 66.5316 260.181 68.9598C257.18 71.388 253.3 72.5168 249.467 73.2213C238.617 75.2143 226.848 74.0895 217.498 68.3662" fill="#17282F"/>
<path d="M250.371 133.966C249.842 129.964 249.408 126.623 249.382 126.209C249.382 126.209 263.106 123.203 262.35 109.676C261.985 103.139 260.107 89.7344 258.265 77.627C256.286 64.6238 244.378 55.2904 230.922 56.1674L229.584 56.2547C215.213 58.0167 208.72 70.8971 210.924 84.8505L218.679 131.635C218.679 131.635 221.988 141.985 229.065 143.777L237.997 156.212L239.474 150.859L246.131 145.21C246.131 145.21 247.658 143.599 249.413 140.447C250.848 137.872 250.546 135.223 250.371 133.966Z" fill="#F8A58D"/>
<path d="M249.391 126.012C249.391 126.012 240.675 127.278 230.969 122.183C230.969 122.183 235.91 131.631 249.663 129.512L249.391 126.012Z" fill="#F68260"/>
<path d="M253.805 89.2502C253.911 90.2668 253.116 91.1935 252.029 91.3218C250.943 91.4494 249.975 90.7315 249.868 89.7148C249.762 88.6975 250.556 87.7701 251.641 87.6419C252.729 87.513 253.698 88.2328 253.805 89.2502Z" fill="#17282F"/>
<path d="M255.742 84.455C255.512 84.7216 253.939 83.7378 251.808 83.8822C249.677 83.9963 248.187 85.1674 247.938 84.9284C247.817 84.8223 248.036 84.3522 248.683 83.8244C249.32 83.3 250.432 82.7574 251.759 82.6761C253.088 82.5962 254.237 82.9998 254.911 83.4457C255.601 83.8929 255.855 84.3334 255.742 84.455Z" fill="#17282F"/>
<path d="M233.674 90.6524C233.781 91.6697 232.986 92.5964 231.899 92.7247C230.813 92.8529 229.845 92.1344 229.737 91.1171C229.631 90.1011 230.426 89.173 231.512 89.0441C232.599 88.9158 233.567 89.6364 233.674 90.6524Z" fill="#17282F"/>
<path d="M234.821 86.2077C234.593 86.475 233.016 85.4912 230.887 85.6356C228.757 85.7504 227.266 86.9202 227.017 86.6812C226.896 86.5757 227.112 86.1057 227.764 85.5779C228.4 85.0527 229.511 84.5108 230.839 84.4289C232.167 84.3503 233.316 84.7532 233.992 85.1991C234.679 85.6464 234.934 86.0875 234.821 86.2077Z" fill="#17282F"/>
<path d="M243.612 101.107C243.594 100.99 244.903 100.68 247.031 100.273C247.571 100.183 248.079 100.043 248.146 99.6756C248.248 99.2841 247.981 98.7267 247.675 98.1271C247.075 96.8774 246.447 95.5666 245.788 94.1927C243.159 88.5889 241.217 83.9662 241.449 83.8648C241.682 83.7641 244.002 88.2242 246.631 93.8287C247.267 95.2114 247.874 96.5295 248.451 97.7906C248.699 98.3802 249.1 99.041 248.877 99.8542C248.758 100.26 248.378 100.573 248.035 100.688C247.694 100.814 247.388 100.84 247.12 100.874C244.968 101.127 243.628 101.224 243.612 101.107Z" fill="#17282F"/>
<path d="M234.813 78.0319C234.642 78.6101 232.495 78.4812 230.015 78.9385C227.525 79.3461 225.559 80.1909 225.192 79.7067C225.028 79.4737 225.343 78.919 226.12 78.3193C226.891 77.721 228.145 77.118 229.634 76.8575C231.124 76.5996 232.515 76.7426 233.45 77.0441C234.392 77.3443 234.885 77.758 234.813 78.0319Z" fill="#17282F"/>
<path d="M254.545 78.4946C254.202 78.9902 252.7 78.5967 250.934 78.6887C249.165 78.7202 247.696 79.2185 247.318 78.7471C247.151 78.5174 247.353 78.0292 247.976 77.5404C248.589 77.0535 249.641 76.6197 250.857 76.5761C252.071 76.5351 253.152 76.8937 253.799 77.3369C254.456 77.7808 254.694 78.2535 254.545 78.4946Z" fill="#17282F"/>
<path d="M212.744 94.7843C212.501 94.6997 203.028 92.659 203.965 101.88C204.902 111.099 215.153 108.094 215.143 107.828C215.133 107.563 212.744 94.7843 212.744 94.7843Z" fill="#F8A58D"/>
<path d="M210.951 104.801C210.906 104.775 210.797 104.929 210.531 105.081C210.272 105.228 209.813 105.357 209.302 105.224C208.267 104.963 207.268 103.498 207.053 101.841C206.943 101.004 207.043 100.187 207.281 99.4958C207.5 98.7941 207.901 98.279 208.395 98.1434C208.884 97.9829 209.27 98.2414 209.412 98.4899C209.565 98.7356 209.524 98.925 209.576 98.9364C209.604 98.9572 209.763 98.7625 209.648 98.3891C209.59 98.2098 209.457 98.003 209.217 97.8472C208.971 97.6894 208.628 97.6296 208.282 97.7002C207.557 97.8197 206.967 98.5375 206.705 99.2963C206.404 100.062 206.273 100.981 206.395 101.921C206.645 103.773 207.797 105.418 209.204 105.671C209.886 105.776 210.422 105.527 210.686 105.282C210.956 105.026 210.985 104.814 210.951 104.801Z" fill="#F68260"/>
<path d="M257.568 65.0296C256.918 68.7001 249.281 72.0624 242.948 71.8831C237.111 71.7172 234.227 68.8935 229.986 66.887C227.301 65.6178 227.301 65.6178 223.657 66.1947C220.712 66.6614 219.183 70.0485 217.529 72.47C220.68 79.1643 219.407 86.9485 218.071 94.1975C217.923 94.9986 217.741 95.8635 217.114 96.4014C216.05 97.3153 214.326 96.7674 213.28 95.8347C211.605 94.3405 210.843 92.1245 210.294 89.9777C209.044 85.0857 208.564 79.9641 209.357 74.9835C210.151 70.0022 212.265 65.1639 215.757 61.4457C220.121 56.7988 226.499 54.1202 232.954 53.7965C239.408 53.4728 245.892 55.4202 251.297 58.8718C253.806 60.4734 256.151 62.4536 257.568 65.0296Z" fill="#17282F"/>
<path d="M245.005 105.778C243.398 105.047 241.791 104.317 240.183 103.586C239.906 103.46 239.609 103.331 239.306 103.37C238.965 103.415 238.691 103.664 238.472 103.923C237.354 105.243 237.071 107.236 237.938 108.726C238.804 110.215 240.84 111.002 242.463 110.347C244.172 109.657 245.003 107.722 245.136 105.924L245.005 105.778Z" fill="#F68260"/>
<path d="M242.614 110.679C242.627 110.72 242.391 110.855 241.909 110.953C241.43 111.042 240.69 111.078 239.834 110.805C238.986 110.539 238.03 109.897 237.439 108.865C236.838 107.86 236.621 106.44 237.146 105.158C237.396 104.521 237.787 103.959 238.265 103.515C238.506 103.29 238.757 103.106 239.047 102.938C239.197 102.856 239.386 102.777 239.603 102.766C239.816 102.754 240.007 102.807 240.163 102.871C240.478 103.008 240.681 103.156 240.914 103.286C241.138 103.421 241.358 103.552 241.571 103.68C241.987 103.934 242.378 104.173 242.746 104.396C244.175 105.281 245.034 105.87 244.985 105.953C244.935 106.037 243.985 105.598 242.49 104.823C242.11 104.623 241.703 104.408 241.272 104.181C241.053 104.063 240.828 103.942 240.596 103.818C240.366 103.698 240.116 103.545 239.915 103.468C239.694 103.394 239.598 103.399 239.387 103.517C239.177 103.647 238.948 103.817 238.753 104.007C238.357 104.389 238.028 104.869 237.815 105.409C237.374 106.49 237.533 107.667 238.019 108.556C238.501 109.459 239.277 110.046 240.011 110.341C240.752 110.641 241.423 110.686 241.879 110.683C242.338 110.672 242.599 110.628 242.614 110.679Z" fill="#17282F"/>
<path d="M241.093 89.4819C241.037 89.4866 241.1 88.623 240.716 87.1471C240.336 85.6999 239.346 83.5719 237.113 81.926C236.008 81.1222 234.615 80.4393 233.009 80.1653C231.414 79.9021 229.615 79.9525 227.904 80.589C227.043 80.8818 226.212 81.323 225.449 81.8804C224.677 82.427 223.976 83.1052 223.399 83.8916C222.205 85.4394 221.533 87.4298 221.513 89.4799C221.532 91.532 222.204 93.5224 223.398 95.0716C223.976 95.8573 224.676 96.5362 225.449 97.0828C226.211 97.6401 227.042 98.0813 227.904 98.3741C229.615 99.0107 231.414 99.0617 233.009 98.7978C234.615 98.5239 236.008 97.8416 237.114 97.0371C239.347 95.3906 240.336 93.2625 240.716 91.8161C241.1 90.3401 241.037 89.4772 241.093 89.4819C241.099 89.4819 241.102 89.5343 241.102 89.6377C241.101 89.7626 241.099 89.913 241.097 90.0977C241.098 90.3005 241.087 90.5503 241.036 90.8431C240.997 91.1365 240.959 91.4777 240.852 91.849C240.69 92.6031 240.342 93.4976 239.782 94.4484C239.218 95.3953 238.396 96.3878 237.268 97.2339C236.143 98.0719 234.717 98.7878 233.064 99.0832C231.423 99.368 229.566 99.3263 227.791 98.677C226.899 98.3781 226.037 97.9255 225.245 97.3507C224.443 96.7873 223.716 96.0869 223.115 95.2744C221.874 93.6722 221.172 91.6066 221.154 89.4799C221.173 87.3546 221.875 85.2896 223.116 83.6881C223.717 82.8755 224.443 82.1752 225.245 81.6124C226.037 81.0383 226.899 80.585 227.791 80.2862C229.565 79.6375 231.423 79.5952 233.064 79.8806C234.717 80.1754 236.143 80.8912 237.268 81.7293C238.396 82.5747 239.218 83.5672 239.782 84.514C240.342 85.4649 240.69 86.3594 240.851 87.1135C240.959 87.4855 240.997 87.8266 241.036 88.1201C241.087 88.4129 241.098 88.6633 241.097 88.8655C241.099 89.0501 241.101 89.2005 241.102 89.3254C241.102 89.4289 241.099 89.4819 241.093 89.4819Z" fill="#17282F"/>
<path d="M264.686 88.5782C264.632 88.5829 264.693 87.7414 264.318 86.3037C263.948 84.8942 262.983 82.8213 260.808 81.2184C259.73 80.4347 258.373 79.7699 256.809 79.504C255.255 79.2475 253.503 79.2972 251.837 79.917C250.998 80.2017 250.189 80.6321 249.446 81.1747C248.694 81.7072 248.011 82.368 247.449 83.1335C246.286 84.6411 245.632 86.5797 245.612 88.5768C245.631 90.5746 246.286 92.5132 247.448 94.0221C248.011 94.7876 248.694 95.4491 249.445 95.9809C250.189 96.5242 250.998 96.9546 251.837 97.2394C253.504 97.8592 255.256 97.9089 256.809 97.6523C258.374 97.3857 259.731 96.7209 260.808 95.938C262.983 94.3344 263.948 92.2614 264.318 90.8519C264.693 89.4149 264.632 88.5735 264.686 88.5782C264.699 88.5782 264.7 88.7843 264.692 89.1785C264.693 89.3759 264.682 89.6197 264.633 89.9051C264.595 90.1905 264.558 90.5235 264.454 90.8855C264.119 92.3245 263.175 94.462 260.962 96.1347C259.866 96.9513 258.475 97.6496 256.864 97.9377C255.264 98.2157 253.454 98.1748 251.724 97.5422C250.854 97.2508 250.014 96.8089 249.241 96.2495C248.46 95.7002 247.751 95.0173 247.165 94.2249C245.956 92.6636 245.271 90.6498 245.254 88.5768C245.272 86.5045 245.956 84.4913 247.165 82.93C247.752 82.1383 248.461 81.4554 249.242 80.9068C250.014 80.3467 250.854 79.9056 251.724 79.6141C253.454 78.9815 255.264 78.9412 256.863 79.2186C258.475 79.506 259.865 80.2044 260.961 81.0216C263.174 82.6937 264.119 84.8311 264.454 86.2708C264.558 86.6328 264.595 86.9652 264.633 87.2513C264.682 87.5366 264.693 87.7804 264.692 87.9778C264.7 88.372 264.699 88.5782 264.686 88.5782Z" fill="#17282F"/>
<path d="M245.433 86.4542C245.394 86.4932 245.167 86.3058 244.747 86.1124C244.332 85.919 243.711 85.7297 243.012 85.7418C242.313 85.7512 241.699 85.9627 241.292 86.1715C240.881 86.3804 240.662 86.5771 240.622 86.5395C240.588 86.5133 240.749 86.2454 241.16 85.9607C241.564 85.6786 242.231 85.4026 243.006 85.3919C243.781 85.3785 244.456 85.6303 244.871 85.8969C245.293 86.1655 245.464 86.4267 245.433 86.4542Z" fill="#17282F"/>
<path d="M221.929 88.1133C221.989 88.1906 220.055 89.6954 217.612 91.4736C215.168 93.2518 213.139 94.6304 213.08 94.5532C213.021 94.476 214.953 92.9718 217.397 91.1929C219.841 89.4154 221.87 88.0361 221.929 88.1133Z" fill="#17282F"/>
<path d="M225.47 156.764C224.908 156.764 224.343 156.421 223.873 156.074C216.415 150.582 212.858 141.04 213.762 131.971C213.811 132.252 213.869 132.578 213.935 132.948C214.16 134.222 214.498 136.07 215.143 138.302C215.792 140.528 216.748 143.155 218.333 145.819C219.126 147.146 220.081 148.478 221.231 149.725C222.387 150.966 223.748 152.113 225.291 153.066C225.424 153.15 225.556 153.232 225.678 153.309L225.866 153.427L225.94 153.215C227.067 149.991 228.14 146.921 229.116 144.124C229.152 144.173 229.189 144.223 229.224 144.272C229.754 148.272 229.019 152.133 226.94 155.641C226.684 156.073 226.375 156.523 225.894 156.692C225.754 156.742 225.612 156.764 225.47 156.764Z" fill="#CC4341"/>
<path d="M225.866 153.427L225.678 153.309C225.556 153.232 225.424 153.149 225.292 153.066C223.748 152.113 222.387 150.966 221.231 149.725C220.081 148.478 219.126 147.146 218.333 145.819C216.748 143.155 215.792 140.528 215.143 138.302C214.498 136.069 214.161 134.221 213.935 132.948C213.869 132.578 213.811 132.252 213.762 131.971C213.767 131.921 213.772 131.869 213.777 131.819C215.163 141.07 219.236 149.292 225.77 153.159C226.969 149.971 227.988 146.979 229.176 143.931C229.193 144.045 229.21 144.159 229.224 144.272C229.189 144.223 229.152 144.173 229.117 144.124C228.14 146.921 227.067 149.991 225.94 153.215L225.866 153.427Z" fill="#0F191D"/>
<path d="M245.579 159.652L244.667 150.582L239.669 152.361C241.657 150.797 243.592 149.275 245.441 147.82C245.445 150.287 245.448 152.665 245.452 154.935L245.452 155.437L245.732 155.018C248.127 151.426 250.195 148.059 251.838 144.97C252.649 143.423 253.367 141.947 253.841 140.504C254.295 139.062 254.6 137.713 254.827 136.484C255.174 134.591 255.27 132.98 255.209 131.734C255.198 131.246 255.167 130.985 255.167 130.985C255.167 130.985 256.432 139.478 253.974 144.291C251.517 149.104 245.579 159.652 245.579 159.652Z" fill="#CC4341"/>
<path d="M245.453 155.438L245.452 154.935C245.449 152.666 245.445 150.287 245.441 147.82C243.593 149.275 241.657 150.797 239.669 152.361L239.165 152.541L245.606 147.484V154.936L250.096 147.821C254.928 140.157 255.257 133.839 255.21 131.734C255.271 132.98 255.175 134.591 254.828 136.484C254.601 137.713 254.296 139.063 253.842 140.504C253.368 141.947 252.65 143.423 251.838 144.971C250.196 148.06 248.127 151.426 245.733 155.018L245.453 155.438Z" fill="#0F191D"/>
<path d="M155.867 207.91L155.774 207.897C155.496 205.117 157.009 202.352 159.239 200.598C161.47 198.843 164.328 197.993 167.176 197.67C167.95 197.582 168.735 197.532 169.519 197.532C171.463 197.532 173.4 197.84 175.149 198.645C177.603 199.775 179.496 201.322 179.826 203.948C178.933 203.02 177.942 202.187 176.876 201.473C176.882 201.463 176.787 201.367 176.597 201.192C176.404 201.019 176.096 200.784 175.673 200.523C174.824 200.007 173.486 199.42 171.745 199.017C170.875 198.815 169.906 198.656 168.855 198.578C168.496 198.552 168.124 198.535 167.743 198.535C167.017 198.535 166.26 198.596 165.493 198.762C163.149 199.252 160.828 200.681 159.02 202.685C157.554 204.279 156.542 206.111 155.867 207.91ZM176.705 201.36C175.855 200.806 174.959 200.326 174.029 199.931C174.658 200.166 175.185 200.411 175.602 200.64C176.153 200.947 176.512 201.215 176.705 201.36Z" fill="#CC4341"/>
<path d="M156.05 207.935L155.867 207.909C156.542 206.111 157.554 204.279 159.02 202.685C160.828 200.681 163.149 199.252 165.493 198.762C166.26 198.596 167.017 198.535 167.743 198.535C168.124 198.535 168.496 198.552 168.855 198.578C169.906 198.655 170.875 198.815 171.745 199.017C173.486 199.42 174.824 200.006 175.672 200.523C176.096 200.783 176.403 201.018 176.597 201.192C176.787 201.367 176.882 201.463 176.876 201.473C176.819 201.435 176.762 201.397 176.705 201.36C176.512 201.215 176.153 200.947 175.601 200.64C175.185 200.411 174.658 200.166 174.029 199.931C172.133 199.127 170.093 198.68 168.011 198.68C167.581 198.68 167.147 198.699 166.714 198.738C161.789 199.185 157.97 202.871 156.05 207.935Z" fill="#0F191D"/>
<path d="M316.713 211.114C315.902 209.382 315.064 207.623 313.952 206.071C313.953 206.071 313.953 206.07 313.954 206.07C313.97 206.058 313.788 205.789 313.404 205.342C313.357 205.288 313.307 205.231 313.253 205.172C312.938 204.798 312.602 204.441 312.239 204.105C310.31 202.313 307.744 201.237 305.093 200.921C304.683 200.86 304.263 200.816 303.835 200.793C303.594 200.78 303.355 200.774 303.119 200.774C300.633 200.774 298.412 201.454 296.776 202.27C296.164 202.537 295.568 202.837 294.991 203.166L293.941 203.997C296.823 201.452 300.709 200.037 304.592 200.037C305.466 200.037 306.34 200.109 307.202 200.255C309.875 200.71 312.465 201.885 314.309 203.825C316.153 205.764 317.172 208.509 316.713 211.114Z" fill="#CC4341"/>
<path d="M313.952 206.071C313.73 205.763 313.499 205.462 313.253 205.172C313.306 205.231 313.357 205.288 313.403 205.342C313.788 205.789 313.97 206.058 313.954 206.07C313.953 206.07 313.953 206.071 313.952 206.071ZM296.775 202.27C298.412 201.454 300.633 200.774 303.119 200.774C303.355 200.774 303.594 200.78 303.834 200.793C304.263 200.816 304.683 200.86 305.093 200.921C304.67 200.871 304.247 200.839 303.822 200.828C303.687 200.824 303.553 200.822 303.418 200.822C301.134 200.822 298.866 201.354 296.775 202.27Z" fill="#0F191D"/>
<path d="M278.836 161.693C278.813 161.684 278.902 161.424 279.081 160.961C279.294 160.43 279.556 159.778 279.864 159.009C280.531 157.364 281.445 155.089 282.411 152.561C283.376 150.031 284.209 147.727 284.807 146.057C285.09 145.278 285.33 144.618 285.524 144.081C285.698 143.616 285.805 143.362 285.829 143.369C285.853 143.377 285.791 143.645 285.657 144.122C285.525 144.601 285.317 145.288 285.049 146.134C284.51 147.826 283.714 150.148 282.747 152.683C281.779 155.215 280.827 157.48 280.099 159.103C279.735 159.915 279.431 160.568 279.21 161.015C278.991 161.461 278.858 161.704 278.836 161.693Z" fill="#17282F"/>
<path d="M191.977 162.353C191.88 162.372 191.131 159.176 190.305 155.216C189.478 151.254 188.887 148.028 188.984 148.009C189.082 147.989 189.83 151.184 190.657 155.146C191.483 159.107 192.074 162.334 191.977 162.353Z" fill="#17282F"/>
<path d="M190.677 202.298C190.895 202.405 188.154 181.372 188.154 181.372C188.154 181.372 189.884 165.411 190.857 164.673L190.882 159.041C190.882 159.041 193.56 157.46 194.279 160.013C194.279 160.013 196.654 158.003 197.069 162.787C197.484 167.572 197.571 172.462 197.571 172.462L202.857 185.344L203.728 185.773C203.728 185.773 204.863 175.681 205.524 174.196C206.184 172.71 206.637 169.099 209.142 169.64C211.648 170.183 211.857 172.203 211.406 175.496C210.956 178.789 210.395 182.187 210.603 184.314C210.813 186.441 211.804 191.121 211.499 194.84C211.195 198.558 209.106 202.482 206.912 205.236C204.719 207.99 200.53 213.687 198.252 215.403C197.457 216.002 190.677 202.298 190.677 202.298Z" fill="#F8A58D"/>
<path d="M193.346 185.182C193.321 185.18 193.328 184.86 193.361 184.282C193.406 183.636 193.463 182.817 193.533 181.839C193.694 179.776 193.942 176.931 194.237 173.789C194.389 172.223 194.534 170.731 194.667 169.361C194.736 168.685 194.779 168.044 194.691 167.463C194.608 166.881 194.374 166.376 194.032 166.012C193.334 165.274 192.437 165.088 191.874 165.088C191.291 165.084 190.987 165.239 190.975 165.201C190.97 165.19 191.043 165.152 191.189 165.09C191.338 165.039 191.565 164.968 191.869 164.952C192.46 164.91 193.426 165.06 194.218 165.843C194.608 166.232 194.884 166.796 194.985 167.418C195.093 168.041 195.056 168.709 194.996 169.39C194.872 170.76 194.737 172.254 194.594 173.821C194.299 176.963 194.011 179.805 193.786 181.862C193.671 182.835 193.575 183.651 193.499 184.294C193.424 184.868 193.37 185.184 193.346 185.182Z" fill="#F68260"/>
<path d="M196.188 176.58C196.239 176.623 195.65 177.128 195.251 178.241C194.826 179.338 194.672 180.985 194.373 182.781C194.089 184.579 193.811 186.204 193.592 187.378C193.373 188.551 193.214 189.273 193.165 189.265C193.116 189.257 193.187 188.523 193.342 187.339C193.496 186.156 193.734 184.525 194.018 182.727C194.317 180.94 194.509 179.279 195.015 178.151C195.254 177.588 195.546 177.176 195.779 176.924C196.01 176.669 196.175 176.568 196.188 176.58Z" fill="#F68260"/>
<path d="M194.245 159.736C194.269 159.732 194.334 159.968 194.429 160.398C194.525 160.827 194.645 161.454 194.777 162.229C195.04 163.781 195.328 165.939 195.51 168.333C195.691 170.729 195.731 172.904 195.704 174.477C195.692 175.263 195.668 175.899 195.637 176.338C195.608 176.777 195.579 177.019 195.555 177.019C195.502 177.017 195.49 176.046 195.451 174.478C195.413 172.91 195.333 170.745 195.153 168.359C194.971 165.974 194.724 163.821 194.525 162.264C194.328 160.708 194.192 159.745 194.245 159.736Z" fill="#F68260"/>
<path d="M209.493 179.456C209.545 179.535 208.72 179.908 207.713 179.603C206.701 179.309 206.231 178.55 206.319 178.512C206.399 178.446 206.928 179.015 207.817 179.268C208.699 179.542 209.465 179.356 209.493 179.456Z" fill="#F68260"/>
<path d="M190.975 199.683L177.01 205.402H168.69C168.69 205.402 160.462 207.906 159.195 215.424C157.929 222.943 157.748 226.813 161.365 227.743C164.983 228.673 175.202 228.776 180.266 227.138C185.33 225.499 198.596 215.066 198.596 215.066L199.874 207.518L190.975 199.683Z" fill="#F8A58D"/>
<path d="M194.245 207.992C194.227 208.008 194.087 207.882 193.848 207.636C193.6 207.4 193.294 207.009 192.941 206.512C192.25 205.508 191.494 203.984 190.991 202.207C190.469 200.434 190.246 198.777 190.13 197.583C190.024 196.384 190.03 195.64 190.076 195.637C190.129 195.634 190.213 196.371 190.382 197.554C190.562 198.734 190.821 200.367 191.336 202.111C191.832 203.86 192.533 205.362 193.156 206.38C193.783 207.397 194.294 207.948 194.245 207.992Z" fill="#F68260"/>
<path d="M200.324 210.378C200.25 210.351 200.878 209.317 201.12 207.46C201.236 206.539 201.225 205.418 200.955 204.22C200.688 203.02 200.1 201.784 199.245 200.631C198.396 199.472 197.442 198.462 196.638 197.487C195.826 196.516 195.176 195.565 194.75 194.705C194.322 193.844 194.124 193.085 194.051 192.558C193.98 192.028 194.008 191.734 194.027 191.734C194.097 191.718 194.073 192.934 194.977 194.594C195.421 195.418 196.076 196.333 196.894 197.282C197.704 198.238 198.669 199.243 199.537 200.428C200.412 201.606 201.022 202.907 201.278 204.151C201.54 205.395 201.523 206.552 201.371 207.494C201.22 208.439 200.953 209.172 200.731 209.656C200.625 209.901 200.522 210.081 200.45 210.202C200.379 210.323 200.336 210.384 200.324 210.378Z" fill="#F68260"/>
<path d="M178.797 177.605C178.709 177.65 177.185 174.948 175.395 171.571C173.603 168.193 172.222 165.42 172.31 165.376C172.399 165.331 173.922 168.033 175.713 171.411C177.504 174.788 178.885 177.561 178.797 177.605Z" fill="white"/>
<path d="M201.381 153.103C201.29 153.063 202.232 150.81 203.484 148.071C204.736 145.331 205.824 143.142 205.915 143.182C206.005 143.221 205.064 145.473 203.812 148.214C202.56 150.953 201.471 153.142 201.381 153.103Z" fill="white"/>
<path d="M223.496 169.005C223.419 169.067 222.003 167.521 220.331 165.554C218.659 163.585 217.366 161.94 217.442 161.879C217.519 161.817 218.935 163.362 220.607 165.33C222.279 167.298 223.572 168.944 223.496 169.005Z" fill="white"/>
<path d="M218.408 190.877C218.328 190.82 219.395 189.253 220.793 187.375C222.19 185.497 223.388 184.021 223.468 184.077C223.548 184.133 222.481 185.701 221.083 187.58C219.686 189.458 218.488 190.934 218.408 190.877Z" fill="white"/>
<path d="M211.559 221.772C211.517 221.793 211.203 221.28 210.751 220.423C210.299 219.566 209.712 218.363 209.122 217.01C208.532 215.656 208.05 214.409 207.731 213.498C207.412 212.586 207.251 212.01 207.297 211.995C207.344 211.977 207.59 212.523 207.969 213.41C208.401 214.42 208.901 215.586 209.452 216.873C210.02 218.154 210.534 219.313 210.98 220.317C211.373 221.199 211.605 221.75 211.559 221.772Z" fill="white"/>
<path d="M231.017 208.638C230.997 208.733 229.125 208.46 226.834 208.028C224.542 207.595 222.7 207.168 222.719 207.073C222.738 206.978 224.61 207.252 226.902 207.684C229.193 208.116 231.035 208.544 231.017 208.638Z" fill="white"/>
<path d="M246.106 179.771C246.034 179.705 247.819 177.713 250.094 175.321C252.371 172.929 254.274 171.044 254.346 171.109C254.42 171.175 252.634 173.167 250.358 175.56C248.082 177.951 246.18 179.836 246.106 179.771Z" fill="white"/>
<path d="M261.288 218.27C261.211 218.331 258.984 215.819 256.313 212.658C253.64 209.496 251.537 206.884 251.613 206.823C251.69 206.762 253.917 209.274 256.589 212.436C259.261 215.596 261.365 218.209 261.288 218.27Z" fill="white"/>
<path d="M167.049 201.861C167.099 201.957 165.064 202.963 162.846 204.623C160.617 206.27 159.083 207.917 159.002 207.844C158.968 207.815 159.308 207.364 159.939 206.704C160.57 206.042 161.503 205.183 162.628 204.345C163.754 203.509 164.851 202.859 165.672 202.441C166.493 202.022 167.028 201.821 167.049 201.861Z" fill="white"/>
<path d="M172.725 187.023C172.808 187.076 172.083 188.279 171.107 189.71C170.131 191.141 169.272 192.258 169.19 192.204C169.107 192.151 169.832 190.948 170.808 189.517C171.784 188.086 172.642 186.969 172.725 187.023Z" fill="white"/>
<path d="M185.514 201.594C185.436 201.64 184.718 200.464 184.343 198.836C183.958 197.208 184.084 195.847 184.175 195.855C184.283 195.855 184.319 197.18 184.692 198.758C185.055 200.338 185.611 201.549 185.514 201.594Z" fill="white"/>
<path d="M187.41 155.313C187.424 155.408 186.236 155.651 184.757 155.856C183.276 156.062 182.065 156.151 182.052 156.055C182.037 155.959 183.226 155.715 184.706 155.51C186.185 155.305 187.397 155.217 187.41 155.313Z" fill="white"/>
<path d="M197.016 138.709C197.065 138.793 196.024 139.445 194.693 140.164C193.361 140.882 192.243 141.397 192.196 141.313C192.148 141.228 193.188 140.577 194.519 139.858C195.85 139.139 196.968 138.624 197.016 138.709Z" fill="white"/>
<path d="M224.029 145.723C223.951 145.781 222.761 144.387 221.372 142.61C219.983 140.832 218.92 139.343 219 139.285C219.078 139.227 220.268 140.621 221.657 142.398C223.046 144.176 224.108 145.664 224.029 145.723Z" fill="white"/>
<path d="M258.321 162.42C258.254 162.481 257.002 161.224 255.84 159.396C254.67 157.572 254.067 155.921 254.153 155.89C254.25 155.849 254.992 157.415 256.144 159.211C257.288 161.012 258.402 162.352 258.321 162.42Z" fill="white"/>
<path d="M271.409 166.624C271.5 166.665 270.864 168.22 269.989 170.098C269.114 171.977 268.332 173.468 268.241 173.427C268.151 173.388 268.787 171.833 269.662 169.954C270.536 168.075 271.319 166.585 271.409 166.624Z" fill="white"/>
<path d="M273.238 149.213C273.163 149.274 271.604 147.571 269.758 145.408C267.911 143.246 266.477 141.443 266.553 141.381C266.629 141.32 268.187 143.023 270.034 145.185C271.879 147.347 273.314 149.151 273.238 149.213Z" fill="white"/>
<path d="M253.248 135.068C253.149 135.072 253.01 133.615 252.937 131.814C252.864 130.013 252.885 128.55 252.985 128.546C253.083 128.542 253.223 129.998 253.296 131.8C253.368 133.601 253.347 135.064 253.248 135.068Z" fill="white"/>
<path d="M269.547 134.187C269.559 134.283 267.655 134.61 265.293 134.917C262.929 135.226 261.004 135.398 260.991 135.302C260.978 135.206 262.882 134.879 265.245 134.571C267.607 134.263 269.533 134.091 269.547 134.187Z" fill="white"/>
<path d="M295.217 152.566C295.128 152.608 293.982 150.479 292.658 147.811C291.333 145.142 290.332 142.945 290.421 142.903C290.51 142.862 291.656 144.99 292.981 147.659C294.305 150.327 295.307 152.524 295.217 152.566Z" fill="white"/>
<path d="M290.895 168.447C290.798 168.428 291.067 166.716 291.495 164.625C291.924 162.532 292.35 160.852 292.447 160.871C292.544 160.89 292.276 162.601 291.847 164.693C291.419 166.786 290.993 168.466 290.895 168.447Z" fill="white"/>
<path d="M302.803 180.967C302.709 180.999 301.794 178.688 300.759 175.807C299.724 172.925 298.962 170.563 299.055 170.532C299.148 170.5 300.063 172.809 301.098 175.691C302.132 178.573 302.896 180.935 302.803 180.967Z" fill="white"/>
<path d="M301.144 188.289C301.127 188.375 299.475 188.039 297.664 187.076C295.847 186.124 294.656 184.958 294.721 184.897C294.791 184.817 296.06 185.839 297.835 186.769C299.603 187.71 301.175 188.188 301.144 188.289Z" fill="white"/>
<path d="M316.398 204.987C316.307 205.027 315.753 204.008 315.162 202.711C314.57 201.415 314.163 200.332 314.254 200.293C314.344 200.253 314.898 201.272 315.49 202.569C316.081 203.865 316.487 204.949 316.398 204.987Z" fill="white"/>
<path d="M226.309 228.274C226.211 228.285 225.971 226.954 225.774 225.3C225.577 223.647 225.497 222.298 225.595 222.287C225.693 222.275 225.933 223.607 226.131 225.26C226.328 226.913 226.408 228.262 226.309 228.274Z" fill="white"/>
<path d="M273.109 227.121C273.012 227.101 273.214 225.799 273.56 224.213C273.907 222.628 274.265 221.359 274.362 221.378C274.458 221.399 274.257 222.701 273.911 224.286C273.566 225.872 273.206 227.141 273.109 227.121Z" fill="white"/>
<path d="M282.083 93.9664L288.135 83.5713C285.457 79.3354 283.911 74.3494 283.911 69.0102C283.911 53.654 296.682 41.2055 312.438 41.2055C328.192 41.2055 340.964 53.654 340.964 69.0102C340.964 84.3657 328.192 96.8143 312.438 96.8143C305.859 96.8143 299.805 94.6379 294.979 90.9916L294.988 91.0037L282.083 93.9664Z" fill="#FAFAF9"/>
<path d="M282.083 93.9662C282.697 93.8293 286.782 92.9193 295.009 91.0868L295.141 91.0579L295.059 90.9518L295.048 90.9397L294.926 91.0593C296.553 92.2881 298.502 93.4989 300.794 94.5075C303.088 95.4993 305.716 96.3092 308.619 96.6852C310.067 96.8658 311.581 96.982 313.136 96.9082C313.914 96.8652 314.705 96.847 315.503 96.7819C316.296 96.6651 317.099 96.5462 317.914 96.4267C321.145 95.8048 324.449 94.6095 327.53 92.7461C330.61 90.8887 333.461 88.3672 335.747 85.2688C338.029 82.1758 339.76 78.5086 340.57 74.5232C341.373 70.5438 341.306 66.2783 340.233 62.1499C339.154 58.0362 337.136 54.0172 334.117 50.7113L332.951 49.4609C332.568 49.0412 332.111 48.694 331.696 48.3086C331.262 47.944 330.869 47.531 330.402 47.2087L329.032 46.2108C328.589 45.8616 328.101 45.5796 327.615 45.2962C327.131 45.0101 326.648 44.7247 326.167 44.44C325.66 44.2003 325.155 43.9612 324.651 43.7222C324.143 43.4939 323.654 43.2239 323.121 43.0594C318.976 41.4558 314.555 40.8447 310.33 41.1435C306.102 41.4404 302.058 42.6222 298.588 44.526C295.108 46.4149 292.173 48.9358 289.907 51.7521C287.635 54.5698 286.034 57.6769 285.043 60.7719C284.058 63.881 283.792 66.9646 283.803 69.8186C283.888 72.6799 284.422 75.3156 285.2 77.629C285.981 79.9457 287.005 81.9381 288.063 83.6142L288.062 83.5302C284.243 90.1963 282.377 93.4539 282.083 93.9662C282.383 93.4586 284.296 90.2252 288.208 83.6115L288.233 83.5698L288.207 83.5276C287.167 81.8541 286.161 79.8691 285.399 77.5658C284.638 75.2659 284.12 72.649 284.046 69.8119C284.048 66.9814 284.322 63.9274 285.306 60.8512C286.297 57.789 287.89 54.7169 290.144 51.9341C292.392 49.152 295.3 46.6634 298.745 44.802C302.178 42.9244 306.176 41.762 310.354 41.4733C314.531 41.1825 318.897 41.7889 322.991 43.375C323.518 43.5368 324 43.8048 324.502 44.0311C325 44.2668 325.499 44.5025 325.999 44.7395C326.475 45.0215 326.951 45.3036 327.428 45.587C327.909 45.8663 328.391 46.1443 328.829 46.4902L330.181 47.4759C330.643 47.7942 331.03 48.2025 331.459 48.5631C331.869 48.9439 332.321 49.2857 332.699 49.7013L333.851 50.9356C336.834 54.2011 338.826 58.1705 339.895 62.2331C340.956 66.3099 341.026 70.525 340.237 74.4587C339.441 78.3972 337.734 82.0234 335.484 85.0841C333.228 88.1509 330.413 90.651 327.37 92.4943C324.325 94.345 321.059 95.5356 317.862 96.1607C317.055 96.2816 316.259 96.4012 315.475 96.5193C314.684 96.5858 313.9 96.606 313.13 96.6516C311.589 96.7302 310.088 96.6194 308.651 96.4461C305.773 96.0835 303.163 95.2911 300.88 94.3174C298.601 93.327 296.658 92.135 295.033 90.9236L294.501 90.5274L294.909 91.0438L294.92 91.0559L294.968 90.9202C286.767 92.8589 282.694 93.8219 282.083 93.9662Z" fill="#17282F"/>
<path d="M320.14 67.8491C320.14 69.3499 321.387 70.566 322.927 70.566C324.467 70.566 325.715 69.3499 325.715 67.8491C325.715 66.3489 324.467 65.1321 322.927 65.1321C321.387 65.1321 320.14 66.3489 320.14 67.8491Z" fill="#17282F"/>
<path d="M308.983 67.8491C308.983 69.3499 310.231 70.566 311.771 70.566C313.311 70.566 314.559 69.3499 314.559 67.8491C314.559 66.3489 313.311 65.1321 311.771 65.1321C310.231 65.1321 308.983 66.3489 308.983 67.8491Z" fill="#17282F"/>
<path d="M297.854 66.4906C297.084 67.7906 297.541 69.452 298.875 70.2027C300.208 70.9528 301.913 70.5076 302.683 69.2076C303.452 67.9082 302.996 66.2462 301.663 65.4961C300.329 64.746 298.625 65.1912 297.854 66.4906Z" fill="#17282F"/>
</svg>
