<svg width="487" height="569" viewBox="0 0 487 569" fill="none" xmlns="http://www.w3.org/2000/svg">
<path d="M375.87 541.03C375.87 552.462 366.516 561.816 355.084 561.816H111.729C100.297 561.816 90.943 552.462 90.943 541.03V54.8007C90.943 43.3686 100.297 34.015 111.729 34.015H355.084C366.516 34.015 375.87 43.3686 375.87 54.8007V541.03Z" fill="#0C2239"/>
<path d="M378.712 162.794C378.712 163.558 378.084 164.18 377.326 164.18H371.031C370.268 164.18 369.645 163.558 369.645 162.794V103.826C369.645 103.063 370.268 102.44 371.031 102.44H377.326C378.084 102.44 378.712 103.063 378.712 103.826V162.794Z" fill="#0C2239"/>
<path d="M378.712 228.069C378.712 228.832 378.084 229.455 377.326 229.455H371.031C370.268 229.455 369.645 228.832 369.645 228.069V169.101C369.645 168.337 370.268 167.715 371.031 167.715H377.326C378.084 167.715 378.712 168.337 378.712 169.101V228.069Z" fill="#0C2239"/>
<path d="M248.525 525.489V525.468H218.283V525.489C212.718 525.489 208.204 529.998 208.204 535.568C208.204 541.133 212.718 545.652 218.283 545.652V545.669H248.525V545.652C254.089 545.652 258.604 541.133 258.604 535.568C258.604 529.998 254.089 525.489 248.525 525.489Z" fill="#0C2239"/>
<path d="M246.76 58.1783C246.76 64.4898 241.645 69.6105 235.323 69.6105C229.011 69.6105 223.891 64.4898 223.891 58.1783H103.404V513.007H367.253V58.1783H246.76Z" fill="#FFFBEF"/>
<path d="M103.404 322.065H367.253V58.1783H103.404V322.065Z" fill="#D9E5F1"/>
<path d="M248.492 58.1783C248.492 65.4479 242.598 71.3426 235.328 71.3426C228.058 71.3426 222.164 65.4479 222.164 58.1783C222.164 50.9033 228.058 45.014 235.328 45.014C242.598 45.014 248.492 50.9033 248.492 58.1783Z" fill="#0C2239"/>
<path d="M367.253 328.301H103.404V322.065H367.253V328.301Z" fill="#C3C2C2"/>
<path d="M320.214 328.301H103.404V322.065H320.214V328.301Z" fill="#EF4F4F"/>
<path d="M213.167 325.183C213.167 327.927 210.943 330.152 208.204 330.152C205.459 330.152 203.235 327.927 203.235 325.183C203.235 322.439 205.459 320.214 208.204 320.214C210.943 320.214 213.167 322.439 213.167 325.183Z" fill="#EF4F4F"/>
<path d="M181.751 356.481H313.388V340.772H181.751V356.481Z" fill="#DBD9D4"/>
<path d="M402.54 392.536C402.54 393.294 401.917 393.922 401.154 393.922H321.6C320.836 393.922 320.214 393.294 320.214 392.536V368.297C320.214 367.534 320.836 366.911 321.6 366.911H401.154C401.917 366.911 402.54 367.534 402.54 368.297V392.536Z" fill="#EF4F4F"/>
<path d="M181.751 368.719H260.617V360.865H181.751V368.719Z" fill="#DBD9D4"/>
<path d="M175.049 386.994H229.785V382.208H175.049V386.994Z" fill="#DBD9D4"/>
<path d="M234.289 386.994H249.532V382.208H234.289V386.994Z" fill="#DBD9D4"/>
<path d="M175.049 402.951H358.657C359.041 402.951 359.35 402.642 359.35 402.258C359.35 401.874 359.041 401.565 358.657 401.565H175.049C174.665 401.565 174.357 401.874 174.357 402.258C174.357 402.642 174.665 402.951 175.049 402.951Z" fill="#C3C2C2"/>
<path d="M354.732 343.43C354.732 344.323 354.007 345.049 353.114 345.049C352.221 345.049 351.501 344.323 351.501 343.43C351.501 342.537 352.221 341.812 353.114 341.812C354.007 341.812 354.732 342.537 354.732 343.43Z" fill="#C3C2C2"/>
<path d="M354.732 348.626C354.732 349.52 354.007 350.245 353.114 350.245C352.221 350.245 351.501 349.52 351.501 348.626C351.501 347.733 352.221 347.008 353.114 347.008C354.007 347.008 354.732 347.733 354.732 348.626Z" fill="#C3C2C2"/>
<path d="M354.732 353.823C354.732 354.716 354.007 355.441 353.114 355.441C352.221 355.441 351.501 354.716 351.501 353.823C351.501 352.93 352.221 352.204 353.114 352.204C354.007 352.204 354.732 352.93 354.732 353.823Z" fill="#C3C2C2"/>
<path d="M226.148 513.007H357.791V500.958H226.148V513.007Z" fill="#DBD9D4"/>
<path d="M221.184 568.554H114.771V501H221.184V568.554Z" fill="#C3C2C2"/>
<path d="M226.148 452.409H305.02V444.555H226.148V452.409Z" fill="#DBD9D4"/>
<path d="M316.046 452.409H357.791V444.555H316.046V452.409Z" fill="#DBD9D4"/>
<path d="M226.148 464.188H349.996V456.333H226.148V464.188Z" fill="#DBD9D4"/>
<path d="M226.148 475.966H305.02V468.112H226.148V475.966Z" fill="#DBD9D4"/>
<path d="M221.184 481.076H114.771V413.522H221.184V481.076Z" fill="#C3C2C2"/>
<path d="M446.46 97.2274C446.85 97 450.856 94.9539 454.986 88.361C457.064 85.0374 459.419 78.3253 461.876 74.7961C464.442 71.1207 466.185 67.3749 469.076 64.5981C472.41 61.4099 475.1 59.6669 476.589 62.866C477.049 63.8511 476.037 66.7849 473.39 70.2925C471.414 72.907 471.246 74.0653 469 77.4322C467.084 80.7341 462.358 90.8509 462.618 91.1161C462.791 91.2894 467.993 83.8465 474.456 76.5445C476.827 73.8651 478.656 72.1221 480.053 70.4224C482.429 67.5265 483.831 67.4507 483.831 68.4792C483.831 70.3845 483.831 73.6756 483.171 77.0371C481.547 79.3051 479.252 82.0278 476.984 84.7505C472.383 90.2555 468.697 95.1867 468.859 95.5602C468.891 95.6251 468.973 97.8769 469.931 96.9621C473.433 93.6278 479.479 84.8317 483.831 81.2104C485.033 82.2389 483.555 91.3814 481.428 93.7631C478.694 96.8214 475.057 100.919 475.078 101.157C475.078 101.211 475.355 102.613 476.378 101.531C478.245 99.5712 480.973 104.908 479.517 106.733C477.319 109.488 474.683 112.427 472.67 115.594C468.318 122.43 457.162 131.14 450.791 135.513C448.625 139.632 430.741 170.892 430.741 170.892C430.741 170.892 405.879 166.416 409.517 160.034C413.171 153.657 428.213 123.951 432.857 114.819" fill="#FFCCBB"/>
<path d="M285.192 161.219C308.208 178.254 339.782 201.351 351.501 206.72C363.128 190.931 386.057 158.415 399.768 138.041C411.092 121.207 454.184 157.403 447.646 169.577C439.472 184.793 392.563 269.603 372.054 274.42C344.123 280.986 288.066 243.815 268.001 259.941" fill="#FF6666"/>
<path d="M412.213 141.733C417.523 136.396 424.208 129.424 426.335 124.893C428.468 120.357 454.531 136.628 450.704 141.424C445.156 148.374 442.514 157.62 441.811 161.176C440.701 166.703 408.813 145.154 412.213 141.733Z" fill="#EF4F4F"/>
<path d="M286.286 165.393C279.314 148.824 295.19 61.215 279.785 27.4707C270.377 6.86898 248.124 -5.49962 228.632 2.41412C213.698 1.94319 204.03 12.9802 196.62 26.3177C182.546 51.6612 196.274 79.7219 188.273 86.9103C175.12 98.7376 164.613 107.793 164.987 121.483C165.544 141.781 180.268 148.223 177.117 163.368C168.202 206.168 286.286 165.393 286.286 165.393Z" fill="#143251"/>
<path d="M193.838 152.732C202.087 147.568 203.657 135.161 202.266 126.398C200.772 116.941 190.011 108.151 193.773 91.0241L203.581 89.8766L216.058 112.546L211.76 145.419L211.143 145.392C205.93 147.238 199.976 149.749 193.838 152.732Z" fill="#112C47"/>
<path d="M251.978 147.189C272.623 156.629 291.303 179.001 292.608 197.123C297.458 264.558 322.401 263.638 295.065 305.686C294.795 311.851 294.557 317.242 294.346 322.065H153.284C153.565 315.737 153.885 308.43 154.28 299.482C155.189 278.891 141.424 205.156 148.575 188.457C155.725 171.753 189.74 152.981 211.143 145.392L251.978 147.189Z" fill="#FF6666"/>
<path d="M289.896 79.0507C288.44 87.2297 281.593 97.498 275.622 94.05C270.815 91.2677 266.859 86.8129 268.309 78.6285C269.771 70.4495 274.253 66.6009 280.851 65.5725C287.958 64.4628 291.341 70.8663 289.896 79.0507Z" fill="#DC8E83"/>
<path d="M288.413 68.5768C287.168 66.8879 280.147 65.6971 277.836 71.792L278.854 65.9894C278.854 65.9894 281.154 65.0259 283.85 65.578C287.309 66.2925 288.413 68.5768 288.413 68.5768Z" fill="#FFCCBB"/>
<path d="M183.716 74.3739C184.441 82.6503 190.363 93.4816 196.615 90.5694C201.643 88.2202 205.974 84.128 205.248 75.8516C204.518 67.5752 200.388 63.3477 193.908 61.7455C186.925 60.0133 182.985 66.092 183.716 74.3739Z" fill="#DC8E83"/>
<path d="M186.108 64.073C187.505 62.4978 194.601 61.9294 196.371 68.203L195.868 62.3354C195.868 62.3354 193.648 61.1716 190.926 61.4802C187.407 61.8915 186.108 64.073 186.108 64.073Z" fill="#FFCCBB"/>
<path d="M208.041 113.818C210.234 122.939 205.746 142.999 204.924 148.022C203.045 148.726 190.471 154.41 190.471 154.41C186.888 166.795 197.113 176.733 206.677 189.773C217.503 204.534 229.969 225.899 229.049 242.511L233.033 242.684C242.121 208.122 264.482 165.75 259.253 150.832C258.609 148.872 255.031 131.805 258.815 117.147L208.041 113.818Z" fill="#FFCCBB"/>
<path d="M208.594 119.166C208.594 119.166 208.848 122.36 208.274 127.805C208.274 127.805 222.213 145.879 232.719 146.339C243.236 146.804 257.364 131.296 257.364 131.296C257.364 131.296 257.619 120.508 258.295 116.032L208.594 119.166Z" fill="#DC8E83"/>
<path d="M279.054 61.4153C278.042 84.3229 258.658 102.083 235.75 101.071C212.837 100.064 195.088 80.6691 196.1 57.7669C197.454 27.0106 216.67 13.0397 239.583 14.052C262.49 15.0588 280.38 31.3084 279.054 61.4153Z" fill="#FFCCBB"/>
<path d="M279.054 61.4153C278.074 83.603 277.257 102.175 268.266 113.856C262.848 120.898 249.072 132.801 239.35 135.54C236.936 136.217 230.137 135.524 227.804 134.582C218.44 130.799 206.791 118.089 202.228 110.949C194.303 98.5211 195.121 79.9492 196.1 57.767" fill="#FFCCBB"/>
<path d="M262.003 77.9409C261.841 81.7083 259.432 84.6692 256.633 84.5447C253.824 84.4202 251.697 81.2645 251.859 77.4971C252.027 73.7188 254.425 70.758 257.234 70.8824C260.038 71.0069 262.171 74.1681 262.003 77.9409Z" fill="#0C2239"/>
<path d="M222.759 75.976C222.591 79.7434 220.183 82.7043 217.379 82.5798C214.575 82.4553 212.442 79.2942 212.605 75.5267C212.772 71.7539 215.176 68.7985 217.98 68.9175C220.783 69.042 222.922 72.2032 222.759 75.976Z" fill="#0C2239"/>
<path d="M245.304 57.9294C245.304 57.9294 245.742 57.7074 246.527 57.4368C247.307 57.1661 248.427 56.8414 249.781 56.6032C252.476 56.1052 256.119 55.9699 259.719 56.5978C260.617 56.7223 261.51 56.955 262.387 57.177C263.264 57.3881 264.119 57.7291 264.931 58.0268C265.743 58.3516 266.523 58.7521 267.237 59.1256C267.952 59.5262 268.607 59.9863 269.191 60.4031C269.771 60.8253 270.274 61.3233 270.702 61.7293C271.135 62.1244 271.465 62.5683 271.719 62.9309C272.244 63.64 272.466 64.0893 272.466 64.0893C272.661 64.4844 272.499 64.9662 272.104 65.1611C271.984 65.2206 271.855 65.2477 271.73 65.2423L271.627 65.2368C271.627 65.2368 271.118 65.226 270.361 65.1232C269.982 65.069 269.538 65.0041 269.007 64.9716C268.482 64.9283 267.941 64.8255 267.319 64.7713C266.079 64.6306 264.682 64.452 263.183 64.2246C262.42 64.1326 261.667 63.9648 260.866 63.8457C260.071 63.6942 259.269 63.5372 258.468 63.3856C256.861 63.0446 255.226 62.709 253.7 62.303C252.162 61.9079 250.722 61.4803 249.477 61.058C246.982 60.2353 245.288 59.353 245.288 59.353C244.898 59.1527 244.747 58.6709 244.947 58.2758C245.028 58.1188 245.158 57.9997 245.304 57.9294Z" fill="#0C2239"/>
<path d="M229.282 60.1541C229.282 60.1541 228.86 60.3435 228.14 60.6142C227.777 60.7333 227.333 60.9227 226.835 61.0635C226.332 61.2096 225.769 61.4261 225.157 61.5831C223.934 61.9404 222.521 62.2868 221.022 62.6278C219.522 62.958 217.936 63.2774 216.366 63.5534C215.576 63.6942 214.808 63.8511 214.033 63.9648C213.27 64.0947 212.523 64.2246 211.782 64.3112C211.062 64.4303 210.358 64.5278 209.676 64.5981C209.016 64.7064 208.377 64.7876 207.771 64.8417C207.186 64.9283 206.639 64.9987 206.125 65.0366C205.611 65.0799 205.2 65.1611 204.821 65.199C204.085 65.291 203.597 65.3072 203.597 65.3072H203.473C202.91 65.3181 202.439 64.8688 202.428 64.3058C202.423 64.111 202.471 63.9269 202.563 63.7699C202.563 63.7699 202.807 63.3477 203.343 62.6819C203.608 62.3572 203.938 61.9187 204.377 61.5615C204.804 61.1663 205.302 60.7225 205.882 60.2948C206.461 59.9051 207.11 59.4991 207.814 59.0932C208.523 58.7359 209.292 58.3895 210.093 58.0539C210.899 57.7724 211.744 57.4909 212.604 57.2636C213.471 57.0741 214.353 56.8522 215.241 56.7439C218.791 56.1918 222.364 56.3975 224.995 56.9226C226.31 57.204 227.398 57.518 228.156 57.8049C228.914 58.0755 229.341 58.2975 229.341 58.2975C229.845 58.5627 230.04 59.1852 229.774 59.6886C229.666 59.9051 229.482 60.0621 229.282 60.1541Z" fill="#0C2239"/>
<path d="M228.632 99.4792C231.084 98.586 239.745 98.8837 241.748 100.058C243.745 101.233 237.304 102.386 235.079 102.288C232.854 102.191 226.667 100.318 228.632 99.4792Z" fill="#DC8E83"/>
<path d="M240.286 123.989C236.519 123.161 229.969 123.015 227.003 123.404C224.865 123.691 229.807 121.759 233.666 121.932C237.201 122.089 242.316 124.53 240.286 123.989Z" fill="#DC8E83"/>
<path d="M222.283 108.34C230.267 111.101 240.102 111.074 247.702 110.505C248.638 110.435 248.227 110.576 247.296 111.647C245.786 113.396 240.941 118.76 234.473 118.424C228.253 118.1 222.916 110.332 221.568 108.091C221.049 107.23 221.568 108.091 222.283 108.34Z" fill="white"/>
<path d="M195.635 84.8209C192.495 82.5096 190.552 79.6082 192.853 76.1439C193.421 75.2779 194.26 74.3793 195.407 73.4483C201.161 68.7769 198.168 79.251 198.168 79.251L195.635 84.8209Z" fill="#FFCCBB"/>
<path d="M220.296 106.76C225.368 107.615 231.669 104.768 234.527 107.918C238.495 105.396 245.31 109.894 250.501 109.888C250.598 109.888 250.755 110.072 250.398 110.181C247.653 111.009 232.291 114.073 220.199 107.306C219.609 106.976 219.658 106.657 220.296 106.76Z" fill="#DC6150"/>
<path d="M220.616 107.409C220.616 107.409 224.627 114.035 227.523 116.719C230.305 119.285 238.175 120.178 241.412 117.997C244.341 116.027 249.266 110.17 249.266 110.17L248.059 110.516C245.266 112.156 243.572 113.894 240.351 114.982C237.114 116.07 233.758 116.119 230.603 115.112C226.494 113.807 225.612 110.733 222.759 108.438L221.363 107.599L220.616 107.409Z" fill="#DC6150"/>
<path d="M223.447 108.876C225.612 110.532 229.655 112.037 234.781 112.432C240.985 112.909 247.561 110.814 247.561 110.814C247.561 110.814 240.887 111.745 235.068 111.485C229.011 111.22 223.447 108.876 223.447 108.876Z" fill="#E3E3E3"/>
<path d="M195.635 84.8155C195.602 72.1492 200.23 54.1619 208.323 46.9248C215.04 40.9165 225.92 34.4859 224.324 23.5734C224.324 23.5734 221.909 36.4941 234.489 44.673C243.512 50.5407 286.199 51.1632 273.403 85.6761L278.188 80.9452L278.875 63.3261L267.021 45.8368L223.138 15.665L199.651 46.5459L193.675 68.0841L195.635 84.8155Z" fill="#DC8E83"/>
<path d="M277.387 86.3851C277.695 74.9854 278.854 65.9891 269.944 57.3825C257.413 45.2629 245.607 48.7759 235.496 41.214C225.98 34.1014 222.618 23.4866 224.167 13.3698L239.296 11.8759L254.625 14.7122L271.995 28.5261L280.44 48.7056C280.44 48.7056 282.101 55.7749 281.013 67.4452C279.92 79.1155 277.387 86.3851 277.387 86.3851Z" fill="#143251"/>
<path d="M226.976 13.4241C198 22.4042 195.938 36.7539 193.529 53.4745C191.115 70.1897 195.635 84.8155 195.635 84.8155C195.05 77.5242 196.799 50.4595 211.04 40.6242C225.292 30.7888 224.324 23.5734 224.324 23.5734L226.976 13.4241Z" fill="#143251"/>
<path d="M220.664 15.6271C220.334 13.8787 220.313 11.9842 220.897 10.095C223.111 2.88499 228.632 2.41406 228.632 2.41406C225.975 5.40742 224.778 9.53751 224.286 13.359L224.167 13.3699C224.118 13.7109 224.069 14.0519 224.031 14.3929C222.857 14.7935 221.736 15.2049 220.664 15.6271Z" fill="#112C47"/>
<path d="M224.031 14.393C224.069 14.052 224.118 13.711 224.167 13.37L224.286 13.3591C224.248 13.6893 224.21 14.0141 224.177 14.3389C224.129 14.3551 224.08 14.3714 224.031 14.393Z" fill="#112C47"/>
<path d="M224.324 23.5734C224.324 23.5734 221.498 20.0766 220.664 15.6271C221.736 15.2049 222.857 14.7936 224.031 14.393C224.08 14.3713 224.129 14.3551 224.177 14.3389C223.679 19.3458 224.324 23.5734 224.324 23.5734Z" fill="#112C47"/>
<path d="M183.559 158.101C181.594 169.821 188.934 178.562 200.398 194.271C211.863 209.985 224.443 226.559 225.374 242.349C226.061 253.965 222.905 294.454 220.551 322.065H228.253L233.033 242.684C233.433 230.213 224.978 216.816 218.672 206.19C212.366 195.559 197.167 177.686 193.93 170.979C190.693 164.278 189.199 159.725 190.471 154.41C190.471 154.41 186.043 152.916 183.559 158.101Z" fill="#EF4F4F"/>
<path d="M232.492 241.028C234.153 235.09 239.962 219.371 242.067 214.569C244.184 209.779 247.908 219.224 247.908 219.224C247.908 219.224 232.421 258.403 231.306 271.384C230.191 284.369 230.034 251.513 230.034 251.513L232.492 241.028Z" fill="#EF4F4F"/>
<path d="M232.032 199.104C232.724 206.553 238.045 224.849 238.045 224.849L241.699 215.863C241.699 215.863 233.466 211.657 232.032 199.104Z" fill="#DC8E83"/>
<path d="M238.045 224.848C245.916 231.014 279.254 236.226 291.596 217.292C303.937 198.363 299.103 182.931 299.103 182.931L241.699 215.863L238.045 224.848Z" fill="#EF4F4F"/>
<path d="M248.005 131.508C263.004 140.103 274.263 144.076 274.339 150.123C274.42 156.169 239.778 173.512 232.963 190.931C232.995 190.189 232.995 190.189 232.995 190.189C232.995 190.189 231.301 181.788 239.42 170.01C243.924 163.487 250.376 158.502 252.195 150.318C253.18 145.863 248.243 138.187 248.005 131.508Z" fill="#DC8E83"/>
<path d="M250.051 271.957C250.051 274.945 247.783 277.36 244.979 277.36C242.181 277.36 239.913 274.945 239.913 271.957C239.913 268.97 242.181 266.55 244.979 266.55C247.783 266.55 250.051 268.97 250.051 271.957Z" fill="#143251"/>
<path d="M244.979 275.893C243.236 275.893 241.818 274.756 241.818 273.365C241.818 273.284 241.84 273.251 241.889 273.251C242.154 273.251 243.193 274.345 244.979 274.345C246.89 274.345 247.875 273.289 248.097 273.289C248.124 273.289 248.141 273.311 248.141 273.365C248.141 274.756 246.728 275.893 244.979 275.893Z" fill="#445A71"/>
<path d="M246.793 308.029C246.793 311.017 244.525 313.437 241.721 313.437C238.928 313.437 236.654 311.017 236.654 308.029C236.654 305.047 238.928 302.627 241.721 302.627C244.525 302.627 246.793 305.047 246.793 308.029Z" fill="#143251"/>
<path d="M241.721 311.964C239.978 311.964 238.565 310.833 238.565 309.437C238.565 309.361 238.587 309.328 238.63 309.328C238.901 309.328 239.94 310.422 241.721 310.422C243.632 310.422 244.617 309.366 244.839 309.366C244.871 309.366 244.882 309.388 244.882 309.437C244.882 310.833 243.469 311.964 241.721 311.964Z" fill="#445A71"/>
<path d="M483.831 119.945C483.831 122.23 481.964 124.103 479.674 124.103H449.648C447.364 124.103 445.491 122.23 445.491 119.945V56.4678C445.491 54.1781 447.364 52.3107 449.648 52.3107H479.674C481.964 52.3107 483.831 54.1781 483.831 56.4678V119.945Z" fill="#11284B"/>
<path d="M251.686 361.856C251.686 361.856 276.889 369.742 294.827 374.159C311.05 378.154 335.76 376.817 336.285 380.926C336.805 385.034 332.301 386.192 323.202 385.954C312.43 385.667 303.109 386.555 303.109 386.555C303.109 386.555 303.975 391.405 299.748 394.961C300.051 398.507 297.658 402.664 294.01 403.682C292.981 407.601 290.291 408.986 284.667 408.38C276.055 407.454 261.667 402.637 254.858 396.52C250.571 392.666 237.878 386.257 237.878 386.257L251.686 361.856Z" fill="#FFCCBB"/>
<path d="M194.341 420.624C194.341 426.319 189.729 430.93 184.035 430.93C178.346 430.93 173.734 426.319 173.734 420.624C173.734 414.935 178.346 410.318 184.035 410.318C189.729 410.318 194.341 414.935 194.341 420.624Z" fill="#C3C2C2"/>
<path d="M221.184 420.624C221.184 426.319 216.567 430.93 210.878 430.93C205.183 430.93 200.572 426.319 200.572 420.624C200.572 414.935 205.183 410.318 210.878 410.318C216.567 410.318 221.184 414.935 221.184 420.624Z" fill="#C3C2C2"/>
<path d="M259.481 426.059C259.481 428.749 257.299 430.93 254.604 430.93C251.913 430.93 249.732 428.749 249.732 426.059C249.732 423.363 251.913 421.182 254.604 421.182C257.299 421.182 259.481 423.363 259.481 426.059Z" fill="#C3C2C2"/>
<path d="M273.966 426.059C273.966 428.749 271.779 430.93 269.089 430.93C266.398 430.93 264.212 428.749 264.212 426.059C264.212 423.363 266.398 421.182 269.089 421.182C271.779 421.182 273.966 423.363 273.966 426.059Z" fill="#C3C2C2"/>
<path d="M320.869 416.878L320.831 411.828C320.826 411.346 320.43 410.951 319.949 410.957C318.076 410.973 316.571 412.499 316.587 414.378L316.598 416.792L311.05 416.835L310.135 416.841C309.128 416.846 308.316 417.669 308.322 418.681C308.327 419.379 308.722 419.969 309.296 420.272C308.728 420.586 308.338 421.187 308.343 421.88C308.349 422.578 308.744 423.168 309.318 423.477C308.749 423.791 308.365 424.386 308.365 425.085C308.376 425.853 308.863 426.508 309.54 426.768C308.863 427.044 308.387 427.704 308.397 428.478C308.397 429.485 309.226 430.297 310.238 430.292L311.153 430.286L319.375 430.227L320.127 430.221C322.022 430.205 323.543 428.662 323.532 426.768L323.483 420.17C323.467 418.573 322.357 417.247 320.869 416.878Z" fill="#96AFD4"/>
<path d="M328.658 418.075L326.076 418.096C325.372 418.102 324.809 418.675 324.809 419.379L324.874 427.536C324.88 428.24 325.454 428.809 326.157 428.803L328.734 428.781C329.438 428.776 330.006 428.202 330 427.504L329.941 419.336C329.936 418.632 329.362 418.069 328.658 418.075Z" fill="#96AFD4"/>
<path d="M347.024 436.013C346.543 436.013 346.153 435.623 346.147 435.142L346.11 430.091C344.621 429.729 343.511 428.397 343.5 426.8L343.446 420.202C343.436 418.307 344.957 416.765 346.851 416.754L347.604 416.743L355.831 416.683L356.741 416.678C356.746 416.678 356.751 416.678 356.757 416.678C357.758 416.678 358.576 417.49 358.581 418.497C358.592 419.265 358.115 419.926 357.439 420.196C358.115 420.467 358.603 421.117 358.613 421.885C358.613 422.578 358.224 423.179 357.661 423.493C358.229 423.801 358.63 424.391 358.63 425.09C358.641 425.783 358.251 426.383 357.688 426.697C358.256 427 358.651 427.59 358.657 428.289C358.668 429.301 357.85 430.118 356.838 430.129L355.929 430.135L350.375 430.178L350.391 432.597C350.413 434.47 348.903 435.997 347.03 436.013H347.024Z" fill="#DBD9D4"/>
<path d="M338.315 428.895C337.617 428.895 337.043 428.332 337.037 427.634L336.978 419.466C336.972 418.767 337.541 418.194 338.244 418.188L340.821 418.167C340.826 418.167 340.826 418.167 340.832 418.167C341.53 418.167 342.098 418.735 342.104 419.433L342.169 427.591C342.169 428.294 341.601 428.868 340.902 428.873L338.32 428.895C338.32 428.895 338.32 428.895 338.315 428.895Z" fill="#DBD9D4"/>
<path d="M370.895 267.789C345.492 277.262 297.171 229.455 297.171 229.455C298.925 238.392 305.68 260.087 305.68 260.087L305.691 260.092C328.75 266.707 355.398 278.334 372.054 274.42C381.786 272.136 397.473 251.821 412.137 229.482C403.73 241.661 388.038 261.402 370.895 267.789Z" fill="#EF4F4F"/>
<path d="M182.249 255.102C182.249 255.102 178.747 289.734 180.825 293.198C182.904 296.662 213.167 322.433 213.167 322.433L169.047 299.201L182.249 255.102Z" fill="#EF4F4F"/>
<path d="M151.833 182.931C138.869 193.405 101.33 277.652 108.302 307.055C114.262 332.155 206.596 389.835 216.486 392.39C233.628 396.818 259.957 353.774 246.744 345.048C225.352 330.915 174.568 299.953 173.204 295.276C171.834 290.589 184.749 246.311 184.749 246.311" fill="#FF6666"/>
<path d="M244.682 353.747C249.775 359.057 255.8 362.094 260.617 363.463C265.435 364.827 250.149 395.535 244.801 392.536C237.039 388.19 230.678 385.055 227.084 384.606C218.797 383.567 239.696 348.551 244.682 353.747Z" fill="#EF4F4F"/>
<path d="M221.53 363.101C211.544 379.886 123.913 328.317 112.259 315.104C131.226 342.716 207.543 390.079 216.486 392.39C211.495 380.958 221.53 363.101 221.53 363.101Z" fill="#EF4F4F"/>
<path d="M421.939 162.08C430.021 166.632 445.913 170.178 448.246 167.715C448.246 167.715 447.158 170.513 445.491 173.534L423.195 212.02C423.195 212.02 440.674 177.431 436.63 173.702C431.677 169.133 421.939 162.08 421.939 162.08Z" fill="#EF4F4F"/>
<path d="M139.021 301.28C148.374 294.005 175.049 297.453 175.049 297.453L173.344 291.536C173.344 291.536 159.46 288.115 139.021 301.28Z" fill="#EF4F4F"/>
<path d="M351.501 206.721C351.501 206.721 350.802 233.147 364.2 256.704C364.2 256.704 344.799 244.492 351.501 206.721Z" fill="#EF4F4F"/>
<path d="M295.065 305.686C292.229 309.247 284.288 313.058 278.285 313.518C278.285 313.518 290.091 314.205 294.811 311.434L295.065 305.686Z" fill="#EF4F4F"/>
<path d="M283.168 37.6038C287.325 56.2784 284.099 59.4558 293.019 74.991C299.829 86.8291 314.233 111.225 300.251 128.709C295.536 134.604 287.13 139.151 286.572 147.476C286.145 153.782 290.816 159.926 293.295 165.512C298.389 176.966 303.531 192.333 296.132 203.733C289.853 213.4 278.886 219.896 268.12 221.238C255.004 222.878 239.956 219.685 234.078 206.347C227.685 191.83 237.45 180.511 247.161 171.163C251.545 166.946 256.937 163.347 257.564 156.694C258.214 149.863 254.555 145.035 251.166 139.4C235.409 113.19 276.775 95.8146 277.446 73.5512C277.749 63.364 273.062 58.947 277.841 49.7071L283.168 37.6038Z" fill="#143251"/>
<path d="M353.092 381.737L353.168 381.792L361.417 388.26L369.65 381.77L369.721 381.716C371.918 379.984 372.303 376.763 370.571 374.565C368.839 372.362 365.618 371.983 363.42 373.715L361.401 375.307L359.377 373.721C357.174 371.994 353.958 372.384 352.232 374.587C350.505 376.79 350.889 380.011 353.092 381.737Z" fill="white"/>
<path d="M356.952 73.5295H352.264V69.1504H356.952V73.5295ZM359.019 66.8282H344.069L343.852 67.0394V69.2424H342.672L342.461 69.4535V73.2264L342.672 73.4375H343.852V75.6405L344.069 75.8516H359.019L359.23 75.6405V67.0394L359.019 66.8282Z" fill="white"/>
<path d="M335.289 68.3981C336.177 68.3981 336.902 69.1234 336.902 70.0111C336.902 70.8988 336.177 71.6242 335.289 71.6242C334.396 71.6242 333.681 70.8988 333.681 70.0111C333.681 69.1234 334.396 68.3981 335.289 68.3981ZM338.174 71.4455H338.158C338.374 71.0125 338.51 70.5308 338.51 70.0111C338.51 68.2302 337.07 66.7904 335.289 66.7904C333.508 66.7904 332.068 68.2302 332.068 70.0111C332.068 70.5308 332.198 71.0125 332.415 71.4455H332.404C332.404 71.4455 332.453 71.5213 332.528 71.6458L332.658 71.8677C333.259 72.8421 334.704 75.1967 334.932 75.5756C335.224 76.052 335.424 75.9329 335.63 75.6027C335.787 75.3429 337.303 72.8691 337.914 71.8623L338.05 71.6458C338.125 71.5213 338.174 71.4455 338.174 71.4455Z" fill="white"/>
<path d="M320.88 71.6242H319.927V75.1534H320.88V71.6242Z" fill="white"/>
<path d="M320.88 71.6241V70.9313H319.927C319.743 70.9313 319.565 71.0016 319.435 71.1316C319.305 71.2615 319.234 71.4401 319.234 71.6241V75.1534C319.234 75.3374 319.305 75.516 319.435 75.6459C319.565 75.7759 319.743 75.8462 319.927 75.8462H320.88C321.064 75.8462 321.243 75.7759 321.372 75.6459C321.497 75.516 321.573 75.3374 321.573 75.1534V71.6241C321.573 71.4401 321.497 71.2615 321.372 71.1316C321.243 71.0016 321.064 70.9313 320.88 70.9313V71.6241H320.187V74.4605H319.927V75.1534H320.62V72.317H320.88V71.6241H320.187H320.88Z" fill="white"/>
<path d="M324.041 69.2369H323.083V75.1533H324.041V69.2369Z" fill="white"/>
<path d="M324.041 69.237V68.5442H323.083C322.904 68.5442 322.725 68.62 322.596 68.7445C322.466 68.8744 322.39 69.053 322.39 69.237V75.1534C322.39 75.3374 322.466 75.5161 322.596 75.646C322.725 75.7759 322.904 75.8462 323.083 75.8462H324.041C324.225 75.8462 324.404 75.7759 324.528 75.646C324.658 75.5161 324.734 75.3374 324.734 75.1534V69.237C324.734 69.053 324.658 68.8744 324.528 68.7445C324.404 68.62 324.225 68.5442 324.041 68.5442V69.237H323.348V74.4605H323.083V75.1534H323.776V69.9299H324.041V69.237H323.348H324.041Z" fill="white"/>
<path d="M327.245 66.9473H326.293V75.1534H327.245V66.9473Z" fill="white"/>
<path d="M327.245 66.9474V66.2545H326.293C326.109 66.2545 325.93 66.3303 325.8 66.4548C325.67 66.5847 325.6 66.7633 325.6 66.9474V75.1534C325.6 75.3374 325.67 75.5161 325.8 75.646C325.93 75.7759 326.109 75.8463 326.293 75.8463H327.245C327.429 75.8463 327.608 75.7759 327.738 75.646C327.862 75.5161 327.938 75.3374 327.938 75.1534V66.9474C327.938 66.7633 327.862 66.5847 327.738 66.4548C327.608 66.3303 327.429 66.2545 327.245 66.2545V66.9474H326.553V74.4605H326.293V75.1534H326.986V67.6402H327.245V66.9474H326.553H327.245Z" fill="white"/>
<path d="M158.102 389.619C158.102 413.371 138.848 432.625 115.096 432.625C91.3436 432.625 72.0843 413.371 72.0843 389.619C72.0843 365.867 91.3436 346.613 115.096 346.613C138.848 346.613 158.102 365.867 158.102 389.619Z" fill="#96AFD4"/>
<path d="M118.197 373.748C118.197 376.092 116.297 377.997 113.948 377.997C111.604 377.997 109.704 376.092 109.704 373.748C109.704 371.404 111.604 369.499 113.948 369.499C116.297 369.499 118.197 371.404 118.197 373.748Z" fill="#0C2239"/>
<path d="M130.041 407C137.467 412.494 147.655 419.948 151.433 421.68C155.189 416.586 162.589 406.096 167.011 399.519C170.665 394.09 184.571 405.766 182.46 409.695C179.824 414.605 164.684 441.967 158.069 443.526C149.051 445.643 130.966 433.648 124.492 438.85" fill="#FF6666"/>
<path d="M130.393 408.348C128.141 403 133.267 374.728 128.298 363.842C125.261 357.195 118.078 353.2 111.788 355.755C106.971 355.604 103.853 359.165 101.46 363.469C96.9189 371.648 101.347 380.698 98.7648 383.02C94.521 386.836 91.1325 389.759 91.2516 394.176C91.4302 400.726 96.1828 402.805 95.1651 407.693C92.2909 421.501 130.393 408.348 130.393 408.348Z" fill="#143251"/>
<path d="M100.562 404.255C103.22 402.594 103.728 398.593 103.285 395.762C102.797 392.71 99.3277 389.873 100.54 384.347L103.707 383.979L107.734 391.291L106.197 403.059L100.562 404.255Z" fill="#112C47"/>
<path d="M119.323 402.469C125.986 405.517 132.011 412.738 132.433 418.578C133.998 440.344 142.047 440.046 133.224 453.616C133.137 455.603 133.061 457.34 132.991 458.899H87.4787C87.5653 456.859 87.6681 454.498 87.7981 451.613C88.0904 444.966 83.6463 421.176 85.9576 415.79C88.2636 410.394 99.241 404.337 106.143 401.89L119.323 402.469Z" fill="#FF6666"/>
<path d="M131.556 380.482C131.085 383.123 128.877 386.436 126.95 385.321C125.402 384.428 124.124 382.988 124.59 380.352C125.061 377.705 126.511 376.471 128.639 376.135C130.934 375.778 132.022 377.846 131.556 380.482Z" fill="#DC8E83"/>
<path d="M131.08 377.104C130.68 376.557 128.411 376.178 127.664 378.143L127.995 376.27C127.995 376.27 128.736 375.956 129.608 376.135C130.723 376.368 131.08 377.104 131.08 377.104Z" fill="#FFCCBB"/>
<path d="M97.2924 378.972C97.5306 381.646 99.4413 385.142 101.46 384.2C103.079 383.443 104.481 382.122 104.243 379.453C104.004 376.779 102.673 375.421 100.583 374.901C98.3317 374.343 97.0596 376.303 97.2924 378.972Z" fill="#DC8E83"/>
<path d="M98.0665 375.653C98.5157 375.145 100.811 374.96 101.379 376.985L101.217 375.09C101.217 375.09 100.502 374.711 99.62 374.814C98.4887 374.944 98.0665 375.653 98.0665 375.653Z" fill="#FFCCBB"/>
<path d="M105.147 391.703C105.85 394.647 104.405 401.121 104.14 402.74C103.534 402.967 99.4738 404.797 99.4738 404.797C98.3155 408.797 101.617 412.001 104.703 416.213C108.2 420.976 112.221 427.867 111.924 433.231L113.212 433.285C116.14 422.134 123.356 408.461 121.672 403.644C121.461 403.01 120.308 397.505 121.526 392.78L105.147 391.703Z" fill="#FFCCBB"/>
<path d="M105.325 393.43C105.325 393.43 105.406 394.458 105.217 396.217C105.217 396.217 109.721 402.047 113.109 402.199C116.503 402.345 121.061 397.343 121.061 397.343C121.061 397.343 121.142 393.863 121.364 392.417L105.325 393.43Z" fill="#DC8E83"/>
<path d="M128.06 374.798C127.735 382.187 121.477 387.914 114.089 387.589C106.695 387.264 100.968 381.007 101.293 373.613C101.731 363.691 107.929 359.182 115.323 359.507C122.712 359.837 128.487 365.077 128.06 374.798Z" fill="#FFCCBB"/>
<path d="M128.06 374.798C127.74 381.954 127.48 387.946 124.579 391.719C122.831 393.987 118.381 397.83 115.247 398.713C114.468 398.929 112.275 398.707 111.523 398.404C108.503 397.181 104.741 393.083 103.268 390.777C100.713 386.766 100.979 380.774 101.293 373.613" fill="#FFCCBB"/>
<path d="M122.555 380.124C122.506 381.342 121.726 382.3 120.822 382.257C119.919 382.219 119.231 381.196 119.285 379.984C119.339 378.76 120.113 377.808 121.017 377.851C121.921 377.889 122.609 378.906 122.555 380.124Z" fill="#0C2239"/>
<path d="M109.894 379.491C109.84 380.704 109.06 381.662 108.156 381.624C107.252 381.58 106.565 380.563 106.619 379.35C106.673 378.127 107.447 377.174 108.351 377.218C109.255 377.255 109.948 378.273 109.894 379.491Z" fill="#0C2239"/>
<path d="M117.169 373.667C117.169 373.667 117.309 373.596 117.564 373.51C117.813 373.423 118.176 373.32 118.614 373.239C119.485 373.082 120.655 373.033 121.818 373.239C122.111 373.282 122.398 373.353 122.685 373.423C122.966 373.494 123.242 373.602 123.502 373.699C123.767 373.802 124.016 373.937 124.243 374.057C124.476 374.181 124.687 374.333 124.877 374.462C125.066 374.603 125.223 374.76 125.364 374.89C125.505 375.025 125.607 375.166 125.694 375.28C125.862 375.513 125.932 375.653 125.932 375.653C125.997 375.783 125.943 375.94 125.819 376.005L125.694 376.027H125.662C125.662 376.027 125.499 376.021 125.256 375.989C125.131 375.973 124.99 375.951 124.817 375.94C124.649 375.924 124.476 375.897 124.27 375.875C123.875 375.832 123.421 375.772 122.939 375.702C122.69 375.67 122.446 375.615 122.192 375.578C121.932 375.529 121.672 375.48 121.418 375.431C120.898 375.323 120.368 375.209 119.875 375.08C119.383 374.95 118.917 374.814 118.517 374.679C117.71 374.414 117.163 374.127 117.163 374.127C117.039 374.062 116.99 373.905 117.055 373.78L117.169 373.667Z" fill="#0C2239"/>
<path d="M111.999 374.387C111.999 374.387 111.864 374.446 111.626 374.533C111.512 374.571 111.371 374.636 111.209 374.679C111.047 374.728 110.863 374.798 110.668 374.847C110.273 374.966 109.818 375.074 109.331 375.182C108.849 375.291 108.34 375.393 107.831 375.486C107.577 375.529 107.328 375.578 107.079 375.615C106.83 375.659 106.592 375.702 106.354 375.729C106.121 375.767 105.894 375.799 105.672 375.821C105.461 375.854 105.255 375.881 105.055 375.897C104.871 375.924 104.692 375.951 104.524 375.962C104.362 375.973 104.226 376.005 104.107 376.016C103.869 376.043 103.712 376.048 103.712 376.048H103.669C103.49 376.054 103.339 375.908 103.333 375.724L103.377 375.556C103.377 375.556 103.458 375.421 103.631 375.204C103.712 375.096 103.82 374.955 103.961 374.841C104.102 374.711 104.259 374.571 104.448 374.43C104.632 374.305 104.843 374.176 105.071 374.046C105.298 373.927 105.547 373.818 105.807 373.71C106.067 373.618 106.337 373.526 106.619 373.456C106.895 373.391 107.182 373.32 107.469 373.288C108.616 373.109 109.769 373.174 110.614 373.347C111.041 373.434 111.393 373.537 111.637 373.629C111.88 373.715 112.016 373.786 112.016 373.786C112.178 373.872 112.243 374.073 112.156 374.235L111.999 374.387Z" fill="#0C2239"/>
<path d="M111.788 387.075C112.579 386.788 115.377 386.885 116.021 387.264C116.665 387.643 114.587 388.016 113.872 387.979C113.152 387.952 111.155 387.345 111.788 387.075Z" fill="#DC8E83"/>
<path d="M115.55 394.983C114.332 394.718 112.221 394.669 111.263 394.794C110.576 394.886 112.167 394.269 113.412 394.323C114.554 394.371 116.205 395.156 115.55 394.983Z" fill="#DC8E83"/>
<path d="M109.742 389.933C112.319 390.826 115.491 390.815 117.943 390.631C118.246 390.609 118.111 390.658 117.813 390.999C117.326 391.567 115.761 393.3 113.672 393.186C111.669 393.083 109.942 390.577 109.509 389.857C109.342 389.575 109.509 389.857 109.742 389.933Z" fill="white"/>
<path d="M101.141 382.344C100.129 381.602 99.5008 380.66 100.242 379.545C100.426 379.264 100.697 378.977 101.065 378.679C102.922 377.169 101.958 380.547 101.958 380.547L101.141 382.344Z" fill="#FFCCBB"/>
<path d="M109.098 389.424C110.738 389.7 112.773 388.78 113.694 389.797C114.971 388.985 117.169 390.436 118.847 390.436L118.814 390.528C117.927 390.799 112.968 391.784 109.071 389.603C108.876 389.494 108.892 389.391 109.098 389.424Z" fill="#DC6150"/>
<path d="M109.201 389.635C109.201 389.635 110.495 391.773 111.431 392.639C112.33 393.467 114.868 393.754 115.913 393.05C116.86 392.417 118.446 390.528 118.446 390.528L118.057 390.636C117.158 391.167 116.611 391.73 115.572 392.076C114.527 392.428 113.445 392.444 112.427 392.119C111.101 391.697 110.814 390.707 109.894 389.965L109.445 389.694L109.201 389.635Z" fill="#DC6150"/>
<path d="M110.116 390.111C110.814 390.642 112.118 391.129 113.769 391.259C115.772 391.41 117.899 390.734 117.899 390.734C117.899 390.734 115.745 391.032 113.867 390.95C111.913 390.864 110.116 390.111 110.116 390.111Z" fill="#E3E3E3"/>
<path d="M101.141 382.344C101.13 378.257 102.624 372.449 105.233 370.121C107.404 368.178 110.911 366.105 110.397 362.581C110.397 362.581 109.618 366.749 113.677 369.391C116.59 371.285 130.366 371.485 126.235 382.62L127.778 381.099L128 375.41L124.173 369.769L110.018 360.031L102.44 369.997L100.508 376.947L101.141 382.344Z" fill="#DC8E83"/>
<path d="M127.524 382.847C127.621 379.177 127.995 376.27 125.12 373.494C121.077 369.58 117.266 370.717 114.002 368.275C110.933 365.98 109.845 362.554 110.348 359.29L115.231 358.808L120.178 359.723L125.781 364.183L128.503 370.695C128.503 370.695 129.045 372.974 128.693 376.736C128.341 380.509 127.524 382.847 127.524 382.847Z" fill="#143251"/>
<path d="M111.258 359.312C101.904 362.208 101.238 366.836 100.464 372.232C99.685 377.624 101.141 382.344 101.141 382.344C100.952 379.994 101.52 371.258 106.116 368.086C110.711 364.909 110.397 362.581 110.397 362.581L111.258 359.312Z" fill="#143251"/>
<path d="M109.217 360.021C109.109 359.458 109.104 358.841 109.293 358.234C110.007 355.907 111.788 355.755 111.788 355.755C110.933 356.719 110.543 358.056 110.386 359.29H110.348C110.332 359.398 110.316 359.512 110.305 359.62C109.926 359.75 109.564 359.88 109.217 360.021Z" fill="#112C47"/>
<path d="M110.305 359.62C110.316 359.512 110.332 359.398 110.348 359.29H110.386C110.375 359.393 110.359 359.501 110.354 359.604C110.338 359.609 110.316 359.615 110.305 359.62Z" fill="#112C47"/>
<path d="M110.397 362.581C110.397 362.581 109.488 361.455 109.217 360.021C109.564 359.88 109.926 359.75 110.305 359.62C110.316 359.615 110.338 359.609 110.354 359.604C110.191 361.217 110.397 362.581 110.397 362.581Z" fill="#112C47"/>
<path d="M97.2437 405.993C96.6104 409.777 98.9812 412.591 102.678 417.663C106.381 422.73 110.435 428.083 110.738 433.177C110.96 436.928 109.942 449.989 109.179 458.899H111.669L113.212 433.285C113.336 429.258 110.608 424.938 108.573 421.507C106.543 418.08 101.634 412.315 100.594 410.145C99.5496 407.985 99.0624 406.518 99.4738 404.797C99.4738 404.797 98.0448 404.32 97.2437 405.993Z" fill="#EF4F4F"/>
<path d="M113.033 432.755C113.569 430.833 115.442 425.761 116.124 424.213C116.806 422.665 118.008 425.712 118.008 425.712C118.008 425.712 113.012 438.357 112.654 442.547C112.292 446.736 112.243 436.132 112.243 436.132L113.033 432.755Z" fill="#EF4F4F"/>
<path d="M112.887 419.222C113.109 421.626 114.825 427.526 114.825 427.526L116.005 424.63C116.005 424.63 113.347 423.271 112.887 419.222Z" fill="#DC8E83"/>
<path d="M114.825 427.526C117.364 429.518 128.125 431.201 132.109 425.09C136.087 418.984 134.528 414.004 134.528 414.004L116.005 424.63L114.825 427.526Z" fill="#EF4F4F"/>
<path d="M118.04 397.408C122.879 400.185 126.512 401.468 126.539 403.416C126.566 405.37 115.388 410.962 113.185 416.586C113.196 416.342 113.196 416.342 113.196 416.342C113.196 416.342 112.649 413.636 115.269 409.836C116.725 407.725 118.803 406.117 119.393 403.481C119.713 402.041 118.116 399.562 118.04 397.408Z" fill="#DC8E83"/>
<path d="M157.695 441.383C149.495 444.441 133.906 429.014 133.906 429.014C134.469 431.899 136.65 438.898 136.65 438.898C144.093 441.036 152.694 444.787 158.069 443.526C161.209 442.785 166.27 436.235 171.001 429.025C168.289 432.955 163.222 439.326 157.695 441.383Z" fill="#EF4F4F"/>
<path d="M129.386 367.112C130.728 373.136 129.689 374.159 132.563 379.177C134.761 382.993 139.411 390.864 134.896 396.509C133.375 398.409 130.663 399.876 130.485 402.561C130.349 404.596 131.854 406.578 132.655 408.38C134.295 412.077 135.957 417.035 133.57 420.716C131.546 423.834 128.005 425.929 124.53 426.367C120.297 426.892 115.442 425.864 113.547 421.561C111.485 416.878 114.635 413.219 117.77 410.204C119.182 408.846 120.92 407.682 121.126 405.538C121.331 403.335 120.151 401.776 119.058 399.957C113.975 391.502 127.323 385.895 127.54 378.712C127.637 375.421 126.122 373.997 127.67 371.014L129.386 367.112Z" fill="#143251"/>
<path d="M480.605 117.905H448.247V56.7006H480.605V117.905Z" fill="#3D6D9F"/>
<path d="M432.857 114.819C433.263 108.99 431.813 103.755 436.305 91.9605C437.843 87.9387 437.247 87.5219 438.427 84.1875C439.061 82.4012 440.733 80.8964 441.123 79.2238C442.303 74.0869 441.599 74.4496 442.308 71.5916C444.641 65.2638 453.189 77.7299 446.125 90.2446C445.491 94.4234 445.957 93.422 445.491 98.9053" fill="#FFCCBB"/>
<path d="M483.831 77.4864C485.969 76.3605 486.402 69.2587 483.831 68.7391C481.98 68.3656 478.781 70.9908 479.041 73.9355C479.301 76.8801 482.316 78.2821 483.831 77.4864Z" fill="#FFCCBB"/>
<path d="M484.264 87.7926C486.402 86.6667 486.835 79.5649 484.264 79.0453C482.413 78.6718 479.214 81.2971 479.474 84.2417C479.734 87.1863 482.749 88.5937 484.264 87.7926Z" fill="#FFCCBB"/>
<path d="M484.259 95.9932C485.883 95.138 486.208 89.7467 484.259 89.3515C482.846 89.0646 480.421 91.062 480.616 93.2976C480.816 95.5331 483.106 96.6049 484.259 95.9932Z" fill="#FFCCBB"/>
<path d="M331.116 328.301H320.214V322.065H331.116V328.301Z" fill="#EEEEEE"/>
<path d="M325.178 325.183C325.178 327.927 322.953 330.152 320.214 330.152C317.47 330.152 315.245 327.927 315.245 325.183C315.245 322.439 317.47 320.214 320.214 320.214C322.953 320.214 325.178 322.439 325.178 325.183Z" fill="#EF4F4F"/>
<path d="M229.785 380.958C229.785 380.958 240.416 382.176 245.185 387.594L229.785 380.958Z" fill="#FF6666"/>
<path d="M233.406 374.955C233.406 374.955 241.997 377.229 249.169 381.748L233.406 374.955Z" fill="#FF6666"/>
<path d="M236.654 369.872C236.654 369.872 245.472 371.491 253.218 376.341L236.654 369.872Z" fill="#FF6666"/>
<path d="M241.91 363.869C241.91 363.869 247.323 365.482 254.604 369.872L241.91 363.869Z" fill="#FF6666"/>
<path d="M245.185 359.94C245.185 359.94 252.882 363.409 257.732 366.874L245.185 359.94Z" fill="#FF6666"/>
<path d="M445.491 138.918C445.491 138.918 438.108 148.618 436.95 156.012L445.491 138.918Z" fill="#FF6666"/>
<path d="M439.256 135.811C439.256 135.811 432.96 142.382 429.556 153.241L439.256 135.811Z" fill="#FF6666"/>
<path d="M434.406 132.222C434.406 132.222 427.25 139.844 423.32 149.311L434.406 132.222Z" fill="#FF6666"/>
<path d="M428.863 129.618C428.863 129.618 421.068 138.452 418.556 143.091L428.863 129.618Z" fill="#FF6666"/>
<path d="M85.097 112.719C85.097 116.519 82.0225 119.594 78.228 119.594C74.4389 119.594 71.3644 116.519 71.3644 112.719C71.3644 108.93 74.4389 105.861 78.228 105.861C82.0225 105.861 85.097 108.93 85.097 112.719ZM85.097 140.623C85.097 144.412 82.0225 147.492 78.228 147.492C74.4389 147.492 71.3644 144.412 71.3644 140.623C71.3644 136.829 74.4389 133.754 78.228 133.754C82.0225 133.754 85.097 136.829 85.097 140.623ZM85.097 168.521C85.097 172.316 82.0225 175.39 78.228 175.39C74.4389 175.39 71.3644 172.316 71.3644 168.521C71.3644 164.732 74.4389 161.652 78.228 161.652C82.0225 161.652 85.097 164.732 85.097 168.521ZM39.8826 113.012V168.521C39.8826 182.211 51.0874 193.416 64.7822 193.416H89.9633C103.653 193.416 114.857 182.211 114.857 168.521V127.08L125.072 119.188C127.188 117.553 126.809 114.246 124.373 113.131L114.435 108.573C112.319 96.9784 102.142 88.1174 89.9633 88.1174H64.7822C51.0874 88.1174 39.8826 99.3168 39.8826 113.012Z" fill="#F2575D"/>
<path d="M476.729 294.432C469.893 299.585 403.752 297.36 394.988 293.728C386.219 290.096 384.947 244.833 393.229 235.555C401.511 226.283 472.448 229.027 478.521 235.756C484.594 242.484 483.561 289.29 476.729 294.432Z" fill="#F2575D"/>
<path d="M446.368 262.403L431.023 250.002C429.204 248.53 426.487 249.764 426.4 252.103L425.534 275.757C425.442 278.09 428.067 279.525 429.983 278.193L446.2 266.945C447.754 265.868 447.835 263.594 446.368 262.403Z" fill="white"/>
<path d="M27.0702 238.895C19.8439 238.884 13.9979 233.017 14.0141 225.79C14.025 218.569 19.8926 212.718 27.1189 212.734C34.3452 212.745 40.1912 218.618 40.1749 225.839C40.1641 233.065 34.2965 238.911 27.0702 238.895ZM45.3281 204.29L42.1885 204.285L37.6904 197.924C37.3385 197.421 36.7594 197.118 36.1477 197.118L18.155 197.085C17.538 197.085 16.9588 197.378 16.6015 197.881L12.0817 204.225L8.9422 204.22C4.05972 204.209 0.0595473 208.193 0.0487221 213.081L5.50869e-06 238.895C-0.0054071 243.778 3.97852 247.778 8.86101 247.789L45.2469 247.854C50.1239 247.864 54.1241 243.88 54.1349 238.998L54.1837 213.178C54.1945 208.296 50.2051 204.295 45.3281 204.29Z" fill="#F2575D"/>
<path d="M27.1135 217.168C22.3338 217.157 18.4582 221.022 18.4473 225.801C18.4365 230.575 22.3014 234.456 27.0756 234.462C31.8552 234.473 35.7309 230.608 35.7417 225.834C35.7471 221.054 31.8877 217.178 27.1135 217.168Z" fill="#F2575D"/>
<path d="M16.8073 277.603L16.8993 277.673L27.2218 285.636L37.3981 277.489L37.4848 277.419C40.2075 275.243 40.6513 271.232 38.4699 268.515C36.2939 265.797 32.2883 265.354 29.571 267.53L27.0756 269.527L24.5478 267.578C21.7872 265.446 17.7924 265.96 15.6651 268.72C13.5379 271.476 14.0521 275.476 16.8073 277.603Z" fill="#F2575D"/>
</svg>
