<svg width="493" height="302" viewBox="0 0 493 302" fill="none" xmlns="http://www.w3.org/2000/svg">
<path d="M476.823 239.703L419.736 215.705L435.911 177.226L493 201.224L476.823 239.703Z" fill="#E7E8E5"/>
<path d="M492.987 201.764C492.993 201.782 492.736 201.881 492.241 202.053C491.693 202.235 490.969 202.476 490.066 202.777C488.111 203.401 485.381 204.274 482.029 205.345C475.171 207.478 465.785 210.4 455.388 213.636L455.168 213.703L455.058 213.501C454.975 213.347 454.883 213.179 454.791 213.012C449.546 203.322 444.801 194.554 441.33 188.143C439.653 184.988 438.286 182.417 437.308 180.576C436.863 179.716 436.507 179.027 436.239 178.505C436 178.03 435.883 177.775 435.9 177.765C435.916 177.756 436.068 177.992 436.338 178.451C436.63 178.961 437.017 179.632 437.5 180.471C438.516 182.292 439.937 184.834 441.679 187.953C445.187 194.344 449.984 203.084 455.286 212.742C455.377 212.91 455.468 213.077 455.552 213.231L455.223 213.098C465.638 209.924 475.042 207.06 481.913 204.967C485.287 203.968 488.034 203.153 490.003 202.569C490.918 202.31 491.651 202.103 492.208 201.945C492.713 201.808 492.982 201.745 492.987 201.764Z" fill="#DADBD8"/>
<path d="M419.724 216.244C419.653 216.106 426.164 212.636 434.263 208.495C442.366 204.352 448.989 201.107 449.06 201.245C449.131 201.383 442.622 204.853 434.519 208.995C426.419 213.137 419.794 216.383 419.724 216.244Z" fill="#DADBD8"/>
<path d="M468.238 208.742C468.388 208.701 470.429 215.72 472.796 224.418C475.165 233.118 476.961 240.202 476.812 240.243C476.663 240.284 474.622 233.266 472.254 224.566C469.886 215.868 468.088 208.783 468.238 208.742Z" fill="#DADBD8"/>
<path d="M100.322 293.942L57.8678 276.094L69.8973 247.478L112.353 265.325L100.322 293.942Z" fill="#F3F2F1"/>
<path d="M112.344 265.726C112.348 265.739 112.156 265.813 111.789 265.941C111.38 266.077 110.843 266.256 110.171 266.48C108.717 266.944 106.686 267.593 104.194 268.389C99.0938 269.976 92.1133 272.148 84.3813 274.554L84.2185 274.605L84.136 274.455C84.0737 274.34 84.0055 274.215 83.938 274.091C80.0374 266.886 76.5074 260.364 73.9267 255.597C72.6797 253.251 71.6629 251.339 70.9351 249.97C70.6046 249.329 70.3405 248.818 70.1401 248.429C69.9626 248.076 69.8756 247.886 69.8885 247.879C69.9008 247.872 70.013 248.047 70.2143 248.389C70.432 248.767 70.7191 249.267 71.0777 249.891C71.8343 251.245 72.8906 253.136 74.1863 255.455C76.7947 260.207 80.363 266.708 84.3048 273.891C84.373 274.016 84.4413 274.14 84.5035 274.254L84.2583 274.155C92.0046 271.796 98.9978 269.664 104.107 268.109C106.617 267.365 108.66 266.76 110.123 266.326C110.804 266.132 111.35 265.979 111.764 265.861C112.14 265.76 112.339 265.712 112.344 265.726Z" fill="#DADBD8"/>
<path d="M57.8585 276.495C57.806 276.393 62.6477 273.812 68.6713 270.733C74.6971 267.651 79.6227 265.237 79.6752 265.341C79.7277 265.444 74.8869 268.023 68.8618 271.105C62.8382 274.184 57.9112 276.598 57.8585 276.495Z" fill="#DADBD8"/>
<path d="M93.9376 270.916C94.0494 270.885 95.5668 276.106 97.3273 282.574C99.0886 289.044 100.425 294.312 100.314 294.342C100.202 294.372 98.685 289.154 96.9245 282.683C95.1633 276.215 93.8266 270.946 93.9376 270.916Z" fill="#DADBD8"/>
<path d="M69.6646 202.277L19.307 222.233L0 173.513L50.3574 153.557L69.6646 202.277Z" fill="#F3F2F1"/>
<path d="M21.5591 216.515L25.5543 185.924L43.2989 197.433L46.8499 186.18L64.1078 199.654L21.5591 216.515Z" fill="#DADBD8"/>
<path d="M39.8701 174.609C40.663 176.611 39.6838 178.877 37.6819 179.669C35.6804 180.463 33.4154 179.483 32.6219 177.482C31.8287 175.48 32.8083 173.215 34.8098 172.422C36.8114 171.628 39.0766 172.608 39.8701 174.609Z" fill="#DADBD8"/>
<path d="M21.487 216.944L21.4038 216.734C19.045 210.802 16.4806 204.354 13.7689 197.535C12.4148 194.122 11.023 190.618 9.60256 187.038C8.89229 185.249 8.17526 183.44 7.45155 181.614C7.08939 180.702 6.72577 179.786 6.36097 178.864L5.81275 177.48L5.53732 176.786L5.39961 176.44L5.33046 176.265L5.29589 176.178L5.27889 176.134L5.27039 176.113L5.26599 176.102C5.24343 176.153 5.23376 176.174 5.23318 176.174C5.23201 176.174 5.27625 176.069 5.32137 175.964C5.36621 175.859 5.4122 175.753 5.41397 175.753C5.41426 175.753 5.41367 175.755 5.4125 175.758C21.0311 169.584 35.6437 163.806 47.9703 158.932L48.1771 158.851L48.2581 159.057C50.2265 164.076 52.0592 168.75 53.7309 173.013C53.6781 173.184 53.6263 173.355 53.5753 173.528C51.8553 169.233 49.9637 164.508 47.9281 159.426C35.714 164.277 21.2719 170.014 5.83795 176.145L5.87956 176.25L6.01668 176.597L6.29182 177.29L6.84063 178.674C7.20542 179.595 7.5682 180.512 7.92975 181.425C8.65315 183.251 9.36898 185.06 10.0778 186.849C11.4945 190.431 12.8819 193.937 14.2323 197.35C16.851 203.981 19.3304 210.26 21.6191 216.055L21.5591 216.515L42.8312 208.086C46.3392 206.71 49.4822 205.477 52.2092 204.406C52.2215 204.481 52.2341 204.557 52.2467 204.632C44.7841 207.619 34.261 211.831 21.6956 216.86L21.487 216.944Z" fill="#ECECEA"/>
<path d="M21.5591 216.515L21.6192 216.055C21.6596 216.157 21.6994 216.259 21.7396 216.36C29.6786 213.245 36.795 210.454 42.8313 208.085L21.5591 216.515Z" fill="#DADBD8"/>
<path d="M338.84 286.919L336.118 284.95C334.572 283.83 333.482 282.19 333.049 280.33L331.131 272.091C329.863 266.64 324.807 263.07 319.395 263.485L318.65 260.286C318.461 259.477 317.651 258.973 316.842 259.161C316.032 259.35 315.529 260.159 315.717 260.969L316.448 264.11C311.18 266.002 308.046 271.576 309.346 277.16L311.189 285.081C311.591 286.807 311.402 288.618 310.652 290.225L308.947 293.875L320.041 291.294C320.765 292.338 321.896 293.108 323.151 293.321C324.918 293.621 326.825 292.818 327.845 291.344C328.265 290.738 328.515 290.029 328.613 289.299L338.84 286.919Z" fill="#E7E8E5"/>
<path d="M345.277 61.7998L393.269 93.1593L373.044 126.515L323.894 93.2261L345.277 61.7998Z" fill="#F3F2F1"/>
<path d="M345.277 61.7999L380.024 58.5152C381.495 58.3764 382.862 59.29 383.295 60.7024L393.269 93.1594" fill="#F2575D"/>
<path d="M345.277 61.7999L380.024 58.5152C381.495 58.3764 382.862 59.29 383.295 60.7024L393.269 93.1594" fill="#DADBD8"/>
<path d="M323.894 93.2261C323.87 93.1309 330.465 91.4941 338.622 89.5709C346.781 87.6484 353.411 86.1661 353.433 86.2614C353.456 86.3574 346.863 87.9934 338.704 89.9167C330.548 91.8399 323.916 93.3214 323.894 93.2261Z" fill="#DADBD8"/>
<path d="M373.044 126.515C372.947 126.528 371.939 119.966 370.792 111.859C369.645 103.749 368.795 97.1663 368.892 97.1521C368.989 97.1386 369.997 103.7 371.144 111.809C372.29 119.917 373.142 126.501 373.044 126.515Z" fill="#DADBD8"/>
<path d="M345.277 61.7997L356.567 96.3975L393.269 93.1593L345.277 61.7997Z" fill="#DADBD8"/>
<path d="M346.505 65.1715L356.333 50.2047L398.483 77.4732L388.535 93.4811L356.731 96.1455L346.505 65.1715Z" fill="#FAFAF9"/>
<path d="M346.505 65.1714C346.505 65.1714 346.584 65.3634 346.713 65.734C346.846 66.1195 347.034 66.6656 347.277 67.3722C347.767 68.8229 348.477 70.9269 349.382 73.6101C351.183 79.0063 353.758 86.7279 356.883 96.0951L356.718 95.9856C365.885 95.2078 376.756 94.2859 388.519 93.2883L388.371 93.379C390.268 90.3246 392.258 87.1202 394.283 83.8595C395.648 81.6654 396.996 79.4961 398.317 77.3703L398.377 77.6359C381.414 66.6288 366.449 56.918 356.265 50.3104L356.437 50.2736C353.333 54.9535 350.865 58.674 349.163 61.2386C348.316 62.5055 347.659 63.4852 347.205 64.164C346.985 64.4851 346.815 64.7356 346.691 64.9171C346.573 65.0859 346.505 65.1714 346.505 65.1714C346.505 65.1714 346.55 65.0829 346.656 64.9126C346.772 64.7288 346.931 64.4768 347.136 64.1528C347.575 63.4694 348.211 62.4815 349.032 61.2056C350.715 58.6163 353.157 54.8605 356.228 50.1363L356.296 50.0321L356.401 50.0996C366.603 56.6802 381.595 66.3498 398.588 77.3096L398.749 77.4131L398.648 77.5751C397.327 79.7017 395.979 81.871 394.616 84.0658C392.589 87.3257 390.597 90.5294 388.699 93.5831L388.648 93.6656L388.551 93.6731C376.786 94.6467 365.913 95.5461 356.745 96.3052L356.618 96.3157L356.58 96.1957C353.505 86.7864 350.97 79.0296 349.199 73.6078C348.331 70.9217 347.651 68.8146 347.181 67.3624C346.959 66.6581 346.787 66.1128 346.665 65.728C346.551 65.3597 346.505 65.1714 346.505 65.1714Z" fill="#DADBD8"/>
<path d="M386.887 80.5957C386.828 80.6857 380.358 76.5519 372.438 71.3635C364.516 66.1727 358.143 61.8934 358.203 61.8034C358.262 61.7134 364.73 65.8464 372.653 71.0364C380.572 76.2249 386.946 80.5057 386.887 80.5957Z" fill="#DADBD8"/>
<path d="M384.09 84.8091C384.03 84.8991 377.561 80.766 369.642 75.5776C361.719 70.3869 355.346 66.1075 355.406 66.0175C355.464 65.9268 361.933 70.0606 369.856 75.2505C377.776 80.439 384.15 84.7191 384.09 84.8091Z" fill="#DADBD8"/>
<path d="M380.866 89.666C380.807 89.7561 374.338 85.6222 366.418 80.4338C358.495 75.243 352.123 70.9637 352.183 70.8737C352.241 70.7837 358.709 74.9168 366.632 80.1067C374.552 85.2952 380.926 89.5753 380.866 89.666Z" fill="#DADBD8"/>
<path d="M377.643 94.5221C377.583 94.6129 371.408 90.6719 363.853 85.7219C356.295 80.7705 350.217 76.6839 350.276 76.5939C350.336 76.5039 356.508 80.4435 364.067 85.3956C371.622 90.3448 377.702 94.4321 377.643 94.5221Z" fill="#DADBD8"/>
<path d="M369.464 95.2341C369.448 95.2566 369.203 95.1268 368.771 94.8718C368.27 94.5642 367.667 94.1952 366.962 93.7631C365.367 92.7497 363.32 91.4491 361.058 90.0104C358.754 88.5364 356.691 87.1675 355.211 86.1593C354.47 85.6553 353.875 85.2405 353.469 84.9464C353.063 84.6524 352.845 84.4798 352.861 84.4573C352.875 84.4341 353.121 84.5646 353.553 84.8196C354.055 85.1264 354.657 85.4955 355.362 85.9283C356.957 86.9417 359.004 88.2424 361.268 89.6811C363.57 91.155 365.632 92.5232 367.113 93.5321C367.853 94.0362 368.448 94.451 368.854 94.7442C369.261 95.0383 369.478 95.2116 369.464 95.2341Z" fill="#DADBD8"/>
<path d="M361.36 95.7577C361.3 95.8478 359.888 95.0151 358.206 93.899C356.524 92.7821 355.209 91.804 355.268 91.7139C355.328 91.6239 356.74 92.4565 358.422 93.5727C360.103 94.6896 361.419 95.6677 361.36 95.7577Z" fill="#DADBD8"/>
<path d="M177.666 89.8835L170.297 100.865L167.412 99.6784L146.026 113.198L141.856 101.884C141.856 101.884 153.968 98.3012 156.589 94.4494C159.211 90.5976 156.861 89.372 156.861 89.372L163.018 83.861L177.666 89.8835Z" fill="#E7E8E5"/>
<path d="M172.763 65.0619C172.763 65.0619 164.258 62.0832 153.378 48.7884C142.499 35.4943 138.601 19.1023 137.087 18.9981C135.574 18.8945 129.367 15.057 113.615 40.7473C97.863 66.4368 102.03 73.3393 104.523 73.5861C107.016 73.8328 124.465 71.149 134.869 73.6108C145.273 76.0726 158.172 83.1926 158.172 83.1926L172.763 65.0619Z" fill="#E7E8E5"/>
<path d="M189.513 83.1342L185.853 88.4449L184.214 90.8235C181.966 94.0864 177.557 95.0188 174.181 92.9448L156.235 84.1783L170.122 60.5861L187.638 72.7963C191 75.1403 191.837 79.7594 189.513 83.1342Z" fill="#DADBD8"/>
<path d="M114.565 41.3632C106.152 55.2933 101.811 68.0856 104.873 69.9346C107.933 71.7836 117.236 61.9887 125.65 48.0586C134.064 34.1277 138.404 21.3361 135.343 19.4871C132.282 17.6389 122.98 27.4322 114.565 41.3632Z" fill="#DADBD8"/>
<path d="M185.486 83.645C185.391 83.8003 182.976 82.5116 180.092 80.7684C177.204 79.0236 174.941 77.4844 175.036 77.3292C175.129 77.1746 177.544 78.4618 180.431 80.2066C183.315 81.9498 185.579 83.4898 185.486 83.645Z" fill="#E7E8E5"/>
<path d="M187.472 80.2747C187.373 80.427 185.196 79.1863 182.61 77.5046C180.023 75.8206 178.007 74.3339 178.107 74.1816C178.205 74.0301 180.381 75.2708 182.968 76.954C185.554 78.6357 187.57 80.1224 187.472 80.2747Z" fill="#E7E8E5"/>
<path d="M183.069 87.1398C183.033 87.2231 182.446 87.0115 181.52 86.5997C181.057 86.3934 180.51 86.1377 179.906 85.8436C179.308 85.5421 178.697 85.1363 178.039 84.7372C175.416 83.1162 173.447 81.6003 173.534 81.4585C173.638 81.292 175.784 82.5717 178.382 84.1776C179.035 84.5722 179.633 84.9938 180.206 85.3186C180.783 85.6351 181.299 85.9291 181.728 86.1849C182.588 86.6965 183.106 87.0565 183.069 87.1398Z" fill="#E7E8E5"/>
<path d="M128.518 39.7115C128.518 39.7115 121.488 34.0939 116.105 43.8558C110.722 53.6176 118.51 56.2617 118.51 56.2617C122.386 51.5826 125.738 46.0903 128.518 39.7115Z" fill="#FAFAF9"/>
<path d="M138.058 28.4508C138.102 28.4643 137.91 29.1477 137.526 30.3756C137.135 31.6005 136.578 33.3798 135.823 35.5558C135.371 36.618 134.876 37.7776 134.346 39.0206C134.078 39.6431 133.801 40.2867 133.516 40.9498C133.373 41.2814 133.228 41.6174 133.081 41.958C132.926 42.2947 132.737 42.621 132.562 42.9593C131.846 44.3058 131.095 45.7175 130.317 47.1802C130.121 47.5462 129.925 47.9153 129.726 48.2873C129.531 48.6616 129.278 49.0052 129.055 49.3705C128.592 50.0913 128.122 50.8227 127.647 51.5623C127.171 52.3019 126.701 53.0325 126.236 53.7533C125.998 54.1081 125.789 54.4809 125.53 54.814C125.274 55.1493 125.02 55.4823 124.768 55.8116C123.76 57.1273 122.787 58.3972 121.86 59.6079C121.623 59.9072 121.406 60.2147 121.163 60.496C120.914 60.7713 120.668 61.0436 120.425 61.3121C119.94 61.8477 119.468 62.3668 119.012 62.8701C118.101 63.8692 117.249 64.8023 116.471 65.656C114.808 67.2417 113.425 68.4838 112.473 69.3472C111.516 70.2053 110.973 70.6644 110.941 70.6314C110.91 70.5984 111.394 70.0771 112.296 69.1627C113.229 68.2318 114.54 66.9259 116.149 65.3207C116.904 64.4573 117.728 63.5129 118.612 62.501C119.056 61.9962 119.515 61.4741 119.987 60.9363C120.224 60.6678 120.464 60.3947 120.707 60.1187C120.944 59.8367 121.157 59.5284 121.388 59.2283C122.3 58.0184 123.256 56.7492 124.247 55.4343C124.496 55.1058 124.746 54.7742 124.999 54.4404C125.255 54.1096 125.461 53.7383 125.698 53.385C126.157 52.6687 126.623 51.9426 127.095 51.2075C127.568 50.4731 128.035 49.7478 128.495 49.0329C128.718 48.6714 128.971 48.3301 129.166 47.9588C129.364 47.5912 129.562 47.2252 129.757 46.8629C130.542 45.4159 131.3 44.0192 132.021 42.6886C132.198 42.354 132.39 42.0322 132.548 41.6999C132.699 41.3631 132.847 41.0308 132.994 40.7038C133.287 40.0497 133.572 39.4143 133.848 38.8C134.402 37.5751 134.918 36.4319 135.392 35.3848C136.182 33.2598 136.825 31.5293 137.282 30.2961C137.741 29.0967 138.014 28.4381 138.058 28.4508Z" fill="#DADBD8"/>
<path d="M97.4099 48.6706C97.4046 48.7786 91.8921 48.5963 85.0992 48.2633C78.304 47.931 72.8016 47.5739 72.8069 47.4659C72.8121 47.3586 78.3235 47.5409 85.1187 47.8732C91.9116 48.2055 97.4151 48.5625 97.4099 48.6706Z" fill="#E7E8E5"/>
<path d="M102.772 32.5923C102.723 32.6891 96.3335 29.5656 88.5024 25.6186C80.6684 21.6693 74.3589 18.3914 74.4076 18.2953C74.4562 18.1986 80.8439 21.3205 88.678 25.2698C96.509 29.2168 102.82 32.4963 102.772 32.5923Z" fill="#E7E8E5"/>
<path d="M112.404 22.2355C112.299 22.264 110.916 17.4191 109.314 11.4152C107.711 5.41066 106.497 0.521479 106.602 0.493725C106.705 0.465971 108.088 5.31014 109.691 11.3147C111.294 17.3178 112.508 22.2085 112.404 22.2355Z" fill="#E7E8E5"/>
<path d="M327.839 35.858C327.314 34.072 326.137 32.5193 324.678 31.3626C323.249 30.2307 321.504 29.4446 319.682 29.3659C317.747 29.2826 315.79 30.0305 314.404 31.3829C313.581 32.1878 312.965 33.1989 312.609 34.2941C311.935 33.4944 311.089 32.8389 310.139 32.4023C308.379 31.5944 306.284 31.5472 304.49 32.2755C302.8 32.9619 301.421 34.2888 300.456 35.8355C299.471 37.4145 298.884 39.2732 298.99 41.1312C299.124 43.4588 299.998 45.8801 301.521 47.6436C303.132 49.5061 305.441 50.8353 307.736 51.7279C311.593 53.2274 316.648 55.0667 316.648 55.0667C316.648 55.0667 320.034 51.4864 323.163 48.777C325.023 47.1658 326.752 45.1375 327.643 42.843C328.486 40.6692 328.494 38.0948 327.839 35.858Z" fill="#E7E8E5"/>
<path d="M294.194 16.0053C294.244 14.9041 293.882 13.8075 293.287 12.8796C292.705 11.9705 291.878 11.1941 290.873 10.8003C289.805 10.3818 288.565 10.4245 287.528 10.9158C286.912 11.2084 286.372 11.6569 285.963 12.2015C285.738 11.6239 285.392 11.0944 284.943 10.6668C284.111 9.87545 282.948 9.44713 281.802 9.51089C280.724 9.57015 279.696 10.048 278.858 10.7298C278.003 11.4244 277.316 12.353 277.018 13.4144C276.646 14.7436 276.671 16.2686 277.185 17.549C277.73 18.9022 278.768 20.0911 279.882 21.0317C281.755 22.6129 284.234 24.6157 284.234 24.6157C284.234 24.6157 286.818 23.2603 289.091 22.3444C290.444 21.7991 291.801 20.9957 292.741 19.8811C293.632 18.8249 294.131 17.384 294.194 16.0053Z" fill="#E7E8E5"/>
<path d="M154.845 261.152C154.417 260.136 153.619 259.301 152.683 258.719C151.766 258.148 150.686 257.803 149.609 257.88C148.465 257.961 147.364 258.533 146.639 259.422C146.209 259.952 145.915 260.588 145.779 261.256C145.328 260.83 144.786 260.502 144.198 260.309C143.107 259.952 141.872 260.065 140.865 260.614C139.917 261.132 139.194 262.005 138.731 262.98C138.257 263.976 138.037 265.109 138.224 266.195C138.46 267.555 139.137 268.922 140.152 269.857C141.225 270.844 142.673 271.472 144.084 271.842C146.455 272.466 149.553 273.207 149.553 273.207C149.553 273.207 151.304 270.873 152.963 269.068C153.95 267.995 154.831 266.685 155.2 265.274C155.55 263.939 155.382 262.423 154.845 261.152Z" fill="#E7E8E5"/>
<path d="M449.973 117.042C449.887 117.047 450.054 115.603 449.526 113.099C449.283 111.847 448.751 110.36 447.889 108.773C447.019 107.194 445.745 105.53 443.982 104.093C442.225 102.67 439.988 101.433 437.375 100.869C434.781 100.323 431.829 100.293 428.983 101.253C427.551 101.689 426.161 102.379 424.874 103.267C424.21 103.685 423.624 104.22 423.01 104.732C422.453 105.304 421.869 105.861 421.381 106.516C419.323 109.044 418.091 112.348 417.925 115.795C417.821 119.246 418.795 122.637 420.65 125.318C421.085 126.008 421.625 126.61 422.136 127.224C422.708 127.782 423.252 128.36 423.88 128.83C425.096 129.815 426.428 130.61 427.821 131.156C430.586 132.334 433.531 132.533 436.161 132.189C438.809 131.829 441.134 130.769 442.997 129.486C444.866 128.19 446.265 126.631 447.255 125.123C448.237 123.608 448.883 122.167 449.223 120.938C449.942 118.483 449.888 117.03 449.973 117.042C449.981 117.042 449.982 117.131 449.975 117.304C449.964 117.506 449.949 117.76 449.931 118.074C449.916 118.414 449.882 118.832 449.779 119.319C449.694 119.808 449.609 120.377 449.408 120.992C449.092 122.244 448.464 123.718 447.487 125.274C446.503 126.822 445.096 128.431 443.198 129.772C441.309 131.102 438.935 132.208 436.22 132.595C433.525 132.967 430.5 132.778 427.65 131.579C426.215 131.022 424.839 130.209 423.585 129.199C422.936 128.716 422.374 128.123 421.785 127.549C421.255 126.919 420.698 126.299 420.249 125.59C418.332 122.832 417.322 119.333 417.43 115.776C417.599 112.223 418.877 108.814 421.002 106.214C421.505 105.541 422.109 104.967 422.685 104.38C423.316 103.853 423.923 103.307 424.607 102.876C425.936 101.965 427.37 101.262 428.845 100.818C431.778 99.8441 434.809 99.8899 437.467 100.469C440.143 101.065 442.424 102.352 444.205 103.823C445.992 105.309 447.27 107.021 448.132 108.641C448.986 110.268 449.498 111.786 449.715 113.059C449.868 113.689 449.91 114.262 449.956 114.757C450.021 115.25 450.023 115.67 450.01 116.01C450.005 116.325 450 116.578 449.995 116.781C449.989 116.954 449.981 117.042 449.973 117.042Z" fill="#DADBD8"/>
<path d="M433.778 100.864C432.338 100.864 430.737 101.057 429.102 101.608C427.714 102.032 426.366 102.692 425.087 103.575C424.565 103.905 424.104 104.296 423.618 104.71L422.984 105.295C422.534 105.75 422.068 106.221 421.682 106.741C419.659 109.226 418.461 112.443 418.299 115.813C418.199 119.18 419.143 122.482 420.958 125.105C421.314 125.667 421.742 126.174 422.156 126.665L422.424 126.984L422.735 127.289C423.191 127.741 423.621 128.168 424.104 128.529C425.323 129.518 426.616 130.281 427.958 130.808C431.041 132.12 434.091 132.081 436.112 131.817C438.425 131.503 440.733 130.59 442.785 129.177C444.417 128.045 445.855 126.572 446.941 124.918C447.845 123.524 448.508 122.113 448.86 120.838C449.356 119.147 449.477 117.951 449.537 117.376C449.552 117.226 449.563 117.114 449.58 117.028C449.57 116.939 449.567 116.827 449.564 116.675C449.549 116.098 449.522 114.896 449.16 113.177C448.905 111.871 448.351 110.412 447.559 108.953C446.605 107.22 445.286 105.64 443.745 104.385C441.81 102.818 439.579 101.729 437.296 101.236C436.333 101.033 435.126 100.864 433.778 100.864ZM433.753 133.141C431.899 133.141 429.714 132.855 427.504 131.925C426.056 131.364 424.655 130.543 423.349 129.491C422.815 129.094 422.327 128.612 421.856 128.146L421.523 127.819L421.233 127.48C420.784 126.951 420.321 126.405 419.932 125.79C417.97 122.968 416.945 119.403 417.055 115.765C417.228 112.123 418.527 108.65 420.712 105.977C421.139 105.405 421.646 104.895 422.136 104.4L422.417 104.118L422.796 103.796C423.304 103.367 423.829 102.922 424.407 102.558C425.779 101.619 427.239 100.909 428.736 100.459C432.152 99.3245 435.414 99.638 437.546 100.102C440.005 100.651 442.389 101.837 444.443 103.535C446.083 104.898 447.473 106.603 448.463 108.465C449.285 110.031 449.846 111.597 450.085 112.997C450.223 113.558 450.271 114.09 450.314 114.558L450.329 114.721C450.384 115.14 450.403 115.558 450.386 116.023L450.37 116.789C450.365 116.91 450.362 117.002 450.35 117.078C450.356 117.161 450.352 117.246 450.35 117.32L450.305 118.096C450.287 118.555 450.236 118.97 450.146 119.396L450.119 119.557C450.04 120.017 449.95 120.539 449.764 121.108C449.424 122.46 448.744 123.978 447.805 125.474C446.67 127.257 445.153 128.849 443.415 130.079C441.234 131.613 438.765 132.611 436.273 132.967C435.545 133.067 434.692 133.141 433.753 133.141Z" fill="#DADBD8"/>
<path d="M444.427 128.609C444.528 128.516 447.916 132.015 451.995 136.423C456.074 140.832 459.299 144.481 459.198 144.574C459.099 144.667 455.711 141.169 451.632 136.759C447.553 132.351 444.327 128.702 444.427 128.609Z" fill="#DADBD8"/>
<path d="M459.339 144.954L459.179 144.95C459.03 144.945 458.682 144.932 451.356 137.014C444.031 129.097 444.044 128.749 444.05 128.601L444.056 128.446L444.172 128.335C444.488 128.038 444.516 128.016 446.989 130.568C448.419 132.045 450.295 134.034 452.27 136.168C454.244 138.303 456.082 140.327 457.445 141.869C459.797 144.531 459.772 144.555 459.452 144.849L459.339 144.954Z" fill="#DADBD8"/>
<path d="M78.2207 96.1357L75.0951 97.3883L64.4637 90.6157L61.9634 84.3755C61.9634 84.3755 57.0128 86.0145 60.8547 93.9574C64.6981 101.9 63.2492 100.065 63.2492 100.065C63.2492 100.065 53.0056 104.216 52.5104 105.449C52.1494 106.345 55.9527 116.648 58.0603 122.218C59.1213 125.022 61.8641 126.926 64.7157 126.546C65.1209 126.493 65.5144 126.399 65.8793 126.252C68.4381 125.228 80.6781 117.908 80.6781 117.908L86.0781 115.745L78.2207 96.1357Z" fill="#E7E8E5"/>
<path d="M86.4831 90.837L93.1275 112.988L87.774 115.133L79.3796 94.1832L86.4831 90.837Z" fill="#E7E8E5"/>
<path d="M396.049 258.131L392.365 258.738L382.477 248.859L381.265 241.505C381.265 241.505 375.512 242.094 377.77 251.613C380.029 261.132 378.899 258.799 378.899 258.799C378.899 258.799 366.815 260.84 365.984 262.056C365.378 262.939 367.029 275.005 367.976 281.539C368.454 284.829 370.967 287.547 374.145 287.819C374.596 287.858 375.045 287.85 375.475 287.779C378.491 287.282 393.495 282.29 393.495 282.29L399.858 281.24L396.049 258.131Z" fill="#F3F2F1"/>
<path d="M406.262 254.373L408.15 279.944L401.841 280.984L397.771 256.294L406.262 254.373Z" fill="#F3F2F1"/>
<path d="M200.195 281.951C203.726 281.641 206.968 279.138 208.197 275.362C209.803 270.411 207.344 265.175 202.703 263.667C198.064 262.159 193 264.949 191.393 269.898C190.156 273.711 191.346 277.674 194.074 279.992C180.501 277.799 176.585 292.061 176.585 292.061L207.161 302C207.161 302 212.411 287.996 200.195 281.951Z" fill="#E7E8E5"/>
<path d="M399.793 243.34H98.1368C72.4293 243.34 51.5896 222.5 51.5896 196.793V193.517C51.5896 167.81 72.4293 146.97 98.1368 146.97H399.793C425.5 146.97 446.34 167.81 446.34 193.517V196.793C446.34 222.5 425.5 243.34 399.793 243.34Z" fill="#F2575D"/>
<path d="M51.5896 243.34H446.34V190.416H51.5896V243.34Z" fill="#CC4341"/>
<path d="M326.357 153.636C326.044 153.636 325.732 153.608 325.423 153.546C322.865 153.026 321.407 150.388 320.289 148.029L325.119 139.076C325.119 139.076 331.868 139.076 335.636 139.116C335.745 139.117 335.866 139.118 335.994 139.118C337.146 139.118 338.903 139.076 338.903 139.076C340.628 139.886 341.389 142.315 340.921 144.163C340.453 146.011 339.086 147.5 337.604 148.698C335.139 150.688 332.238 152.094 329.223 153.072C328.295 153.373 327.323 153.636 326.357 153.636Z" fill="#CC4341"/>
<path d="M146.779 139.076H146.773L146.771 139.068C146.772 139.071 146.775 139.073 146.779 139.076Z" fill="#A7A9A8"/>
<path d="M164.651 179.034C163.315 179.034 161.887 178.442 160.944 177.465C159.243 175.7 158.65 173.185 157.918 170.845C157.187 168.506 156.084 166.033 153.797 164.24L146.773 139.076H146.78C146.923 139.161 148.658 139.189 150.91 139.189C155.412 139.189 161.974 139.076 161.974 139.076C164.342 140.927 166.147 145.923 167.281 148.706C169.006 152.943 170.761 157.56 169.581 161.981C168.876 164.625 167.143 167.045 167.195 169.781C167.247 172.524 169.031 175.571 167.395 177.773C166.743 178.65 165.727 179.034 164.651 179.034Z" fill="#CC4341"/>
<path d="M391.214 200.947L389.008 198.413C387.754 196.972 387.064 195.128 387.063 193.218L387.061 184.758C387.059 179.162 382.942 174.54 377.576 173.721L377.575 170.436C377.574 169.604 376.9 168.93 376.069 168.93C375.238 168.931 374.563 169.605 374.563 170.436L374.565 173.661C369.006 174.313 364.691 179.033 364.693 184.766L364.696 192.897C364.696 194.67 364.102 196.392 363.008 197.787L360.522 200.957L371.912 200.953C372.38 202.134 373.308 203.139 374.483 203.632C376.136 204.324 378.176 203.973 379.502 202.768C380.048 202.272 380.453 201.639 380.714 200.95L391.214 200.947Z" fill="white"/>
<path d="M281.093 61.2912C282.138 58.6275 283.2 55.8837 283.217 53.0108C283.234 50.1371 281.962 47.0639 279.444 45.8375C277.116 44.7041 274.32 45.3552 271.863 44.5654C268.832 43.591 266.845 40.6266 265.422 37.6974C264.001 34.7675 262.834 31.5811 260.514 29.345C257.436 26.3784 252.499 25.7753 248.778 27.7608C246.001 25.9193 242.418 24.9907 239.692 24.9907C235.648 24.9914 231.06 25.455 228.33 28.4374C226.211 30.7507 224.91 33.6499 222.273 35.3511C218.647 37.6907 213.88 35.9429 209.573 36.2332C208.696 36.2932 207.679 36.549 207.34 37.3614C207.049 38.0642 207.406 38.8533 207.755 39.5292C208.937 41.8125 210.118 44.0958 211.3 46.3791C209.518 47.2732 207.32 47.2867 205.527 46.4166C205.86 50.9495 207.846 55.3428 211.028 58.5878C210.246 58.0695 209.112 58.6643 208.757 59.5329C208.403 60.4008 208.609 61.3894 208.881 62.2865C210.553 67.7915 214.697 72.4932 219.95 74.8425C225.201 77.1926 231.469 77.1483 236.687 74.7255L260.501 75.7831C261.215 77.6156 262.845 79.0386 264.714 79.4624C267.315 77.4116 267.706 76.2925 267.706 76.2925C269.381 77.4604 268.076 76.8866 269.381 77.4604C272.37 78.7746 276.675 76.9728 277.237 73.6709C277.473 72.2899 277.814 70.9615 278.706 70.0006C279.619 69.0157 280.949 68.6069 282.117 67.9731C283.957 66.9732 285.464 65.332 286.331 63.3817C284.407 63.459 282.465 62.6841 281.093 61.2912Z" fill="#17282F"/>
<path d="M222.365 52.2652C222.451 40.3408 231.681 30.4844 243.575 29.6121L244.757 29.525C257.554 29.3353 264.865 40.0977 264.7 52.8953L266.602 111.829L237.388 113.911L236.283 94.7638C236.283 94.7638 223.893 93.7579 222.844 81.5214C222.337 75.6114 222.284 63.3569 222.365 52.2652Z" fill="#F8A58D"/>
<path d="M228.499 61.5259C228.534 62.4523 229.347 63.1859 230.315 63.1671C231.281 63.1476 232.038 62.384 232.002 61.4576C231.967 60.532 231.154 59.7969 230.189 59.8157C229.22 59.8344 228.464 60.6003 228.499 61.5259Z" fill="#17282F"/>
<path d="M226.065 56.9533C226.298 57.1648 227.551 56.0869 229.433 55.9542C231.312 55.7944 232.764 56.6615 232.951 56.4162C233.044 56.3067 232.793 55.9114 232.16 55.5176C231.536 55.1246 230.495 54.7743 229.322 54.865C228.151 54.958 227.197 55.4613 226.662 55.9452C226.116 56.4312 225.95 56.858 226.065 56.9533Z" fill="#17282F"/>
<path d="M238.535 72.2426C238.537 72.1354 237.351 72.0191 235.438 71.9156C234.953 71.9013 234.492 71.8391 234.387 71.5173C234.248 71.1782 234.411 70.6457 234.603 70.0688C234.97 68.8732 235.353 67.619 235.756 66.3048C237.348 60.9498 238.462 56.561 238.246 56.498C238.03 56.4365 236.565 60.7263 234.973 66.082C234.592 67.4015 234.227 68.6594 233.881 69.8633C233.74 70.4221 233.472 71.065 233.77 71.7678C233.926 72.1173 234.298 72.3521 234.612 72.4121C234.927 72.4842 235.198 72.4691 235.436 72.4661C237.352 72.4286 238.536 72.3506 238.535 72.2426Z" fill="#17282F"/>
<path d="M225.485 52.4221C225.917 52.8249 227.478 52.2803 229.387 52.1393C231.291 51.9442 232.932 52.2053 233.276 51.735C233.425 51.5069 233.144 51.0944 232.412 50.7343C231.69 50.3743 230.504 50.1178 229.195 50.2325C227.884 50.3488 226.771 50.8086 226.134 51.2879C225.486 51.7702 225.293 52.2248 225.485 52.4221Z" fill="#17282F"/>
<path d="M263.513 62.0983C263.716 61.9926 271.747 58.9922 272.092 67.3851C272.439 75.778 263.942 74.3948 263.918 74.154C263.892 73.914 263.513 62.0983 263.513 62.0983Z" fill="#F8A58D"/>
<path d="M265.612 70.9211C265.649 70.8934 265.764 71.0179 266.015 71.1206C266.261 71.2211 266.678 71.2797 267.109 71.0981C267.983 70.7358 268.671 69.2979 268.649 67.7834C268.64 67.0191 268.449 66.2975 268.154 65.7071C267.872 65.1033 267.457 64.6907 267.008 64.63C266.559 64.5452 266.254 64.8258 266.161 65.0666C266.058 65.3058 266.118 65.4709 266.074 65.4874C266.052 65.5091 265.889 65.3538 265.942 65.0043C265.969 64.8363 266.06 64.6345 266.251 64.465C266.445 64.2924 266.737 64.1972 267.05 64.2182C267.7 64.2362 268.306 64.807 268.631 65.4566C268.992 66.1062 269.223 66.9156 269.235 67.7744C269.25 69.4682 268.451 71.0861 267.251 71.4867C266.668 71.6652 266.167 71.5077 265.905 71.3202C265.637 71.1236 265.585 70.9376 265.612 70.9211Z" fill="#F68260"/>
<path d="M266.354 42.925C266.354 42.925 265.704 39.7776 263.093 36.1523C258.699 30.0517 248.677 27.2043 242.989 27.7099C237.301 28.2155 231.393 32.4348 226.089 34.5516C222.617 35.937 219.983 39.1265 221.306 41.5936C219.236 42.3819 217.097 42.9152 214.873 43.0045C214.873 43.0045 214.668 46.1377 216.412 46.9681L221.884 50.5536C229.184 51.5182 241.996 44.3344 244.468 42.0736C246.606 40.1181 249.65 37.8618 252.015 36.6601C249.694 42.7562 257.262 41.409 257.06 43.7734C254.74 52.347 261.737 55.5132 261.737 55.5132L261.909 63.0023C261.752 64.9248 262.576 66.4055 264.501 66.2749H264.502C264.502 66.2749 266.583 63.4096 266.94 61.079C267.631 56.5626 267.201 47.4159 266.354 42.925Z" fill="#17282F"/>
<path d="M236.18 94.7539C236.18 94.7539 244.036 94.6512 251.884 88.8806C251.884 88.8806 248.756 97.9711 236.453 97.7641L236.18 94.7539Z" fill="#F68260"/>
<path d="M246.146 60.4024C246.181 61.328 246.994 62.0623 247.961 62.0436C248.928 62.0241 249.684 61.2597 249.649 60.3341C249.614 59.4085 248.801 58.6734 247.835 58.6921C246.867 58.7101 246.111 59.476 246.146 60.4024Z" fill="#17282F"/>
<path d="M244.126 56.0066C244.357 56.2436 245.838 55.3135 247.896 55.3938C249.955 55.447 251.44 56.4724 251.669 56.2496C251.783 56.1514 251.555 55.7305 250.906 55.267C250.27 54.8057 249.177 54.3406 247.894 54.2986C246.61 54.2581 245.518 54.6512 244.885 55.0712C244.24 55.4943 244.012 55.8993 244.126 56.0066Z" fill="#17282F"/>
<path d="M243.937 50.1025C244.12 50.6171 246.005 50.3883 248.217 50.6711C250.435 50.9111 252.215 51.572 252.512 51.1144C252.645 50.8946 252.338 50.4101 251.62 49.9075C250.908 49.4064 249.769 48.9264 248.442 48.7681C247.114 48.6136 245.895 48.8153 245.086 49.1371C244.271 49.4582 243.858 49.858 243.937 50.1025Z" fill="#17282F"/>
<path d="M238.365 75.8648C239.321 75.4485 242.179 74.8162 243.206 74.6339L244.396 74.2566C244.993 74.9707 245.119 76.981 244.666 77.8001C244.198 78.6469 243.295 79.1975 242.348 79.3918C241.672 79.5298 240.917 79.4878 240.367 79.0715C240.367 79.0715 238.824 78.4609 238.365 75.8648Z" fill="#F68260"/>
<path d="M241.627 79.3985C241.608 79.3228 242.447 79.4218 243.405 78.6904C243.87 78.3311 244.317 77.7573 244.542 77.011C244.77 76.2714 244.804 75.3757 244.529 74.5236L244.485 74.3916L244.711 74.5146C242.912 74.9159 241.284 75.2572 240.104 75.4845C238.923 75.7118 238.191 75.8258 238.179 75.774C238.167 75.7223 238.879 75.5137 240.044 75.2175C241.209 74.9212 242.826 74.5371 244.626 74.1336L244.798 74.0953L244.852 74.2573L244.901 74.4036C245.203 75.3442 245.153 76.3186 244.885 77.122C244.618 77.9336 244.096 78.5539 243.569 78.9125C243.039 79.2785 242.521 79.412 242.171 79.4398C241.817 79.469 241.625 79.421 241.627 79.3985Z" fill="#17282F"/>
<path d="M279.794 68.5508C279.794 68.5508 279.61 68.547 279.289 68.4195C278.974 68.2867 278.522 68.0092 278.12 67.4849C277.72 66.9666 277.364 66.212 277.256 65.2803C277.138 64.3532 277.251 63.2948 277.387 62.1554C277.514 61.0242 277.641 59.7446 277.225 58.4926C277.016 57.8746 276.641 57.2992 276.099 56.8649C275.565 56.4179 274.907 56.0901 274.221 55.7683C273.537 55.4427 272.807 55.1269 272.137 54.6446C271.455 54.1765 270.898 53.476 270.574 52.6838C269.894 51.0921 269.957 49.3039 269.581 47.6326C269.388 46.7963 269.091 45.9847 268.591 45.3388C268.098 44.6825 267.377 44.2827 266.592 44.1177C265.808 43.9361 264.989 43.9099 264.187 43.7486C263.389 43.6024 262.584 43.2393 262.06 42.613C261.538 41.9896 261.279 41.2418 261.106 40.5359C260.929 39.8248 260.825 39.131 260.677 38.4769C260.538 37.8206 260.322 37.222 260.049 36.6691C259.752 36.1328 259.428 35.6332 259.043 35.2177C257.518 33.5112 255.652 32.8864 254.418 32.6928C253.149 32.5248 252.437 32.6981 252.434 32.6471C252.434 32.6471 253.135 32.4183 254.436 32.5421C255.705 32.6936 257.639 33.2892 259.248 35.0332C259.653 35.4577 259.999 35.9723 260.316 36.5289C260.608 37.1005 260.844 37.7373 260.993 38.4049C261.15 39.071 261.262 39.7641 261.439 40.4512C261.612 41.1368 261.866 41.8284 262.332 42.3782C262.802 42.9273 263.497 43.243 264.26 43.3826C265.022 43.5341 265.843 43.5566 266.677 43.7441C267.512 43.9114 268.358 44.3742 268.898 45.1003C269.451 45.8144 269.761 46.6763 269.962 47.5449C270.348 49.2956 270.288 51.0419 270.926 52.5346C271.23 53.2764 271.722 53.9005 272.355 54.3423C272.979 54.7969 273.689 55.1119 274.376 55.4427C275.063 55.7713 275.746 56.1148 276.319 56.6016C276.901 57.0749 277.317 57.723 277.532 58.3891C277.962 59.7378 277.803 61.055 277.66 62.1884C277.507 63.3293 277.38 64.3592 277.473 65.2571C277.556 66.1512 277.876 66.8833 278.242 67.3941C279.005 68.439 279.832 68.5035 279.794 68.5508Z" fill="#33535F"/>
<path d="M212.292 38.6907C212.3 38.6802 212.429 38.7635 212.668 38.9322C212.942 39.122 213.29 39.3613 213.717 39.6553C214.637 40.2599 215.995 41.136 217.849 41.7924C219.676 42.4465 222.12 42.7923 224.565 41.9267C225.774 41.4998 226.924 40.7287 227.776 39.6208C228.646 38.5234 229.266 37.183 229.974 35.8418C230.668 34.4946 231.531 33.2165 232.644 32.2721C233.741 31.3134 234.998 30.6488 236.245 30.1943C238.765 29.2919 241.24 29.3399 243.195 29.6835C245.167 30.0248 246.679 30.6286 247.692 31.0779C248.199 31.3074 248.583 31.5032 248.841 31.6435C249.096 31.7853 249.228 31.8648 249.222 31.8775C249.216 31.8888 249.072 31.8325 248.805 31.7147C248.539 31.597 248.145 31.4245 247.633 31.2182C246.608 30.8139 245.096 30.2573 243.15 29.9558C241.219 29.6527 238.807 29.6385 236.368 30.5326C235.16 30.9834 233.947 31.6337 232.896 32.5601C231.828 33.4745 231.009 34.6889 230.319 36.0248C229.617 37.3518 228.987 38.7147 228.076 39.8586C227.181 41.0168 225.949 41.8329 224.686 42.2657C222.129 43.1493 219.607 42.7518 217.756 42.0519C215.876 41.3483 214.529 40.4257 213.63 39.7798C213.18 39.4528 212.844 39.182 212.62 38.9952C212.397 38.8055 212.284 38.7012 212.292 38.6907Z" fill="#33535F"/>
<path d="M209.123 49.8341C209.168 49.7824 209.747 50.2857 210.788 50.9255C211.825 51.5676 213.365 52.2967 215.179 52.7115C216.997 53.1188 218.699 53.1226 219.913 52.9898C221.128 52.8608 221.866 52.6553 221.884 52.7205C221.892 52.7468 221.715 52.8188 221.384 52.9283C221.055 53.0446 220.564 53.1623 219.948 53.2636C218.72 53.4706 216.963 53.5119 215.094 53.0926C213.226 52.6665 211.657 51.8729 210.638 51.1573C210.126 50.801 209.733 50.483 209.487 50.2369C209.235 49.9962 209.105 49.8544 209.123 49.8341Z" fill="#33535F"/>
<path d="M216.175 56.846C216.222 56.7388 217.498 57.2624 219.157 57.5346C220.814 57.8204 222.192 57.7447 222.201 57.8609C222.219 57.9585 220.811 58.215 219.092 57.9202C217.372 57.6359 216.125 56.9323 216.175 56.846Z" fill="#33535F"/>
<path d="M236.694 101.901L212.611 108.535L186.634 127.308L193.562 139.159L316.063 139.37C316.063 139.37 311.597 122.999 310.13 117.972C307.919 110.391 304.916 108.246 302.174 105.474C301.345 104.635 298.955 103.154 297.801 102.902C292.961 101.846 270.537 96.8085 266.171 96.9315C266.171 96.9315 261.139 107.335 250.595 107.232C240.051 107.13 236.694 101.901 236.694 101.901Z" fill="#33535F"/>
<path d="M286.341 121.13C286.417 121.15 286.642 120.141 287.355 118.66C288.052 117.176 289.319 115.266 291.069 113.469C292.821 111.669 294.634 110.269 295.935 109.25C297.244 108.235 298.053 107.6 298.015 107.548C297.982 107.501 297.111 108.044 295.749 108.998C294.395 109.956 292.534 111.328 290.751 113.161C288.967 114.991 287.707 116.981 287.069 118.531C286.744 119.303 286.546 119.954 286.444 120.41C286.341 120.867 286.314 121.124 286.341 121.13Z" fill="#17282F"/>
<path d="M213.185 134.139C213.244 134.137 213.284 133.165 213.266 131.592C213.249 130.019 213.166 127.847 212.984 125.454C212.801 123.06 212.554 120.9 212.332 119.343C212.111 117.786 211.924 116.83 211.865 116.839C211.803 116.847 211.879 117.816 212.02 119.379C212.166 121.082 212.344 123.174 212.542 125.488C212.697 127.804 212.838 129.899 212.953 131.604C213.051 133.171 213.122 134.14 213.185 134.139Z" fill="#17282F"/>
<path d="M200.149 139.377C200.269 139.306 200.39 139.237 200.512 139.171L214.713 139.195L200.149 139.377Z" fill="#CC4341"/>
<path d="M214.713 139.195L200.512 139.171C202.204 138.256 204.11 137.802 205.96 137.254C207.943 136.667 209.958 135.917 211.429 134.464C212.14 133.762 212.691 132.855 212.971 131.895C213.059 133.288 213.125 134.139 213.184 134.139C213.244 134.137 213.284 133.164 213.266 131.592C213.26 131.021 213.245 130.37 213.22 129.658C216.134 135.215 222.253 138.968 228.53 139.024L214.713 139.195ZM228.672 139.024C228.624 139.024 228.577 139.024 228.53 139.024L229.209 139.015C229.03 139.021 228.85 139.024 228.672 139.024Z" fill="#20353D"/>
<path d="M213.185 134.139C213.125 134.139 213.059 133.288 212.972 131.895C213.263 130.899 213.263 129.845 212.847 128.899C212.965 129.156 213.089 129.41 213.22 129.659C213.245 130.37 213.26 131.021 213.266 131.592C213.284 133.165 213.244 134.137 213.185 134.139ZM212.847 128.899C212.834 128.87 212.82 128.84 212.807 128.811C212.82 128.84 212.834 128.87 212.847 128.899Z" fill="#0F191D"/>
<path d="M343.008 139.315C343.008 139.315 340.062 135.312 338.612 134.553C337.161 133.794 335.165 133.817 334.286 134.604C333.409 135.391 333.409 135.391 333.409 135.391C333.409 135.391 328.836 133.338 326.638 134.917C326.638 134.917 322.287 132.86 320.208 135.215C320.208 135.215 316.855 133.036 315.435 134.938C314.016 136.841 314.165 140.055 314.85 141.711C315.535 143.367 316.822 149.008 317.822 149.107C317.822 149.107 320.494 149.392 320.851 147.946C321.208 146.501 321.36 145.805 321.36 145.805C321.36 145.805 322.381 150.918 323.612 151.17C324.842 151.422 327.19 151.288 327.27 149.045C327.27 149.045 328.411 150.739 329.526 150.246C330.642 149.752 332.02 148.935 331.897 147.549C331.773 146.162 331.757 144.775 331.757 144.775C331.757 144.775 332.368 146.796 333.377 146.357C334.386 145.918 335.401 146.012 335.968 144.298C336.535 142.582 337.942 139.315 337.942 139.315H343.008Z" fill="#F8A58D"/>
<path d="M331.84 144.664C331.903 144.63 331.638 144.109 331.403 143.218C331.166 142.333 331.001 141.048 331.255 139.676C331.51 138.304 332.124 137.163 332.662 136.422C333.201 135.674 333.635 135.283 333.588 135.229C333.557 135.189 333.043 135.499 332.416 136.229C331.791 136.949 331.089 138.135 330.819 139.595C330.549 141.055 330.777 142.413 331.103 143.31C331.428 144.216 331.797 144.69 331.84 144.664Z" fill="#F68260"/>
<path d="M326.353 134.945C326.304 134.931 326.021 135.685 325.768 136.959C325.514 138.23 325.332 140.03 325.463 142.014C325.599 143.996 326.02 145.757 326.442 146.982C326.863 148.211 327.244 148.92 327.292 148.899C327.433 148.853 326.148 145.89 325.905 141.984C325.623 138.081 326.499 134.972 326.353 134.945Z" fill="#F68260"/>
<path d="M320.101 135.281C319.991 135.266 319.686 137.701 320.036 140.687C320.372 143.678 321.22 145.979 321.325 145.94C321.453 145.903 320.806 143.578 320.477 140.637C320.132 137.699 320.235 135.287 320.101 135.281Z" fill="#F68260"/>
<path d="M302.111 136.429C302.297 135.953 302.77 135.641 303.261 135.497C304.405 135.164 305.662 135.621 306.578 136.385C307.492 137.15 308.379 138.353 309 139.37L302.519 139.329C302.582 138.338 301.748 137.353 302.111 136.429Z" fill="#F8A58D"/>
<path d="M137.87 141.062C138.275 137.044 140.51 133.439 143.939 131.308C146.665 129.701 149.961 129.374 152.949 130.415L165.456 134.77C166.129 135.491 186.767 127.535 186.767 127.535L193.695 139.37L154.257 139.315C157.103 142.671 161.142 146.373 161.142 146.373L163.821 155.267L163.555 163.318C162.141 163.97 160.023 161.485 160.023 161.485L158.786 163.754L159.199 165.942C159.199 165.942 162.845 174.794 162.718 176.762C162.667 177.55 162.159 177.829 161.568 177.881C160.512 177.975 159.521 177.351 159.035 176.41L153.848 166.339C153.848 166.339 149.836 165.36 148.435 164.039C146.963 162.653 144.878 160.153 144.878 160.153L142.332 159.79C142.099 159.854 141.788 159.772 141.451 159.615C140.082 158.972 139.155 157.65 138.872 156.164L137.578 149.378C137.294 147.887 137.543 144.318 137.87 141.062Z" fill="#F8A58D"/>
<path d="M149.61 158.592C149.508 158.622 150.042 160.579 151.242 162.758C152.432 164.944 153.791 166.45 153.871 166.379C153.969 166.303 152.777 164.706 151.608 162.558C150.43 160.417 149.728 158.551 149.61 158.592Z" fill="#F68260"/>
<path d="M143.596 157.853C143.466 157.907 143.932 158.948 144.742 160.042C145.54 161.146 146.291 161.954 146.38 161.886C146.475 161.815 145.872 160.891 145.081 159.798C144.277 158.71 143.682 157.819 143.596 157.853Z" fill="#F68260"/>
<path d="M160.004 167.963C160.062 167.941 159.75 167.015 159.298 165.504C158.843 163.995 158.249 161.9 157.669 159.564C157.376 158.398 157.115 157.281 156.889 156.265C156.659 155.254 156.535 154.334 156.62 153.57C156.777 152.007 157.636 151.337 157.573 151.306C157.559 151.287 157.335 151.412 157.048 151.766C156.764 152.118 156.447 152.723 156.327 153.533C156.198 154.342 156.3 155.317 156.511 156.343C156.719 157.371 156.97 158.493 157.263 159.666C157.846 162.01 158.487 164.103 159.017 165.597C159.544 167.091 159.954 167.982 160.004 167.963Z" fill="#F68260"/>
<path d="M157.293 153.011C157.241 153.057 157.669 153.539 158.164 154.431C158.66 155.313 159.185 156.648 159.283 158.191C159.328 158.95 159.282 159.744 159.468 160.436C159.626 161.152 160.04 161.699 160.416 162.066C161.19 162.803 161.796 163.06 161.817 163.025C161.861 162.966 161.31 162.612 160.632 161.865C160.3 161.488 159.965 160.99 159.844 160.353C159.69 159.707 159.746 158.978 159.7 158.164C159.597 156.538 158.996 155.152 158.417 154.278C157.837 153.394 157.324 152.978 157.293 153.011Z" fill="#F68260"/>
<path d="M154.354 139.426C154.43 139.33 152.964 138.115 151.491 136.307C149.998 134.522 149.068 132.832 148.934 132.942C148.904 132.93 149.075 133.396 149.451 134.071C149.826 134.75 150.411 135.656 151.168 136.572C152.676 138.421 154.295 139.516 154.354 139.426Z" fill="#F68260"/>
<path d="M284.104 139.315L276.657 139.303L284.104 139.315Z" fill="#CC4341"/>
<path d="M284.104 139.315L276.657 139.303L284.593 128.017L284.104 139.315Z" fill="#20353D"/>
<path d="M284.104 139.315C283.996 139.309 284.075 136.314 284.279 132.625C284.484 128.935 284.737 125.949 284.845 125.955C284.953 125.961 284.873 128.957 284.669 132.646C284.464 136.335 284.211 139.321 284.104 139.315Z" fill="#17282F"/>
<path d="M281.676 99.8502C281.676 99.8502 281.817 100.081 281.878 100.581C281.936 101.074 281.85 101.858 281.331 102.671C280.836 103.479 279.899 104.321 278.582 104.691C277.278 105.098 275.719 105.098 274.047 105.072C273.21 105.066 272.334 105.075 271.439 105.206C270.549 105.336 269.631 105.599 268.835 106.135C268.035 106.665 267.401 107.465 266.971 108.4C266.53 109.332 266.252 110.373 266.011 111.452C265.765 112.531 265.547 113.654 265.203 114.78C264.854 115.9 264.333 117.03 263.537 117.978C261.983 119.89 259.571 121.232 256.943 121.404C254.312 121.564 251.763 120.538 249.936 118.898C249.006 118.086 248.298 117.064 247.725 116.058C247.139 115.067 246.517 114.101 245.572 113.588C244.646 113.052 243.553 112.964 242.53 113.058C241.498 113.142 240.503 113.377 239.534 113.57C238.565 113.765 237.615 113.95 236.679 113.96C235.74 114.001 234.849 113.8 234.04 113.541C232.416 112.991 231.158 112.017 230.26 111.017C229.354 110.013 228.802 108.964 228.491 108.072C228.31 107.633 228.25 107.211 228.159 106.86C228.118 106.497 228.063 106.194 228.058 105.945C228.059 105.715 228.061 105.53 228.061 105.379C228.064 105.252 228.07 105.188 228.076 105.188C228.158 105.174 227.962 106.266 228.634 108.02C228.961 108.887 229.521 109.903 230.421 110.87C231.313 111.833 232.551 112.764 234.127 113.279C234.912 113.521 235.772 113.707 236.672 113.658C237.572 113.642 238.505 113.454 239.468 113.253C240.434 113.054 241.433 112.809 242.501 112.715C243.554 112.613 244.732 112.693 245.75 113.276C246.792 113.839 247.457 114.879 248.045 115.866C248.626 116.874 249.292 117.828 250.191 118.612C251.95 120.186 254.406 121.169 256.919 121.014C259.426 120.852 261.75 119.564 263.24 117.736C264.795 115.902 265.158 113.517 265.66 111.371C265.908 110.287 266.195 109.222 266.661 108.251C267.115 107.279 267.797 106.423 268.656 105.865C269.511 105.299 270.48 105.034 271.396 104.907C272.32 104.781 273.209 104.781 274.051 104.796C275.727 104.84 277.252 104.856 278.52 104.481C279.799 104.142 280.702 103.359 281.203 102.588C281.723 101.816 281.83 101.068 281.799 100.587C281.766 100.1 281.651 99.857 281.676 99.8502Z" fill="white"/>
<path d="M245.199 138.505C245.186 138.508 245.132 138.33 245.041 137.99C244.936 137.613 244.801 137.121 244.632 136.507C244.241 135.245 243.74 133.331 242.411 131.367C242.088 130.872 241.673 130.413 241.218 129.965C240.743 129.537 240.205 129.141 239.591 128.831C238.362 128.211 236.864 127.98 235.309 128.077C233.749 128.164 232.134 128.536 230.46 128.923C228.789 129.323 227.001 129.668 225.146 129.611C223.308 129.564 221.419 129.019 220.143 127.743C218.845 126.484 218.338 124.739 218.167 123.166C217.996 121.565 218.156 120.048 218.272 118.652C218.394 117.254 218.479 115.951 218.367 114.774C218.189 112.401 217.044 110.685 216.03 109.87C214.988 109.041 214.185 109.005 214.211 108.948C214.212 108.941 214.258 108.945 214.348 108.96C214.436 108.979 214.574 108.989 214.742 109.045C215.085 109.136 215.579 109.344 216.125 109.75C217.2 110.553 218.423 112.306 218.642 114.746C218.773 115.951 218.703 117.277 218.596 118.678C218.492 120.08 218.35 121.575 218.525 123.126C218.7 124.656 219.199 126.306 220.411 127.469C221.601 128.653 223.375 129.173 225.158 129.221C226.959 129.275 228.707 128.945 230.375 128.549C232.05 128.168 233.686 127.797 235.29 127.717C236.885 127.627 238.454 127.878 239.738 128.542C240.378 128.873 240.936 129.294 241.425 129.745C241.892 130.217 242.315 130.699 242.639 131.211C243.973 133.25 244.429 135.186 244.779 136.467C244.942 137.118 245.049 137.626 245.117 137.972C245.184 138.319 245.212 138.502 245.199 138.505Z" fill="white"/>
<path d="M285.023 128.92C284.985 128.998 283.858 128.184 281.746 127.669C280.698 127.417 279.403 127.272 277.984 127.392C276.567 127.518 275.029 127.936 273.595 128.737C272.157 129.533 270.975 130.604 270.094 131.721C269.221 132.843 268.627 134.01 268.301 135.03C267.978 136.056 267.983 136.948 268.134 137.525C268.276 138.108 268.499 138.381 268.463 138.402C268.452 138.409 268.395 138.345 268.297 138.213C268.208 138.077 268.082 137.867 267.988 137.567C267.782 136.974 267.733 136.029 268.036 134.952C268.341 133.88 268.923 132.674 269.81 131.5C270.702 130.336 271.918 129.22 273.405 128.396C274.889 127.565 276.491 127.142 277.954 127.034C279.421 126.929 280.749 127.108 281.814 127.402C282.883 127.693 283.698 128.08 284.233 128.384C284.504 128.53 284.701 128.667 284.833 128.761C284.965 128.854 285.031 128.908 285.023 128.92Z" fill="white"/>
<path d="M293.112 108.687C293.072 108.708 292.839 108.377 292.651 107.758C292.461 107.144 292.361 106.23 292.548 105.255C292.739 104.279 293.175 103.471 293.581 102.972C293.987 102.468 294.326 102.249 294.355 102.283C294.45 102.356 293.272 103.467 292.931 105.33C292.55 107.183 293.227 108.654 293.112 108.687Z" fill="white"/>
<path d="M311.468 123.554C311.482 123.558 311.455 123.671 311.391 123.881C311.335 124.097 311.216 124.4 311.044 124.783C310.693 125.544 310.024 126.595 308.893 127.603C307.757 128.585 306.125 129.523 304.118 129.786C302.093 130.088 299.926 129.44 297.75 128.897C296.651 128.634 295.571 128.415 294.52 128.407C293.473 128.388 292.459 128.56 291.544 128.867C289.709 129.493 288.263 130.569 287.277 131.649C286.285 132.738 285.723 133.812 285.415 134.574C285.097 135.337 285.013 135.794 284.968 135.783C284.954 135.78 284.972 135.666 285.017 135.451C285.059 135.234 285.124 134.914 285.272 134.52C285.542 133.729 286.079 132.608 287.071 131.466C288.058 130.331 289.53 129.194 291.428 128.527C292.376 128.197 293.43 128.01 294.526 128.024C295.622 128.029 296.734 128.251 297.842 128.518C300.043 129.068 302.144 129.701 304.074 129.429C305.996 129.197 307.588 128.32 308.712 127.393C309.835 126.441 310.522 125.442 310.908 124.715C311.299 123.986 311.427 123.54 311.468 123.554Z" fill="white"/>
<path d="M211.153 137.253C211.154 137.266 211.065 137.281 210.892 137.296C210.719 137.315 210.463 137.328 210.134 137.307C209.479 137.269 208.512 137.115 207.435 136.607C206.372 136.094 205.173 135.245 204.282 133.927C203.834 133.277 203.478 132.509 203.254 131.68C203.033 130.851 202.921 129.977 202.81 129.094C202.607 127.342 202.322 125.629 201.331 124.484C200.357 123.338 198.984 122.883 197.87 122.667C196.737 122.449 195.79 122.424 195.142 122.392C194.49 122.369 194.128 122.356 194.128 122.327C194.127 122.302 194.487 122.263 195.142 122.24C195.795 122.225 196.75 122.207 197.919 122.395C199.063 122.582 200.53 123.021 201.604 124.251C202.138 124.855 202.5 125.637 202.738 126.459C202.974 127.287 203.084 128.162 203.197 129.045C203.308 129.929 203.417 130.785 203.624 131.582C203.834 132.376 204.162 133.099 204.581 133.726C205.412 134.992 206.545 135.833 207.557 136.359C209.64 137.394 211.174 137.152 211.153 137.253Z" fill="white"/>
<path d="M242.245 264.852C242.245 264.852 242.15 264.733 241.982 264.489C241.807 264.235 241.561 263.874 241.242 263.407C240.59 262.438 239.644 261.028 238.426 259.216C237.205 257.387 235.713 255.153 233.98 252.556C233.113 251.254 232.187 249.862 231.204 248.386C230.709 247.646 230.231 246.831 229.981 245.903C229.72 244.986 229.634 243.963 230.006 242.971L229.997 242.994C230.189 242.39 230.682 241.961 231.213 241.684C231.753 241.409 232.357 241.255 232.978 241.232C233.596 241.212 234.246 241.329 234.811 241.661C234.953 241.74 235.076 241.852 235.21 241.947C235.325 242.062 235.44 242.186 235.548 242.307C235.741 242.553 235.934 242.8 236.13 243.049C237.69 245.044 239.329 247.137 241.032 249.314L240.737 249.414C240.812 243.109 240.893 236.2 240.98 228.853C240.985 228.393 240.991 227.932 240.996 227.469C241.007 227.016 240.982 226.53 241.094 226.044C241.304 225.084 241.904 224.21 242.741 223.67C243.573 223.122 244.631 222.923 245.619 223.139C246.61 223.354 247.489 224.003 248.025 224.866C248.296 225.296 248.483 225.78 248.577 226.284C248.676 226.795 248.637 227.299 248.646 227.78C248.646 228.76 248.646 229.745 248.646 230.734C248.647 232.714 248.647 234.713 248.648 236.731L248.266 236.671C248.527 235.85 249.081 234.993 249.928 234.522C250.268 234.323 250.639 234.181 251.022 234.095C251.204 234.053 251.429 234.023 251.621 234.053C251.816 234.076 252.017 234.064 252.206 234.119C252.981 234.268 253.674 234.709 254.197 235.265C255.241 236.406 255.775 237.842 256.087 239.287L255.701 239.312C255.793 238.295 256.455 237.393 257.367 237.007C257.813 236.798 258.295 236.724 258.765 236.688C259.003 236.685 259.236 236.661 259.479 236.7L259.838 236.741L260.187 236.845C261.137 237.131 261.796 237.951 262.187 238.773C262.58 239.618 262.784 240.51 262.854 241.424L262.479 241.389C262.672 240.433 263.372 239.552 264.297 239.219C265.201 238.86 266.233 238.895 267.106 239.275C267.54 239.468 267.942 239.737 268.271 240.078C268.613 240.416 268.824 240.838 269.052 241.237C269.444 242.076 269.619 242.972 269.733 243.854C270.056 247.416 269.296 250.796 268.772 254.003C268.321 257.241 267.679 260.323 267.103 263.256C266.494 266.185 265.917 268.969 265.371 271.593L265.098 271.509C265.141 271.4 265.181 271.304 265.22 271.208L265.356 271.405C258.561 271.505 252.883 271.588 248.454 271.653L248.547 271.558V271.563V271.658L248.452 271.657C246.875 271.651 245.585 271.645 244.426 271.64H244.358L244.349 271.57C244.057 269.309 243.447 267.62 243.001 266.516C242.775 265.96 242.578 265.547 242.442 265.273C242.306 264.998 242.245 264.852 242.245 264.852C242.245 264.852 242.589 265.382 243.075 266.484C243.546 267.587 244.183 269.267 244.503 271.555L244.426 271.486C245.585 271.481 246.875 271.475 248.452 271.468L248.358 271.563V271.558V271.465L248.451 271.463C252.879 271.373 258.557 271.258 265.35 271.119L265.566 271.114L265.485 271.316C265.446 271.412 265.407 271.509 265.364 271.617L265.09 271.533C265.625 268.908 266.193 266.123 266.791 263.194C267.358 260.257 267.987 257.186 268.432 253.948C268.952 250.731 269.692 247.365 269.369 243.895C269.257 243.04 269.085 242.18 268.718 241.397C268.505 241.028 268.31 240.635 268.006 240.338C267.71 240.033 267.348 239.792 266.956 239.619C266.17 239.276 265.243 239.248 264.437 239.57C263.619 239.873 263.033 240.607 262.85 241.477L262.576 242.773L262.474 241.442C262.409 240.593 262.208 239.719 261.841 238.938C261.473 238.17 260.887 237.453 260.064 237.211C259.269 236.974 258.308 237.025 257.525 237.361C256.732 237.689 256.169 238.487 256.09 239.329L255.97 240.598L255.703 239.354C255.412 237.985 254.878 236.576 253.914 235.535C252.972 234.489 251.356 234.052 250.126 234.859C249.372 235.279 248.882 236.035 248.638 236.79L248.257 237.976L248.258 236.731C248.258 234.713 248.258 232.714 248.259 230.734C248.259 229.745 248.259 228.76 248.259 227.78C248.252 227.284 248.287 226.801 248.197 226.354C248.112 225.898 247.944 225.46 247.699 225.07C247.213 224.288 246.422 223.705 245.536 223.514C244.653 223.319 243.696 223.496 242.949 223.988C242.195 224.475 241.652 225.261 241.461 226.125C241.361 226.552 241.382 227.004 241.371 227.474C241.365 227.937 241.358 228.398 241.352 228.857C241.25 236.205 241.154 243.113 241.067 249.418L241.061 249.889L240.773 249.517C239.075 247.335 237.444 245.236 235.89 243.237C235.483 242.744 235.17 242.191 234.658 241.917C234.157 241.619 233.563 241.506 232.987 241.523C232.41 241.541 231.842 241.684 231.343 241.935C230.849 242.188 230.419 242.581 230.263 243.067L230.262 243.07L230.254 243.09C229.924 243.955 229.981 244.963 230.233 245.833C230.468 246.726 230.924 247.514 231.409 248.248C232.384 249.732 233.303 251.13 234.162 252.437C235.874 255.049 237.348 257.297 238.555 259.136C239.746 260.965 240.672 262.388 241.309 263.366C241.614 263.843 241.849 264.208 242.015 264.469C242.173 264.719 242.245 264.852 242.245 264.852Z" fill="#17282F"/>
<path d="M398.566 234H100.185C73.5727 234 52 212.427 52 185.815C52 159.204 73.5727 137.63 100.185 137.63H398.566C425.177 137.63 446.75 159.204 446.75 185.815C446.75 212.427 425.177 234 398.566 234Z" fill="#F2575D"/>
<path d="M242.245 264.852C244.09 268.207 244.426 271.563 244.426 271.563H248.452V271.558L265.353 271.262L265.231 271.563C265.231 271.563 267.984 258.604 268.487 254.745C268.903 251.561 270.868 243.957 268.469 240.602C267.606 239.393 266.019 238.866 264.601 239.31C263.788 239.565 262.966 240.149 262.664 241.433C262.664 241.433 262.46 236.936 259.234 236.868C256.009 236.8 255.895 239.321 255.895 239.321C255.895 239.321 255.01 234.188 251.421 234.233C251.421 234.233 249.211 234.334 248.452 236.731V235.155V227.023C248.452 225.044 246.935 223.316 244.957 223.244C242.909 223.169 241.218 224.793 241.192 226.825L240.902 249.416L235.415 242.381C233.985 240.557 230.563 241.464 230.13 243.031C230.13 243.031 229.141 245.092 231.183 248.132C232.711 250.404 242.245 264.852 242.245 264.852Z" fill="#E7E8E5"/>
<path d="M265.576 277.338H244.415C242.808 277.338 241.504 276.035 241.504 274.427V274.222C241.504 272.614 242.808 271.311 244.415 271.311H265.576C267.184 271.311 268.487 272.614 268.487 274.222V274.427C268.487 276.035 267.184 277.338 265.576 277.338Z" fill="#E7E8E5"/>
<path d="M265.576 277.338C265.576 277.316 265.792 277.324 266.183 277.234C266.566 277.136 267.146 276.914 267.654 276.352C267.905 276.073 268.129 275.71 268.265 275.275C268.393 274.845 268.416 274.327 268.344 273.806C268.207 272.773 267.304 271.647 265.968 271.48C260.419 271.486 252.816 271.495 244.417 271.506C243.427 271.501 242.486 272.075 242.029 272.922C241.806 273.346 241.686 273.813 241.697 274.296C241.683 274.786 241.782 275.243 241.993 275.661C242.41 276.497 243.264 277.059 244.156 277.139C245.077 277.167 246.038 277.15 246.942 277.158C250.585 277.175 253.868 277.188 256.64 277.201C259.372 277.226 261.596 277.248 263.179 277.262C263.922 277.277 264.514 277.29 264.956 277.299C265.363 277.312 265.576 277.326 265.576 277.338C265.576 277.352 265.363 277.364 264.956 277.378C264.514 277.387 263.922 277.399 263.179 277.415C261.596 277.429 259.372 277.451 256.64 277.477C253.868 277.488 250.585 277.502 246.942 277.518C246.022 277.514 245.111 277.538 244.122 277.511C243.106 277.425 242.13 276.787 241.653 275.834C241.409 275.367 241.295 274.817 241.311 274.296C241.297 273.768 241.432 273.216 241.689 272.735C242.208 271.767 243.286 271.109 244.417 271.115C252.849 271.13 260.45 271.104 266.007 271.206C267.476 271.412 268.433 272.658 268.56 273.774C268.627 274.339 268.591 274.863 268.442 275.331C268.287 275.792 268.039 276.17 267.766 276.455C267.212 277.031 266.598 277.236 266.2 277.311C265.792 277.378 265.576 277.338 265.576 277.338Z" fill="#17282F"/>
<path d="M248.271 245.019C248.163 245.019 248.076 243.061 248.076 240.647C248.076 238.232 248.163 236.275 248.271 236.275C248.379 236.275 248.466 238.232 248.466 240.647C248.466 243.061 248.379 245.019 248.271 245.019Z" fill="#17282F"/>
<path d="M255.8 244.424C255.693 244.424 255.605 243.26 255.605 241.825C255.605 240.388 255.693 239.226 255.8 239.226C255.908 239.226 255.996 240.388 255.996 241.825C255.996 243.26 255.908 244.424 255.8 244.424Z" fill="#17282F"/>
<path d="M262.666 246.61C262.558 246.61 262.471 245.447 262.471 244.012C262.471 242.575 262.558 241.412 262.666 241.412C262.773 241.412 262.861 242.575 262.861 244.012C262.861 245.447 262.773 246.61 262.666 246.61Z" fill="#17282F"/>
<path d="M239.642 222.906C239.593 223.002 237.744 222.157 235.514 221.018C233.283 219.879 231.514 218.877 231.564 218.781C231.612 218.685 233.461 219.531 235.691 220.669C237.922 221.808 239.691 222.81 239.642 222.906Z" fill="#17282F"/>
<path d="M243.304 220.843C243.198 220.86 242.708 218.298 242.211 215.123C241.714 211.946 241.398 209.358 241.504 209.342C241.611 209.325 242.1 211.886 242.597 215.063C243.093 218.238 243.41 220.827 243.304 220.843Z" fill="#17282F"/>
<path d="M247.858 221.368C247.77 221.305 248.91 219.523 250.405 217.386C251.901 215.25 253.185 213.568 253.273 213.63C253.361 213.692 252.221 215.474 250.726 217.61C249.231 219.748 247.947 221.429 247.858 221.368Z" fill="#17282F"/>
<path d="M155.625 158.909H151.434L146.212 162.215V166.169L151.042 163.142H151.166V180H155.625V158.909ZM162.139 180.268C163.457 180.268 164.6 179.166 164.61 177.796C164.6 176.447 163.457 175.345 162.139 175.345C160.779 175.345 159.657 176.447 159.667 177.796C159.657 179.166 160.779 180.268 162.139 180.268ZM175.563 180.463C180.866 180.463 184.069 176.426 184.079 169.475C184.09 162.575 180.846 158.621 175.563 158.621C170.269 158.621 167.056 162.565 167.046 169.475C167.025 176.406 170.249 180.453 175.563 180.463ZM175.563 176.766C173.142 176.766 171.577 174.336 171.587 169.475C171.598 164.686 173.153 162.277 175.563 162.277C177.962 162.277 179.527 164.686 179.527 169.475C179.538 174.336 177.972 176.766 175.563 176.766ZM195.528 180.463C200.832 180.463 204.035 176.426 204.045 169.475C204.055 162.575 200.811 158.621 195.528 158.621C190.235 158.621 187.022 162.565 187.012 169.475C186.991 176.406 190.214 180.453 195.528 180.463ZM195.528 176.766C193.108 176.766 191.543 174.336 191.553 169.475C191.564 164.686 193.119 162.277 195.528 162.277C197.928 162.277 199.493 164.686 199.493 169.475C199.504 174.336 197.938 176.766 195.528 176.766ZM215.494 180.463C220.798 180.463 224.001 176.426 224.011 169.475C224.021 162.575 220.777 158.621 215.494 158.621C210.201 158.621 206.988 162.565 206.977 169.475C206.957 176.406 210.18 180.453 215.494 180.463ZM215.494 176.766C213.074 176.766 211.509 174.336 211.519 169.475C211.529 164.686 213.084 162.277 215.494 162.277C217.894 162.277 219.459 164.686 219.459 169.475C219.469 174.336 217.904 176.766 215.494 176.766ZM228.918 180.268C230.236 180.268 231.379 179.166 231.39 177.796C231.379 176.447 230.236 175.345 228.918 175.345C227.559 175.345 226.436 176.447 226.446 177.796C226.436 179.166 227.559 180.268 228.918 180.268ZM242.342 180.463C247.645 180.463 250.848 176.426 250.859 169.475C250.869 162.575 247.625 158.621 242.342 158.621C237.049 158.621 233.835 162.565 233.825 169.475C233.805 176.406 237.028 180.453 242.342 180.463ZM242.342 176.766C239.922 176.766 238.356 174.336 238.367 169.475C238.377 164.686 239.932 162.277 242.342 162.277C244.741 162.277 246.307 164.686 246.307 169.475C246.317 174.336 244.752 176.766 242.342 176.766ZM262.308 180.463C267.611 180.463 270.814 176.426 270.824 169.475C270.835 162.575 267.591 158.621 262.308 158.621C257.014 158.621 253.801 162.565 253.791 169.475C253.77 176.406 256.994 180.453 262.308 180.463ZM262.308 176.766C259.888 176.766 258.322 174.336 258.333 169.475C258.343 164.686 259.898 162.277 262.308 162.277C264.707 162.277 266.273 164.686 266.273 169.475C266.283 174.336 264.717 176.766 262.308 176.766ZM282.273 180.463C287.577 180.463 290.78 176.426 290.79 169.475C290.8 162.575 287.557 158.621 282.273 158.621C276.98 158.621 273.767 162.565 273.757 169.475C273.736 176.406 276.96 180.453 282.273 180.463ZM282.273 176.766C279.853 176.766 278.288 174.336 278.298 169.475C278.309 164.686 279.864 162.277 282.273 162.277C284.673 162.277 286.238 164.686 286.238 169.475C286.249 174.336 284.683 176.766 282.273 176.766ZM124.075 215H128.215V202.632H133.714V215H137.906V199.182H124.075V215ZM148.554 215.309C153.353 215.309 156.339 212.024 156.339 207.153C156.339 202.251 153.353 198.976 148.554 198.976C143.755 198.976 140.768 202.251 140.768 207.153C140.768 212.024 143.755 215.309 148.554 215.309ZM148.575 211.911C146.36 211.911 145.228 209.882 145.228 207.122C145.228 204.362 146.36 202.323 148.575 202.323C150.748 202.323 151.88 204.362 151.88 207.122C151.88 209.882 150.748 211.911 148.575 211.911ZM157.956 219.634H162.24V215H171.911V219.634H176.092V211.519H173.641V199.182H161.509L161.097 204.352C160.85 207.462 160.551 210.644 159.172 211.519H157.956V219.634ZM163.538 211.519C164.475 210.047 164.836 207.729 165.072 204.352L165.237 202.56H169.501V211.519H163.538ZM178.648 215H182.788V202.632H188.287V215H192.479V199.182H178.648V215ZM200.172 209.212V199.182H195.98V215H200.336L206.011 204.939V215H210.192V199.182H205.867L200.172 209.212ZM220.856 215.309C225.068 215.309 227.714 212.837 227.92 209.202H223.78C223.523 210.891 222.411 211.838 220.907 211.838C218.858 211.838 217.529 210.119 217.529 207.091C217.529 204.104 218.868 202.395 220.907 202.395C222.514 202.395 223.544 203.456 223.78 205.031H227.92C227.735 201.375 224.965 198.976 220.835 198.976C216.036 198.976 213.07 202.302 213.07 207.153C213.07 211.962 215.985 215.309 220.856 215.309ZM244.457 199.182H240.296V206.751C239.545 206.926 238.813 207.009 238.051 207.009C235.724 207.009 234.869 206.391 234.869 204.558V199.161H230.729V204.558C230.729 208.677 233.499 210.458 238.051 210.458C238.741 210.458 239.545 210.366 240.296 210.222V215H244.457V199.182ZM252.054 209.212V199.182H247.863V215H252.219L257.894 204.939V215H262.075V199.182H257.749L252.054 209.212ZM265.592 215H269.979V209.387H271.616L275.519 215H280.73L275.076 207.029L280.668 199.182H275.519L271.214 205.32H269.979V199.182H265.592V215ZM289.079 215.309C293.878 215.309 296.865 212.024 296.865 207.153C296.865 202.251 293.878 198.976 289.079 198.976C284.28 198.976 281.294 202.251 281.294 207.153C281.294 212.024 284.28 215.309 289.079 215.309ZM289.1 211.911C286.886 211.911 285.753 209.882 285.753 207.122C285.753 204.362 286.886 202.323 289.1 202.323C291.273 202.323 292.406 204.362 292.406 207.122C292.406 209.882 291.273 211.911 289.1 211.911ZM299.718 215H307.503C311.458 215 313.661 213.383 313.661 210.685C313.661 208.605 312.014 206.957 309.171 206.751C311.437 206.36 312.786 205.165 312.786 203.456C312.786 200.716 310.366 199.182 306.463 199.182H299.718V215ZM303.806 211.715V208.265H307.503C308.718 208.265 309.46 208.955 309.46 210.077C309.46 211.097 308.718 211.715 307.503 211.715H303.806ZM303.806 205.69V202.539H306.463C307.822 202.539 308.656 203.126 308.656 204.094C308.656 205.093 307.863 205.69 306.556 205.69H303.806Z" fill="white"/>
<path d="M379 201.275L376.269 198.166C374.717 196.399 373.861 194.136 373.86 191.794L373.859 181.416C373.856 174.551 368.758 168.882 362.114 167.877L362.113 163.847C362.112 162.826 361.278 162 360.248 162C359.219 162.001 358.385 162.827 358.385 163.848L358.386 167.803C351.504 168.603 346.162 174.393 346.165 181.425L346.167 191.401C346.168 193.575 345.433 195.688 344.078 197.399L341 201.287L355.102 201.282C355.682 202.731 356.831 203.964 358.285 204.569C360.332 205.417 362.857 204.988 364.499 203.509C365.175 202.901 365.677 202.124 366 201.278L379 201.275Z" fill="white"/>
</svg>
