<svg width="31" height="31" viewBox="0 0 31 31" fill="none" xmlns="http://www.w3.org/2000/svg">
<path fill-rule="evenodd" clip-rule="evenodd" d="M0.82153 0C0.355996 0 0 0.34601 0 0.798485C0 1.25096 0.355996 1.59697 0.82153 1.59697H2.73843V21.2929C2.73843 22.7568 3.97073 23.9545 5.47687 23.9545H19.169C19.6346 23.9545 19.9906 23.6085 19.9906 23.1561C19.9906 22.7036 19.6346 22.3576 19.169 22.3576H5.47687C4.87441 22.3576 4.38149 21.8785 4.38149 21.2929V4.25859H28.2882C28.6442 4.25859 28.9726 4.41807 29.1643 4.71085C29.3834 5.00363 29.4382 5.35006 29.3012 5.66945L25.5498 16.6351C25.139 17.8328 24.0162 18.6313 22.7017 18.6313H7.39377C6.92824 18.6313 6.57224 18.9773 6.57224 19.4298C6.57224 19.8823 6.92824 20.2283 7.39377 20.2283H22.7017C24.7008 20.2283 26.4807 18.9774 27.1105 17.1409L30.8619 6.17474C31.1358 5.34964 30.9993 4.47131 30.479 3.77929C29.9587 3.08727 29.1367 2.66162 28.2604 2.66162H4.38149V0.798485C4.38149 0.34601 4.0255 0 3.55996 0H0.82153ZM5.63636 25.3636C4.08636 25.3636 2.81818 26.6318 2.81818 28.1818C2.81818 29.7318 4.08636 31 5.63636 31C7.18636 31 8.45455 29.7318 8.45455 28.1818C8.45455 26.6318 7.18636 25.3636 5.63636 25.3636ZM16.2045 28.1818C16.2045 26.6318 17.4727 25.3636 19.0227 25.3636C20.5727 25.3636 21.8409 26.6318 21.8409 28.1818C21.8409 29.7318 20.5727 31 19.0227 31C17.4727 31 16.2045 29.7318 16.2045 28.1818Z" fill="#F8F8F8"/>
</svg>
