<svg width="38" height="47" viewBox="0 0 38 47" fill="none" xmlns="http://www.w3.org/2000/svg">
<path fill-rule="evenodd" clip-rule="evenodd" d="M7 12C7 5.36448 12.3645 0 19 0C25.6355 0 31 5.36448 31 12V17H35C36.6455 17 38 18.3545 38 20V44C38 45.6455 36.6455 47 35 47H3C1.35455 47 0 45.6455 0 44V20C0 18.3545 1.35455 17 3 17H7V12ZM29 12C29 6.43552 24.5645 2 19 2C13.4355 2 9 6.43552 9 12V17H29V12ZM3 19H7.83203C7.94002 19.0178 8.05021 19.0178 8.1582 19H29.832C29.94 19.0178 30.0502 19.0178 30.1582 19H35C35.5545 19 36 19.4455 36 20V44C36 44.5545 35.5545 45 35 45H3C2.44545 45 2 44.5545 2 44V20C2 19.4455 2.44545 19 3 19ZM16 30C16 28.3 17.3 27 19 27C20.7 27 22 28.3 22 30C22 30.9 21.6 31.6992 21 32.1992V35C21 36.1 20.1 37 19 37C17.9 37 17 36.1 17 35V32.1992C16.4 31.6992 16 30.9 16 30Z" fill="#000C33"/>
</svg>
