<svg width="36" height="46" viewBox="0 0 36 46" fill="none" xmlns="http://www.w3.org/2000/svg">
<path fill-rule="evenodd" clip-rule="evenodd" d="M2 1C2 0.449219 2.44922 0 3 0H35C35.5508 0 36 0.449219 36 1V45C36 45.5508 35.5508 46 35 46H3C2.44922 46 2 45.5508 2 45V27H0V21H2V1ZM34 2H4V21H10V27H4V44H34V2ZM12 7V19H26V7H12ZM15 9H14V17H15V9ZM17 9H18V17H17V9ZM21 9H20V17H21V9ZM23 9H24V17H23V9ZM2.83203 23H2V25H2.84375C2.94922 24.9805 3.05859 24.9805 3.16797 25H8V23H3.15625C3.05078 23.0195 2.94141 23.0195 2.83203 23ZM12 29V34H26V29H12ZM24 31H14V32H24V31Z" fill="#000C33"/>
</svg>
