<svg width="75" height="75" viewBox="0 0 75 75" fill="none" xmlns="http://www.w3.org/2000/svg">
<path d="M75 37.5C75 58.125 58.125 75 37.5 75C16.875 75 0 58.125 0 37.5C0 16.875 16.875 0 37.5 0C58.125 0 75 16.875 75 37.5Z" fill="#D40828"/>
<path d="M47 32H43.2V28.2857C43.2 27.3571 42.82 22.7143 37.5 22.7143C32.18 22.7143 31.8 27.3571 31.8 28.2857V32H28V28.2857C28 25.1286 29.9 19 37.5 19C45.1 19 47 25.1286 47 28.2857V32Z" fill="white"/>
<path d="M49.625 53H26.375C24.5 53 23 51.4667 23 49.55V33.45C23 31.5333 24.5 30 26.375 30H49.625C51.5 30 53 31.5333 53 33.45V49.55C53 51.4667 51.5 53 49.625 53Z" fill="white"/>
<path d="M42 41C42 43.2 40.2 45 38 45C35.8 45 34 43.2 34 41C34 38.8 35.8 37 38 37C40.2 37 42 38.8 42 41Z" fill="#C62828"/>
</svg>
