<svg width="110" height="100" viewBox="0 0 110 100" fill="none" xmlns="http://www.w3.org/2000/svg">
<path d="M44.1015 79.9655C38.5959 79.9655 34.1156 84.448 34.1156 89.9513C34.1156 95.4569 38.5959 99.9372 44.1015 99.9372C49.6071 99.9372 54.0873 95.4569 54.0873 89.9513C54.0873 84.4457 49.6093 79.9655 44.1015 79.9655Z" fill="#FFB168"/>
<path d="M75.3951 79.9655C69.8895 79.9655 65.4092 84.448 65.4092 89.9513C65.4092 95.4569 69.8895 99.9372 75.3951 99.9372C80.8984 99.9372 85.3809 95.4569 85.3809 89.9513C85.3809 84.4457 80.8984 79.9655 75.3951 79.9655Z" fill="#FFB168"/>
<path d="M99.8582 25.3297C99.4387 24.7927 98.7954 24.4799 98.1118 24.4799H23.0826L16.8979 1.70108C16.8845 1.65236 16.8492 1.61442 16.8314 1.56794C16.7826 1.42364 16.7094 1.29719 16.6317 1.16852C16.5584 1.04653 16.4918 0.926782 16.3985 0.822279C16.3074 0.718147 16.201 0.64042 16.0902 0.555999C15.9749 0.467115 15.8637 0.380834 15.7328 0.316496C15.6108 0.254389 15.4799 0.223149 15.3445 0.183356C15.2002 0.141331 15.0604 0.105629 14.9075 0.094472C14.8543 0.0922406 14.8097 0.0632324 14.7543 0.0632324H2.54969C1.32465 0.0632324 0.330566 1.05732 0.330566 2.28236C0.330566 3.50739 1.32465 4.50148 2.54969 4.50148H13.057L19.2327 27.2513L30.3235 72.1808C30.5675 73.1727 31.4574 73.8696 32.4783 73.8696H87.0143C88.0352 73.8696 88.9229 73.1749 89.1691 72.1808L100.264 27.2312C100.431 26.5677 100.28 25.8686 99.8582 25.3297Z" fill="#FFB168"/>
</svg>
