<svg width="100" height="101" viewBox="0 0 100 101" fill="none" xmlns="http://www.w3.org/2000/svg">
<g clip-path="url(#clip0)">
<path d="M49.9998 0.5C22.4286 0.5 0 22.9306 0 50.4998C0 78.069 22.4286 100.5 49.9998 100.5C77.5711 100.5 99.9996 78.069 99.9996 50.4998C99.9996 22.9306 77.5714 0.5 49.9998 0.5ZM66.6817 52.5407H52.041V67.1793C52.041 68.308 51.1288 69.2202 50.0002 69.2202C48.8715 69.2202 47.9593 68.308 47.9593 67.1793V52.5407H33.3183C32.1917 52.5407 31.2774 51.6264 31.2774 50.4998C31.2774 49.3732 32.1917 48.459 33.3183 48.459H47.959V33.8183C47.959 32.6917 48.8711 31.7774 49.9998 31.7774C51.1285 31.7774 52.0407 32.6917 52.0407 33.8183V48.459H66.6814C67.81 48.459 68.7222 49.3732 68.7222 50.4998C68.7222 51.6264 67.81 52.5407 66.6817 52.5407Z" fill="#FFB168"/>
</g>
<defs>
<clipPath id="clip0">
<rect width="100" height="100" fill="white" transform="translate(0 0.5)"/>
</clipPath>
</defs>
</svg>
