<svg width="28" height="28" viewBox="0 0 28 28" fill="none" xmlns="http://www.w3.org/2000/svg">
<path d="M22.1692 23.7605C21.9778 23.6146 21.7244 23.6826 21.6031 23.9128C20.5787 25.8543 18.8275 27.0135 16.9183 27.0135H6.36383C3.3071 27.0135 0.820312 24.0225 0.820312 20.3464V8.52501C0.820312 8.25269 0.636597 8.03175 0.410156 8.03175C0.183716 8.03175 0 8.25269 0 8.52501V20.3464C0 24.5667 2.85486 28 6.36383 28H16.9183C19.1099 28 21.1203 26.6695 22.2956 24.4413C22.417 24.2114 22.3604 23.9064 22.1692 23.7605ZM18.5632 10.6525L15.436 14.4136C15.2758 14.6063 15.2758 14.9187 15.436 15.1111C15.5159 15.2075 15.621 15.2558 15.7259 15.2558C15.8307 15.2558 15.9359 15.2075 16.016 15.1111L19.1432 11.3502C19.3034 11.1576 19.3034 10.8452 19.1432 10.6525C18.9832 10.4601 18.7234 10.4601 18.5632 10.6525V10.6525ZM27.4066 2.43421L25.977 0.714978C25.1857 -0.23687 23.898 -0.23687 23.1068 0.714978L21.6227 2.49972C20.417 0.904834 18.7273 0 16.9183 0H6.36383C4.89987 0 3.47052 0.612728 2.33896 1.72514C1.22342 2.82163 0.443054 4.35358 0.142059 6.03839C0.0944214 6.3048 0.235413 6.56711 0.45694 6.6244C0.485992 6.63159 0.515045 6.63545 0.543457 6.63545C0.732727 6.63545 0.902771 6.47719 0.944 6.24572C1.20633 4.77877 1.88586 3.44464 2.85806 2.48893C3.84351 1.52013 5.0885 0.986531 6.36383 0.986531H16.9183C18.5068 0.986531 19.99 1.78757 21.0419 3.19826L16.6801 8.44383H5.24252C5.01587 8.44383 4.83215 8.66451 4.83215 8.93709C4.83215 9.20942 5.01587 9.43036 5.24252 9.43036H15.8598L13.8932 11.7952H5.24252C5.01587 11.7952 4.83215 12.0161 4.83215 12.2887C4.83215 12.5611 5.01587 12.782 5.24252 12.782H13.0729L10.5286 15.8418C9.79141 16.7284 9.18814 17.7509 8.7359 18.8808L7.56845 21.7974C7.24545 22.6049 7.37704 23.5359 7.90384 24.1695C8.2388 24.5723 8.67395 24.783 9.11914 24.783C9.37378 24.783 9.63184 24.7139 9.87601 24.5726L11.0526 23.8915C11.0529 23.8913 11.0533 23.8913 11.0535 23.891L12.3015 23.1688C13.2408 22.625 14.091 21.8994 14.8284 21.0128L22.462 11.8325V20.3464C22.462 20.8867 22.4082 21.4239 22.302 21.9434C22.248 22.208 22.3826 22.4749 22.6026 22.5399C22.6355 22.5497 22.6684 22.5543 22.7007 22.5543C22.8852 22.5543 23.0527 22.4038 23.0986 22.1787C23.2206 21.5824 23.2823 20.9658 23.2823 20.3464V10.8459L24.4225 9.4748C24.4227 9.47455 24.4227 9.47455 24.4227 9.47429C24.4229 9.47429 24.4229 9.47429 24.4229 9.47403L27.4066 5.88604C28.1978 4.93419 28.1978 3.3858 27.4066 2.43421V2.43421ZM9.52032 23.6837C9.09222 23.9316 8.70428 23.7369 8.48383 23.472C8.26358 23.2068 8.10165 22.7403 8.3078 22.2255L8.65387 21.3604C8.94269 21.6382 9.22296 21.9393 9.49063 22.2612C9.7583 22.5831 10.0087 22.9201 10.2396 23.2675L9.52032 23.6837ZM11.9456 22.2799L10.9965 22.8292C10.7151 22.3904 10.4052 21.9657 10.0706 21.5637C9.73608 21.1613 9.38297 20.7883 9.01831 20.4502L9.47504 19.3088C9.79034 18.5213 10.186 17.7915 10.6553 17.1302L13.7571 20.8605C13.2072 21.4247 12.6003 21.9007 11.9456 22.2799ZM14.3561 20.1856L11.2165 16.4098L20.413 5.34962L23.5526 9.12541L14.3561 20.1856ZM24.1328 8.4279L20.9932 4.65211L22.0057 3.43436L25.1456 7.21015L24.1328 8.4279ZM26.8266 5.18828L25.7256 6.51239L22.5859 2.73659L23.6867 1.41249C23.9226 1.12886 24.2321 0.987301 24.5419 0.987301C24.8514 0.987301 25.1612 1.12886 25.3968 1.41249L26.8264 3.13172C27.2978 3.69872 27.2978 4.62128 26.8266 5.18828V5.18828ZM5.24252 6.07872H18.0398C18.2663 6.07872 18.45 5.85804 18.45 5.58546C18.45 5.31288 18.2663 5.09219 18.0398 5.09219H5.24252C5.01587 5.09219 4.83215 5.31288 4.83215 5.58546C4.83215 5.85804 5.01587 6.07872 5.24252 6.07872Z" fill="#FFBD98"/>
</svg>
