<svg width="20" height="20" viewBox="0 0 20 20" fill="none" xmlns="http://www.w3.org/2000/svg">
<path fill-rule="evenodd" clip-rule="evenodd" d="M13.0523 13.0523C13.1684 12.9361 13.3063 12.8439 13.458 12.781C13.6098 12.7181 13.7724 12.6857 13.9367 12.6857C14.101 12.6857 14.2636 12.7181 14.4154 12.781C14.5671 12.8439 14.705 12.9361 14.8211 13.0523L19.6335 17.8648C19.8681 18.0992 19.9999 18.4171 20 18.7487C20.0001 19.0803 19.8685 19.3983 19.6341 19.6329C19.3997 19.8674 19.0818 19.9993 18.7502 19.9994C18.4186 19.9995 18.1006 19.8679 17.866 19.6335L13.0536 14.8211C12.9374 14.705 12.8452 14.5671 12.7823 14.4154C12.7194 14.2636 12.687 14.101 12.687 13.9367C12.687 13.7724 12.7194 13.6098 12.7823 13.458C12.8452 13.3063 12.9374 13.1684 13.0536 13.0523H13.0523Z" fill="url(#paint0_linear)"/>
<path fill-rule="evenodd" clip-rule="evenodd" d="M8.1249 14.9998C9.02772 14.9998 9.92171 14.822 10.7558 14.4765C11.5899 14.131 12.3478 13.6246 12.9862 12.9862C13.6246 12.3478 14.131 11.5899 14.4765 10.7558C14.822 9.92171 14.9998 9.02773 14.9998 8.1249C14.9998 7.22207 14.822 6.32809 14.4765 5.49398C14.131 4.65988 13.6246 3.90199 12.9862 3.2636C12.3478 2.62521 11.5899 2.1188 10.7558 1.77331C9.92171 1.42781 9.02772 1.24998 8.1249 1.24998C6.30156 1.24998 4.5529 1.9743 3.2636 3.2636C1.9743 4.5529 1.24998 6.30156 1.24998 8.1249C1.24998 9.94824 1.9743 11.6969 3.2636 12.9862C4.5529 14.2755 6.30156 14.9998 8.1249 14.9998ZM16.2498 8.1249C16.2498 10.2798 15.3938 12.3464 13.8701 13.8701C12.3464 15.3938 10.2798 16.2498 8.1249 16.2498C5.97004 16.2498 3.90344 15.3938 2.37973 13.8701C0.856013 12.3464 0 10.2798 0 8.1249C0 5.97004 0.856013 3.90344 2.37973 2.37973C3.90344 0.856014 5.97004 0 8.1249 0C10.2798 0 12.3464 0.856014 13.8701 2.37973C15.3938 3.90344 16.2498 5.97004 16.2498 8.1249Z" fill="url(#paint1_linear)"/>
<defs>
<linearGradient id="paint0_linear" x1="0" y1="0" x2="20" y2="0" gradientUnits="userSpaceOnUse">
<stop stop-color="#DD3333"/>
<stop offset="0.489772" stop-color="#E14E2E"/>
<stop offset="1" stop-color="#E1642E"/>
</linearGradient>
<linearGradient id="paint1_linear" x1="0" y1="0" x2="20" y2="0" gradientUnits="userSpaceOnUse">
<stop stop-color="#DD3333"/>
<stop offset="0.489772" stop-color="#E14E2E"/>
<stop offset="1" stop-color="#E1642E"/>
</linearGradient>
</defs>
</svg>
