<svg width="28" height="35" viewBox="0 0 28 35" fill="none" xmlns="http://www.w3.org/2000/svg">
<path d="M14.5078 4.897C14.5078 5.18165 14.2803 5.41236 13.9998 5.41236C13.7197 5.41236 13.4921 5.18165 13.4921 4.897C13.4921 4.61234 13.7197 4.38163 13.9998 4.38163C14.2803 4.38163 14.5078 4.61234 14.5078 4.897Z" fill="#FFBD98"/>
<path d="M12.0404 1.57834C13.249 0.841342 14.7508 0.841342 15.9593 1.57834C16.0409 1.62801 16.1306 1.65178 16.219 1.65178C16.3905 1.65178 16.5578 1.56312 16.6525 1.4029C16.7962 1.16044 16.7188 0.845348 16.4797 0.69955C14.9502 -0.233183 13.0496 -0.233183 11.5201 0.69955C11.281 0.845348 11.2036 1.16044 11.3475 1.4029C11.4909 1.64563 11.8011 1.72414 12.0404 1.57834Z" fill="#FFBD98"/>
<path d="M15.107 3.53327C15.2782 3.53327 15.4455 3.44435 15.5405 3.2844C15.6839 3.04141 15.6065 2.72658 15.3674 2.58078C14.5237 2.06675 13.4759 2.06675 12.6323 2.58078C12.3932 2.72658 12.3158 3.04141 12.4592 3.2844C12.6028 3.52713 12.913 3.60564 13.1524 3.45984C13.6751 3.14154 14.3246 3.14154 14.8473 3.45984C14.9289 3.50951 15.0183 3.53327 15.107 3.53327Z" fill="#FFBD98"/>
<path d="M13.9999 6.5782C6.28045 6.5782 0 12.953 0 20.789C0 28.6249 6.28045 35 13.9999 35C21.7196 35 28 28.6249 28 20.789C28 12.953 21.7196 6.5782 13.9999 6.5782ZM13.9999 33.9746C7.00651 33.9746 1.28718 28.3355 1.0207 21.3017H1.63575C2.46178 21.3017 3.13865 20.6693 3.20967 19.8309C3.2273 19.6255 3.25071 19.4183 3.27939 19.2151C3.31885 18.9347 3.12733 18.6749 2.85111 18.6348C2.57516 18.5948 2.31919 18.7892 2.27947 19.0696C2.24817 19.292 2.22238 19.5184 2.20344 19.7427C2.17766 20.0469 1.93354 20.2765 1.63575 20.2765H1.0207C1.28718 13.2427 7.00651 7.60359 13.9999 7.60359C20.9935 7.60359 26.7128 13.2427 26.9793 20.2765H26.3643C26.0665 20.2765 25.8226 20.0469 25.7966 19.7427C25.5427 16.7571 24.2032 13.9899 22.0244 11.9506C19.8328 9.89951 16.983 8.76998 13.9999 8.76998C11.5252 8.76998 9.15471 9.53689 7.14462 10.9879C5.17873 12.4072 3.70319 14.3677 2.87742 16.6575C2.7814 16.9234 2.91609 17.2177 3.17811 17.3152C3.43986 17.4124 3.73002 17.2759 3.82604 17.01C4.394 15.4348 5.29868 14.0299 6.47748 12.8777V18.0492C6.47748 19.2383 7.43057 20.2058 8.60201 20.2058H19.398C20.5694 20.2058 21.5223 19.2383 21.5223 18.0492V12.8793C23.4074 14.7266 24.5651 17.1851 24.7901 19.8309C24.8614 20.6693 25.538 21.3017 26.3643 21.3017H26.979C26.7128 28.3355 20.9935 33.9746 13.9999 33.9746ZM7.48766 12.0056C7.56789 11.9442 7.64787 11.8827 7.73021 11.8235C9.56825 10.4966 11.7362 9.7951 13.9999 9.7951C16.3672 9.7951 18.6422 10.5732 20.5123 12.0042V18.0495C20.5123 18.673 20.0125 19.1806 19.398 19.1806H8.60201C7.98749 19.1806 7.48766 18.673 7.48766 18.0495V12.0056Z" fill="#FFBD98"/>
<path d="M25.2259 22.4774C24.9523 22.4237 24.6871 22.6058 24.6345 22.8838C23.6549 28.0404 19.1822 31.7831 13.9998 31.7831C8.81712 31.7831 4.34473 28.0399 3.36533 22.883C3.31246 22.605 3.04729 22.4229 2.7737 22.4766C2.49985 22.5303 2.3207 22.7992 2.37331 23.0771C3.44425 28.7157 8.33387 32.8082 13.9998 32.8082C19.6655 32.8082 24.5551 28.716 25.6263 23.0779C25.6791 22.8 25.4997 22.5311 25.2259 22.4774Z" fill="#FFBD98"/>
<path d="M13.9998 30.0687C16.3619 30.0687 18.2836 28.1181 18.2836 25.7205C18.2836 23.3228 16.3619 21.3722 13.9998 21.3722C11.638 21.3722 9.71628 23.3228 9.71628 25.7205C9.71628 28.1181 11.638 30.0687 13.9998 30.0687ZM13.9998 22.3975C15.805 22.3975 17.2734 23.8884 17.2734 25.7205C17.2734 27.5528 15.805 29.0434 13.9998 29.0434C12.1949 29.0434 10.7265 27.5525 10.7265 25.7205C10.7265 23.8881 12.1949 22.3975 13.9998 22.3975Z" fill="#FFBD98"/>
<path d="M13.9998 15.2745C14.8737 15.2745 15.5845 14.5528 15.5845 13.666C15.5845 12.7792 14.8737 12.0574 13.9998 12.0574C13.1262 12.0574 12.4154 12.7792 12.4154 13.666C12.4154 14.5528 13.1262 15.2745 13.9998 15.2745ZM13.9998 13.0828C14.3168 13.0828 14.5746 13.3445 14.5746 13.666C14.5746 13.9875 14.3168 14.2492 13.9998 14.2492C13.6831 14.2492 13.4253 13.9875 13.4253 13.666C13.4253 13.3445 13.6831 13.0828 13.9998 13.0828Z" fill="#FFBD98"/>
<path d="M10.2214 14.1787H10.7612C11.04 14.1787 11.2663 13.949 11.2663 13.666C11.2663 13.3829 11.04 13.1533 10.7612 13.1533H10.2214C9.94251 13.1533 9.71628 13.3829 9.71628 13.666C9.71628 13.949 9.94251 14.1787 10.2214 14.1787Z" fill="#FFBD98"/>
<path d="M17.2388 14.1787H17.7786C18.0575 14.1787 18.2837 13.949 18.2837 13.666C18.2837 13.3829 18.0575 13.1533 17.7786 13.1533H17.2388C16.9599 13.1533 16.7337 13.3829 16.7337 13.666C16.7337 13.949 16.9599 14.1787 17.2388 14.1787Z" fill="#FFBD98"/>
</svg>
