<svg width="29" height="30" viewBox="0 0 29 30" fill="none" xmlns="http://www.w3.org/2000/svg">
<path d="M28.8278 12.6186L24.9139 9.41382V1.47187C24.9139 1.21232 24.7232 1.00208 24.4882 1.00208H19.0967C18.8618 1.00208 18.6713 1.21232 18.6713 1.47187V4.30232L14.7536 1.09462C14.6031 0.971318 14.3969 0.971318 14.2464 1.09462L0.172153 12.6186C0.0245774 12.7392 -0.0360457 12.9507 0.0214798 13.1431C0.0792267 13.3355 0.242068 13.4656 0.425708 13.4656H3.17808V29.5302C3.17808 29.7898 3.36858 30 3.60377 30H25.3962C25.6312 30 25.8219 29.7898 25.8219 29.5302V20.2817C25.8219 20.0224 25.6312 19.8121 25.3962 19.8121C25.1613 19.8121 24.9705 20.0224 24.9705 20.2817V29.0604H4.02946V12.9958C4.02946 12.7363 3.83874 12.526 3.60377 12.526H1.71362L14.5 2.05666L18.8432 5.61304C19.1189 5.83865 19.5224 5.61377 19.5224 5.23579V1.94166H24.0625V9.65018C24.0625 9.79888 24.1265 9.93879 24.2347 10.0274L27.2864 12.526H25.3962C25.1613 12.526 24.9705 12.7363 24.9705 12.9958V18.0688C24.9705 18.3283 25.1613 18.5385 25.3962 18.5385C25.6312 18.5385 25.8219 18.3283 25.8219 18.0688V13.4656H28.5743C28.7579 13.4656 28.9208 13.3355 28.9785 13.1433C29.036 12.9509 28.9754 12.7392 28.8278 12.6186Z" fill="#FFBD98"/>
<path d="M16.316 10.2714H12.684C11.0724 10.2714 9.76122 11.7183 9.76122 13.4969V17.5489C8.86869 17.6585 8.17219 18.4956 8.17219 19.5094V27.025C8.17219 27.2846 8.36269 27.4948 8.59788 27.4948H20.4021C20.6371 27.4948 20.8278 27.2846 20.8278 27.025V19.5094C20.8278 18.4956 20.1313 17.6585 19.2388 17.5489V13.4969C19.2388 11.7183 17.9276 10.2714 16.316 10.2714ZM12.684 11.2109H16.316C17.4581 11.2109 18.3874 12.2365 18.3874 13.4969V17.5365H17.8767V13.4969C17.8767 12.5473 17.1767 11.7745 16.316 11.7745H12.684C11.8233 11.7745 11.1232 12.5473 11.1232 13.4969V17.5365H10.6126V13.4969C10.6126 12.2365 11.5419 11.2109 12.684 11.2109ZM17.0254 17.5365H11.9746V13.4969C11.9746 13.0652 12.2928 12.7141 12.684 12.7141H16.316C16.7072 12.7141 17.0254 13.0652 17.0254 13.4969V17.5365ZM19.9764 19.5094V26.5552H9.02357V19.5094C9.02357 18.9395 9.4435 18.476 9.9599 18.476H19.0401C19.5565 18.476 19.9764 18.9397 19.9764 19.5094Z" fill="#FFBD98"/>
<path d="M14.5 19.5406C13.5143 19.5406 12.7123 20.4258 12.7123 21.5135C12.7123 22.4394 13.2935 23.2181 14.0743 23.4296V25.0208C14.0743 25.2804 14.265 25.4906 14.5 25.4906C14.735 25.4906 14.9257 25.2804 14.9257 25.0208V23.4296C15.7065 23.2181 16.2877 22.4394 16.2877 21.5135C16.2877 20.4258 15.4857 19.5406 14.5 19.5406ZM14.5 22.5469C13.9836 22.5469 13.5637 22.0834 13.5637 21.5135C13.5637 20.9436 13.9836 20.4802 14.5 20.4802C15.0164 20.4802 15.4363 20.9436 15.4363 21.5135C15.4363 22.0834 15.0164 22.5469 14.5 22.5469Z" fill="#FFBD98"/>
<path d="M6.78184 2.00417C5.04501 2.00417 3.63209 3.56345 3.63209 5.48021C3.63209 5.73952 3.82259 5.94999 4.05778 5.94999C4.29275 5.94999 4.48347 5.73952 4.48347 5.48021C4.48347 4.08159 5.51451 2.94374 6.78184 2.94374C7.01681 2.94374 7.20753 2.73327 7.20753 2.47395C7.20753 2.2144 7.01681 2.00417 6.78184 2.00417Z" fill="#FFBD98"/>
<path d="M2.24174 5.94999C2.47671 5.94999 2.66743 5.73952 2.66743 5.48021C2.66743 2.97646 4.51312 0.939575 6.78184 0.939575C7.01681 0.939575 7.20753 0.729099 7.20753 0.469788C7.20753 0.210232 7.01681 0 6.78184 0C4.04362 0 1.81606 2.45833 1.81606 5.48021C1.81606 5.73952 2.00655 5.94999 2.24174 5.94999Z" fill="#FFBD98"/>
<path d="M6.78184 4.00833C6.0464 4.00833 5.44813 4.66858 5.44813 5.4802C5.44813 5.73952 5.63863 5.94999 5.87382 5.94999C6.10879 5.94999 6.29951 5.73952 6.29951 5.4802C6.29951 5.18671 6.51589 4.94791 6.78184 4.94791C7.01681 4.94791 7.20753 4.73743 7.20753 4.47812C7.20753 4.21857 7.01681 4.00833 6.78184 4.00833Z" fill="#FFBD98"/>
</svg>
