<svg width="28" height="30" viewBox="0 0 28 30" fill="none" xmlns="http://www.w3.org/2000/svg">
<path d="M5.70557 21.0998C4.01674 21.0998 2.64275 22.4944 2.64275 24.2087C2.64275 25.9229 4.01674 27.3176 5.70557 27.3176C7.39446 27.3176 8.76845 25.9229 8.76845 24.2087C8.76845 22.4944 7.39446 21.0998 5.70557 21.0998ZM5.70557 26.4386C4.49419 26.4386 3.50864 25.4382 3.50864 24.2087C3.50864 22.9791 4.49419 21.9786 5.70557 21.9786C6.91701 21.9786 7.90256 22.979 7.90256 24.2087C7.90256 25.4383 6.91701 26.4386 5.70557 26.4386Z" fill="#FFBD98"/>
<path d="M23.511 9.7169L23.1548 10.0784L15.7078 2.51953C14.1072 0.894844 11.9759 5.85938e-05 9.70644 0C9.70632 0 9.70632 0 9.70615 0C7.43671 0 5.30542 0.894785 3.70508 2.51953C2.10192 4.1468 1.219 6.31014 1.219 8.61111C1.219 10.9121 2.10192 13.0755 3.70502 14.7027L3.95902 14.9606C3.47735 15.3538 3.04031 15.8079 2.65609 16.3173C1.66366 17.6329 1.11463 19.197 1.061 20.8487C0.393344 21.7969 0 22.957 0 24.2087C0 27.402 2.55951 30 5.70557 30C6.22522 30 6.72871 29.9287 7.20749 29.796H21.5315C22.9072 29.796 23.9813 28.5793 23.829 27.1842C23.5518 24.6516 22.7673 22.3743 21.4976 20.4154C18.6045 15.9516 13.8097 14.0972 11.209 13.3891C10.7187 13.2556 10.2147 13.1707 9.71112 13.1368C9.71106 13.1368 9.711 13.1368 9.711 13.1368C8.97898 13.0874 8.25007 13.1426 7.53785 13.3008L6.3121 12.0566C5.40557 11.1364 4.9063 9.91283 4.9063 8.61117C4.9063 7.30951 5.40551 6.0859 6.31204 5.1658C8.18386 3.26637 11.2291 3.26637 13.1003 5.16574L17.7009 9.83537C17.87 10.007 18.1441 10.0069 18.3131 9.83537C18.4822 9.66375 18.4822 9.38549 18.3131 9.21387L17.4017 8.28873L18.7846 6.88547L22.5426 10.7L21.1601 12.1033L19.5271 10.4459C19.358 10.2742 19.0838 10.2743 18.9148 10.4459C18.7457 10.6175 18.7457 10.8957 18.9148 11.0674L20.5478 12.7247L20.1915 13.0864C19.6366 13.6496 19.331 14.3984 19.331 15.1949C19.331 15.9913 19.6366 16.7402 20.1915 17.3034C20.6374 17.756 21.363 17.756 21.809 17.3034L27.6656 11.3588C28.1115 10.9061 28.1115 10.1696 27.6656 9.7169C26.52 8.55428 24.6564 8.55434 23.511 9.7169ZM10.1151 14.0609C10.4078 14.1009 10.6988 14.1601 10.9847 14.2379C13.4078 14.8977 17.8233 16.5948 20.5769 20.6027L20.1843 21.0013C19.4243 21.7727 18.179 21.7771 17.4058 20.979C15.745 19.2618 13.6322 18.0414 11.4113 17.2296C10.6366 16.9462 10.1152 16.1967 10.1152 15.3657V14.0609H10.1151ZM9.24925 13.9983V15.3656C9.24925 16.5727 10.0065 17.65 11.1177 18.0564C13.2351 18.8303 15.2312 19.9852 16.7881 21.595C17.8898 22.7322 19.6866 22.7493 20.7965 21.6228L21.0584 21.357C22.0858 23.0937 22.7278 25.0838 22.9683 27.2811C23.0614 28.1338 22.4149 28.917 21.5315 28.917H9.02522C10.35 27.9487 11.2342 26.4417 11.3871 24.7382C11.3871 24.7379 11.3871 24.7375 11.3872 24.7371C11.5269 23.177 11.0394 21.6611 10.0937 20.5072C9.94063 20.3204 9.66765 20.2953 9.48396 20.4504C9.30074 20.6051 9.27465 20.8821 9.42803 21.0693C10.1334 21.9304 10.5453 23.0393 10.5453 24.2086C10.5453 26.8945 8.39335 29.121 5.70557 29.121C3.03696 29.121 0.865889 26.9173 0.865889 24.2086C0.865889 20.3756 5.04097 18.0149 8.24701 20.0275C8.45038 20.1551 8.71725 20.0913 8.84298 19.8849C8.96876 19.6785 8.90584 19.4077 8.70247 19.28C6.65251 17.9931 3.94684 18.1427 2.04927 19.759C2.25131 18.7073 2.68939 17.7188 3.34354 16.8516C4.97245 14.6924 7.10462 14.3547 7.29754 14.268C7.90545 14.0915 8.56855 13.9935 9.24925 13.9983ZM5.69974 4.54424C4.62968 5.63039 4.04035 7.07473 4.04035 8.61111C4.04035 10.1475 4.62968 11.5919 5.69974 12.678L6.57337 13.5648C6.54 13.5751 6.36775 13.63 6.19491 13.6929C5.65812 13.8879 5.14892 14.139 4.67378 14.4432L4.31732 14.0813C2.87769 12.62 2.08483 10.6774 2.08483 8.61117C2.08483 6.54498 2.87764 4.6023 4.31732 3.14104C5.75423 1.68217 7.66814 0.878848 9.70644 0.878906C11.7446 0.878965 13.6585 1.68229 15.0956 3.14098L18.1722 6.26391L16.7893 7.66723L13.7126 4.54424C11.5037 2.30221 7.90926 2.30221 5.69974 4.54424ZM27.0533 10.7372L21.1966 16.6819C21.0883 16.7918 20.912 16.7918 20.8037 16.6819C20.4123 16.2847 20.1969 15.7566 20.1969 15.1949C20.1969 14.6332 20.4123 14.1051 20.8037 13.7079L24.1233 10.3384C24.5272 9.92836 25.0577 9.72346 25.5882 9.72346C26.1187 9.72346 26.6493 9.92848 27.0532 10.3384C27.1615 10.4483 27.1615 10.6273 27.0533 10.7372Z" fill="#FFBD98"/>
</svg>
