<svg width="21" height="20" viewBox="0 0 21 20" fill="none" xmlns="http://www.w3.org/2000/svg">
<path fill-rule="evenodd" clip-rule="evenodd" d="M0 10C0 4.486 4.486 0 10 0C12.185 0 14.2036 0.71225 15.8516 1.90625L14.4199 3.33789C13.1519 2.49389 11.633 2 10 2C5.589 2 2 5.589 2 10C2 14.411 5.589 18 10 18C14.411 18 18 14.411 18 10C18 9.453 17.9448 8.91834 17.8398 8.40234L19.459 6.7832C19.804 7.7942 20 8.874 20 10C20 15.514 15.514 20 10 20C4.486 20 0 15.514 0 10ZM9 11.5859L19.293 1.29297L20.707 2.70703L9 14.4141L4.29297 9.70703L5.70703 8.29297L9 11.5859Z" fill="white"/>
</svg>
