<svg width="46" height="46" viewBox="0 0 46 46" fill="none" xmlns="http://www.w3.org/2000/svg">
<path fill-rule="evenodd" clip-rule="evenodd" d="M0 23C0 10.3093 10.3093 0 23 0C35.6907 0 46 10.3093 46 23C46 35.6907 35.6907 46 23 46C10.3093 46 0 35.6907 0 23ZM44 23C44 11.3902 34.6098 2 23 2C11.3902 2 2 11.3902 2 23C2 34.6098 11.3902 44 23 44C34.6098 44 44 34.6098 44 23ZM18 11V26H15V28H18V30H15V32H18V36H20V32H24V30H20V28H24.5C28.828 28 32.2783 24.6913 32.7969 20.5H33V19.5C33 14.8175 29.1825 11 24.5 11H18ZM24.5 13H20V26H24.5C28.1015 26 31 23.1015 31 19.5C31 15.8985 28.1015 13 24.5 13Z" fill="white"/>
</svg>
